<?xml version="1.0" encoding="utf-8" ?>
<svg baseProfile="full" height="360.0045310035348" version="1.1" width="378.2138334698975" xmlns="http://www.w3.org/2000/svg" xmlns:ev="http://www.w3.org/2001/xml-events" xmlns:xlink="http://www.w3.org/1999/xlink"><defs /><rect fill="white" height="360.0045310035348" width="378.2138334698975" x="0" y="0" /><path d="M25,25.09298938512802 m0.0,0.0 m0.06860188394784927,0.17481844127178192 l0.06012572720646858,-0.1682480424642563 m0.3754502236843109,-0.04846987873315811 l0.2143266350030899,-0.05108990520238876 0.5562648773193359,0.09275154024362564 m0.11207375675439835,0.44829821586608887 l0.6081299185752869,0.6951929926872253 0.7380613088607788,0.8185142278671265 l0.8512552380561829,0.9291655421257019 0.9478374719619751,1.0235443115234375 l0.9779942631721497,0.3842684328556061 0.9994409680366516,0.3917800486087799 l1.1550867557525635,1.2066479921340942 1.0287137031555176,0.4233013391494751 l1.248966097831726,1.2804391384124756 1.282806158065796,1.3123050928115845 l1.3125200271606445,1.33320152759552 1.3348326683044434,1.346835732460022 l1.3511977195739746,1.3554003238677979 1.3627375364303589,1.3601958751678467 l1.3705891370773315,1.3629664182662964 1.3756006956100464,1.364184021949768 l0.9867123365402222,0.6113654375076294 1.380693793296814,1.3525830507278442 l0.711797833442688,0.8411513566970825 1.3778190612792969,1.3460018634796143 l1.3751006126403809,1.3418132066726685 0.9639163017272949,0.689730703830719 l1.3756434917449951,1.3204799890518188 0.8005282282829285,0.8136891722679138 l0.8079090118408203,0.8091601729393005 0.8162187933921814,0.8114719390869141 l0.8227196931838989,0.8149998188018799 1.382320761680603,1.2785252332687378 l0.8339376449584961,0.8329371809959412 0.8296661972999573,0.8370178937911987 l0.825742244720459,0.8440396785736084 1.395404577255249,1.2686572074890137 l1.3972159624099731,1.2726656198501587 0.9899773001670837,0.7335034608840942 l0.7974927425384521,0.8718946576118469 0.9845089316368103,0.7153804898262024 l0.9822139739990234,0.7041260600090027 0.7658434510231018,0.8875114321708679 l0.7565006017684937,0.894734263420105 0.7465077042579651,0.9015207290649414 l1.4142647981643677,1.2737425565719604 0.7307674884796143,0.9210545420646667 l0.7175279855728149,0.9227755069732666 1.4172799587249756,1.2864073514938354 l0.7001410126686096,0.9362584948539734 0.6878339648246765,0.9337196946144104 l0.6785556674003601,0.9333778619766235 0.6713027954101562,0.9314219951629639 l0.6658404469490051,0.9295300841331482 1.4324781894683838,1.3114161491394043 l1.4354751110076904,1.318663239479065 0.6640235781669617,0.9312450289726257 l0.6594827771186829,0.9235952496528625 1.4549568891525269,1.3251029253005981 l0.6612440347671509,0.9266847968101501 0.6571999192237854,0.9170461297035217 l0.6548193097114563,0.9134017825126648 0.6526855230331421,0.9089768528938293 l0.650571346282959,0.902732253074646 0.6486746072769165,0.8955859541893005 l1.4921557903289795,1.3547942638397217 0.6500421166419983,0.8900967240333557 l0.6456004977226257,0.8753455281257629 0.643539309501648,0.8664274215698242 l0.6422600150108337,0.8594030737876892 0.6410230398178101,0.8518786430358887 l0.6393406391143799,0.8456070423126221 0.6371170878410339,0.8404877185821533 l0.6343868970870972,0.8350765705108643 0.6308596730232239,0.8303903937339783 l0.6270754337310791,0.824607253074646 0.6231024265289307,0.8193244934082031 l0.619310736656189,0.8129281997680664 0.6160710453987122,0.8054996132850647 l1.0181483030319214,0.4714483916759491 0.6107840538024902,0.7845361828804016 l0.6121065616607666,0.7719302773475647 0.61297208070755,0.7604622840881348 l0.6151074767112732,0.7495111227035522 0.6180750131607056,0.7400545477867126 l0.6211408376693726,0.7319959402084351 0.6242207288742065,0.7248778343200684 m0.6370260715484619,0.7386584877967834 l1.4480276107788086,1.5429009199142456 0.6336837410926819,0.7291421294212341 l0.6278266310691833,0.7168947458267212 0.6235020756721497,0.7133156657218933 l1.029150366783142,0.3327960968017578 1.0302882194519043,0.3217304050922394 l0.6066087484359741,0.6994885206222534 0.6017153263092041,0.6958519816398621 l0.5959483981132507,0.6909075379371643 0.5904847979545593,0.6858169436454773 l0.5852870345115662,0.6803163290023804 0.5800511240959167,0.6735095381736755 l0.5752336978912354,0.6666514873504639 0.5705194473266602,0.6593061089515686 l0.5661990642547607,0.6507515907287598 0.562229573726654,0.6424362659454346 l0.5587086081504822,0.6335302591323853 1.4900561571121216,1.6837635040283203 l0.5612703561782837,0.6262620091438293 0.5546618700027466,0.6082722544670105 l0.5528911352157593,0.5977776050567627 1.5044909715652466,1.6807150840759277 l0.5613628625869751,0.590086042881012 0.5578984618186951,0.5744374990463257 l0.5595195889472961,0.5668241381645203 0.5625274777412415,0.5615278482437134 l0.5663978457450867,0.5574107766151428 1.4947882890701294,1.6558880805969238 l0.583466649055481,0.564024806022644 0.5829539895057678,0.5571032762527466 l0.9995571970939636,0.32494011521339417 1.0021830797195435,0.3236413300037384 l1.0076696872711182,0.3228125274181366 0.6000621914863586,0.5649630427360535 l1.021093726158142,0.3237344026565552 0.6070498824119568,0.5748371481895447 l0.6102051138877869,0.5803437232971191 0.6119789481163025,0.5863021612167358 l0.6131858229637146,0.5920625329017639 0.6135422587394714,0.5971618294715881 l0.6128697991371155,0.6020113229751587 0.6112353205680847,0.6064659953117371 l0.6086601614952087,0.6101489663124084 0.6051031947135925,0.6144618391990662 l0.6008422374725342,0.6192767024040222 1.1153569221496582,0.3146894872188568 l0.5904092192649841,0.6253611445426941 0.5851501226425171,0.6272531747817993 l0.57940673828125,0.6316694021224976 0.5746103525161743,0.635364830493927 l1.1388493776321411,0.32684969902038574 0.5665061473846436,0.642279863357544 l0.5643475651741028,0.6421375274658203 0.5627558827400208,0.6455228328704834 l1.1494245529174805,0.3462650775909424 0.56394362449646,0.6495216488838196 l0.5666237473487854,0.6490188837051392 1.1573309898376465,0.3630633056163788 l0.5748995542526245,0.6547892093658447 1.457527995109558,1.4152607917785645 l0.5978030562400818,0.6724799871444702 0.5999482870101929,0.6659180521965027 l0.6070322394371033,0.669493556022644 0.6151078343391418,0.6734485030174255 l1.1895424127578735,0.40027186274528503 0.6321318745613098,0.6855926513671875 l0.6403467059135437,0.6901783347129822 0.6484520435333252,0.6967236995697021 l0.656426727771759,0.7037280797958374 0.6638689041137695,0.7111915946006775 l1.527838945388794,1.4244384765625 0.686050534248352,0.7390865683555603 l0.6853271722793579,0.7373090386390686 0.6884796023368835,0.7427153587341309 l0.6913719177246094,0.7493163347244263 m0.6966276168823242,0.7740069627761841 l0.6922159790992737,0.7689388394355774 0.6941909193992615,0.7726052403450012 l0.6956977248191833,0.7786034345626831 1.5450756549835205,1.3938325643539429 l0.705060601234436,0.803440272808075 0.6984989643096924,0.8000702261924744 l0.6952481865882874,0.8053533434867859 1.5547045469284058,1.3616429567337036 l0.6976093053817749,0.8264970183372498 0.6882102489471436,0.8213757276535034 l0.68247389793396,0.8221724033355713 0.6769589781761169,0.8238570690155029 l1.1925023794174194,0.42207247018814087 0.6646987199783325,0.8230148553848267 l1.5444021224975586,1.3004239797592163 0.6624025702476501,0.8335620760917664 l0.6515389084815979,0.8235670328140259 0.6445875763893127,0.8218862414360046 l1.5260409116744995,1.2785552740097046 0.642388641834259,0.8302082419395447 l0.631512463092804,0.8201172351837158 0.6250978112220764,0.8169957399368286 l1.1425011157989502,0.44016915559768677 0.6132373809814453,0.8127678632736206 l0.6087872385978699,0.8091332316398621 0.6041914820671082,0.8090741634368896 l1.485753059387207,1.240540623664856 1.1169531345367432,0.45365405082702637 l1.4788655042648315,1.2284811735153198 1.4730066061019897,1.229877233505249 l0.5997368693351746,0.8183624744415283 0.5898112654685974,0.8084383010864258 l1.0893843173980713,0.4673548936843872 0.5801360011100769,0.8026590943336487 l0.577096164226532,0.8003019690513611 0.574129045009613,0.799172580242157 l1.4571551084518433,1.1978602409362793 0.5782100558280945,0.8088681101799011 l0.5707385540008545,0.7995818853378296 0.5674236416816711,0.7983143925666809 l0.5649865865707397,0.7964211106300354 0.5626851916313171,0.7958810329437256 l1.4433568716049194,1.1811580657958984 1.0471839904785156,0.46525293588638306 l0.5593662261962891,0.7940547466278076 1.0401606559753418,0.45998990535736084 l1.0354530811309814,0.4531242251396179 m1.4333829879760742,1.1647112369537354 l0.5577529668807983,0.7996980547904968 1.034694790840149,0.4506404399871826 l1.0297694206237793,0.44389307498931885 1.4288523197174072,1.1659355163574219 l0.5519446730613708,0.7936782240867615 1.0268949270248413,0.4424717128276825 l1.0192509889602661,0.4349171221256256 0.5363981127738953,0.7801998853683472 l1.0112378597259521,0.43058329820632935 0.5295378565788269,0.7784913182258606 l1.4183241128921509,1.1553099155426025 1.4142755270004272,1.1542919874191284 l0.5332870483398438,0.791232705116272 0.9959654808044434,0.4303509294986725 l0.9861380457878113,0.42205220460891724 0.5124664306640625,0.7751601934432983 l0.5090592503547668,0.7742652297019958 0.5055192112922668,0.7740455269813538 l0.9660530686378479,0.41710135340690613 1.3949354887008667,1.115574598312378 l0.5038033723831177,0.782163679599762 1.3915482759475708,1.1173073053359985 l0.5012677907943726,0.7835123538970947 1.3874071836471558,1.1137205362319946 l0.49840840697288513,0.7845853567123413 1.3837395906448364,1.1103435754776 l0.4959627687931061,0.783836305141449 1.3806405067443848,1.107323169708252 l0.4937703609466553,0.7832086086273193 0.4867185354232788,0.7747753262519836 l0.4837687611579895,0.7726495265960693 0.9441128373146057,0.41338539123535156 l0.9399523138999939,0.40550699830055237 0.9387401938438416,0.4015392065048218 l0.47392985224723816,0.7633126974105835 1.3664381504058838,1.0904721021652222 l0.48182180523872375,0.7745740413665771 0.9426168203353882,0.40996310114860535 l0.47437602281570435,0.7660132050514221 0.4741065502166748,0.7646883130073547 l1.3624356985092163,1.0901449918746948 0.48142504692077637,0.7757155895233154 l1.3636199235916138,1.0932927131652832 0.48334988951683044,0.7779933214187622 l1.3646142482757568,1.0944589376449585 0.9470975399017334,0.4149327576160431 l1.3661041259765625,1.0897835493087769 0.4841660261154175,0.7782497406005859 l0.4786144196987152,0.7697523236274719 0.47692957520484924,0.7678548693656921 l1.364210605621338,1.093559741973877 0.48333069682121277,0.7774354815483093 l0.47804173827171326,0.7693209052085876 1.363587498664856,1.0934154987335205 l0.4833759069442749,0.778441309928894 0.47795385122299194,0.7689210772514343 l0.4759845733642578,0.7686764597892761 0.9373840689659119,0.40920355916023254 l1.3609894514083862,1.0846679210662842 0.48066747188568115,0.77471524477005 l0.9412047863006592,0.40920117497444153 0.9363622069358826,0.4035261273384094 l0.47122782468795776,0.7621395587921143 0.4713301658630371,0.7624492645263672 l0.4711310863494873,0.7632530331611633 0.9337060451507568,0.40509915351867676 l0.9314275979995728,0.3988554775714874 0.4687955677509308,0.7600827217102051 l0.933196485042572,0.40079131722450256 0.467959463596344,0.7602848410606384 l0.9326238036155701,0.4003632664680481 0.930180549621582,0.3967057168483734 m0.92574143409729,0.40189221501350403 l1.3582656383514404,1.0749502182006836 0.47648268938064575,0.7704114317893982 l0.47290322184562683,0.7639083862304688 0.9381653070449829,0.40775036811828613 l1.3603155612945557,1.0821856260299683 0.48022428154945374,0.7732091546058655 l0.4755891263484955,0.766106128692627 m0.9338361024856567,0.416267991065979 l0.47332197427749634,0.7665643692016602 0.47298017144203186,0.7643813490867615 l0.47277969121932983,0.7649310827255249 0.4728487730026245,0.7644582390785217 l0.47270530462265015,0.764656126499176 0.9344785809516907,0.40506404638290405 m0.9272197484970093,0.40604618191719055 l0.9313809275627136,0.39441007375717163 0.4684530794620514,0.7609813809394836 l0.46950671076774597,0.7605525851249695 0.9344265460968018,0.402678519487381 l0.9321604371070862,0.3980795443058014 1.3586831092834473,1.078773021697998 l1.3577899932861328,1.0872722864151 0.4816854000091553,0.775155246257782 l0.47650381922721863,0.7676222324371338 0.9401998519897461,0.41133350133895874 l0.473049134016037,0.7652621865272522 0.47303661704063416,0.7637403607368469 l0.47246092557907104,0.7645412087440491 1.359351634979248,1.0894025564193726 l0.941048264503479,0.40895092487335205 0.4739774167537689,0.7660156488418579 l0.47311580181121826,0.7648835182189941 0.4723929762840271,0.764869749546051 l0.9345000982284546,0.40590065717697144 0.4702671766281128,0.7624716758728027 l0.9336115717887878,0.4022013545036316 0.46888482570648193,0.7612407207489014 l0.4693417549133301,0.7617110013961792 0.4693906307220459,0.7615252733230591 l1.3554222583770752,1.0856451988220215 0.4778892397880554,0.7736228704452515 l1.3580505847930908,1.0891767740249634 0.9425864219665527,0.4104599058628082 l1.3606711626052856,1.0851378440856934 1.3595012426376343,1.091825008392334 l1.362458348274231,1.0957531929016113 0.48649805784225464,0.7802136540412903 l0.9484813809394836,0.41827818751335144 0.9419770836830139,0.4100892245769501 l0.4748355746269226,0.7647750377655029 m0.9347878694534302,0.41430193185806274 l1.365594506263733,1.083413004875183 0.9451283812522888,0.40852537751197815 l1.3679674863815308,1.087031602859497 0.48403340578079224,0.7759066820144653 l0.9469791054725647,0.4130438566207886 m0.48635879158973694,0.7769613265991211 l0.4771812856197357,0.7680299282073975 0.47589027881622314,0.7666318416595459 l1.3655307292938232,1.091687560081482 0.9458448886871338,0.41127556562423706 l0.47731176018714905,0.767558753490448 0.47634759545326233,0.766918957233429 m0.485113263130188,0.7770232558250427 l0.9369429349899292,0.4061161279678345 0.935372531414032,0.40096092224121094 l0.4720960855484009,0.7626501321792603 m0.9326555728912354,0.40933117270469666 l0.7754981517791748,2.0186235904693604 0.951196551322937,0.4197452664375305 l0.943537712097168,0.41057664155960083 0.4758870005607605,0.7666585445404053 l0.9409791827201843,0.40715450048446655 1.3638750314712524,1.0843710899353027 l0.4816415011882782,0.774057149887085 0.47663992643356323,0.76753830909729 l0.9400301575660706,0.40955817699432373 0.9363455772399902,0.40289023518562317 l0.9355093240737915,0.3994387090206146 0.47062259912490845,0.7606989145278931 l0.47108256816864014,0.7617546319961548 1.3606277704238892,1.0877741575241089 l0.4797612428665161,0.7744653224945068 1.362181544303894,1.0915201902389526 l1.360159993171692,1.093540906906128 0.4852977395057678,0.7792396545410156 l0.47921326756477356,0.7712321281433105 0.7730536460876465,2.0139212608337402 l0.49086758494377136,0.7873545289039612 0.945717453956604,0.4213414788246155 l0.9400888681411743,0.41004401445388794 0.4750646650791168,0.7667422294616699 l1.3632084131240845,1.0910370349884033 0.9437006711959839,0.40991711616516113 l1.3648192882537842,1.0873926877975464 0.946806013584137,0.4108382761478424 l1.3665412664413452,1.0879266262054443 0.48349037766456604,0.7758383750915527 l0.47806987166404724,0.7686272263526917 0.47659990191459656,0.767926812171936 l1.3644025325775146,1.0936896800994873 1.362338900566101,1.0954408645629883 l0.4863923490047455,0.7797286510467529 0.946705162525177,0.4156394898891449 m0.48647716641426086,0.7786027193069458 l0.4768526256084442,0.769599437713623 0.9389947056770325,0.4087306261062622 l1.3643159866333008,1.0848307609558105 1.363100290298462,1.0922842025756836 l0.48553532361984253,0.7783483266830444 0.9475177526473999,0.4142550230026245 l0.47669607400894165,0.7674019932746887 0.9411755800247192,0.40890833735466003 l0.9372224807739258,0.4029805064201355 " fill="none" stroke="black" stroke-width="1" /></svg>