<?xml version="1.0" encoding="utf-8" ?>
<svg baseProfile="full" height="69.732686482992" version="1.1" width="92.95874456968158" xmlns="http://www.w3.org/2000/svg" xmlns:ev="http://www.w3.org/2001/xml-events" xmlns:xlink="http://www.w3.org/1999/xlink"><defs /><rect fill="white" height="69.732686482992" width="92.95874456968158" x="0" y="0" /><path d="M25.53674067929387,25 m0.0,0.0 m-0.1712762713432312,0.05451299622654915 l0.024309048429131508,0.1348343789577484 0.024854566901922226,0.1301206648349762 l0.2667098343372345,-0.0319865383207798 0.06320974975824356,0.11023924499750137 l0.06857718527317047,0.10125213116407394 0.06962887197732925,0.09324560314416885 l0.02745777927339077,0.2597401440143585 0.06052388250827789,0.07366950064897537 m0.05164763331413269,-0.06289532035589218 l0.10650724172592163,0.4802270233631134 -0.08848850429058075,0.03796432539820671 l-0.41081058979034424,-0.16119149327278137 -0.27398648858070374,0.24083130061626434 l-0.3556046187877655,-0.21532294154167175 0.3319372832775116,0.41434186697006226 m0.3326549828052521,0.393281489610672 m0.3383239209651947,0.3635770380496979 l0.34779807925224304,0.08505289256572723 0.3541853129863739,0.2845722436904907 l0.3611315190792084,0.25371426343917847 m0.3679083287715912,0.23178336024284363 l0.3707079291343689,0.2040538638830185 0.17006085813045502,-0.024208156391978264 l-0.21430543065071106,0.19805237650871277 0.3763481676578522,0.1460167020559311 l0.2771690785884857,-0.28353628516197205 0.22038249671459198,0.25516650080680847 l0.37757226824760437,0.12628214061260223 -0.10494117438793182,0.1870693564414978 m-0.10259344428777695,0.20005455613136292 l-0.07329688966274261,-0.0042404793202877045 m-0.11633997410535812,0.20893776416778564 m0.3876548409461975,0.16943588852882385 l-0.1514851450920105,0.21216677129268646 0.40178245306015015,0.17685306072235107 l-0.1979355663061142,0.2082718461751938 0.2661914527416229,-0.04661545529961586 l0.26896747946739197,-0.02437230385839939 m0.2220091074705124,0.0047159562818706036 l-0.0646745041012764,-0.4224676191806793 -0.05515097454190254,-0.4372160732746124 l-0.04710765182971954,-0.4473073482513428 -0.039927512407302856,-0.45182159543037415 l0.4725525379180908,0.056255899369716644 -0.02180936373770237,-0.44710013270378113 m0.16038334369659424,-0.3093782961368561 l-0.011118743568658829,-0.43441739678382874 m-0.1462475061416626,-0.2596071660518646 l0.0012940242886543274,-0.4110826253890991 0.17221559584140778,0.3060466945171356 l0.28115716576576233,0.30019035935401917 -0.019821256399154663,0.08090957999229431 l0.2610169053077698,0.35004445910453796 0.252297967672348,0.3729736804962158 l0.31672197580337524,0.0834333524107933 m0.14925897121429443,0.2571224868297577 l0.05906498059630394,-0.3674727976322174 m0.0625762790441513,-0.3838169276714325 l0.2400282770395279,0.4391160011291504 0.07418324798345566,-0.4067901372909546 l0.2443234771490097,0.09291975200176239 0.24075187742710114,0.4552420377731323 l0.5270062685012817,0.12947183847427368 0.23602479696273804,0.46893632411956787 l0.22790846228599548,0.47619083523750305 0.18310298025608063,-0.03932756185531616 m0.20689170062541962,0.4816533029079437 l0.18679222464561462,-0.06848126649856567 0.35232746601104736,0.0804021954536438 l0.0529453419148922,-0.4764454662799835 0.5908473134040833,0.17468613386154175 l0.21179983019828796,-0.1215188279747963 m0.4496079087257385,0.05717509239912033 m0.20319132506847382,-0.12375687807798386 l0.44502678513526917,0.18614764511585236 -0.16133339703083038,0.030499780550599098 m0.5676285624504089,0.15275314450263977 l0.044621992856264114,-0.4428335428237915 0.3124661147594452,0.08989005535840988 l0.29705899953842163,0.08911337703466415 0.04010036960244179,-0.4217875599861145 l0.03915131464600563,-0.3999232053756714 m0.26232537627220154,0.06143677234649658 l0.2386142462491989,-0.3051520884037018 0.22533926367759705,0.04044273868203163 l0.2080470472574234,0.034535493701696396 0.4199845492839813,-0.1577504277229309 l0.1891934871673584,0.017303166911005974 0.5004635453224182,0.26571282744407654 l0.19205398857593536,-0.11773675680160522 m0.18419092893600464,0.01776147074997425 l0.16373759508132935,-0.31507423520088196 -0.06251494586467743,0.0197885911911726 l0.36934077739715576,0.4766292870044708 0.5361419916152954,0.2527903616428375 l0.01755654625594616,0.32283860445022583 m0.28124314546585083,-0.3248295187950134 l0.346797376871109,-0.15259791910648346 0.35797119140625,-0.14413820207118988 l0.31454339623451233,-0.34686917066574097 0.3199288547039032,0.4698086678981781 l0.18240751326084137,0.09255418926477432 0.38169750571250916,-0.018531642854213715 l0.29773351550102234,-0.37278732657432556 m0.170466348528862,0.13155469298362732 l0.2739095687866211,-0.37751543521881104 0.06514137983322144,0.1959843635559082 l0.07370064407587051,0.20477963984012604 0.36663615703582764,-0.020820045843720436 m0.5670939683914185,0.15544696152210236 l0.49604862928390503,0.34519287943840027 0.1808408945798874,-0.29021114110946655 m0.08407897502183914,0.16853067278862 l0.16094286739826202,-0.2639515697956085 m0.262014776468277,0.1904667764902115 l0.08731099218130112,0.2289840131998062 m0.05593172460794449,0.16626711189746857 l0.2018837034702301,0.012216280214488506 m0.5211756229400635,0.21797215938568115 m0.5141891837120056,0.22810953855514526 l0.051039256155490875,0.13141538202762604 m0.49701550602912903,0.2846153974533081 m0.10917692631483078,0.0008483337587676942 m0.044128309935331345,0.25582289695739746 m0.04161921888589859,0.09034900367259979 m0.03659622743725777,0.07639873027801514 l0.05582329258322716,0.0036471658386290073 0.1970062404870987,0.19827784597873688 l0.31684747338294983,0.23663459718227386 0.010775910690426826,0.02385396882891655 l0.04415186867117882,0.034391868859529495 m-0.2766972482204437,-0.13995078206062317 l0.5064786672592163,0.11274216324090958 0.24414512515068054,0.03581443428993225 l0.2671526074409485,0.2550346255302429 m-0.1720518320798874,-0.027166584506630898 l0.061090368777513504,0.30126315355300903 0.24013745784759521,0.22344644367694855 m0.02818959951400757,-0.3470105230808258 l-0.0537860207259655,-0.002315135672688484 m0.43822580575942993,-0.002774848137050867 m0.046458639204502106,0.20257531106472015 l0.45500150322914124,-0.021754015237092972 -0.05818188190460205,-0.025538574904203415 l0.2421865314245224,-0.013686902821063995 0.24404330551624298,0.013320116326212883 m0.4964006543159485,-0.0710749477148056 l0.13097552955150604,-0.04267358034849167 0.4307112991809845,0.0003938114969059825 m-0.052104365080595016,-0.06614329665899277 m0.26643672585487366,-0.13618133962154388 l0.11838266253471375,0.2221120446920395 m0.04056592658162117,0.21326005458831787 l0.23843060433864594,-0.11502417922019958 m-0.05117131024599075,-0.0745062381029129 l0.11568717658519745,0.20108932256698608 0.19431275129318237,-0.02344735525548458 l0.11400281637907028,0.18472817540168762 0.0767524391412735,-0.0477006621658802 m0.17166680097579956,-0.08709962666034698 l0.10951867699623108,0.17562134563922882 m0.1068631112575531,0.18593305349349976 m0.05180146545171738,0.17921572923660278 m0.30511531233787537,0.001920538954436779 m-0.038858700543642044,-0.0366177074611187 l0.057737577706575394,0.07589228451251984 m-0.03482966125011444,-0.029008198529481888 l0.06471660733222961,0.05681684985756874 m0.13950985670089722,-0.010033546015620232 m0.18431517481803894,0.12875425815582275 m0.18050335347652435,0.07549069076776505 l0.02884063683450222,-0.022138278931379318 -0.025117898359894753,-0.006813467014580965 m0.11837253719568253,-0.11781204491853714 l0.01791064254939556,-0.01712597720324993 0.08867170661687851,0.012877809815108776 l0.09313870966434479,0.01048087328672409 m0.14171341061592102,0.04837252199649811 l0.08986084908246994,0.10048717260360718 -0.11491530388593674,0.1130019873380661 l0.0725606381893158,0.13850156962871552 m0.08900623768568039,0.002744833240285516 m0.09833401441574097,0.03658396750688553 m0.03755458444356918,-0.013179399073123932 l0.07170981913805008,0.1341685950756073 0.1268031746149063,0.03909112513065338 m0.21954181790351868,0.1229126825928688 m0.0721566453576088,0.11244062334299088 l0.08387499302625656,0.14764998853206635 0.1258327066898346,-0.08489473909139633 l0.038266852498054504,0.11819134652614594 0.05934583395719528,0.14425449073314667 l0.08503208309412003,0.12751929461956024 m0.03178967535495758,-0.022099727764725685 m-0.14458686113357544,0.11147435009479523 l0.08543895184993744,0.14153166115283966 m0.08456025272607803,0.0006917555583640933 l0.22199060022830963,0.11776735633611679 -0.06837501376867294,-0.029314186424016953 l0.22687256336212158,0.11297424882650375 m0.07987729460000992,0.10944720357656479 m-0.14499825239181519,0.11097964644432068 m0.13161441683769226,0.049959663301706314 l-0.02801511622965336,0.015205522067844868 m-0.0280443225055933,0.015589126385748386 m0.21307744085788727,0.1268385946750641 l0.13374048471450806,0.04448721185326576 -0.02447490207850933,0.013089338317513466 m0.14040514826774597,0.049944620579481125 m0.07068067789077759,0.11127375066280365 l0.14630846679210663,0.05330991372466087 -0.050171274691820145,-0.02902751788496971 l-0.07160446047782898,-0.02864658460021019 m0.0999126210808754,0.1064014881849289 l-0.04448774456977844,-0.025009391829371452 -0.13646240532398224,-0.042287543416023254 l0.005436349660158157,-0.0020888801664114 m-0.025717901065945625,0.013851958326995373 m0.09344520419836044,0.03354164958000183 m-0.15256603062152863,0.10839135944843292 l0.10036918520927429,0.1113879382610321 0.09293871372938156,0.0020290520042181015 l0.12109677493572235,0.03990871086716652 0.10004077851772308,4.609695679391734e-05 m0.14322848618030548,0.0490887276828289 m0.0717461034655571,0.11236678063869476 m0.08167888224124908,0.0009993232088163495 m0.10815379023551941,0.11327977478504181 l0.046922098845243454,0.11947187781333923 -0.06662700325250626,-0.029023760929703712 l0.0963187888264656,0.10735861957073212 m0.088165283203125,-0.000640111044049263 m-0.14636114239692688,0.10951323807239532 l0.08904589712619781,0.0007000763434916735 0.14918510615825653,0.054494623094797134 l0.10423710942268372,0.014852330088615417 m-0.13610664010047913,-0.04012274369597435 m0.21431216597557068,0.12603582441806793 l0.099310964345932,0.10883259773254395 m0.052406832575798035,0.12216603010892868 l-0.02654755301773548,0.015584069304168224 0.009661777876317501,-0.003378964262083173 l0.0851525217294693,0.1293158382177353 0.11718925088644028,0.04189400374889374 m0.09141768515110016,-0.0009900365257635713 l0.0150053221732378,-0.004437360446900129 m0.05133281275629997,0.12002258002758026 l0.10110335797071457,0.02229163609445095 m0.09764913469552994,0.032117486000061035 m0.06973087787628174,0.11146709322929382 l0.04497309774160385,0.11923353374004364 m0.09640605002641678,0.034620050340890884 l0.0904918983578682,0.09910192340612411 -0.13712304830551147,-0.03989284858107567 l0.22591274976730347,0.11293402314186096 m0.10039331018924713,0.10792297124862671 m0.10348454862833023,0.1113375648856163 l0.1308990716934204,0.04744216427206993 m0.029949232935905457,-0.009479157626628876 l0.2234993577003479,0.11701171100139618 m0.09881941229104996,0.03345654532313347 m0.13661834597587585,0.04747025668621063 l0.0461549386382103,0.11960199475288391 0.09851163625717163,0.10975542664527893 l0.16358298063278198,0.17462269961833954 0.05800671502947807,0.14714081585407257 l0.13514143228530884,-0.08124659210443497 0.13882823288440704,-0.0840691551566124 l-0.019446218386292458,0.01120119821280241 -0.04961653798818588,-0.03226108103990555 m0.08687625080347061,0.13877072930335999 l0.12417908012866974,0.04919644817709923 0.1622667908668518,0.17543841898441315 m0.21927985548973083,0.12482919543981552 l0.09759766608476639,0.002000842010602355 -0.1336953043937683,-0.04331083968281746 l0.08640369027853012,0.12689045071601868 m0.13206826150417328,0.05970423296093941 l0.09627803415060043,0.10643639415502548 -0.13333259522914886,-0.042443495243787766 m0.21727320551872253,0.12338525056838989 m0.07046790421009064,0.11264442652463913 m-0.1530090719461441,0.10850528627634048 l0.08712068945169449,0.0014662138419225812 0.011571780778467655,-0.004537859931588173 m0.024096282199025154,-0.02606961503624916 l0.22303441166877747,0.11592655628919601 0.13091067969799042,-0.08614560961723328 l0.1661776751279831,0.17163297533988953 0.10252281278371811,0.0008100467384792864 m-0.07041899859905243,-0.031566571444272995 l-0.12321040034294128,0.11403876543045044 -0.1183764711022377,0.1153949573636055 m0.08724452555179596,-0.0010899112094193697 l0.08964113891124725,0.0988079160451889 0.06138215586543083,0.14301906526088715 l0.09398788213729858,0.10624314099550247 0.006870696321129799,0.0007159363012760878 m-0.024132879450917244,0.01592162996530533 m0.11353373527526855,-0.09674909710884094 m0.03715410828590393,-0.013247163034975529 l-0.027389168739318848,0.012569868937134743 m-0.1456649899482727,0.10835818946361542 l0.08789420127868652,0.14513394236564636 m0.08407751470804214,0.15404877066612244 m-0.029693078249692917,0.01820010505616665 l0.11864877492189407,-0.09035360813140869 -0.024771152064204216,0.011248472146689892 l0.06001513451337814,0.13933874666690826 m0.14193156361579895,0.0507182851433754 m0.08544249087572098,0.1556236743927002 l0.0887727290391922,0.10114343464374542 0.09779354184865952,0.10948366671800613 m0.07802756875753403,0.10990063846111298 m0.0206812284886837,-0.021665602922439575 l0.15595634281635284,0.17668287456035614 m0.14025798439979553,0.0501992404460907 m0.2159866988658905,0.12720273435115814 m0.136350616812706,0.047576043754816055 m0.06809332966804504,0.1127815917134285 m0.06695029884576797,0.11250229179859161 m0.07507146894931793,0.0016812548274174333 m0.0664241760969162,0.1109863817691803 l0.06439747661352158,0.13423077762126923 0.10092960298061371,0.021063867956399918 m0.11296892166137695,-0.09211312979459763 m0.0320272222161293,-0.012997531332075596 m-0.029026495292782784,0.014515883289277554 l0.10203396528959274,0.11028824001550674 0.01113906316459179,-0.00544315529987216 m0.08510371297597885,-0.0007721181027591228 m0.03237955644726753,-0.011880735866725445 m-0.029372019693255424,0.015115744434297085 l0.019416645169258118,-0.0345141738653183 m0.14824797213077545,0.1789110153913498 l0.22314971685409546,0.11731818318367004 0.0113039156422019,-0.004106895066797733 l-0.07046322524547577,-0.028674323111772537 m-0.024964777752757072,0.014148260466754436 m0.11179029196500778,-0.09776830673217773 l-0.02623659558594227,0.011582644656300545 0.010396124795079231,-0.005933006294071674 l0.00686234887689352,-0.0038618664257228374 0.09296108782291412,0.10196144133806229 l0.005763030610978603,-0.0008824089309200644 m0.02313896268606186,-0.006108799483627081 l-0.024697255343198776,0.013271698728203773 m0.09638921916484833,0.029952963814139366 m-0.14313888549804688,-0.0362652949988842 m0.06473683565855026,0.11004206538200378 l-0.13677895069122314,0.10878538340330124 m0.14563903212547302,0.18266329169273376 l0.11992808431386948,-0.0876481682062149 -0.02412368357181549,0.011999685317277908 m0.07704166322946548,0.10718367248773575 l0.0415712408721447,0.11868323385715485 0.16153240203857422,0.1757119596004486 m0.13449297845363617,0.05975475534796715 m-0.06473096460103989,-0.03182258829474449 m0.21306182444095612,0.12776508927345276 l0.2221907675266266,0.11892405152320862 m0.10606545209884644,0.11329390108585358 l-0.04650421813130379,-0.02445986494421959 0.06065239757299423,0.13954100012779236 l0.0365314707159996,0.11880266666412354 -0.13170555233955383,-0.04235457256436348 m0.04722885414958,0.11928939074277878 l-0.025989694520831108,0.015014725737273693 m0.08613119274377823,-0.0011385856196284294 l0.14606204628944397,0.05286887288093567 -0.13551552593708038,-0.042435649782419205 m0.02402946911752224,-0.00830575916916132 l0.09096013009548187,0.141744926571846 m-0.0671672597527504,-0.030039669945836067 l0.0913393571972847,0.00028049369575455785 0.09616688638925552,0.10468501597642899 l0.16399270296096802,0.1739201694726944 m0.079404816031456,0.11050067842006683 l0.06370547413825989,0.14410899579524994 0.08534964174032211,0.1339745819568634 l0.09925578534603119,0.0985821932554245 0.136366605758667,-0.08239628374576569 l0.04050739109516144,-0.03376976400613785 0.08716163784265518,0.12296224385499954 l0.16543559730052948,0.1748441755771637 m-0.023284079506993294,0.017574697732925415 l-0.043013814836740494,-0.02377369813621044 m0.027475321665406227,-0.007796209771186113 l-0.025400638580322266,0.013462990522384644 0.09669817984104156,0.14178265631198883 m0.10065854340791702,0.10865668207406998 l0.08552475273609161,0.13925006985664368 0.09601707756519318,0.10800324380397797 l0.09950792789459229,0.0981079488992691 0.22763592004776,0.11398646980524063 l0.13719283044338226,-0.08179531246423721 m-0.02152942307293415,0.014519894495606422 l-0.12251250445842743,0.11460187286138535 m0.02688782662153244,-0.024117672815918922 " fill="none" stroke="black" stroke-width="1" /></svg>