<?xml version="1.0" encoding="utf-8" ?>
<svg baseProfile="full" height="122.9534530187957" version="1.1" width="189.28961774893105" xmlns="http://www.w3.org/2000/svg" xmlns:ev="http://www.w3.org/2001/xml-events" xmlns:xlink="http://www.w3.org/1999/xlink"><defs /><rect fill="white" height="122.9534530187957" width="189.28961774893105" x="0" y="0" /><path d="M25.041238674893975,25.140005439519882 m0.0,0.0 m0.040109530091285706,-0.1400054395198822 m-0.02620450221002102,0.2638346552848816 l-0.055143702775239944,0.4454440474510193 0.012868284247815609,0.4595682919025421 l0.4925190210342407,0.12185302376747131 m0.012604987248778343,0.022613750770688057 m0.6296236515045166,0.17877663671970367 l-0.07565271854400635,0.2796667218208313 -0.29540881514549255,0.2925536036491394 l0.45787349343299866,0.2921026051044464 0.24760033190250397,0.4254578948020935 l0.8571309447288513,0.15613000094890594 0.8973379731178284,0.16058644652366638 l0.9255273342132568,0.17234253883361816 0.2876530587673187,-0.03537698835134506 l0.9543234705924988,0.2106439471244812 -0.17558276653289795,0.0900091826915741 l0.9508944153785706,0.2571813464164734 0.945124089717865,0.2816283404827118 l0.04790237545967102,0.41224411129951477 -0.22002486884593964,0.13046760857105255 l0.8886354565620422,0.3304581344127655 0.8366860747337341,0.08271423727273941 l0.846672534942627,0.3513909578323364 m-0.23809848725795746,0.2057427167892456 l0.800028920173645,0.36393317580223083 -0.25746285915374756,0.22665756940841675 l0.28793784976005554,-0.260210782289505 0.749154269695282,0.36625298857688904 l0.7359780073165894,0.3694749176502228 0.7261309027671814,0.37246450781822205 l0.8872544169425964,0.10352925211191177 0.719623327255249,0.3781765103340149 l0.8832827806472778,0.11102274060249329 0.7210950255393982,0.38306835293769836 l-0.18530206382274628,0.2927497327327728 0.3160087466239929,-0.030057212337851524 l0.8848023414611816,0.13664944469928741 0.31520897150039673,-0.014085585251450539 l-0.13283990323543549,0.30029135942459106 0.30057841539382935,0.009073357097804546 l0.2988411486148834,0.023069972172379494 0.8261539340019226,0.201693594455719 l0.8158798813819885,0.4268006682395935 0.30115047097206116,0.06965845823287964 l-0.021307719871401787,0.3095811605453491 m0.7803605198860168,0.2691310942173004 l0.9401758313179016,0.07788845151662827 0.8832993507385254,0.48030614852905273 l0.05714873597025871,0.3043918013572693 0.7234629988670349,0.3150661885738373 l0.708696186542511,0.32656130194664 0.894115149974823,0.49742352962493896 l0.6764938235282898,0.3527798354625702 0.8906026482582092,0.5018460750579834 l0.8879438638687134,0.5041483044624329 0.8858877420425415,0.5067445039749146 m0.877953290939331,0.1549472063779831 l0.8918546438217163,0.5161901116371155 0.8872947692871094,0.5212423801422119 l0.21735064685344696,0.2561149299144745 0.8898978233337402,0.5346550345420837 l0.24773648381233215,0.25047293305397034 0.9839838147163391,0.08678228408098221 l0.8999118804931641,0.5655988454818726 0.8979570865631104,0.5749934911727905 l0.30576881766319275,0.23911337554454803 0.9017767310142517,0.5893679261207581 l0.4847126603126526,0.5490127205848694 0.31922411918640137,0.236188143491745 l0.9013962149620056,0.5975697636604309 0.8978776931762695,0.5977610349655151 l0.8953582644462585,0.5956161022186279 0.8934991955757141,0.5914889574050903 l0.8919922113418579,0.5856621861457825 0.8909575343132019,0.5785192847251892 l0.3157762289047241,0.2366366982460022 0.5606231093406677,0.20646677911281586 l0.8984128832817078,0.5503477454185486 0.5751281976699829,0.2209424376487732 l0.9048568606376648,0.5345574617385864 m0.4655769169330597,0.5931666493415833 l0.9151454567909241,0.5221807956695557 0.5938180685043335,0.25745484232902527 l0.4062313735485077,0.2089662104845047 0.9352145791053772,0.5106453895568848 l0.9394474625587463,0.5098035335540771 0.42574575543403625,0.22082148492336273 l0.9531311988830566,0.5094588398933411 0.9572147130966187,0.5113906860351562 l0.9624181985855103,0.5142751336097717 0.9785236120223999,0.1349380612373352 l0.9786601066589355,0.522782027721405 0.9671423435211182,0.14557486772537231 l0.9910268187522888,0.532820463180542 0.9933028817176819,0.5376639366149902 l0.997125506401062,0.5439162254333496 0.47659918665885925,0.6414777636528015 l1.0025051832199097,0.5536792874336243 0.34202006459236145,0.1306128352880478 l0.9591442346572876,0.18671703338623047 1.0174421072006226,0.5669065117835999 l0.9576491117477417,0.19547376036643982 1.0181387662887573,0.5718241333961487 l1.0138800144195557,0.5720653533935547 1.011435866355896,0.5719844698905945 l0.3262843191623688,0.19449162483215332 1.0094424486160278,0.5660416483879089 l0.9774109721183777,0.1886078268289566 0.3226500153541565,0.21673361957073212 l1.0028789043426514,0.5524553656578064 0.4336340129375458,0.23136694729328156 l0.3121493458747864,0.23483550548553467 0.9944450259208679,0.5338035225868225 l0.9856265783309937,0.15747889876365662 m1.0000252723693848,0.5307883024215698 l0.31176069378852844,0.23673047125339508 0.9905890822410583,0.5117190480232239 l0.980282187461853,0.14433276653289795 0.9907163977622986,0.5025641918182373 l0.9860333204269409,0.49682414531707764 0.9723154902458191,0.13880079984664917 l0.9866818189620972,0.4884175658226013 0.3033316135406494,0.23800496757030487 l0.5080755352973938,0.22169286012649536 0.977105975151062,0.47221946716308594 l0.5650762319564819,0.5200886130332947 0.9681129455566406,0.46518927812576294 l0.569934606552124,0.5135596394538879 0.5728169083595276,0.5135565996170044 l0.9587136507034302,0.455854594707489 0.9583984613418579,0.45445674657821655 l0.5776090621948242,0.4980107545852661 -0.13624289631843567,-0.3639930784702301 l0.28591904044151306,0.23987877368927002 0.9478111863136292,0.4407891631126404 l0.9446349143981934,0.4409135580062866 0.2794431149959564,0.23911821842193604 m-0.13098254799842834,-0.36916688084602356 l0.2619452476501465,0.24146658182144165 0.9404180645942688,0.15660762786865234 l0.9393050074577332,0.15369254350662231 0.4569319784641266,0.1767524927854538 l0.9085189700126648,0.418575644493103 0.23879468441009521,0.24250024557113647 l0.886660099029541,0.4079506993293762 0.547996461391449,0.4303479790687561 l0.5437992215156555,0.42801737785339355 0.5390524864196777,0.42398765683174133 l0.8406333327293396,0.38521161675453186 0.8312281966209412,0.3800137937068939 l0.407347708940506,0.1097603365778923 0.8094659447669983,0.3661249577999115 m0.8069314360618591,0.3688471019268036 l0.7919427752494812,0.3558480143547058 -0.03588069975376129,0.4954725503921509 l-0.04134674370288849,0.48304590582847595 0.5117241740226746,0.4031341075897217 l0.50889652967453,0.3963204622268677 0.5071902275085449,0.394072949886322 l-0.11537320166826248,-0.20781871676445007 0.7179001569747925,0.3184571862220764 l0.7117722034454346,0.3175952434539795 0.1730041801929474,0.1875351220369339 l0.7603239417076111,0.07395263761281967 m0.7077863216400146,0.3209994435310364 l0.6975518465042114,0.31085193157196045 0.16146591305732727,0.16786621510982513 l0.11836742609739304,0.6306596398353577 0.6693458557128906,0.303391695022583 l0.13576269149780273,0.15892396867275238 0.6800848841667175,0.06148729845881462 l0.6617646217346191,0.29666033387184143 0.12039904296398163,0.14447981119155884 l0.10816600173711777,0.14158748090267181 0.637563169002533,0.28059718012809753 l0.1991082727909088,-0.0656571015715599 0.29520484805107117,0.11561959981918335 l0.4821784794330597,0.31965169310569763 0.567362904548645,0.05554535612463951 l0.5946466326713562,0.23273026943206787 0.583541750907898,0.21943670511245728 l0.5282756090164185,0.05431562662124634 0.5171970129013062,0.05066901817917824 l0.5544946193695068,0.17380158603191376 0.543964684009552,0.15852902829647064 l0.4892006814479828,0.30949482321739197 m0.10367663949728012,0.07444252073764801 m0.26650917530059814,0.1459144949913025 l0.49562764167785645,0.31405729055404663 0.10769007354974747,0.0574093833565712 l0.2566809058189392,0.16261537373065948 -0.09864655882120132,-0.16740791499614716 m0.5047414302825928,0.07685350626707077 l0.49039769172668457,0.3071087598800659 0.48957499861717224,0.054689399898052216 l0.4890107214450836,0.051456838846206665 0.09705676883459091,0.028111478313803673 l0.12904883921146393,0.09647221863269806 0.07802841812372208,0.02223893254995346 l-0.007471274584531784,0.2433202713727951 0.4754461348056793,0.05514058470726013 l0.43453580141067505,0.25877660512924194 0.4015602767467499,0.027683096006512642 l0.2449266016483307,0.17116862535476685 0.24563637375831604,0.17195247113704681 l0.026447979733347893,0.32362228631973267 m0.4655449390411377,0.10026540607213974 l0.45552995800971985,0.08788592368364334 -0.017593925818800926,0.007215001154690981 l0.3782743513584137,0.23428204655647278 m0.3744216561317444,0.23741774260997772 l0.26118478178977966,0.1782209724187851 0.2587587833404541,0.18378159403800964 l0.3647935092449188,0.24805907905101776 -0.046091511845588684,-0.22078949213027954 l0.04198620095849037,-0.0055012027733027935 0.041259992867708206,-0.0007278008852154016 m0.4112153947353363,0.09641427546739578 l0.402495801448822,0.08221883326768875 0.22199271619319916,0.2084936797618866 m0.24286657571792603,0.07616043090820312 l0.32720479369163513,0.2807806432247162 0.3803623914718628,0.07295824587345123 m0.31371229887008667,0.28560739755630493 l0.18057948350906372,0.2139897495508194 m0.3668675720691681,0.0856802836060524 m0.13518580794334412,-0.005103033967316151 l0.27726829051971436,0.27065688371658325 m0.1746920943260193,0.226026251912117 l0.3242773711681366,0.062108345329761505 0.003962720278650522,0.1856006681919098 l0.16191881895065308,-0.11088339984416962 m-0.0994781106710434,0.0426851250231266 m0.12303121387958527,0.1920454502105713 l0.1238236278295517,0.18891774117946625 m0.2289646565914154,0.2312258630990982 l0.22338147461414337,0.2230270802974701 m0.06922195106744766,0.05145075172185898 l0.11726358532905579,0.18416659533977509 m0.18976576626300812,0.052703116089105606 m0.025745393708348274,0.10325413197278976 m0.21489611268043518,0.1925971359014511 l-0.03010101243853569,-0.07665145397186279 -0.08571036905050278,0.11130262911319733 l0.21585777401924133,0.18827486038208008 0.026478305459022522,0.10593418031930923 l0.026133721694350243,0.10435522347688675 0.13804826140403748,0.15587131679058075 l0.14111930131912231,0.15447048842906952 0.08794023841619492,0.0097003523260355 m0.045546043664216995,-0.14030873775482178 l0.032027311623096466,0.08961596339941025 0.05505916103720665,0.054851774126291275 m-0.0634482130408287,0.11469636112451553 m0.03143247589468956,0.0793401375412941 l0.04954390227794647,0.0478193461894989 0.07109940052032471,0.00520901195704937 m-0.06591663509607315,-0.08866702020168304 l0.006339221727102995,-0.04297001659870148 0.07101421058177948,0.0008852089522406459 l0.0967450886964798,0.00036671775160357356 0.09692889451980591,-0.0006612478173337877 l0.22571101784706116,-0.00855475477874279 0.09814968705177307,-0.0012882122537121177 l0.03596099093556404,0.0906357541680336 0.07097582519054413,-0.00018394854851067066 m0.2126339077949524,0.031352024525403976 m0.08895527571439743,0.024817073717713356 m0.011846126988530159,-0.03168443590402603 l0.047465309500694275,0.04597935080528259 0.05671129748225212,-0.1271166205406189 m0.011041800491511822,-0.03894742205739021 m0.14688517153263092,0.1365429311990738 l0.035798776894807816,0.08306930959224701 m-0.06262601166963577,0.11959420144557953 m0.21360506117343903,0.1590920239686966 m0.09267130494117737,0.05002916604280472 l0.005091141443699598,-0.03989970684051514 0.14435730874538422,0.1421000212430954 m0.036780040711164474,0.08142703026533127 m0.22214284539222717,0.04392331466078758 m0.01129669975489378,-0.03185651823878288 m0.0799158588051796,0.029687143862247467 l0.07262798398733139,0.010952785611152649 m0.2219957560300827,0.03892800956964493 l0.08821183443069458,0.01330121885985136 0.036888834089040756,0.08739962428808212 m0.23509176075458527,-0.010640897788107395 l0.07354798913002014,0.007503206375986338 m0.03771238774061203,0.07928731292486191 l0.21546749770641327,0.16007325053215027 0.08618224412202835,0.008587699383497238 l0.21832036972045898,0.16392329335212708 m0.2200932651758194,0.16277411580085754 m0.1990567147731781,0.20248425006866455 l-0.05223489925265312,-0.06734468042850494 0.05909712240099907,-0.12760770320892334 m0.07949741929769516,0.01877661794424057 m0.13347665965557098,0.08890514820814133 m0.14933444559574127,0.13463129103183746 l0.1360449492931366,0.0780649185180664 0.07471498101949692,0.15715135633945465 l0.06387291848659515,-0.1266699731349945 0.21883918344974518,0.16443274915218353 l0.07008491456508636,0.0014517358504235744 m0.09037141501903534,0.01835741102695465 l0.05829467996954918,-0.1291848123073578 m0.1480213701725006,0.13876210153102875 l0.18842150270938873,0.20139934122562408 m0.1955086886882782,0.20246699452400208 l-0.016449863091111183,0.1487324833869934 0.03432239592075348,0.09119142591953278 l0.2307124137878418,-0.0010116862831637263 0.03641188517212868,0.09231775999069214 l0.034083329141139984,0.09251061826944351 0.14590968191623688,0.14954107999801636 l-0.05987425893545151,0.11574647575616837 0.16933397948741913,-0.01056258101016283 l0.06408286839723587,0.05661870166659355 0.08312167972326279,0.0009859820129349828 m0.012402018532156944,-0.03533150255680084 l0.07366076111793518,0.00589556572958827 m0.041874710470438004,0.04265712574124336 m-0.025698773562908173,0.14945515990257263 l0.098506398499012,0.01621834933757782 0.23266108334064484,-0.006282063666731119 l0.0762411504983902,0.14967645704746246 0.08432213217020035,0.004257377237081528 l-0.06005832180380821,0.1167830154299736 m-0.05144449323415756,-0.058802906423807144 l0.03109062649309635,0.08617750555276871 -0.01594611071050167,0.1486245095729828 m-0.05300289765000343,-0.05974803864955902 l0.18272563815116882,0.2017184942960739 m0.03525424748659134,0.0815625861287117 m0.03493517264723778,0.0777062401175499 l0.03396439552307129,0.08487466722726822 0.23324880003929138,-0.004343236330896616 l-0.06113215908408165,0.11910941451787949 0.03268918767571449,0.09157723188400269 l-0.05997880920767784,-0.06711719930171967 0.07066255062818527,-0.11868169903755188 l0.07614029198884964,0.14229322969913483 0.03239244595170021,0.0919158086180687 l0.07527367770671844,0.1442883014678955 0.22243213653564453,-0.0027226016391068697 m0.1290997862815857,0.08433841913938522 m0.21809552609920502,0.15847313404083252 m0.08917883038520813,0.04746955633163452 l0.03785647824406624,0.08392685651779175 m-0.04851033166050911,-0.06365314871072769 m0.010154413059353828,-0.033722687512636185 m-0.045283861458301544,-0.06698847562074661 l0.21052053570747375,0.155689537525177 0.03596334531903267,0.08710619062185287 l0.005157654173672199,-0.045738957822322845 0.00594618683680892,-0.0466880239546299 m0.21978336572647095,0.16380077600479126 l0.07505642622709274,0.15617337822914124 m0.010725227184593678,-0.03355022147297859 m0.08694630116224289,0.05026114732027054 m0.21331745386123657,0.1553010493516922 m0.07184381783008575,0.18184898793697357 l0.1473107486963272,0.1394300013780594 0.21334920823574066,0.16057723760604858 m0.21654100716114044,0.16112567484378815 l0.2390255331993103,-0.0031110539566725492 m0.03987053036689758,-0.14264439046382904 l0.14664660394191742,0.14004583656787872 0.06146125867962837,-0.1297619640827179 m0.19506579637527466,0.19760477542877197 m-0.06479040533304214,-0.08582205325365067 m0.010916332714259624,-0.03309131786227226 m-0.04438197612762451,-0.06708754599094391 l0.03344445675611496,0.080027736723423 0.0041085476987063885,-0.04598347097635269 m0.08770253509283066,0.021669039502739906 m0.08815397322177887,0.02950168401002884 l0.13321027159690857,0.07698612660169601 0.09792578220367432,0.008615010417997837 l0.00632663955911994,-0.046065740287303925 -0.056449178606271744,-0.07080620527267456 l0.09559149295091629,-0.002500236965715885 m0.07768652588129044,0.016688207164406776 l0.22848252952098846,-0.011022746562957764 0.05234135314822197,0.0494779571890831 m0.21943865716457367,0.16102053225040436 l0.07525405287742615,0.15709196031093597 0.08453818410634995,0.009343610145151615 m0.07732547074556351,0.020739933475852013 m0.21666981279850006,0.15831831097602844 l-0.07234984636306763,-0.08982221782207489 0.058343518525362015,-0.1260940581560135 m0.08439868688583374,0.050992392003536224 l0.21562285721302032,0.15915150940418243 0.07552782446146011,0.15252763032913208 m0.13173310458660126,0.08569211512804031 l0.056142061948776245,-0.13063976168632507 0.14516539871692657,0.14431940019130707 " fill="none" stroke="black" stroke-width="1" /></svg>