<?xml version="1.0" encoding="utf-8" ?>
<svg baseProfile="full" height="110.58550794047187" version="1.1" width="109.01677617285168" xmlns="http://www.w3.org/2000/svg" xmlns:ev="http://www.w3.org/2001/xml-events" xmlns:xlink="http://www.w3.org/1999/xlink"><defs /><rect fill="white" height="110.58550794047187" width="109.01677617285168" x="0" y="0" /><path d="M25.227087132632732,25.044143814593554 m0.0,0.0 m-0.10469575971364975,0.14208325743675232 m0.043615370988845825,-0.1342381089925766 m-0.16600674390792847,-0.05198896303772926 l0.03930060192942619,0.18696843087673187 0.2884202301502228,0.4653049111366272 m0.21816812455654144,-0.039687834680080414 l0.12425204366445541,0.10386864840984344 m0.3927347660064697,-0.14758232235908508 l-0.18554140627384186,0.08968249708414078 0.22388146817684174,-0.011387289501726627 l0.35926198959350586,0.16949252784252167 0.13764698803424835,-0.25005990266799927 l0.17841997742652893,-0.011827168054878712 -0.11851292848587036,0.33035808801651 m0.4529643952846527,0.2243555188179016 l0.26570865511894226,0.14019069075584412 0.3425896465778351,0.3517889678478241 l0.23063772916793823,0.20344406366348267 m0.23653382062911987,0.22048082947731018 l0.31006672978401184,-0.24834097921848297 m0.3896621763706207,0.1590922325849533 l0.2848234176635742,-0.22573994100093842 m0.44735899567604065,0.2081875056028366 l0.4640010595321655,0.2293054610490799 m0.17368154227733612,0.4244583249092102 l0.24345675110816956,-0.14858229458332062 0.516091525554657,0.2483181208372116 l0.20115938782691956,0.4448944628238678 0.20735403895378113,0.44588401913642883 l0.29844266176223755,0.7758145332336426 m0.26533809304237366,-0.12502646446228027 l0.4118386507034302,0.22513170540332794 -0.02704831026494503,-0.011438420042395592 l-0.09206561744213104,0.3567139804363251 -0.08765377104282379,0.3329616189002991 l0.3673485815525055,0.24419334530830383 0.3625182509422302,0.24692264199256897 l-0.06009422987699509,0.2565709054470062 0.5308429002761841,-0.21778210997581482 l0.5643163919448853,-0.2200823277235031 m0.5851600766181946,-0.19357313215732574 m-5.3768453653901815e-05,-0.17984028160572052 l0.6196420788764954,-0.14095701277256012 m0.6242008209228516,-0.08972416818141937 m0.49060216546058655,0.6727653741836548 m0.6018535494804382,0.035322848707437515 l0.3960985243320465,0.22972090542316437 0.10889791697263718,-0.15887126326560974 l0.5263408422470093,0.19789722561836243 0.4958297610282898,0.2652462422847748 m0.4626104235649109,0.3431251347064972 l0.4339176118373871,0.39525696635246277 0.40864038467407227,0.445962518453598 l0.3866109251976013,0.49153709411621094 0.3680483102798462,0.5305585265159607 m0.35081011056900024,0.577418863773346 l0.3379967212677002,0.591116189956665 0.32710713148117065,0.5995513796806335 l0.31618383526802063,0.6007128357887268 0.30549493432044983,0.5928285717964172 l0.29489824175834656,0.5770543217658997 0.28520074486732483,0.5538600087165833 l0.38017037510871887,0.6581271290779114 0.26941925287246704,0.4926525354385376 l0.26415589451789856,0.4547761082649231 0.26191243529319763,0.41423025727272034 m0.2597930431365967,0.3828901946544647 l0.2649683952331543,0.3357308506965637 0.27191078662872314,0.286884605884552 l0.2813468873500824,0.24157963693141937 0.29254305362701416,0.1980467438697815 l0.3054598867893219,0.15797623991966248 m0.31825220584869385,0.1306743621826172 l0.3326391279697418,0.09795323014259338 0.3474878966808319,0.06735150516033173 l0.36130067706108093,0.04415546730160713 0.3739713728427887,0.02649974636733532 l0.3849748969078064,0.013189655728638172 0.394439697265625,0.0037304749712347984 l0.40187352895736694,-0.0033300386276096106 0.4077855050563812,-0.007836065255105495 l0.4116821885108948,-0.01035329420119524 0.41413232684135437,-0.011361613869667053 l0.4147612154483795,-0.011233575642108917 0.9786161184310913,0.9502860903739929 l0.4119233787059784,0.0002395347401034087 m0.40586456656455994,0.004685740917921066 l0.40163299441337585,0.009385141544044018 m0.39500346779823303,0.01804209314286709 l0.27855321764945984,0.29121679067611694 0.3782394528388977,0.037948958575725555 l0.36874833703041077,0.050454605370759964 0.35787129402160645,0.06652798503637314 l0.34553879499435425,0.08486911654472351 0.3321984112262726,0.10552264750003815 m0.31750088930130005,0.13099752366542816 l0.3035610318183899,0.152998685836792 0.28984904289245605,0.17464467883110046 m0.2766663134098053,0.2017074078321457 m0.2644173800945282,0.2270197570323944 l0.25360438227653503,0.2455676943063736 0.24464619159698486,0.2646806836128235 l0.23686866462230682,0.28416192531585693 0.23082409799098969,0.302664577960968 l0.22656580805778503,0.3194406032562256 0.22370775043964386,0.3348355293273926 l0.222037211060524,0.34904569387435913 m0.22175076603889465,0.3650355041027069 l0.22140853106975555,0.3734835088253021 0.22215460240840912,0.3799143135547638 l0.2235388159751892,0.38576191663742065 0.22458745539188385,0.3888969421386719 m0.7338770031929016,0.7856102585792542 l0.2299066185951233,0.3962951600551605 0.22820183634757996,0.3855450451374054 l0.22868286073207855,0.37609216570854187 0.22956955432891846,0.3654715418815613 l0.23054152727127075,0.3539702892303467 0.6764360666275024,0.702472448348999 l0.23580169677734375,0.3356062173843384 0.23477336764335632,0.3194916248321533 m0.4256029427051544,-0.013028280809521675 m0.24229250848293304,0.30400052666664124 l0.2366861253976822,0.2886725068092346 0.23421414196491241,0.2768200933933258 l0.23081988096237183,0.26771020889282227 -0.12313389033079147,0.3174852132797241 l-0.1217709630727768,0.18883071839809418 0.3624686002731323,0.38931241631507874 l0.20971821248531342,0.25265079736709595 0.20484033226966858,0.25006282329559326 l0.20173045992851257,0.24756185710430145 0.2003566324710846,0.24502892792224884 m0.434990257024765,0.5678423047065735 m0.43232959508895874,0.5596076250076294 m-0.06794223934412003,0.26853683590888977 l-0.09570057690143585,0.14209459722042084 0.30140018463134766,0.020427338778972626 m-0.07305816560983658,0.12224840372800827 l-0.03273168206214905,0.3254806399345398 0.2490110695362091,0.19581222534179688 m-0.03595126047730446,0.33206048607826233 m0.22438448667526245,0.0638868659734726 m0.41682782769203186,0.37090715765953064 l0.263195276260376,0.19360871613025665 0.17699438333511353,0.025241363793611526 l0.14680302143096924,0.0018109420780092478 0.2479555308818817,0.19692590832710266 l0.37131059169769287,0.2965596616268158 0.23625627160072327,0.11287492513656616 m0.25346899032592773,0.1910877227783203 m0.2548012435436249,0.18607573211193085 l0.34694457054138184,0.2873718738555908 0.214629128575325,0.08994308859109879 l0.21093590557575226,0.07745432108640671 m0.33281370997428894,0.31073707342147827 l0.27801424264907837,0.22762912511825562 0.20782838761806488,0.0656999945640564 l-0.06287609785795212,-0.11533104628324509 m0.3238450884819031,0.244841068983078 l0.3239070773124695,0.2587440013885498 -0.07451552897691727,-0.07946900278329849 l0.34299588203430176,0.27392563223838806 -0.07472959160804749,-0.04707258194684982 l0.21730634570121765,0.035913482308387756 0.2406517118215561,0.388359010219574 l0.19174981117248535,0.008999086916446686 m0.23628702759742737,0.40041688084602356 m-0.06800298392772675,0.18126405775547028 m0.3417922854423523,0.0936434268951416 m0.2393009215593338,0.28777599334716797 l0.20203712582588196,0.38509050011634827 -0.060880254954099655,0.1629742532968521 m-0.03533842787146568,0.10391360521316528 l-0.070313960313797,0.1634901762008667 m-0.08295578509569168,0.15826117992401123 l-0.018275808542966843,0.11512791365385056 -0.014305944554507732,0.11786851286888123 m0.03149161860346794,0.07824862003326416 l0.02137911505997181,-0.021179448813199997 0.15167546272277832,0.08610356599092484 l-0.026662329211831093,0.053259436041116714 m0.11129087954759598,0.2755250632762909 l0.05243610218167305,-0.038927141577005386 0.1290542185306549,0.09483783692121506 l-0.012964168563485146,0.10375780612230301 0.058125801384449005,-0.06800062209367752 l-0.02038191817700863,-0.021083056926727295 -0.07271122932434082,0.08606044203042984 l0.07302702963352203,0.2545239329338074 0.055696383118629456,-0.06329616904258728 m0.10227281600236893,0.12706258893013 l0.09259152412414551,0.23188287019729614 0.10705184191465378,0.10301988571882248 l-0.004885603673756123,0.05371871963143349 m0.10085318982601166,0.22741219401359558 l0.022157054394483566,-0.056720197200775146 m0.08175066858530045,0.2434711903333664 m0.0842171460390091,0.2444012463092804 m0.10543984174728394,0.21038758754730225 m0.11159253120422363,0.13641664385795593 l0.0770207867026329,0.23495091497898102 0.16641944646835327,0.16149216890335083 m0.1356252133846283,0.177020862698555 l0.08449810743331909,-0.03284107521176338 0.20192646980285645,-0.028347427025437355 m0.06380896270275116,-0.0658458024263382 l-0.08219640702009201,0.09403219819068909 0.10522416979074478,0.09528736770153046 l0.06754687428474426,0.2383776605129242 m0.10290566086769104,0.11443451046943665 m0.03060072846710682,-0.04693365842103958 l0.059250812977552414,-0.05391852557659149 -0.08209054917097092,0.09366435557603836 m0.199356809258461,-0.04071192443370819 l0.11500833928585052,0.2010347545146942 0.07013577967882156,0.23812536895275116 m0.06079684570431709,-0.04925331100821495 m0.0024759413208812475,0.09219851344823837 m0.10465247929096222,0.11924587935209274 m-0.0864059180021286,0.10124078392982483 l0.009563476778566837,0.10491741448640823 0.10573403537273407,0.0994817316532135 m0.0029565258882939816,0.0961463525891304 l0.07120495289564133,0.2355780303478241 0.082386314868927,-0.03363242745399475 m0.20050378143787384,-0.037966713309288025 m0.08677395433187485,0.24060244858264923 m0.1103489100933075,0.13280823826789856 l0.009447614662349224,0.10716381669044495 m0.16050384938716888,0.16628000140190125 m0.10539903491735458,0.22380314767360687 m0.1066802591085434,0.22424767911434174 m0.10697425156831741,0.22446301579475403 m0.00439140060916543,0.09575140476226807 m0.08647370338439941,0.23599961400032043 m0.0582980215549469,-0.07101625204086304 m0.00463437894359231,0.09152954071760178 m0.08603107929229736,0.23204860091209412 m0.05791958048939705,-0.07366885989904404 m0.13877196609973907,0.19548991322517395 m-0.13326731324195862,0.05965662747621536 m0.058180879801511765,-0.07428815215826035 m0.03470635041594505,0.09262269735336304 l0.08850568532943726,0.2224796861410141 m-0.08597204834222794,0.09934498369693756 l0.054811593145132065,-0.063400998711586 -0.035161830484867096,-0.02400759793817997 l-0.12127818912267685,0.06323254108428955 0.013441117480397224,-0.062022801488637924 l0.020051876083016396,0.09036558866500854 0.08795412629842758,0.11874980479478836 l-0.11985449492931366,0.06331662088632584 0.08212301880121231,-0.031038494780659676 m0.13410602509975433,0.1686539500951767 l0.07209628820419312,0.24121534824371338 0.05486781522631645,-0.06055312603712082 l0.08457742631435394,0.22537465393543243 0.015632886439561844,-0.06269712746143341 m0.06201856583356857,-0.04429588466882706 l-0.03249850496649742,-0.023518159985542297 -0.005471480078995228,0.053654588758945465 m0.024131057783961296,-0.05227847397327423 l0.16378334164619446,0.15121524035930634 0.07014862447977066,0.23782292008399963 l0.10462088137865067,0.10070343315601349 0.10445603728294373,0.09911797940731049 l0.08895335346460342,0.12103179842233658 m0.07915426045656204,0.24759329855442047 l-0.00986789632588625,0.05475674942135811 0.2022278755903244,-0.02709617093205452 m0.10110236704349518,0.22410449385643005 l-0.08225903660058975,0.09544117003679276 0.0676189586520195,0.2384740114212036 l0.052757322788238525,-0.059724438935518265 0.003040676936507225,0.09926541894674301 m0.09931687265634537,0.224249467253685 l0.060224104672670364,-0.04338497668504715 0.10573744773864746,0.0974150002002716 l0.016615500673651695,-0.06278514117002487 0.06033891811966896,-0.04004153981804848 l0.036597609519958496,0.044259872287511826 0.020632436498999596,0.08967021107673645 m0.0014393021119758487,0.09462538361549377 m-0.08797910064458847,0.10356040298938751 l0.058546554297208786,-0.06326718628406525 0.004342690110206604,0.09687044471502304 l0.10578839480876923,0.09543431550264359 0.10556940734386444,0.09592767059803009 l0.1676473766565323,0.14995522797107697 m0.07996835559606552,0.24773114919662476 m0.10300162434577942,0.1233123317360878 l0.07520560175180435,0.239852637052536 0.07037711888551712,0.2404286414384842 m0.01398827787488699,0.08599494397640228 l0.017176806926727295,0.08875945955514908 -0.009836561977863312,0.11095964163541794 l0.05969630926847458,-0.04028107225894928 0.08383700251579285,-0.035008471459150314 l0.06773823499679565,0.23886638879776 m-0.016558624804019928,0.05757486820220947 m0.08142518997192383,0.24357464909553528 l0.07301392406225204,0.2392369657754898 m0.1038476824760437,0.1206972748041153 l0.07383599132299423,0.23853079974651337 0.0696927160024643,0.24003145098686218 m0.10043250024318695,0.22612161934375763 l-0.0006607429822906852,0.11336413025856018 0.05950403958559036,-0.04304288327693939 l0.08384252339601517,0.2253732681274414 m0.1030997484922409,0.11371053755283356 l0.08444161713123322,-0.030377816408872604 0.10557346045970917,0.09687323868274689 l-0.030269313603639603,-0.023774882778525352 m0.13572776317596436,0.17043037712574005 m0.16032636165618896,0.16507795453071594 m0.08682668954133987,0.24252714216709137 m0.08683169633150101,0.24140819907188416 l0.10010957717895508,0.13369807600975037 m0.10436253249645233,0.11880047619342804 m0.0036330311559140682,0.09482203423976898 l0.0049552712589502335,0.09802138060331345 m0.08055301010608673,0.2377176731824875 l0.08905499428510666,0.22569645941257477 m0.10496438294649124,0.13276025652885437 m0.03414979949593544,-0.043920088559389114 l-0.03599584475159645,-0.02309294044971466 m0.012221083045005798,0.0804809033870697 m0.003483568085357547,0.09220241755247116 m-0.0872395858168602,0.10204427689313889 l0.10573303699493408,0.10458332300186157 m0.03089204616844654,-0.04590396210551262 l-0.012772655114531517,0.05606284737586975 0.004453008063137531,0.09810236841440201 l0.16439251601696014,0.15170928835868835 0.20320779085159302,-0.024745997041463852 l0.0848105251789093,0.2244560718536377 m-0.032589804381132126,-0.02251501940190792 l0.02037653513252735,-0.05884165316820145 0.0036191558465361595,0.09639529138803482 l0.003456132486462593,0.0984223261475563 m0.09927215427160263,0.2240077704191208 l0.02109338901937008,-0.05687812343239784 m0.013055285438895226,0.08154334872961044 l0.19959217309951782,-0.03375374898314476 m0.08353482186794281,0.23990154266357422 l0.09027349948883057,0.22497700154781342 m0.015884289517998695,0.10404462367296219 l0.08916076272726059,0.22585582733154297 0.020483283326029778,-0.05759376659989357 l0.13577941060066223,0.1511651575565338 m0.10170525312423706,0.12671443819999695 l0.030673149973154068,0.05311528220772743 -0.011120825074613094,0.10977687686681747 l0.08391602337360382,0.22519844770431519 m0.07743162661790848,0.24667984247207642 l0.0709681510925293,0.24308057129383087 m0.012434997595846653,0.10601036995649338 l0.08336403220891953,-0.028983457013964653 m0.10109046846628189,0.22415831685066223 m0.10433226078748703,0.12128537148237228 m0.08659627288579941,0.24006907641887665 m0.15941672027111053,0.17391745746135712 l0.1055307388305664,0.11076200008392334 0.10561896115541458,0.10213863849639893 m0.0998367965221405,0.2240694761276245 l0.13748519122600555,0.1635219156742096 m0.0024752826429903507,0.09718960523605347 m0.002859320491552353,0.09469974040985107 m0.10409894585609436,0.12080734223127365 l0.0832647979259491,-0.033154770731925964 0.13744249939918518,0.1590723991394043 l-0.0816163495182991,0.09261620789766312 -0.08320365846157074,0.0945795550942421 m0.15852712094783783,0.160652756690979 l0.030289018526673317,0.05360645055770874 0.08560797572135925,0.2254648357629776 l-0.11865270137786865,0.06260306388139725 m-0.0883847251534462,0.10326695442199707 l0.10417171567678452,0.10313592851161957 m0.02454525977373123,0.06314883381128311 l0.07171278446912766,0.23632414638996124 m0.19929799437522888,-0.03976144269108772 m0.003169375006109476,0.09154967963695526 l0.004858477506786585,0.09638296067714691 0.05468670651316643,-0.06201229244470596 m0.10512328147888184,0.10747753828763962 m-0.03749234974384308,-0.02241598255932331 m0.003465475281700492,0.09037961065769196 l0.004981914069503546,0.09585404396057129 -0.08243212848901749,0.09417705982923508 m0.10243728756904602,0.12943510711193085 l0.028697259724140167,0.053670160472393036 m-0.08713200688362122,0.10165764391422272 l-0.0014630829682573676,0.10644860565662384 m0.07795564085245132,0.23945733904838562 m0.0233145821839571,0.1008087694644928 l-0.036144331097602844,-0.023126766085624695 0.004460200201719999,0.09864681214094162 m0.10455740243196487,0.11073922365903854 " fill="none" stroke="black" stroke-width="1" /></svg>