<?xml version="1.0" encoding="utf-8" ?>
<svg baseProfile="full" height="93.55615049850894" version="1.1" width="115.46335201570764" xmlns="http://www.w3.org/2000/svg" xmlns:ev="http://www.w3.org/2001/xml-events" xmlns:xlink="http://www.w3.org/1999/xlink"><defs /><rect fill="white" height="93.55615049850894" width="115.46335201570764" x="0" y="0" /><path d="M25,25.285122987814248 m0.0,0.0 m0.10913542658090591,0.006670243106782436 l0.11471554636955261,-0.0343749113380909 0.4006127715110779,-0.17356720566749573 l-0.056632861495018005,-0.08385111391544342 -0.022416042163968086,0.46592676639556885 l0.14241273701190948,0.4536606967449188 0.16185757517814636,0.4912916421890259 m0.19181887805461884,0.5232062935829163 l0.20621980726718903,0.5522492527961731 0.31844380497932434,0.45604392886161804 l0.3178099989891052,0.43683841824531555 0.1901845484972,-0.11561628431081772 l0.06528674066066742,0.0819767564535141 0.061508018523454666,0.4504868686199188 l0.3292447328567505,0.2548780143260956 m0.11845619231462479,-0.300253301858902 l0.07569301873445511,0.5891863107681274 0.12292971462011337,-0.11034651845693588 l0.33930638432502747,0.26058313250541687 0.3393050730228424,0.2652551233768463 m0.37867841124534607,0.09224792569875717 m0.3536452651023865,0.28389686346054077 l0.4848881959915161,-0.3323773145675659 m0.3427749574184418,0.2895056903362274 l0.3474090099334717,0.09061616659164429 0.34005728363990784,0.09781291335821152 l0.3338033854961395,0.10826628655195236 m0.3318488895893097,0.12803146243095398 m0.05462605878710747,-0.8570337891578674 l0.2949812710285187,0.11028099805116653 m0.22109678387641907,-0.2601328492164612 m0.3165246546268463,0.19586127996444702 l0.4061897397041321,0.3008298873901367 -0.17591378092765808,0.5740982294082642 l0.30153632164001465,0.2410818636417389 -0.42943525314331055,-0.2021947056055069 l0.2970614731311798,-0.2509331703186035 0.3086555302143097,-0.25977328419685364 l0.1672961264848709,-0.28103137016296387 0.43887796998023987,-0.19713392853736877 l0.03754604607820511,0.016220983117818832 0.3726503551006317,-0.2813313603401184 l0.4001043140888214,0.3199225962162018 0.16195981204509735,0.26189693808555603 l0.11649718880653381,0.0797678604722023 m0.5665857791900635,0.33598238229751587 l0.1135065034031868,0.1347624957561493 m0.09726724773645401,0.16783064603805542 l0.45379638671875,0.08667898923158646 0.10250695794820786,0.20678037405014038 m0.0872616097331047,0.2333330363035202 l0.17271745204925537,0.08673398941755295 0.25314635038375854,0.4624442756175995 m0.267081081867218,0.47557368874549866 m0.4794788360595703,-0.015224224887788296 l0.291251540184021,0.47371706366539 0.30502432584762573,0.4840374290943146 l0.49586448073387146,0.14222368597984314 0.20710442960262299,0.5335336327552795 l0.21598711609840393,0.29061052203178406 0.3635544180870056,0.5074126720428467 l0.3773294687271118,0.5147781372070312 0.38863521814346313,0.5194576978683472 l0.22319893538951874,0.499305784702301 0.4759103059768677,0.19042567908763885 l0.22565887868404388,0.49769824743270874 0.2772810757160187,0.2925998270511627 l0.11788331717252731,0.12067008763551712 0.5608624815940857,-0.2936680316925049 l0.37125131487846375,0.43578147888183594 0.35210099816322327,0.41831815242767334 l0.004047838971018791,0.5392793416976929 m0.4572124183177948,-0.0878717377781868 l0.4560288190841675,-0.08061384409666061 0.2584220767021179,0.046245276927948 l-0.08797871321439743,0.6724177598953247 m0.8228254914283752,-0.32308754324913025 m0.2455746829509735,0.24817383289337158 l-0.0010022665373981,0.6666745543479919 0.29937973618507385,0.5596261024475098 l0.187146857380867,-0.1803649216890335 0.04557892680168152,0.6216745972633362 m0.1825585663318634,-0.20576420426368713 l0.5612941384315491,-0.0388583280146122 -0.19203460216522217,0.8651383519172668 l0.2747454047203064,0.5127393007278442 0.08139707893133163,0.46107110381126404 l-0.021504130214452744,-0.135051891207695 0.36210235953330994,0.06456027179956436 l0.4138389527797699,0.11029673367738724 0.25399714708328247,-0.28105399012565613 l0.4456908404827118,0.08145429193973541 m0.20236170291900635,0.5637284517288208 l0.6504653692245483,0.07966340333223343 m0.08826573938131332,0.18397638201713562 l0.34781867265701294,-0.34952566027641296 0.7012753486633301,0.1634994000196457 l0.19068650901317596,-0.0960131511092186 0.2132447510957718,-0.08398666232824326 m0.23235823214054108,-0.07858847081661224 m0.06193872541189194,0.21697267889976501 l-0.03351831063628197,0.20962971448898315 0.31626182794570923,-0.043667979538440704 l0.33961501717567444,-0.03344340622425079 0.3602342903614044,-0.02240750379860401 m-0.05784883722662926,0.2713486850261688 l0.3864574134349823,-0.007836207747459412 0.39550817012786865,-0.0024598827585577965 l0.12071947008371353,0.13153183460235596 0.39301905035972595,0.004304227884858847 l0.3855709731578827,-0.0016775996191427112 0.2172083556652069,0.1609407216310501 l-0.02265258878469467,0.2533298432826996 0.33452001214027405,-0.030286423861980438 l0.3468070924282074,0.19307468831539154 0.02490081824362278,0.17514590919017792 l0.27935990691185,-0.08142787963151932 0.2654801309108734,-0.09892324358224869 l0.2385813146829605,0.7677029371261597 0.004140947945415974,0.642749011516571 l0.2767881453037262,0.03067358024418354 0.22907695174217224,-0.10856901854276657 l0.013972715474665165,-0.22153519093990326 0.11236336082220078,0.1801927387714386 l-0.12506550550460815,0.7163548469543457 0.21625183522701263,0.7818799018859863 l0.19829310476779938,0.0006380418199114501 0.21755562722682953,0.7772411704063416 l0.2250814437866211,0.7783293128013611 0.17033782601356506,0.10271541029214859 l0.19592754542827606,0.2880854904651642 0.20957817137241364,0.30140364170074463 l0.14273178577423096,0.19069154560565948 0.23371946811676025,0.32831740379333496 l0.125338613986969,0.22718513011932373 0.11696995794773102,0.23676727712154388 l0.19289074838161469,-0.1234450712800026 m0.24682632088661194,0.3471088409423828 m-0.1261729896068573,0.6655688881874084 l0.27075862884521484,0.13850317895412445 0.309623658657074,0.10528089851140976 l0.23372162878513336,0.282405287027359 0.23156233131885529,0.2902613580226898 m0.09989423304796219,0.21794138848781586 l0.10747585445642471,0.21461841464042664 0.3917442858219147,0.6503825187683105 l0.18934482336044312,0.10707579553127289 0.23526419699192047,0.3367760479450226 l0.14024844765663147,0.22744973003864288 m0.18503443896770477,0.052096400409936905 l0.3302026689052582,0.03881054371595383 0.1250203400850296,0.10307344049215317 m0.16931214928627014,0.020099030807614326 l0.26169291138648987,0.3468981981277466 m0.11194919794797897,0.058771152049303055 l0.21024031937122345,0.20264382660388947 0.21791544556617737,0.19859863817691803 l0.15365393459796906,0.009813398122787476 0.06704448908567429,0.19166074693202972 l0.2967086732387543,0.0018602446652948856 m0.16169407963752747,-0.012811588123440742 l0.26611462235450745,0.23303845524787903 m0.2051749974489212,0.09966686367988586 l0.10535460710525513,0.18938672542572021 0.19155317544937134,0.07081081718206406 l0.1834532618522644,0.0568472295999527 m0.1706247478723526,0.02955167554318905 l0.16366244852542877,0.0178034957498312 0.17970015108585358,-0.04593406990170479 m0.15607674419879913,-0.08445192128419876 m-0.031160298734903336,0.4620349407196045 m0.16755834221839905,0.14896085858345032 l0.12439162284135818,-0.037728987634181976 0.16721726953983307,0.06344184279441833 l0.22751063108444214,-0.015256772749125957 0.1156824603676796,-0.030754227191209793 m0.09235157072544098,0.30820411443710327 m0.21420226991176605,-0.03457910940051079 m0.08193378895521164,0.31046193838119507 l0.1835946887731552,-0.07394681125879288 0.0739799290895462,0.0035056518390774727 m0.04934326931834221,0.2930957078933716 m0.15083512663841248,0.014724607579410076 l0.09965618699789047,-0.006830856204032898 m-0.027205660939216614,0.00990249589085579 m0.11024770885705948,-0.023984380066394806 l0.18438471853733063,-0.08589427918195724 -0.04674680903553963,0.26891347765922546 l0.18183182179927826,-0.024899164214730263 m0.07183819264173508,-0.07889769226312637 l0.0843144953250885,-0.032279908657073975 0.12458644807338715,0.01639370247721672 l0.18018893897533417,-0.02177773043513298 m0.07243494689464569,0.018707014620304108 m0.06341730058193207,0.08963609486818314 m0.03127720579504967,0.03406231850385666 m0.12073458731174469,0.01093411073088646 m0.06229742616415024,-0.10600772500038147 m0.20514796674251556,0.052472587674856186 m0.07033523172140121,0.023813122883439064 l-0.012108615599572659,0.27705955505371094 0.18418338894844055,-0.02436795085668564 l-0.020976511761546135,0.2683912217617035 0.0727708637714386,0.02707601711153984 m0.06281998753547668,-0.07702013105154037 m-0.02656540460884571,0.25679969787597656 l0.19154341518878937,-0.018441570922732353 0.19252754747867584,0.10222177952528 l0.19296768307685852,0.10306186974048615 -0.023645393550395966,0.2670256197452545 l0.12436707317829132,0.022572802379727364 m0.03640666604042053,0.0415043830871582 l-0.07396446913480759,0.22033584117889404 m-0.009418406523764133,0.28188735246658325 l0.1932535618543625,0.10794427990913391 0.12456825375556946,0.020159944891929626 l0.19257701933383942,0.10309259593486786 m0.20027674734592438,0.09427554160356522 l0.05981769040226936,0.07886886596679688 m-0.02956373617053032,0.25511282682418823 m0.06824848800897598,0.028058812022209167 m0.12135568261146545,0.01357645820826292 l0.18395064771175385,-0.08739301562309265 m0.19157710671424866,-0.09434246271848679 l0.06914419680833817,-0.08217000961303711 m0.19916771352291107,-0.02196439728140831 l0.12317266315221786,0.011177526786923409 0.07027798146009445,-0.07015898078680038 m0.06311708688735962,0.08427625894546509 l0.07589269429445267,0.0424012690782547 m-0.01016616728156805,0.2801520824432373 l0.06575139611959457,-0.0721406564116478 0.19138222932815552,0.10148048400878906 m0.1857842653989792,-0.08916553109884262 l0.061408914625644684,0.07719936221837997 0.12347018718719482,0.01653723046183586 l-0.047932397574186325,0.2399182915687561 m0.08628348261117935,0.007162334863096476 l-0.04036683216691017,0.24495960772037506 0.06615994870662689,-0.06078065186738968 l0.1803067922592163,-0.017713895067572594 0.16780075430870056,0.04510757699608803 m0.20042994618415833,0.09064118564128876 m0.2065144032239914,-0.012475528754293919 l0.06664072722196579,-0.07897397130727768 m0.09314711391925812,-0.050462059676647186 m0.20078670978546143,0.089204341173172 l0.08797149360179901,-0.04612398147583008 m0.06999899446964264,0.023797012865543365 l0.1780880093574524,0.05583144351840019 0.16911256313323975,0.03832875192165375 l0.18023787438869476,-0.020678987726569176 m0.06287669390439987,0.08410803973674774 m-0.04255504161119461,0.004954047501087189 m0.06024843826889992,-0.0979696586728096 m-0.003907371312379837,0.2864704728126526 l-0.03818124905228615,0.015402000397443771 -0.018409214913845062,0.2697024643421173 l0.1664300262928009,0.06374087929725647 -0.07674630731344223,0.220613494515419 l0.12387946248054504,0.022792957723140717 -0.024867357686161995,0.26533541083335876 l-0.02399597316980362,0.2667391896247864 0.0791831910610199,0.014209378510713577 m0.19926893711090088,0.09407081454992294 m0.058773547410964966,-0.08658915758132935 l-0.017893852666020393,0.2725790739059448 0.19220241904258728,0.10582364350557327 l0.12468891590833664,0.019873587414622307 m0.06267763674259186,-0.07840190827846527 m0.0681714192032814,0.024635957553982735 l-0.03812222555279732,0.015536258928477764 m0.06850728392601013,0.025464709848165512 l-0.017534181475639343,0.27186015248298645 0.18344540894031525,-0.019110659137368202 l0.07263601571321487,0.026011290028691292 0.17221412062644958,-0.08084132522344589 l0.19273391366004944,0.09713335335254669 0.12358064204454422,0.019618941470980644 m0.08226838707923889,-0.046051740646362305 m0.06082586571574211,-0.08948865532875061 l0.036282215267419815,0.04020224139094353 0.1757526397705078,-0.08522188663482666 l0.12275604903697968,0.015453767962753773 m0.03666979819536209,-0.08535941690206528 m0.20074895024299622,0.08711729198694229 m0.2019326388835907,0.09115366637706757 l0.16732139885425568,0.026685182005167007 m0.1937403380870819,0.05236556753516197 l-0.03791022300720215,0.016164526343345642 m0.05981552228331566,0.08855467289686203 l0.03644178435206413,0.040633492171764374 -0.02093452215194702,0.2683990001678467 m-0.009173361584544182,0.28147682547569275 m0.1945921927690506,0.06093426048755646 l-0.03829696401953697,0.015534925274550915 m0.18894076347351074,-0.09048213064670563 m0.030355285853147507,0.034971460700035095 m0.04280053451657295,-0.07473896443843842 l0.19118890166282654,-0.026134571060538292 0.19153793156147003,0.09888742864131927 m0.06509005278348923,-0.08641529828310013 l0.06872601062059402,-0.07646230608224869 0.12271761894226074,0.013955517672002316 l0.1741938441991806,-0.08349926769733429 -0.039531007409095764,0.018872559070587158 m0.06316330283880234,-0.07738315314054489 l0.06666318327188492,-0.07102550566196442 m0.03363930433988571,0.03884938359260559 m0.27434131503105164,0.12561090290546417 m0.12124449759721756,0.01159578561782837 l0.26183003187179565,0.12544749677181244 0.07436376065015793,0.02582481876015663 l0.04102297127246857,0.04275301471352577 0.07260812073945999,0.025278240442276 m0.19875817000865936,0.09179966151714325 m0.20571912825107574,-0.013693109154701233 l0.06064167618751526,0.07912091165781021 m0.191949725151062,0.053088653832674026 m0.2797240614891052,0.12700660526752472 l0.036937691271305084,0.03922092542052269 m0.12307272851467133,0.012600449845194817 m-0.004587366711348295,0.2869515120983124 l0.06637238711118698,-0.08023591339588165 0.14112195372581482,0.002808298682793975 l0.06971675902605057,-0.06549033522605896 m-0.03425170108675957,0.25089752674102783 l0.1226407140493393,0.017931494861841202 m0.06195063516497612,-0.08402921259403229 l0.17574916779994965,0.056027572602033615 0.17631012201309204,-0.08381836116313934 l0.17992228269577026,-0.020595790818333626 m0.07007430493831635,0.02243885025382042 l0.026540379971265793,-0.08785875141620636 m0.11993476748466492,0.013744783587753773 l0.17941690981388092,-0.08759880065917969 m0.1921214610338211,0.049889761954545975 l-0.03853541240096092,0.016039451584219933 0.1916867345571518,0.1004253402352333 l0.13476264476776123,-0.001139939296990633 0.19292466342449188,0.10021638125181198 m0.2005969136953354,0.09311960637569427 l0.12354905158281326,0.017112480476498604 0.183431938290596,-0.01774192973971367 m0.16686519980430603,0.022931456565856934 l0.195852130651474,0.09957747161388397 m0.20123913884162903,0.0942210853099823 m0.032376959919929504,0.03622036054730415 l-0.01520763523876667,0.27560320496559143 m-0.00583652826026082,0.28504109382629395 l0.035140905529260635,0.042355168610811234 m-0.007228326052427292,0.28343892097473145 l-0.03543133661150932,0.25080665946006775 0.19074025750160217,0.110100157558918 m0.033892255276441574,-0.07378564029932022 l-0.01884414069354534,0.27139419317245483 -0.039572007954120636,0.018075786530971527 m0.06823298335075378,0.0268287044018507 l0.06517519056797028,-0.07089675217866898 -0.07762505114078522,0.21803158521652222 m0.19743198156356812,-0.014199281111359596 m-0.06775808334350586,0.21914935111999512 m0.16391295194625854,0.007326521445065737 l-0.036970384418964386,0.015738647431135178 m0.06219976395368576,-0.09100406616926193 l0.18175098299980164,-0.0879223421216011 0.06985471397638321,-0.07146525382995605 l0.019390951842069626,-0.09252069145441055 m0.15425579249858856,0.004557213746011257 m-0.026826445013284683,0.2556471526622772 l0.06563553214073181,-0.07670362293720245 0.07200150936841965,0.026288630440831184 l0.19113057851791382,0.10023514181375504 0.0688864216208458,-0.05936313420534134 m0.06916724145412445,0.023533999919891357 l-0.03991572931408882,0.015648240223526955 m-0.04217319190502167,0.0073288497515022755 l0.0699634775519371,0.026550553739070892 0.19105690717697144,0.09957914799451828 l0.18084900081157684,-0.017678730189800262 -0.025493541732430458,0.2642301619052887 l0.06758302450180054,-0.05388325825333595 0.1923183798789978,0.100108802318573 l0.06779211759567261,-0.05431856960058212 m0.06222027540206909,-0.0749424397945404 m0.16597792506217957,0.012442545033991337 l0.12170559167861938,0.013837354257702827 0.07764434069395065,-0.04162600636482239 m0.06245272606611252,0.08581016957759857 l0.12236148864030838,0.015380294062197208 m0.1991228461265564,0.09202339500188828 m-0.005192837677896023,0.2861538231372833 m0.20091092586517334,0.09922605007886887 l0.06626037508249283,-0.08345679193735123 m0.03183911368250847,0.03592721372842789 l0.17729175090789795,0.057981278747320175 m0.198749840259552,0.093793123960495 m0.2015046626329422,0.09414591640233994 l0.08985083550214767,0.0076036700047552586 0.06963714212179184,-0.072014719247818 l0.08810503780841827,0.0038828628603368998 0.08705572783946991,0.004216181114315987 l0.06941748410463333,-0.058604877442121506 m0.06342978030443192,-0.07718624174594879 m-0.04233837127685547,0.005181456916034222 m0.200212761759758,0.08886673301458359 m-0.019650667905807495,0.2622085511684418 m0.05991031602025032,-0.10250775516033173 l0.026299649849534035,-0.07830651104450226 m-0.007908486761152744,0.2806178331375122 m0.19954238831996918,0.05928772687911987 m0.1968696415424347,-0.0940602719783783 l-0.03621597960591316,0.253826767206192 m-0.025730906054377556,0.2600996196269989 l0.07176476716995239,0.029037103056907654 0.16926316916942596,0.061121080070734024 m0.08865983784198761,0.005426756571978331 m0.19198665022850037,-0.09318636357784271 l0.1949617862701416,0.09779050946235657 m0.20022857189178467,0.09334136545658112 l0.06831208616495132,-0.0784623771905899 0.13983154296875,-0.0007876792224124074 m0.19731947779655457,-0.018343117088079453 l-0.019235728308558464,0.2710621953010559 0.17487166821956635,-0.08091706037521362 l0.1736537367105484,-0.08213824033737183 0.043056927621364594,0.04434361308813095 l0.0689273551106453,-0.057156290858983994 0.169171541929245,0.045695263892412186 l0.12231946736574173,0.01952877826988697 -0.027219785377383232,0.26327601075172424 m0.060867611318826675,-0.0715722069144249 m0.11936396360397339,0.016288479790091515 l-0.017329225316643715,0.2729620933532715 m0.18679465353488922,-0.0885688066482544 m0.06856594979763031,0.02553294412791729 l0.1935930997133255,0.10057643800973892 m-0.00729117076843977,0.28300741314888 l0.17623333632946014,0.06131795793771744 m0.12343417853116989,0.015020708553493023 l0.14809152483940125,0.004502578172832727 m0.12273702025413513,0.013313299976289272 l0.07240388542413712,0.02520047314465046 0.1923855096101761,0.10100535303354263 m0.06396953761577606,-0.08241701126098633 m0.2010035365819931,0.0898163840174675 m0.20931082963943481,-0.017359189689159393 m0.05998662859201431,0.09190307557582855 m0.16599881649017334,0.0031435526907444 m0.028302663937211037,0.03238575905561447 " fill="none" stroke="black" stroke-width="1" /></svg>