<?xml version="1.0" encoding="utf-8" ?>
<svg baseProfile="full" height="94.23464195808629" version="1.1" width="119.86309572611935" xmlns="http://www.w3.org/2000/svg" xmlns:ev="http://www.w3.org/2001/xml-events" xmlns:xlink="http://www.w3.org/1999/xlink"><defs /><rect fill="white" height="94.23464195808629" width="119.86309572611935" x="0" y="0" /><path d="M25,25.01246074028313 m0.0,0.0 m0.04137737676501274,-0.0124607402831316 l0.05402696505188942,0.311604380607605 m0.2944428622722626,0.01972520910203457 m0.1255159229040146,0.3952326774597168 l0.1367567926645279,0.43218716979026794 m0.16067790985107422,0.4667534828186035 m0.015854954719543457,-0.20838424563407898 l0.2890892028808594,0.46341538429260254 0.05148349702358246,-0.16575148701667786 l0.08803414553403854,-0.21588826179504395 0.19137929379940033,-0.28696587681770325 l0.038741759955883026,0.4064265191555023 m0.14196603000164032,-0.09009259939193726 l0.16938982903957367,0.02257826365530491 0.19689925014972687,0.5291724801063538 l0.033254776149988174,0.1018703281879425 m0.16497167944908142,0.4913046956062317 m0.12086720764636993,-0.10416103899478912 m0.36118534207344055,0.2689597010612488 m0.3795187473297119,0.10275311022996902 m-0.06794311106204987,-0.6022263169288635 l-0.0879019945859909,-0.6568635106086731 -0.010522143915295601,0.05329853296279907 m0.3556564748287201,0.08996258676052094 l0.3339426517486572,0.2960290312767029 0.3233298361301422,0.299106627702713 l-0.09458853304386139,-0.12412896007299423 0.3267228603363037,0.12281027436256409 l0.1784801036119461,-0.2242807298898697 0.341911643743515,0.2908368706703186 l-0.056232478469610214,-0.08511628955602646 m0.186875119805336,-0.37117892503738403 l-0.18627998232841492,0.616782009601593 0.3039032518863678,0.22295662760734558 l0.18425990641117096,-0.3252840042114258 0.29028061032295227,-0.24972522258758545 l0.1775825023651123,-0.30527418851852417 m-0.07259922474622726,0.007190724369138479 l0.07423439621925354,-0.060876037925481796 0.16527234017848969,-0.2662188708782196 l0.15988120436668396,-0.2559565305709839 m0.4147008955478668,0.3343121409416199 l0.7288472056388855,0.08279719203710556 0.11796005070209503,0.051119837909936905 m0.45057374238967896,0.12832185626029968 m0.41591116786003113,0.2573463022708893 l0.555251955986023,-0.3243575692176819 0.4162886142730713,0.1886395663022995 l0.10794376581907272,0.18117013573646545 m0.2254599928855896,0.4335056245326996 m0.0851546972990036,0.23398298025131226 l0.45255184173583984,0.07011193782091141 m0.25873303413391113,0.4648151695728302 l0.10298001021146774,0.2705947756767273 0.1144786849617958,0.28120309114456177 l0.28944677114486694,0.4804781377315521 0.30313268303871155,0.4874037504196167 l0.7223911285400391,0.024222560226917267 0.40255898237228394,0.03653267025947571 l0.20534387230873108,0.5180280208587646 0.36382848024368286,0.5084905624389648 l0.4840400815010071,0.17777547240257263 m0.396610289812088,-0.31210896372795105 m0.7147595882415771,-0.1498236507177353 l0.21876296401023865,0.5007893443107605 m0.472185879945755,0.17764683067798615 l0.40714749693870544,0.4927409887313843 0.4003807306289673,0.4843830168247223 m0.0829470306634903,-0.22135213017463684 m0.37170106172561646,0.4379677474498749 l0.24447128176689148,0.5342891812324524 0.09113487601280212,-0.18993046879768372 l0.30629274249076843,0.05866296589374542 0.2934061288833618,0.3202442526817322 l0.37767985463142395,-0.08826525509357452 0.7937668561935425,-0.3431587517261505 l-0.06810737401247025,0.6592179536819458 m0.23911958932876587,0.26168256998062134 l0.5327271223068237,-0.265774130821228 0.2488357275724411,0.05067947879433632 l0.47006458044052124,0.027159081771969795 -0.00976088922470808,-0.3073881268501282 l0.47027862071990967,0.04831242933869362 0.4691501259803772,0.055208470672369 l0.06630932539701462,0.5347883105278015 0.4623190760612488,0.07862985879182816 l0.07490844279527664,0.4550625681877136 0.35877087712287903,0.08025369048118591 m0.22290796041488647,-0.264728844165802 l0.2325577437877655,0.5159070491790771 m0.23292195796966553,0.5378689765930176 m0.10134472697973251,0.27953267097473145 m0.09985456615686417,0.24876734614372253 l0.36015042662620544,-0.039440449327230453 m0.10360299795866013,-0.044698476791381836 l0.6872923970222473,0.13874690234661102 0.704696774482727,0.16980738937854767 l0.3534362018108368,0.21960225701332092 m0.2102586179971695,-0.0863293781876564 m0.23354864120483398,-0.0856861025094986 l0.29790088534355164,0.13054843246936798 0.048799779266119,0.23657077550888062 l0.675656795501709,0.29735928773880005 -0.0469488650560379,0.2559589147567749 m0.3521348834037781,-0.017616471275687218 l0.177709698677063,0.7500209808349609 m0.3806087076663971,-0.0033428757451474667 l0.3940518796443939,-0.006994072813540697 0.39728596806526184,-0.0018832988571375608 l0.39422607421875,-0.0011657089926302433 m0.37854626774787903,-0.009508430026471615 l0.3720756471157074,-0.02236519753932953 0.25413769483566284,0.7389960289001465 l0.2662069797515869,-0.07342937588691711 0.022041598334908485,0.6074380874633789 l0.2958793342113495,-0.06375136971473694 m0.2746211290359497,-0.08882580697536469 l0.20608417689800262,0.08009310811758041 0.24398884177207947,0.7700747847557068 m0.24950046837329865,0.7902390956878662 l0.24195168912410736,0.792507529258728 0.23511749505996704,0.7956399321556091 l0.23046815395355225,0.7977115511894226 0.22777175903320312,0.7986711859703064 m0.1980934739112854,0.062109630554914474 l0.297419935464859,-0.02281261421740055 0.1954713612794876,-0.1412818282842636 l0.21585355699062347,0.7745620608329773 0.17355045676231384,0.2600148022174835 m0.4884278178215027,-0.1428702473640442 l0.34247881174087524,-0.05523701757192612 0.15621566772460938,0.15132947266101837 l0.14654229581356049,0.18318971991539001 m0.23428897559642792,0.7389858365058899 m0.24697478115558624,0.7398855686187744 l0.11548875272274017,0.22412247955799103 0.10839375853538513,0.2328559309244156 m0.11546363681554794,0.24101613461971283 m0.12434866279363632,0.2314353734254837 m0.2788185477256775,0.7153238654136658 l0.09309283643960953,0.2146952897310257 0.0961693525314331,0.21818837523460388 l0.10065682232379913,0.21995462477207184 0.34365114569664,0.6723650097846985 l0.23296421766281128,0.31216034293174744 m0.4783725440502167,0.27765926718711853 l0.12089013308286667,0.2140050083398819 0.1911413073539734,0.08626019209623337 l0.45731672644615173,0.6019533276557922 0.47884035110473633,0.5881732106208801 m0.250935435295105,0.3581448197364807 l0.3240947127342224,0.05256423354148865 0.18269820511341095,0.22469672560691833 l0.33050769567489624,-0.2243090271949768 0.7327543497085571,0.03787218779325485 m0.2720213532447815,0.3282580077648163 l0.2197059690952301,0.19552269577980042 0.15398229658603668,0.007671003695577383 l0.1540505737066269,0.00414489209651947 0.29757922887802124,-0.0005885643186047673 l0.29376834630966187,-0.006948373280465603 0.15882669389247894,-0.008877272717654705 m0.25708433985710144,0.2116938680410385 l0.19954103231430054,0.08520922809839249 m0.1880449801683426,0.05913391709327698 m0.22934451699256897,0.15263831615447998 l0.13226580619812012,0.17899782955646515 0.1644560843706131,0.017457637935876846 l0.20650465786457062,-0.0014208111679181457 0.17962397634983063,-0.0493992380797863 l0.17993715405464172,-0.054835379123687744 0.20020641386508942,-0.06191973760724068 l0.11155305802822113,-0.0407206229865551 0.36741432547569275,0.09685135632753372 l0.10458028316497803,0.3072640597820282 0.09372947365045547,0.3033919334411621 l0.10003843158483505,-0.012836347334086895 m0.08148755878210068,0.304806113243103 l0.09426698088645935,-0.002905668457970023 0.18024326860904694,0.1263294816017151 l0.18219710886478424,0.1245109960436821 m0.1907215267419815,0.11417973786592484 m0.3192415237426758,0.12084975093603134 l0.04260262846946716,-0.05127617344260216 m0.20584546029567719,-0.02559746988117695 l0.014602208510041237,0.27991220355033875 m-0.029569050297141075,0.2871837913990021 l0.17988277971744537,-0.0790337324142456 0.16204585134983063,-0.008960111066699028 l0.12836484611034393,0.018878499045968056 m0.19798825681209564,-0.019138965755701065 m0.20602567493915558,-0.01861690729856491 l0.1957373172044754,0.10182183235883713 m0.17158243060112,0.020814891904592514 l-0.03820132091641426,0.01619144342839718 0.07079698145389557,-0.06889356672763824 m0.0741894543170929,0.04257676377892494 m0.20034776628017426,0.09126145392656326 l-0.01460339780896902,0.27583763003349304 m0.08926772326231003,0.008006890304386616 l-0.015619741752743721,0.2747041881084442 0.24181334674358368,0.1343439221382141 l0.04112713783979416,0.04479411244392395 m-0.011687980964779854,0.2794179618358612 l0.02320435270667076,-0.07713870704174042 0.17421205341815948,-0.08148979395627975 l-0.02550205960869789,0.2640438973903656 -0.024001900106668472,0.2662985026836395 m-0.011387069709599018,0.280284583568573 m0.1868860125541687,-0.08625686168670654 m-0.021509790793061256,0.26148664951324463 l-0.038111500442028046,0.015423472039401531 m0.061043526977300644,-0.08922051638364792 l-0.01752316579222679,0.2715841829776764 0.2413170337677002,0.13271303474903107 l0.174507275223732,-0.07907342910766602 0.1646960824728012,0.054451894015073776 l0.193848118185997,0.10024351626634598 0.069046750664711,-0.05597145855426788 l-0.027273699641227722,0.2632407248020172 m0.1656823754310608,0.02691628783941269 l-0.019747233018279076,0.2718348205089569 m0.2020295113325119,-0.010827220045030117 m0.059330619871616364,0.09339628368616104 l-0.01495616789907217,0.2756580114364624 m-0.04162360727787018,0.0075746579095721245 m0.19664901494979858,0.05878009647130966 m0.06885050982236862,0.0265575610101223 m0.043568313121795654,-0.07181216031312943 l0.1923339068889618,0.09961514174938202 m-0.006273767910897732,0.28333914279937744 l-0.035583529621362686,0.25239884853363037 m0.19738619029521942,0.10138184577226639 l0.18134340643882751,-0.08272280544042587 m0.20095910131931305,-0.018778206780552864 l0.18216708302497864,-0.08746280521154404 0.07621784508228302,-0.041543666273355484 l-0.02532447688281536,0.2641620934009552 m0.12153162807226181,0.01806529425084591 l0.19434162974357605,0.10100770741701126 m0.16591417789459229,0.019981101155281067 m-0.024489987641572952,0.2602038085460663 l-0.0698397159576416,0.21720778942108154 m0.2659875154495239,0.13815943896770477 m0.2094108611345291,-0.015146123245358467 l0.0285329632461071,-0.07902257144451141 -0.020875168964266777,0.26828089356422424 l0.12467003613710403,0.0187830850481987 0.12404906004667282,0.0190770011395216 l-0.048997730016708374,0.2386547476053238 m0.19679908454418182,-0.011643104255199432 l0.06573199480772018,-0.06874054670333862 m-0.012002712115645409,0.27851033210754395 l0.12268230319023132,0.018316010013222694 0.06738772243261337,-0.06491832435131073 l-0.024997077882289886,0.2644925117492676 m0.08569683879613876,0.007709714118391275 l0.12224666029214859,0.01802445948123932 m0.20059356093406677,-0.01473292987793684 m0.20187294483184814,0.09039349853992462 l0.08609675616025925,-0.04550972208380699 -0.021116850897669792,0.2683577239513397 l0.06843174993991852,-0.06170142814517021 0.16819660365581512,0.04437027499079704 m0.19693273305892944,-0.014367585070431232 l0.14378239214420319,0.0006576117011718452 m0.03475993499159813,0.038423214107751846 l0.12242665141820908,0.01486280933022499 0.16909295320510864,0.05516503006219864 m-0.011763912625610828,0.27873966097831726 l0.16629430651664734,0.035136397927999496 0.12438353151082993,0.018286945298314095 l0.1241743192076683,0.018573986366391182 -0.0253891684114933,0.2648657262325287 l0.06722937524318695,-0.05367804691195488 m0.2553785741329193,0.12658630311489105 l0.06042642891407013,0.079047791659832 m0.08828555047512054,0.005647663492709398 l0.02637282945215702,-0.08365947008132935 m0.06207174062728882,-0.0867404118180275 l0.03663727641105652,0.04036829620599747 0.020367909222841263,-0.08799953758716583 l0.0860816165804863,0.003367060562595725 m0.06333038210868835,-0.07932805269956589 l0.0878041461110115,0.0026782953646034002 m0.19887694716453552,0.08889638632535934 m0.06884226948022842,0.024681752547621727 l0.17936275899410248,0.0562460795044899 0.07325915992259979,0.02582445740699768 l-0.023143930360674858,0.2660987377166748 m0.06234187260270119,-0.07697053253650665 l0.19343416392803192,0.0997224971652031 m0.18706989288330078,-0.09025559574365616 l0.16756132245063782,0.03179285675287247 0.06914342939853668,-0.06786154210567474 l0.06961571425199509,-0.06322260946035385 m0.06377538293600082,-0.0803331807255745 m0.20076659321784973,0.08650786429643631 l0.25714802742004395,0.12215791642665863 0.12484549731016159,0.01534643117338419 l0.18112815916538239,-0.019640052691102028 0.02161335200071335,-0.0911242738366127 m0.06382303684949875,-0.07879288494586945 l0.1743675023317337,0.05274861305952072 m0.20006166398525238,0.09030687063932419 l0.16765311360359192,0.03279411420226097 0.16951049864292145,0.053978051990270615 m0.1584399789571762,0.007419467903673649 m0.0918954387307167,0.002634775824844837 l0.19139786064624786,-0.021418873220682144 -0.021350378170609474,0.26842615008354187 l-0.040105003863573074,0.018751006573438644 m0.03446533530950546,0.040488891303539276 l0.07417178899049759,0.04410800710320473 0.07161251455545425,0.02649395354092121 m0.12100406736135483,0.016922684386372566 l0.08074744045734406,-0.042431145906448364 0.1924065351486206,0.09838500618934631 l0.1681821048259735,0.043790604919195175 0.13234148919582367,-0.0026649166829884052 l-0.04983541741967201,0.23764562606811523 m0.16599811613559723,0.026311416178941727 m-0.06719513982534409,0.22168776392936707 l0.035112522542476654,0.04228390380740166 0.12339982390403748,0.01836731657385826 l0.07204528898000717,0.026700029149651527 -0.04797128215432167,0.2385532408952713 m0.19708728790283203,-0.011871681548655033 l0.07414409518241882,0.04364388436079025 0.18334873020648956,-0.017598643898963928 m0.186972975730896,0.051373496651649475 m0.12109280377626419,0.014040188863873482 l0.15091882646083832,0.003383020870387554 0.1774097979068756,-0.08515170216560364 l0.07308200746774673,-0.04033135995268822 m0.16859817504882812,0.02202775701880455 m0.20493434369564056,-0.016254186630249023 m0.20114578306674957,0.04974735900759697 l0.036122243851423264,0.03849446773529053 0.12438211590051651,0.01345828827470541 l0.07019470632076263,-0.0655791237950325 0.018735645338892937,-0.09126978367567062 l-0.027308223769068718,0.2615458071231842 0.1697748601436615,-0.07866422832012177 l0.12223123013973236,0.019745105877518654 -0.027053261175751686,0.26303625106811523 l0.06642766296863556,-0.05152249336242676 m0.06226130947470665,0.08801668137311935 m0.1645004153251648,0.013665048405528069 m0.2021114081144333,0.0915750116109848 m-0.0021909161005169153,0.28954383730888367 l0.19393442571163177,0.10837730765342712 m0.1909252554178238,-0.08992376178503036 l0.17729926109313965,0.055831167846918106 m0.05993460863828659,0.08692920207977295 l0.0678241103887558,-0.07727047055959702 0.07888080924749374,0.04121050238609314 l0.12375552952289581,0.016645684838294983 m0.035740796476602554,0.03974638134241104 l0.17425939440727234,0.055784229189157486 0.04024200141429901,0.04376678168773651 l0.23722730576992035,0.12392087280750275 0.19370785355567932,0.10251826792955399 m0.07046154886484146,0.024492710828781128 l0.24742832779884338,0.12475486099720001 0.19485867023468018,0.10369798541069031 m-0.03201756626367569,0.25386887788772583 m0.2708357274532318,0.13418473303318024 m0.030558601021766663,0.03607359901070595 l-0.037759315222501755,0.015668774023652077 m0.12244951725006104,0.013430719263851643 l0.19299401342868805,0.1009523794054985 -0.01992015354335308,0.26955902576446533 l0.05728643015027046,0.0772547647356987 m0.18410159647464752,-0.08658625185489655 l0.03855684772133827,0.04183170199394226 0.12303244322538376,0.01727570779621601 l0.12322796136140823,0.018107252195477486 0.04217005893588066,0.045337747782468796 l0.19269679486751556,0.09977786242961884 0.19372019171714783,0.1009882390499115 l-0.07679594308137894,0.22574670612812042 m0.03584856167435646,0.0429183654487133 m0.05840745195746422,-0.08603627979755402 l0.08519919961690903,-0.043509919196367264 m0.03766482695937157,-0.08120272308588028 l-0.01917073130607605,0.26952776312828064 -0.038950104266405106,0.018282053992152214 l0.08360426872968674,0.007997449487447739 0.19085638225078583,0.09972815960645676 l-0.04808655008673668,0.23808230459690094 m0.06096288934350014,-0.07230307906866074 l0.08523183315992355,0.006452837958931923 0.16721053421497345,0.04046819731593132 m0.08605778217315674,-0.04745802283287048 m0.11993790417909622,0.013737632893025875 m-0.0047991713508963585,0.2860311269760132 m0.28068575263023376,0.13497284054756165 l0.03014965169131756,-0.07507474720478058 m0.07001587748527527,0.02524487115442753 l0.03611348569393158,0.039482563734054565 0.19086255133152008,0.10174466669559479 l0.06967621296644211,-0.06340569257736206 0.0726381316781044,0.02441052347421646 m0.1675456017255783,0.023724718019366264 l-0.04190988838672638,0.2447757124900818 0.17341968417167664,-0.08030452579259872 l-0.02478109300136566,0.26505395770072937 0.05880427360534668,0.07717552781105042 m0.08438727259635925,-0.044331736862659454 m0.059476736932992935,-0.08876591920852661 l0.07063165307044983,0.025883251801133156 m0.06195773184299469,-0.08871054649353027 l0.14681637287139893,0.001690682373009622 0.17675696313381195,-0.08528588712215424 m0.0645628422498703,-0.08457513153553009 l0.19382959604263306,0.0949951633810997 m-0.010381340980529785,0.2800145745277405 m0.19745005667209625,0.05633168667554855 m0.06077582761645317,-0.09991312772035599 l0.06707219779491425,-0.08547788858413696 0.06961525231599808,-0.07432778179645538 m0.12128721177577972,0.011984658427536488 m0.04169680178165436,-0.07988657802343369 l-0.03826300799846649,0.24830196797847748 -0.01915181614458561,0.2699572443962097 l0.12423063069581985,0.020870383828878403 0.16416822373867035,0.059098560363054276 m0.03609815612435341,0.04102642834186554 m0.06012849137187004,-0.08865240961313248 m0.20099914073944092,0.08931780606508255 l0.1933031529188156,-0.02155979350209236 m0.032616935670375824,0.03614652529358864 l0.0772399753332138,0.042886555194854736 0.16855549812316895,0.03814446181058884 l0.0731419175863266,0.024773193523287773 -0.02494623325765133,0.2646951675415039 l0.06782209128141403,-0.05432360991835594 -0.04925522953271866,0.236522376537323 m-0.03136352822184563,0.2493271678686142 m-0.0057315765880048275,0.28651130199432373 l0.0702664703130722,0.031528569757938385 0.0655040293931961,-0.06531690061092377 l0.07641420513391495,0.04224812611937523 0.07098256051540375,-0.037083230912685394 l0.07151444256305695,0.02509234845638275 m0.1991996467113495,0.08926516026258469 l0.03907126933336258,0.043506499379873276 0.19300754368305206,0.1009628027677536 l0.07265570759773254,0.025996454060077667 " fill="none" stroke="black" stroke-width="1" /></svg>