<?xml version="1.0" encoding="utf-8" ?>
<svg baseProfile="full" height="128.8547154617845" version="1.1" width="97.26775367883965" xmlns="http://www.w3.org/2000/svg" xmlns:ev="http://www.w3.org/2001/xml-events" xmlns:xlink="http://www.w3.org/1999/xlink"><defs /><rect fill="white" height="128.8547154617845" width="97.26775367883965" x="0" y="0" /><path d="M25.354400185868144,25 m0.0,0.0 m0.05217330530285835,0.1480223387479782 l-0.18425126373767853,0.28135693073272705 0.025845887139439583,-0.23370467126369476 l-0.06647450476884842,0.4864627718925476 m-0.14379894733428955,0.2938983738422394 l-0.03789466246962547,0.5436143279075623 m0.4184379577636719,0.7661192417144775 l0.13155145943164825,0.015083780512213707 m0.3867740333080292,-0.027485782280564308 l0.4131651818752289,0.0008962145075201988 0.43578821420669556,0.025067517533898354 l0.45903220772743225,0.04942745715379715 m-0.06026046723127365,0.21557816863059998 l0.5056712627410889,0.09786618500947952 0.2776692807674408,0.01918772980570793 l0.3761044144630432,-0.32475486397743225 0.21305125951766968,0.36230748891830444 l0.36175617575645447,0.11640354245901108 0.48656487464904785,0.44069960713386536 m0.17288579046726227,0.5633888244628906 m0.11068267375230789,0.1123552918434143 l-0.07051455229520798,0.005680365487933159 0.24382908642292023,-0.0009306329884566367 l0.5522611141204834,0.4179908335208893 0.5397931933403015,0.5586874485015869 l0.5323098301887512,0.5880346894264221 0.33987632393836975,0.07352543622255325 l0.4745279848575592,0.3563556373119354 0.4545949399471283,0.35460689663887024 l0.4356502890586853,0.6688474416732788 0.4053751230239868,0.08649574965238571 l0.3598479926586151,0.6856840252876282 m0.27257874608039856,0.4055963158607483 l-0.18533548712730408,0.14574044942855835 0.19770483672618866,0.08178433775901794 l0.19781747460365295,0.6795101165771484 m-0.023862995207309723,0.4086281657218933 m0.13111074268817902,0.6678763031959534 l0.11192015558481216,0.6567448973655701 0.10390233993530273,0.637180745601654 l0.16708672046661377,0.6990805268287659 0.10339134186506271,0.5982840657234192 l0.11050836741924286,0.5779878497123718 0.12295300513505936,0.5585666298866272 m0.13598643243312836,0.5409155488014221 l-0.04558379575610161,0.6855013966560364 0.17663371562957764,0.5056129693984985 l0.2029385268688202,0.4816472828388214 0.2273341566324234,0.45819902420043945 l-0.14174923300743103,0.6252045035362244 0.26335784792900085,0.4093678593635559 l-0.5792482495307922,0.3882593810558319 0.28437796235084534,0.3511289656162262 l0.2951340973377228,0.32247963547706604 m-0.5581252574920654,0.35146158933639526 l-0.5490564703941345,0.35272958874702454 m0.31579095125198364,0.2787235975265503 l0.3313741981983185,0.26250746846199036 m0.35004639625549316,0.26108938455581665 l-0.07906290143728256,0.3905108571052551 m-0.048561904579401016,0.36780890822410583 m0.3782014548778534,0.2559574544429779 l0.38681018352508545,0.24369709193706512 m0.3921433985233307,0.24535872042179108 l0.39224475622177124,0.23388011753559113 0.3935321569442749,0.2253928929567337 l0.39178168773651123,0.21763382852077484 m0.38517144322395325,0.21999552845954895 m0.37516769766807556,0.2181462049484253 l0.36943620443344116,0.20469367504119873 0.36895808577537537,0.19567443430423737 l0.36850419640541077,0.18983161449432373 0.3684925138950348,0.18618465960025787 l0.36883842945098877,0.18425919115543365 0.3692954480648041,0.18380896747112274 l-0.2142149806022644,0.05763649940490723 0.365128755569458,0.1850551962852478 l0.2863171696662903,0.4242444932460785 -0.05829959362745285,0.049391668289899826 l0.35171276330947876,0.1957300901412964 m0.19564734399318695,-0.07707823067903519 l0.32868492603302,0.21224109828472137 m0.31496182084083557,0.23636211454868317 l0.3000434339046478,0.24492748081684113 m0.28301504254341125,0.27287593483924866 l0.26862022280693054,0.28821030259132385 m0.25037917494773865,0.3227347731590271 m0.2296619564294815,0.35735175013542175 l0.22076493501663208,0.3799002170562744 0.21772058308124542,0.4071681797504425 l0.21556437015533447,0.438052773475647 0.21470612287521362,0.46925461292266846 l0.023831764236092567,0.11047051101922989 0.21578234434127808,0.5189549326896667 l0.18122760951519012,0.3746717572212219 0.44506484270095825,0.4244975447654724 m0.22927570343017578,0.587736189365387 l0.4293796718120575,0.414646714925766 0.23973457515239716,0.6068331599235535 l0.45708873867988586,0.5753167271614075 m0.257159024477005,0.6177175045013428 l0.4754139184951782,0.5816690921783447 m0.09519839286804199,0.32691898941993713 l0.270871102809906,0.6084655523300171 0.2497965693473816,0.3405689001083374 l0.29057738184928894,0.5929410457611084 0.19532588124275208,0.07403458654880524 l0.3075851798057556,0.5830845832824707 0.3163244426250458,0.588869571685791 l-0.36527717113494873,0.2058725357055664 0.21203003823757172,0.028067046776413918 l0.3384380340576172,0.6002675294876099 0.47484827041625977,0.899643063545227 l0.35572776198387146,0.6359030604362488 0.36434316635131836,0.649886429309845 l0.37326866388320923,0.6650419235229492 m0.4959736466407776,0.9432091116905212 l0.4290880858898163,0.17420022189617157 0.20952118933200836,-0.04339160397648811 l0.4072210192680359,0.7159000635147095 m0.4220898449420929,0.13067036867141724 l0.4735216200351715,0.9033147692680359 0.16125135123729706,-0.04480376094579697 l0.4446712136268616,0.8600346446037292 0.4379970133304596,0.7875644564628601 l0.4581740200519562,0.23469498753547668 0.3915264308452606,0.7825698852539062 l0.439004510641098,0.8172210454940796 0.3512684404850006,0.7280877232551575 l0.07562171667814255,-0.023422060534358025 -0.13015508651733398,0.3608317971229553 l0.056470900774002075,-0.034937888383865356 0.3733704388141632,0.208072692155838 l0.26049676537513733,0.591274619102478 0.42364221811294556,0.08054949343204498 l0.23502875864505768,0.5552613735198975 0.22319388389587402,0.5410535931587219 l0.25671958923339844,0.006624112371355295 0.19941115379333496,0.5076949000358582 l0.310435026884079,0.4334337115287781 m0.04422392696142197,-0.09459823369979858 m0.17791178822517395,0.46260756254196167 l-0.052360549569129944,0.05404828116297722 0.356839656829834,-0.20110729336738586 l0.06501995772123337,-0.09127260744571686 0.2795906364917755,0.9133546352386475 l0.1400492936372757,0.43409791588783264 m0.25642523169517517,0.9228324890136719 l0.24612128734588623,0.9280973672866821 0.2373587191104889,0.9229155778884888 m0.2228262722492218,0.5170423984527588 l0.2146662473678589,0.8936959505081177 m0.18523448705673218,0.2851507365703583 m0.20597419142723083,0.49399256706237793 l0.178529292345047,0.8393481969833374 0.21511909365653992,-0.10987790673971176 l0.16646327078342438,0.7897538542747498 m0.20655058324337006,-0.12068498134613037 l-0.19914951920509338,-0.10822641849517822 0.0863444060087204,0.3095143139362335 l0.04131757467985153,0.19932760298252106 0.07606247812509537,0.285789430141449 l0.05807005241513252,0.016281526535749435 0.11678823083639145,0.6525037884712219 l-0.22305767238140106,0.1528412103652954 0.10259175300598145,0.6226691603660583 l0.1540328562259674,-0.08547431975603104 0.09245061874389648,0.5789436101913452 l0.014711153693497181,0.11035781353712082 m0.148834690451622,-0.11226014792919159 l0.06425917148590088,0.039338115602731705 0.12023904919624329,0.1458236426115036 l0.047744788229465485,0.48622560501098633 0.06231848895549774,0.04804592207074165 l0.04438177868723869,0.16617658734321594 0.02443176694214344,0.44979244470596313 l0.015941724181175232,0.44627535343170166 0.008491977117955685,0.4407989978790283 l0.03504519537091255,0.08421463519334793 0.039928045123815536,0.151556596159935 l0.07738204300403595,0.06707111746072769 -0.011407677084207535,0.39923468232154846 l-0.004041560459882021,0.020085303112864494 0.13534732162952423,-0.09839602559804916 l-0.020684482529759407,0.372179239988327 0.10719726979732513,0.12091577798128128 l-0.026243077591061592,0.36280012130737305 m0.03773469850420952,0.12502552568912506 l0.1738608181476593,0.14217521250247955 0.03063465841114521,0.12988413870334625 l0.09455397725105286,0.004153402056545019 0.16838055849075317,0.1383228451013565 l-0.03406985476613045,0.3046092092990875 m0.1779058277606964,0.13364671170711517 l0.0397985465824604,0.14226645231246948 m0.11743427813053131,0.003989757504314184 m0.034016698598861694,0.09491323679685593 l-0.11791778355836868,0.19046352803707123 0.029232211410999298,-0.18074773252010345 m0.031570348888635635,0.08895968645811081 l-0.052650708705186844,0.24410656094551086 m0.08752035349607468,0.15136007964611053 m-0.10985395312309265,0.202958881855011 l0.058205436915159225,-0.022355351597070694 0.027507314458489418,0.09669170528650284 l0.02812996879220009,0.09642281383275986 -0.04077001288533211,0.08258834481239319 m0.1114746555685997,0.09852667897939682 l-0.05251619964838028,0.22814810276031494 0.08937113732099533,0.16056115925312042 m0.11411342024803162,0.10027919709682465 l0.11814845353364944,0.10321127623319626 0.06109742820262909,-0.0231762807816267 m0.12936466932296753,0.05825551599264145 l0.06068723648786545,-0.030677273869514465 -0.11134874075651169,0.01210799254477024 l0.12331979721784592,0.006227495614439249 -0.045902907848358154,0.21769188344478607 l-0.14593322575092316,-0.13571424782276154 m0.1776231974363327,0.11283067613840103 m0.10887283831834793,0.09093538671731949 l0.03103141486644745,0.08896026760339737 m-0.14031779766082764,-0.1489279568195343 l0.16695338487625122,0.11430416256189346 -0.053798627108335495,0.21966736018657684 m-0.04623592272400856,0.08671711385250092 m-0.06412126123905182,0.2342209368944168 l0.029257355257868767,0.0916152223944664 0.06499192118644714,-0.06297621130943298 l-0.05056093633174896,0.21846848726272583 m0.040772054344415665,-0.004499298054724932 l0.16955918073654175,0.11791151016950607 0.03020191192626953,0.09289252758026123 l0.09646458923816681,0.04650047793984413 0.12227558344602585,0.006696308497339487 m0.07294093072414398,-0.06264272332191467 l0.11552251875400543,0.09461875259876251 m0.034819263964891434,0.07920262962579727 m0.08461584150791168,-0.12717042863368988 l0.0601709820330143,-0.03837092965841293 0.05945529416203499,-0.032073553651571274 l-0.11435802280902863,0.18110471963882446 0.06114862114191055,-0.06381656974554062 l0.06193680688738823,-0.0643845796585083 0.16903196275234222,0.14502860605716705 l-0.04320144280791283,0.22000570595264435 0.09404285997152328,0.1584053486585617 m0.096158966422081,0.05356062576174736 m0.021857133135199547,-0.16987068951129913 l0.0593244805932045,-0.03683468699455261 m0.07672290503978729,-0.06853707134723663 l0.018570369109511375,-0.15935802459716797 0.0663241595029831,-0.06981979310512543 m-0.056647371500730515,0.2202313393354416 l-0.11253730207681656,0.18839746713638306 0.03954344242811203,0.08931337296962738 m0.022301308810710907,-0.16234439611434937 l0.018315067514777184,-0.15578800439834595 m0.07571863383054733,-0.07069584727287292 l0.09063466638326645,-0.11017221212387085 m0.08772317320108414,-0.12437444180250168 l0.02958352491259575,0.08555964380502701 0.09319982677698135,-0.10304134339094162 l0.1725153923034668,0.1474299430847168 0.05868453159928322,-0.023930884897708893 m-0.11191095411777496,0.019536742940545082 l0.17475628852844238,0.14990293979644775 m0.05919985845685005,-0.04029097780585289 l0.12645751237869263,0.0024108164943754673 m0.033645790070295334,0.07939022779464722 m-0.08948317170143127,-0.0315706841647625 m0.03293614089488983,0.07592978328466415 l0.08536139130592346,0.15686920285224915 m0.06065761670470238,-0.042666442692279816 l0.11500906199216843,0.09914349019527435 0.16782836616039276,0.12033108621835709 m0.13317625224590302,0.0018976068822667003 l0.039161939173936844,0.08887673169374466 0.029493091627955437,0.09357155859470367 m-0.04673713818192482,0.08425339311361313 l0.1262415498495102,0.005011679604649544 0.05972639471292496,-0.026464900001883507 l0.05888640508055687,-0.025229251012206078 m0.09764499962329865,0.14815111458301544 m0.0434756726026535,0.08694376051425934 l0.17029047012329102,0.11588620394468307 m-0.06096172332763672,0.23163579404354095 l0.029705286026000977,0.09311173111200333 0.04187571629881859,-0.007064402103424072 m0.059481456875801086,-0.03849932551383972 l0.09188088774681091,0.15537583827972412 m0.03338188678026199,0.0805600956082344 l0.08941914886236191,0.1568768322467804 m0.0332760289311409,0.08196403831243515 m0.06098047271370888,-0.04553071781992912 m-0.051211439073085785,0.08588297665119171 l0.18266554176807404,0.15812189877033234 0.08939503133296967,-0.10130922496318817 l-0.05172225087881088,0.21636413037776947 0.041246477514505386,-0.008766372688114643 m0.0396951362490654,-0.005520253907889128 m-0.137701153755188,-0.14904911816120148 m0.043001387268304825,-0.0013209485914558172 m0.04274676740169525,-0.0006293264450505376 m0.04733898490667343,0.09170600771903992 l0.08125756680965424,-0.11373540014028549 m0.0903785452246666,0.1498144268989563 m0.17772547900676727,0.11135682463645935 l0.0625234991312027,-0.03535814955830574 m0.11228874325752258,0.09348201751708984 l0.06958499550819397,-0.06488658487796783 m0.03204997256398201,0.0801260843873024 m0.06036577746272087,-0.04833349585533142 m0.03261188417673111,0.07647643238306046 l-0.14864809811115265,-0.14690881967544556 -0.11378727853298187,0.18573230504989624 m0.031010931357741356,0.0802009254693985 l-0.04459448531270027,0.08410391211509705 m0.032210689038038254,0.0795683041214943 l-0.113890640437603,0.011171380057930946 -0.06842843443155289,-0.021710069850087166 l0.019767455756664276,-0.14762075245380402 0.02951090596616268,0.08822452276945114 m-0.04706553369760513,0.07958003878593445 m0.057303447276353836,-0.04540582373738289 m0.092218317091465,0.14547006785869598 l0.18242619931697845,0.15666711330413818 m0.03199309483170509,0.08221060782670975 l-0.060636162757873535,0.2257918119430542 0.08663684874773026,0.16232672333717346 l-0.060000501573085785,-0.016208194196224213 m-0.04604443535208702,0.08426981419324875 l-0.05493016913533211,0.2249651402235031 m0.11015850305557251,0.10001486539840698 l0.030378136783838272,0.09101472795009613 m0.03326927870512009,0.08107268065214157 m0.03393110632896423,0.07808562368154526 l0.1685497760772705,0.11663155257701874 0.041632745414972305,-0.007236046716570854 l0.02898220904171467,0.09368091821670532 m0.03960879147052765,-0.005627116654068232 m-0.08858490735292435,-0.02993505261838436 l-0.06010494753718376,0.22253243625164032 m0.04181798920035362,-0.002565732691437006 m0.03309471160173416,0.0770859643816948 l0.02850745990872383,0.08989156782627106 m-0.06401479244232178,0.22946888208389282 l-0.11192294210195541,0.19415295124053955 0.04337398707866669,-0.005517902318388224 l-0.050817184150218964,0.22043924033641815 -0.04151735082268715,0.08427895605564117 m0.11052647978067398,0.09891984611749649 l0.09662216901779175,0.04923161491751671 m0.05992872640490532,-0.039581067860126495 l0.06895308941602707,-0.0656319409608841 -0.05175298824906349,0.21764950454235077 l0.09570595622062683,0.04716712608933449 -0.14505435526371002,-0.13785475492477417 l-0.06490547955036163,-0.020059285685420036 0.09526081383228302,0.1559097021818161 m0.04261701926589012,0.08348405361175537 l0.17078444361686707,0.11676918715238571 0.17300157248973846,0.14918026328086853 l0.12116393446922302,0.005950875114649534 -0.1428402215242386,-0.13937604427337646 m0.040045153349637985,-0.005932995118200779 m0.0774901956319809,-0.0681755319237709 m0.03454018011689186,0.07358453422784805 m0.17852866649627686,0.10705064237117767 l0.0839768797159195,-0.11284351348876953 0.06066276878118515,-0.03278061002492905 m0.02119806967675686,-0.16651679575443268 l0.029271429404616356,0.08704526722431183 0.06485257297754288,-0.06651436537504196 l0.09769554436206818,0.04394613951444626 m0.022189829498529434,-0.1632666140794754 l0.030911099165678024,0.08574886620044708 0.03949017450213432,0.08695809543132782 l0.09742368012666702,-0.09734433889389038 m0.03454199805855751,0.07774113863706589 l0.09340836107730865,-0.10595754534006119 m0.11014758050441742,0.08830950409173965 l0.04135585203766823,-0.006426829844713211 m0.039940252900123596,-0.004367882385849953 l0.09678029268980026,0.04758117347955704 m-0.13897985219955444,-0.15051868557929993 m-0.06581536680459976,0.22661620378494263 l-0.07667054235935211,-0.02758067287504673 m0.18548160791397095,0.15850414335727692 l-0.04528576135635376,0.0847293958067894 m0.031868282705545425,0.08078592270612717 m0.1781224012374878,0.11203563213348389 m0.044819898903369904,0.09147804975509644 l0.11603537946939468,0.10167092084884644 -0.14908568561077118,-0.14196279644966125 l-0.10906464606523514,0.009977372363209724 m0.041738361120224,-0.00462847575545311 m-0.10813552886247635,0.19704540073871613 l0.029285142198204994,0.08897718787193298 0.12589751183986664,0.004644791595637798 l0.16780199110507965,0.12053638696670532 m-0.05456202104687691,0.22839070856571198 l0.12497840821743011,0.006483482662588358 m-0.05803433805704117,0.23085923492908478 m0.11035428196191788,0.09767467528581619 m0.03384941443800926,0.0791482999920845 m-0.07136116921901703,0.23608089983463287 m-0.07438972592353821,0.23894235491752625 m0.080546535551548,-0.06632031500339508 m-0.0748078003525734,0.23290324211120605 l-0.04627402871847153,0.09146034717559814 m-0.06828480213880539,0.23067133128643036 l-0.06392160803079605,0.22784368693828583 m-0.06493426114320755,0.2342749834060669 l0.061542611569166183,-0.02527221105992794 m0.03218020871281624,0.08097552508115768 l0.029414372518658638,0.09069975465536118 0.028697960078716278,0.09319248795509338 l0.059701062738895416,-0.0222479160875082 m0.07278113812208176,-0.06473887711763382 m0.07845938205718994,-0.06773306429386139 m-0.1372445523738861,-0.1545284390449524 l0.043576281517744064,0.09031758457422256 -0.045472562313079834,0.08034320920705795 m-0.08489236980676651,-0.027330251410603523 m0.18718455731868744,0.15782798826694489 l0.028946612030267715,0.0899447649717331 m0.059880420565605164,-0.04211026057600975 m-0.06660719960927963,0.22964102029800415 l-0.045693445950746536,0.08819879591464996 m0.10997425019741058,0.098752960562706 l0.1680394560098648,0.11886365711688995 m-0.061431314796209335,0.23051723837852478 l0.029204845428466797,0.09317659586668015 -0.1126992404460907,0.010557643137872219 l0.02218359336256981,-0.14665403962135315 m-0.13867884874343872,-0.14426781237125397 m0.09952592104673386,0.052254579961299896 m0.03378264233469963,0.07355349510908127 m0.032521896064281464,0.07552402466535568 l0.12784390151500702,0.05414788797497749 -0.044565603137016296,0.082768514752388 m-0.04709859937429428,0.08535679429769516 m0.10799829661846161,0.09508664906024933 l0.02109288051724434,-0.15789175033569336 m0.0318053737282753,0.0783766433596611 l0.08727936446666718,-0.10879793018102646 0.028220705687999725,0.09062515199184418 l0.03936789557337761,0.08761043101549149 m0.04340852424502373,0.0861351490020752 " fill="none" stroke="black" stroke-width="1" /></svg>