<?xml version="1.0" encoding="utf-8" ?>
<svg baseProfile="full" height="99.57803369787871" version="1.1" width="114.75401528039947" xmlns="http://www.w3.org/2000/svg" xmlns:ev="http://www.w3.org/2001/xml-events" xmlns:xlink="http://www.w3.org/1999/xlink"><defs /><rect fill="white" height="99.57803369787871" width="114.75401528039947" x="0" y="0" /><path d="M25,25 m0.0,0.0 m0.038897253572940826,0.09345932304859161 l0.055009838193655014,0.3132016956806183 0.08937562257051468,0.35108914971351624 m0.12240161001682281,0.3910600244998932 m0.005631209351122379,0.4971296489238739 m0.1658298522233963,0.47229593992233276 m0.04135053604841232,-0.15740373730659485 l0.006703722290694714,0.446885347366333 0.07144385576248169,-0.19182562828063965 m0.03424360975623131,0.4236595332622528 l0.31490933895111084,0.43354669213294983 0.10106781870126724,-0.25597167015075684 m0.22646686434745789,0.5610871911048889 l0.1566401869058609,-0.09667864441871643 0.0771862044930458,-0.39170217514038086 l0.07103230059146881,0.5306915044784546 0.33628782629966736,0.2568531632423401 l0.06942180544137955,0.646567165851593 0.11998923122882843,0.42652061581611633 l0.3755381107330322,0.09577013552188873 m0.3440864384174347,0.2800033390522003 l0.17247237265110016,-0.15219002962112427 0.33289623260498047,0.2866467535495758 l0.35506242513656616,0.08467073738574982 0.3472568094730377,0.08973939716815948 l-0.09462863951921463,-0.1179756298661232 m-0.2368679642677307,-0.083854079246521 l0.3253423869609833,0.12381595373153687 m0.3254568576812744,0.14364148676395416 m0.36687853932380676,0.29343709349632263 l0.04360360652208328,-0.13409000635147095 0.3154849410057068,0.19015242159366608 l0.31139835715293884,0.2068992555141449 0.30588722229003906,0.2231149673461914 m0.2984192371368408,0.24450577795505524 m0.05492546409368515,-0.006641237530857325 l-0.20853716135025024,0.37555864453315735 m0.05917597934603691,-0.06416425108909607 l0.3122347593307495,-0.2727629840373993 0.08706051111221313,-0.04301295056939125 l0.2879847586154938,0.26890820264816284 0.1562279611825943,-0.23337239027023315 l0.15039224922657013,0.22557583451271057 0.1597868800163269,0.2637738883495331 l0.13878989219665527,-0.16834746301174164 0.1130400076508522,0.1061074361205101 m0.10013622790575027,0.14253710210323334 l0.43370547890663147,0.12063314020633698 0.2134072184562683,0.4090653657913208 m0.2230347841978073,0.4373920261859894 l0.15621083974838257,-0.032930757850408554 0.4300965666770935,0.061740078032016754 m0.25758782029151917,0.4650295078754425 l0.26499858498573303,0.47103574872016907 0.2603845000267029,0.013686012476682663 l0.21381419897079468,0.5695216059684753 0.3020734488964081,0.4880998432636261 m0.31991368532180786,0.49533239006996155 l0.3330370783805847,0.4972151219844818 0.21206384897232056,0.5269162058830261 l0.7166130542755127,-0.02250150963664055 0.08356813341379166,0.4836663603782654 m-0.13842591643333435,0.670187771320343 l0.22534891963005066,0.5014001727104187 0.22652661800384521,0.500077486038208 l0.40444162487983704,0.5123262405395508 m0.47570139169692993,0.18526972830295563 l0.3980756103992462,0.4829651117324829 0.23581357300281525,0.515083372592926 m0.37169715762138367,0.45077940821647644 m0.35389193892478943,0.42310142517089844 l0.49135974049568176,0.1387520581483841 0.8194617629051208,-0.599410891532898 l0.2586524784564972,0.5458784699440002 0.27743443846702576,0.2969633638858795 l0.4622563123703003,-0.05180723965167999 0.465009480714798,-0.03997083753347397 l0.24847766757011414,0.24780943989753723 0.46670296788215637,-0.0034079274628311396 l0.29601240158081055,0.5480765700340271 m0.3003895580768585,0.5534796118736267 m0.06490320712327957,0.649891197681427 l0.29809635877609253,0.3823111653327942 0.25748440623283386,0.05104764923453331 m0.2825371026992798,0.03011322394013405 l0.07716306298971176,0.5120446681976318 0.8183550834655762,0.15595190227031708 m-0.008914012461900711,-0.1301174759864807 l-0.19497573375701904,0.9459692239761353 0.5275816917419434,-0.019662119448184967 l0.36155635118484497,0.026622086763381958 0.08494766801595688,0.24806563556194305 l0.08485531061887741,0.21204763650894165 0.08225039392709732,0.18088100850582123 l0.17433008551597595,0.6045994758605957 0.3430302143096924,-0.05507819354534149 l0.0699169710278511,0.13562124967575073 0.15342608094215393,0.6608241200447083 l0.38021746277809143,-0.170175239443779 0.23592457175254822,-0.07041119784116745 l0.26245251297950745,-0.0614207424223423 0.2888340353965759,-0.0521475188434124 l0.30310526490211487,0.10694529861211777 0.33834949135780334,-0.02997579239308834 l0.35906001925468445,-0.020754758268594742 0.37622541189193726,-0.011684703640639782 l0.38880622386932373,-0.004098596516996622 m0.38774120807647705,-0.002784838667139411 m0.3881063163280487,-0.010119100101292133 m0.38486045598983765,-0.01754867471754551 l0.46944159269332886,0.2785647213459015 0.3746803402900696,-0.021859506145119667 m-0.02236764319241047,0.24830114841461182 l0.021591220051050186,0.6144118905067444 0.31528621912002563,-0.05301138013601303 l0.35359811782836914,0.24064518511295319 0.02781415544450283,0.6166433691978455 m0.03857840970158577,0.6358689665794373 l0.0994696095585823,0.09794730693101883 m0.24790281057357788,0.7894344925880432 l0.23510585725307465,-0.12290673702955246 0.22689853608608246,0.7856639623641968 l0.22223703563213348,0.009057048708200455 0.33231648802757263,0.24846486747264862 m0.44601523876190186,-0.13750463724136353 l0.2735038995742798,0.061955470591783524 0.1269916146993637,0.15812775492668152 l0.15899290144443512,0.23625633120536804 0.33979469537734985,-0.04567673057317734 l0.21915283799171448,0.7640008330345154 0.2275928258895874,0.7636828422546387 l0.47339022159576416,-0.02959858439862728 0.14300042390823364,0.18838955461978912 l0.22919046878814697,0.7336813807487488 m0.12438596785068512,0.2255363017320633 m0.11324252933263779,0.22624289989471436 m0.10499307513237,0.22462961077690125 m0.2581683099269867,0.7222335338592529 m0.2717686593532562,0.7243846654891968 m0.26729854941368103,0.1411714255809784 l0.2884995639324188,0.7098352909088135 0.15095022320747375,0.20672942698001862 l0.10021457821130753,0.21865218877792358 -0.05062336474657059,0.6597984433174133 l0.34247124195098877,-0.0940084159374237 m0.1897321492433548,0.11444931477308273 m0.3793897330760956,-0.08330727368593216 m0.2289750874042511,0.32883745431900024 l0.33170512318611145,0.020809786394238472 0.4726034998893738,0.5881831645965576 m0.07725822925567627,0.22385044395923615 l0.037661582231521606,0.44980064034461975 0.12198149412870407,0.09059973806142807 l0.19362500309944153,0.22376491129398346 0.20382800698280334,0.221171036362648 l0.27165645360946655,0.33345678448677063 0.1535077840089798,0.014440861530601978 l0.3099679946899414,0.08095535635948181 m0.36184513568878174,-0.14706428349018097 l0.15719719231128693,-0.0028398223221302032 0.2200596183538437,0.14378777146339417 l0.2873666286468506,-0.009861594066023827 0.40741726756095886,0.407876580953598 l0.16388197243213654,-0.015038864687085152 m0.17568035423755646,-0.033487334847450256 l0.14238424599170685,-0.0673564001917839 m0.24851705133914948,-0.07844914495944977 l0.16421738266944885,0.011684461496770382 m0.2434958964586258,0.37170520424842834 m0.19047911465168,0.007516481913626194 l0.15788225829601288,0.15733873844146729 0.2765577733516693,0.15863309800624847 l0.14209261536598206,0.3276674449443817 m0.1736496090888977,0.14132831990718842 l0.11544717103242874,-0.035359520465135574 -0.06933673471212387,0.25972500443458557 l0.1733359694480896,0.13625364005565643 m0.10008659958839417,-0.049635086208581924 m0.09506889432668686,-0.0664689913392067 l0.18180008232593536,0.12048447132110596 m0.19028931856155396,-0.08430654555559158 m0.23941785097122192,-0.022658750414848328 l0.08218397200107574,0.07383625954389572 0.19817398488521576,0.0682285875082016 m0.20167982578277588,-0.026413170620799065 l0.013532365672290325,0.27913954854011536 m0.1963360458612442,0.10803748667240143 l0.005971276201307774,0.28090834617614746 0.1619577556848526,-0.00561000220477581 l0.1914633959531784,0.11005567759275436 0.1928384006023407,0.10874791443347931 l0.17425636947155,0.05471363663673401 m0.12376930564641953,0.018722590059041977 m0.06377759575843811,-0.08934162557125092 l0.06846780329942703,-0.07929382473230362 0.12290360033512115,0.013786819763481617 m0.19899724423885345,0.09107856452465057 l-0.01753411628305912,0.27283960580825806 0.1926945298910141,0.10739688575267792 l-0.04616649076342583,0.24302245676517487 0.07247744500637054,0.02777693420648575 m0.06163354218006134,-0.07486144453287125 m0.18874332308769226,-0.0930919200181961 l0.1779760867357254,0.05372967943549156 0.12363050878047943,0.014667817391455173 l0.07786138355731964,0.040692150592803955 m-0.033324699848890305,0.2508430778980255 m0.059835243970155716,-0.08825761079788208 l-0.016892237588763237,0.2734520137310028 -0.040635157376527786,0.24489298462867737 l0.08152070641517639,0.013143133372068405 m0.03411978483200073,0.04123404249548912 l0.03708691895008087,0.043136291205883026 0.12295360863208771,0.018779486417770386 m0.08787444233894348,0.004202499054372311 l0.187931627035141,-0.01886964961886406 m0.06957891583442688,0.024033354595303535 l0.08290708810091019,-0.04358692839741707 0.19214607775211334,0.09872204810380936 l0.06936822831630707,-0.06206120550632477 m-0.014366384595632553,0.27594831585884094 m-0.04329259693622589,0.004510373342782259 m0.059182655066251755,-0.09647675603628159 l0.18307335674762726,-0.0887855589389801 m0.06345541030168533,-0.0935828685760498 m0.06837689876556396,0.023412317037582397 l-0.015571366995573044,0.273275226354599 -0.038936320692300797,0.018205750733613968 l0.17433775961399078,-0.08054335415363312 0.0722193494439125,0.0244232676923275 m0.06245186924934387,0.08579214662313461 l-0.04080472141504288,0.24439078569412231 0.18291758000850677,-0.016032395884394646 l-0.04704613611102104,0.23956502974033356 m-0.043401651084423065,0.007917799986898899 l-0.039822302758693695,0.2440524399280548 -0.04190070554614067,0.24195794761180878 m0.25387072563171387,0.13775674998760223 m0.20164479315280914,0.09657256305217743 l0.02842997945845127,-0.07771588116884232 m0.12209203839302063,0.013797391206026077 l-0.039020080119371414,0.24870282411575317 m0.1875886470079422,-0.0887390524148941 m0.197633296251297,0.05373843014240265 l0.06749662011861801,-0.0826447457075119 -0.021303504705429077,0.26767420768737793 l0.06870721280574799,-0.06227025389671326 0.0689190998673439,-0.05979526787996292 l0.06889327615499496,-0.058279141783714294 0.042074836790561676,0.04541647061705589 l0.06789562851190567,-0.055412422865629196 m-0.07398799806833267,0.22267813980579376 m-0.007669818587601185,0.2838512063026428 l0.06321291625499725,-0.07273849099874496 0.019543802365660667,-0.08323809504508972 m0.070717953145504,0.0439496785402298 l0.07069116085767746,0.026306793093681335 m0.19966904819011688,-0.016389431431889534 m0.20115028321743011,0.089854896068573 l0.1953488290309906,0.10094335675239563 0.05959295853972435,0.07522746175527573 l0.19220775365829468,0.10353156179189682 m0.1998637616634369,0.09504280984401703 l0.07906182110309601,-0.04183569550514221 0.04068953916430473,0.04280850663781166 l0.06871221959590912,-0.060695212334394455 0.01870475709438324,-0.09156590700149536 l0.07112640887498856,0.02387332171201706 m0.08818671107292175,0.0015222470974549651 m0.20116659998893738,0.08812261372804642 l-0.03699268773198128,0.24825766682624817 m-0.02572009339928627,0.25664234161376953 m0.1998293548822403,0.1001606434583664 m0.06915342807769775,0.02799328789114952 l0.06610098481178284,-0.08434926718473434 0.17930498719215393,-0.08526401966810226 l0.019861243665218353,-0.09040652215480804 0.19131295382976532,0.09567616134881973 m0.06421343982219696,-0.0788404792547226 m0.20368999242782593,-0.016404416412115097 l0.1955818384885788,0.0973864421248436 0.17758311331272125,-0.08449658006429672 m0.19983118772506714,0.09034811705350876 l0.16817741096019745,0.033706750720739365 0.08831118792295456,0.005811088718473911 l0.1928820013999939,0.10084325820207596 0.07721738517284393,0.042591631412506104 l0.06873692572116852,-0.056444667279720306 m0.18533551692962646,0.050535257905721664 l0.12227754294872284,0.016524577513337135 m-0.041938479989767075,0.007642601616680622 m0.11972295492887497,0.013548579066991806 m0.06045908480882645,-0.1000908687710762 l0.06677041202783585,-0.08588765561580658 m0.06901844590902328,0.02371128648519516 m0.17076508700847626,0.01169090997427702 l0.07214605808258057,0.02492576651275158 m0.16814084351062775,0.014067938551306725 l0.06872818619012833,-0.07999204844236374 0.19136163592338562,0.09857036173343658 l0.020989157259464264,-0.08876971900463104 m0.09052834659814835,0.00027227148530073464 l0.1216437965631485,0.014798657037317753 0.06868898868560791,-0.06542112678289413 l0.07208479940891266,0.024095581844449043 m0.06314703077077866,-0.07850386202335358 m0.060955047607421875,-0.09126529097557068 m0.06088310107588768,-0.09949733316898346 m0.19987845420837402,0.08715145289897919 l0.029949083924293518,-0.08194022625684738 0.0698775127530098,-0.07525592297315598 l0.12324843555688858,0.013836038298904896 m0.09047310054302216,0.0008656286518089473 l0.03824400156736374,0.04195921868085861 m0.06903793662786484,0.02399330772459507 l0.08777828514575958,0.005218970589339733 0.18237332999706268,-0.020766180008649826 l0.17430995404720306,-0.08304128050804138 0.13231956958770752,-0.004831645172089338 m0.03701820969581604,-0.08712607622146606 l-0.02211543172597885,0.2680410146713257 -0.04354167729616165,0.24118880927562714 m0.18262989819049835,-0.08539991825819016 m0.20616725087165833,-0.014077529311180115 l0.08523400872945786,-0.04502103850245476 m0.1893218606710434,-0.09381788969039917 m0.20101432502269745,0.08816748112440109 l0.18407884240150452,-0.0890507623553276 m0.19148316979408264,-0.09532073885202408 l0.03803756460547447,0.03851274400949478 m0.12180035561323166,0.011577003635466099 l0.14825426042079926,0.0015844935551285744 m-0.07138532400131226,0.21963663399219513 l-0.037391796708106995,0.24853837490081787 -0.018399830907583237,0.2711693346500397 m0.06079627573490143,-0.07736384123563766 m-0.006202720571309328,0.28504568338394165 l0.16474027931690216,0.029531769454479218 m0.12253734469413757,0.015725500881671906 m0.061006806790828705,-0.09674336016178131 l0.17978505790233612,0.05641245096921921 0.06954311579465866,-0.07234999537467957 l0.07287091761827469,0.024240339174866676 -0.048996154218912125,0.23872409760951996 l0.16396121680736542,0.058761805295944214 0.07220876216888428,0.02585040219128132 m0.06877530366182327,0.024559348821640015 m0.08944830298423767,0.0034597839694470167 l0.06537626683712006,-0.07735586911439896 0.06780711561441422,-0.06952022761106491 l0.07176291942596436,0.024375874549150467 0.19151219725608826,0.09780625998973846 l-0.02535339817404747,0.26434335112571716 m0.2549809515476227,0.13040927052497864 m-0.04275444895029068,0.00475085387006402 m0.2095205932855606,-0.01457985583692789 l0.19352750480175018,-0.021137654781341553 0.06934001296758652,-0.07328765094280243 l0.07031356543302536,-0.06650204211473465 0.06260140240192413,0.07167010754346848 l0.12269101291894913,0.01837931014597416 m0.19927239418029785,0.09007488936185837 l0.19566871225833893,0.09997770935297012 0.06104264780879021,0.07494036853313446 l0.041752032935619354,0.04503686726093292 m0.06219556927680969,-0.07653819024562836 l0.18704010546207428,-0.018589742481708527 0.06821557879447937,-0.06539177894592285 l-0.0262309480458498,0.2630847692489624 0.16378827393054962,0.058161910623311996 m-0.07098311930894852,0.2237946093082428 m0.2006823867559433,0.09608413279056549 l0.16481144726276398,0.0307359267026186 0.022962182760238647,-0.08378753066062927 l0.18051986396312714,-0.02061513625085354 0.06952080875635147,-0.06065378710627556 m0.19915130734443665,0.08790965378284454 l0.0751742422580719,0.04199187830090523 m0.034208498895168304,0.03902512788772583 m0.19704486429691315,0.05344381183385849 m0.21004991233348846,-0.016699736937880516 l0.12396853417158127,0.010792792774736881 m0.1912107914686203,-0.09380312263965607 l0.08534722030162811,-0.04543962702155113 0.06119607016444206,0.0727655217051506 l-0.047608207911252975,0.24050690233707428 0.08373554795980453,0.009615502320230007 m0.15368850529193878,0.009056925773620605 l0.03854156658053398,0.04303029179573059 m0.06886257976293564,0.025067787617444992 l0.0659664049744606,-0.0740765929222107 m0.062325045466423035,-0.08694007247686386 m0.2767717242240906,0.12431105226278305 l0.1675446629524231,0.027484126389026642 -0.04356720671057701,0.2456345558166504 m0.0630146935582161,-0.08181816339492798 l0.059563472867012024,0.07958413660526276 0.1679922193288803,0.039592593908309937 m0.15717963874340057,0.00877187680453062 l0.06072096899151802,0.07804448902606964 -0.039354465901851654,0.0181873831897974 l-0.024634981527924538,0.2646434009075165 m0.06838947534561157,0.026744447648525238 l0.037377163767814636,0.043738603591918945 0.0757266953587532,-0.03820318728685379 l0.19174695014953613,0.09898330271244049 0.06809739768505096,-0.057309478521347046 m0.08836519718170166,0.0021679303608834743 l0.07091829925775528,0.025305135175585747 0.12236616015434265,0.017502818256616592 m0.035231415182352066,0.04013526812195778 m0.16584660112857819,0.011756842024624348 l-0.038104068487882614,0.015456866472959518 m0.09556920826435089,-0.04973292350769043 l-0.039212580770254135,0.24658328294754028 0.07557957619428635,0.04511669650673866 m0.1856965273618698,-0.08850464224815369 m0.1965419352054596,0.05233852565288544 l-0.015988701954483986,0.2745785415172577 m0.06205800920724869,-0.08718500286340714 l0.1228460893034935,0.013949676416814327 -0.021226271986961365,0.2678678333759308 l-0.0214284285902977,0.2682648301124573 m0.03408368304371834,0.042191267013549805 l0.03709260746836662,0.04356754571199417 0.07528933137655258,0.04422788694500923 l0.18050378561019897,-0.01763395592570305 0.019020596519112587,-0.09012064337730408 l-0.05029212310910225,0.2356792688369751 m0.06798221915960312,0.046961817890405655 m0.2010277807712555,0.09201468527317047 l0.1953912377357483,0.10170117020606995 -0.0199173204600811,0.27015289664268494 l-0.04394100606441498,0.24303103983402252 m-0.0099771274253726,0.2814505994319916 m0.20044545829296112,0.10079733282327652 l-0.03835853561758995,0.015346795320510864 -0.02015785686671734,0.26950958371162415 m0.19778725504875183,0.09889066964387894 l0.17888695001602173,-0.08238032460212708 0.04020639881491661,0.04262411966919899 m0.18543948233127594,-0.09023790061473846 m-0.00827490072697401,0.2830730676651001 l0.06558819115161896,-0.07724001258611679 0.07738633453845978,0.04260579124093056 l0.07214291393756866,0.025724366307258606 m0.19658850133419037,-0.015962298959493637 l0.07193583995103836,0.024574734270572662 m-0.011082123965024948,0.2794099748134613 l-0.03693794831633568,0.24828676879405975 " fill="none" stroke="black" stroke-width="1" /></svg>