<?xml version="1.0" encoding="utf-8" ?>
<svg baseProfile="full" height="117.3859738331812" version="1.1" width="113.56436229034443" xmlns="http://www.w3.org/2000/svg" xmlns:ev="http://www.w3.org/2001/xml-events" xmlns:xlink="http://www.w3.org/1999/xlink"><defs /><rect fill="white" height="117.3859738331812" width="113.56436229034443" x="0" y="0" /><path d="M25,27.01311617065221 m0.0,0.0 m0.07019192725419998,-0.2068360149860382 m0.07673702389001846,0.011975258588790894 l0.13461118936538696,-0.00698572862893343 m0.3708978593349457,-0.15578770637512207 l0.2601128816604614,-0.24972191452980042 0.04840853065252304,-0.19167447090148926 m0.16521602869033813,-0.08501812815666199 l0.6296527981758118,-0.09154614806175232 0.21464903652668,-0.2957151234149933 l0.8853145837783813,-0.47993892431259155 0.259371817111969,0.9161015748977661 m-0.142983540892601,-0.3180117905139923 l0.3075014352798462,-0.3540946841239929 -0.1925906389951706,-0.36466002464294434 m0.6778250336647034,-0.14120234549045563 l-0.08321359008550644,0.3397926390171051 -0.06478988379240036,0.3656620979309082 l0.40060409903526306,0.60140460729599 -0.014661393128335476,0.42838582396507263 l0.35438910126686096,-0.3561379909515381 0.055182479321956635,0.44884413480758667 l0.09586703777313232,0.46154025197029114 0.14020758867263794,0.4658980965614319 l0.18729457259178162,0.4652830958366394 0.23462031781673431,0.4612407684326172 m0.2725883424282074,0.458936870098114 l0.31176361441612244,0.44570720195770264 m0.3688744306564331,0.13962510228157043 l0.33746641874313354,0.41323569416999817 0.32110047340393066,0.10075360536575317 m0.3492918014526367,0.07738397270441055 l0.41783225536346436,-0.15395288169384003 0.2360268384218216,0.3533521592617035 l0.1955309510231018,0.3498167395591736 m0.5436832904815674,-0.11138399690389633 m-0.05047143995761871,0.44762569665908813 l0.473696231842041,-0.1377955824136734 0.15621283650398254,0.3498843014240265 l-0.2551495432853699,0.2209809124469757 0.06366648524999619,0.3055327534675598 l0.17269130051136017,0.3696306645870209 0.1447337120771408,0.2824873924255371 l-0.05049871653318405,0.38203346729278564 0.08784235268831253,0.41332077980041504 m0.06565597653388977,0.4640706777572632 l0.33471208810806274,0.502924919128418 0.06663674116134644,0.48419398069381714 l0.2066974937915802,0.1844659298658371 m0.19405631721019745,0.28262752294540405 l-0.04104657098650932,0.3321681320667267 0.3534413278102875,0.17081694304943085 l0.05134442448616028,0.523655116558075 0.46151992678642273,0.3039582669734955 l0.16247358918190002,0.28856179118156433 0.02471461333334446,0.5298439264297485 l0.014769402332603931,0.5322837233543396 m0.31839245557785034,0.30136191844940186 m0.295212984085083,0.2289694994688034 m-0.01675552688539028,0.5674211382865906 l0.335869163274765,0.19044090807437897 m0.3719215989112854,0.1780247539281845 l0.3829617500305176,0.15761668980121613 0.40085509419441223,0.14182208478450775 m0.011002329178154469,-0.36201176047325134 l-0.09348055720329285,0.5703826546669006 0.5294930934906006,0.33110344409942627 l0.5078378915786743,0.3307359516620636 0.35207346081733704,0.4310820996761322 l0.4501176178455353,0.18854252994060516 0.46034109592437744,0.1825719028711319 m0.42360934615135193,0.332862913608551 l0.409097820520401,0.33954283595085144 m0.3843078911304474,0.33545613288879395 l-0.10466618835926056,0.6393514275550842 0.5627885460853577,0.06349872052669525 l0.5686171054840088,0.06021072342991829 0.33554407954216003,0.34361928701400757 m0.30850619077682495,0.3461083471775055 l-0.10139260441064835,0.646118700504303 m0.6113331913948059,0.09103477001190186 m0.26456648111343384,0.36757907271385193 l-0.15609203279018402,-0.17230241000652313 0.26813918352127075,0.3888857662677765 l0.6311426758766174,0.13945689797401428 0.22849716246128082,0.5449040532112122 m0.21777097880840302,0.576254665851593 m-0.14697791635990143,0.6182704567909241 l0.2271578162908554,0.41756513714790344 0.7299109101295471,0.23770718276500702 l0.7537297606468201,0.2491663694381714 0.18625964224338531,0.6373911499977112 l-0.2969488799571991,-0.0851360410451889 0.8183914422988892,0.2727614939212799 l0.839464545249939,0.28373491764068604 0.858604907989502,0.2896158695220947 m0.20284005999565125,0.39799755811691284 m0.08868072181940079,0.7327724695205688 l0.19489328563213348,0.4144872725009918 0.27975839376449585,0.2514161467552185 m0.9240140914916992,0.2979007661342621 l0.9221048355102539,0.29446324706077576 m0.9397269487380981,0.29570457339286804 l0.9337006211280823,0.2919467091560364 -0.04623108729720116,0.7143344879150391 l0.9261787533760071,0.2895720601081848 0.9297103881835938,0.28808143734931946 l-0.09894362837076187,0.6975702047348022 0.1281575709581375,0.478815495967865 m0.9416601061820984,0.29208260774612427 l0.9349371790885925,0.287789911031723 0.9309069514274597,0.2813918888568878 l0.9274888634681702,0.2749767601490021 0.15591701865196228,0.5080825686454773 l0.16964125633239746,0.5222587585449219 0.36242806911468506,0.554068922996521 l0.20458059012889862,0.5259052515029907 0.8967649340629578,0.2490343302488327 l0.2479361742734909,0.5097689628601074 -0.16610167920589447,0.4245227575302124 l0.17245565354824066,0.055547669529914856 0.3061222434043884,0.48931884765625 l0.3193276822566986,0.47798603773117065 0.8470854759216309,0.21075470745563507 l0.051279108971357346,-0.0732523500919342 0.35938790440559387,0.4406469464302063 l0.364408016204834,0.43126556277275085 -0.01375644002109766,0.6554261445999146 l-0.010386595502495766,0.6518370509147644 m0.36858639121055603,0.42202407121658325 l0.3667905330657959,0.4147205054759979 0.36210185289382935,0.41181737184524536 m0.35581234097480774,0.41175761818885803 m0.028350865468382835,0.6372570395469666 l0.32696324586868286,0.42010635137557983 0.028665736317634583,0.5970582365989685 l0.2941271960735321,0.4261110723018646 0.6975434422492981,0.010249029844999313 l0.26735374331474304,0.4246097803115845 0.24730098247528076,0.4325255751609802 l0.43165796995162964,0.030414944514632225 0.22147101163864136,0.43804872035980225 l0.06469757854938507,0.49895623326301575 0.06600552052259445,0.4875437617301941 l0.06682248413562775,0.47688987851142883 -0.07119815051555634,-0.1849624067544937 l-0.0673476830124855,-0.18911752104759216 0.19553759694099426,0.44505155086517334 l0.19122451543807983,0.44241294264793396 m0.08525989949703217,0.44943860173225403 l0.19368794560432434,0.4292137026786804 0.0876319631934166,0.4410618841648102 l0.5823043584823608,-0.15913748741149902 0.09894411265850067,0.4330205023288727 l-0.4483621418476105,0.34211161732673645 m0.11214182525873184,0.4383218288421631 m0.3841922879219055,0.055428531020879745 l0.1260089874267578,0.4448419511318207 0.12819090485572815,0.4446273744106293 l0.1300235092639923,0.4444601535797119 0.23104463517665863,0.23696041107177734 l0.23839892446994781,0.21171370148658752 0.1283300668001175,0.44273841381073 m0.12606313824653625,0.454031765460968 m0.12193819880485535,0.4644795060157776 l0.21123871207237244,0.5596663951873779 -0.1474747657775879,0.19987554848194122 l0.09133991599082947,0.46346333622932434 0.2519500255584717,-0.012139560654759407 m0.32727155089378357,0.05452210456132889 l0.028261052444577217,-0.08801218867301941 m0.1359151005744934,0.4090595245361328 l0.36664241552352905,0.024199601262807846 0.06337414681911469,0.49752819538116455 l0.3813886344432831,0.004794630222022533 0.06919463723897934,0.509978711605072 l-0.16933518648147583,0.05754196271300316 0.3753770589828491,-0.021010611206293106 l0.39271071553230286,0.0240399781614542 0.29510509967803955,-0.12163852155208588 l0.1120888739824295,0.5368435978889465 -0.19144852459430695,-0.25387418270111084 m0.33778810501098633,-0.09577342867851257 m0.3041902482509613,-0.07411985844373703 l0.3050647974014282,-0.07702155411243439 0.1455499827861786,0.5516166687011719 l0.11774805933237076,0.2397872358560562 0.13976041972637177,0.5440449118614197 m0.25072532892227173,0.009255725890398026 l0.13256999850273132,0.5331006050109863 m0.12726271152496338,0.5368037819862366 m0.274577260017395,-0.08371296525001526 l0.3888832926750183,-0.04197147861123085 m0.28386178612709045,-0.09110268205404282 m0.4093721807003021,-0.044938698410987854 m0.27143344283103943,-0.08273176848888397 m0.2620832920074463,-0.07537619024515152 l0.1749354600906372,0.1784289926290512 m0.2348310649394989,-0.05838371440768242 m0.05460101366043091,0.3954506814479828 m0.042696963995695114,-0.012452905997633934 l-0.019716596230864525,0.309505432844162 m0.1093984991312027,-0.015149646438658237 l0.07544534653425217,-0.061667971312999725 0.15609584748744965,0.15441378951072693 m0.09462112188339233,-0.0005382720264606178 l-0.01550615206360817,0.13955923914909363 0.1897653341293335,-0.11169321835041046 l0.02805611491203308,0.231374129652977 -0.03018949180841446,0.1466658115386963 m0.1841614842414856,-0.09829313308000565 l0.09922338277101517,0.10209327191114426 0.07296871393918991,0.0007756346603855491 l0.028185581788420677,0.20448699593544006 0.16051070392131805,0.17976325750350952 l0.08440018445253372,-0.01822999306023121 m-0.09883429110050201,-0.05933704599738121 m0.055512282997369766,0.1415482759475708 l0.013249222189188004,0.02763291262090206 0.09567049890756607,-0.003940656315535307 l0.09781800210475922,-0.0035263800527900457 0.08303239941596985,-0.02011825144290924 l-0.09118163585662842,-0.050805531442165375 0.01627928577363491,0.024352675303816795 m0.15903452038764954,-0.09699442237615585 l0.12010646611452103,-0.02918926812708378 -0.14144934713840485,-0.0769098773598671 l-0.09407851099967957,-0.05324450507760048 0.1323249191045761,-0.10949721932411194 m0.008292308077216148,0.024383988231420517 l0.013299059122800827,0.025734862312674522 m0.16564546525478363,-0.09484239667654037 m0.04079054296016693,0.21613958477973938 l0.1553780436515808,-0.09642399847507477 0.14573447406291962,-0.10240809619426727 l0.14085128903388977,-0.10584736615419388 0.10214602947235107,-0.006506621837615967 l0.08796033263206482,0.0818997323513031 m-0.09773069620132446,-0.060305166989564896 m0.03872871771454811,0.21136023104190826 m0.1790376603603363,-0.08594317734241486 m0.13335171341896057,0.19873753190040588 l-0.009121434763073921,-0.0959855318069458 0.06059693917632103,0.00925059337168932 l0.02919786423444748,0.19826972484588623 -0.06009158864617348,0.1129617989063263 l0.026319220662117004,0.19465774297714233 0.02584696002304554,0.19545100629329681 m0.07415337860584259,-0.02128670923411846 m0.1723596751689911,-0.08846309036016464 l-0.013927112333476543,-0.09992580115795135 -0.014961371198296547,-0.09949032217264175 l0.01789591647684574,0.02478148601949215 0.13712599873542786,0.1269208788871765 m0.006692856550216675,0.026634501293301582 l0.00012943291221745312,0.11939109116792679 -0.03260805085301399,0.0955268144607544 l0.15682178735733032,0.18064646422863007 0.003165500471368432,0.11759093403816223 l0.15026304125785828,0.0218378733843565 0.13435527682304382,-0.10344581305980682 l0.12052682787179947,-0.02895381674170494 m0.07573479413986206,-0.007233253680169582 m0.12388014048337936,-0.030083447694778442 m0.13592372834682465,0.19577273726463318 l0.012370909564197063,0.02851545810699463 0.09787198901176453,-0.005776599980890751 l-0.031438376754522324,0.09435504674911499 0.027540527284145355,0.1955077350139618 m0.051161520183086395,0.13692320883274078 m-0.15143968164920807,-0.06410788744688034 m-0.007895570248365402,-0.09680476039648056 m0.11848423629999161,-0.031191496178507805 m0.09556975215673447,-0.012570963241159916 m0.09585898369550705,-0.013039832003414631 m0.043984122574329376,0.2299627810716629 l0.15900354087352753,0.023914529010653496 m-0.05086430534720421,0.13944482803344727 m0.03981122747063637,0.22802790999412537 m0.04043179377913475,0.2332741618156433 m0.0020848941057920456,0.035900603979825974 l0.012516464106738567,0.032814960926771164 m0.006986218970268965,0.03227774053812027 m0.0702768862247467,0.012253586202859879 l-0.03080141916871071,0.09169351309537888 0.14267124235630035,-0.0982997864484787 m0.16084368526935577,0.017863767221570015 l0.014057689346373081,0.02635083720088005 0.02989816851913929,0.19868382811546326 l0.0032305135391652584,0.11610392481088638 0.06492738425731659,0.005582945886999369 l0.0229472778737545,0.034052811563014984 0.02678508870303631,0.1911393404006958 l-0.03304345905780792,0.0985620841383934 -0.06065424904227257,0.11054126173257828 l-0.0918392464518547,-0.05042204633355141 0.12978550791740417,-0.10671510547399521 m-0.009731516242027283,0.1273932009935379 l0.06624403595924377,-0.00028239801758900285 0.0971207469701767,-0.003742347238585353 l0.016385743394494057,0.024538809433579445 -0.060407642275094986,0.10973749309778214 l0.06538892537355423,-0.0002673985145520419 0.13280107080936432,-0.10631737858057022 l-0.06037237122654915,0.10752619057893753 0.08338864147663116,-0.02217782847583294 l-0.03239445388317108,0.09402956813573837 0.014868736267089844,0.025157764554023743 m0.03389352932572365,0.20314761996269226 l0.017953766509890556,0.03732559084892273 0.028721872717142105,0.1972251534461975 m-0.053619977086782455,0.13222840428352356 l0.011670371517539024,0.029924452304840088 0.02834741771221161,0.19895492494106293 l0.1349480301141739,-0.10051864385604858 m0.10247548669576645,0.09017425030469894 l0.031538162380456924,0.2031109780073166 0.0039983210153877735,0.11823229491710663 m-0.011295726522803307,-0.09761445969343185 l-0.05687534064054489,0.12030314654111862 m0.1440463364124298,0.14526952803134918 l0.03193744644522667,0.20810887217521667 -0.08605998009443283,0.011196372099220753 m0.14308807253837585,0.14403508603572845 l0.09588872641324997,-0.002961808117106557 0.0981753021478653,-0.003416632767766714 m0.14648130536079407,0.1895388662815094 l0.08119897544384003,-0.016972919926047325 -0.05875697359442711,0.11511728167533875 l0.13587328791618347,-0.10219420492649078 m-0.03141753748059273,0.08729042857885361 l0.11754235625267029,-0.029087692499160767 0.029795119538903236,0.19659557938575745 l-0.08922030031681061,-0.04802267253398895 0.022363105788826942,0.034407299011945724 m-0.00786205567419529,0.12752047181129456 l0.011646849103271961,0.028328167274594307 m-0.005661191418766975,0.1291801482439041 l-0.032695136964321136,0.0946759283542633 0.01456347294151783,0.028759513050317764 l0.0015156136360019445,0.11686655879020691 -0.014623683877289295,-0.096451036632061 l0.09758145362138748,-0.0025172738824039698 m0.12232223898172379,-0.030531302094459534 l0.03207201883196831,0.19867675006389618 0.02909829095005989,0.19855180382728577 l0.049946729093790054,0.12004268169403076 m0.16054458916187286,-0.0908682569861412 m0.038795825093984604,0.21728147566318512 m-0.15139074623584747,-0.06148354336619377 l0.06259097903966904,0.008993765339255333 0.031103864312171936,0.20205411314964294 l0.028127631172537804,0.2008422613143921 0.026691079139709473,0.19938385486602783 l-0.05987154319882393,0.112908273935318 0.013701872900128365,0.02827581577003002 l0.08904112875461578,0.08556745946407318 m0.018061842769384384,0.03445756435394287 l0.012404505163431168,0.027164079248905182 m0.006447783205658197,0.02866833284497261 l0.017123309895396233,0.03697006031870842 0.015687651932239532,0.027119476348161697 m0.1430349200963974,0.14280900359153748 l0.11735623329877853,-0.028341753408312798 m0.10410475730895996,0.0934595912694931 l-0.0321514755487442,0.09466072916984558 m0.11864566802978516,-0.030213648453354836 l-0.08493266999721527,0.011214815080165863 -0.14218273758888245,-0.07475454360246658 l0.028138382360339165,0.1905115693807602 0.15765056014060974,0.1801597625017166 l0.15052078664302826,0.02227543666958809 m0.07456355541944504,-0.02327783964574337 m0.004448833409696817,0.028147712349891663 l0.1547127664089203,0.019581163302063942 0.15169279277324677,0.18299239873886108 l0.05067584663629532,0.11773786693811417 -0.0601145401597023,0.11249161511659622 m0.03306534141302109,0.20924676954746246 l0.1457139253616333,-0.09596888720989227 m0.1438065469264984,0.14427000284194946 l0.15160976350307465,-0.0973404049873352 0.030524443835020065,0.19985923171043396 l0.015452862717211246,0.02663697674870491 m0.07340624928474426,-0.022759094834327698 m0.004588755313307047,0.028626887127757072 l0.03388455882668495,0.20645694434642792 0.11448907107114792,-0.028778737410902977 m0.007792272139340639,0.02797805890440941 m0.17510612308979034,-0.08842889219522476 l0.1452251523733139,0.1875331997871399 m0.04963231086730957,0.13874255120754242 m-0.03219681978225708,0.0894031971693039 l0.033743906766176224,0.21364068984985352 0.02955256775021553,0.2081817388534546 m0.07103042304515839,0.01136963814496994 m-0.05006784945726395,0.14215022325515747 l0.03270749747753143,0.21228790283203125 m-0.03225868567824364,0.09253945201635361 m0.1171705424785614,-0.030179673805832863 l-0.031308695673942566,0.09307944774627686 0.14275343716144562,-0.09890766441822052 l0.13905498385429382,-0.1035178005695343 0.11748118698596954,-0.029145842418074608 m0.008534199558198452,0.024974768981337547 l0.0980047881603241,-0.0062102158553898335 0.015822025015950203,0.024918170645833015 l0.01605028286576271,0.025182783603668213 0.08910615742206573,0.0844305008649826 l0.015093548223376274,0.02474219724535942 m-0.03248245641589165,0.0887744277715683 l-0.01477026753127575,-0.09711084514856339 -0.08853313326835632,0.0072830673307180405 m0.14604154229164124,0.18900559842586517 m0.12133297324180603,-0.029792018234729767 m0.18126976490020752,-0.08746369928121567 m0.09745358675718307,-0.011742725037038326 l0.11528219282627106,-0.028980441391468048 m0.11785947531461716,-0.030342036858201027 l-0.030687129124999046,0.0903986319899559 m-0.14799681305885315,-0.06661216914653778 m0.17529864609241486,-0.08939982205629349 m-0.030621439218521118,0.08174006640911102 l0.15660539269447327,-0.09647409617900848 m0.1726154237985611,-0.09140384197235107 l0.15487033128738403,-0.10012819617986679 m0.07183130085468292,-0.022586047649383545 m0.10892821103334427,0.09605405479669571 l0.15726107358932495,-0.09668122977018356 m0.17337779700756073,-0.09161493927240372 l-0.08351501077413559,0.008424266241490841 -0.14139169454574585,-0.07508772611618042 l-0.06061125546693802,0.11204682290554047 m-0.14893202483654022,-0.07060163468122482 l0.031439170241355896,0.1957540214061737 0.028656447306275368,0.19733154773712158 m-0.09520483016967773,-0.058034755289554596 m-0.05069716274738312,0.1398930698633194 l0.09700734168291092,0.09570849686861038 m-0.0019828095100820065,0.12969820201396942 m0.07110206037759781,0.009573215618729591 m-0.1507321149110794,-0.06054497882723808 l-0.031105004251003265,0.08934789896011353 0.08015840500593185,-0.015601294115185738 l0.002444940386340022,0.1155148595571518 m0.11829155683517456,-0.03018171526491642 m0.004505842458456755,0.02925463393330574 l0.0963771641254425,0.0927964374423027 m0.04939660057425499,0.13942180573940277 l-0.055660758167505264,0.12390400469303131 -0.03205253928899765,0.09648919105529785 " fill="none" stroke="black" stroke-width="1" /></svg>