<?xml version="1.0" encoding="utf-8" ?>
<svg baseProfile="full" height="125.79133408283815" version="1.1" width="98.67139294499066" xmlns="http://www.w3.org/2000/svg" xmlns:ev="http://www.w3.org/2001/xml-events" xmlns:xlink="http://www.w3.org/1999/xlink"><defs /><rect fill="white" height="125.79133408283815" width="98.67139294499066" x="0" y="0" /><path d="M25.294745605438948,25.06214101985097 m0.0,0.0 m-0.034001242369413376,-0.03479629009962082 l-0.2607443630695343,-0.027344729751348495 m0.0011198556749150157,0.011139610782265663 l0.34862932562828064,0.7591193914413452 m0.3842485249042511,0.7821707725524902 l0.24967892467975616,0.11726505309343338 m0.41997241973876953,0.7662920355796814 l0.4073801636695862,0.0005829234141856432 0.3886498212814331,-0.017314044758677483 l0.4400356411933899,0.7137116193771362 0.44671791791915894,0.7050677537918091 l-0.11808811128139496,0.19337747991085052 -0.05522410199046135,0.22898200154304504 l0.48119115829467773,0.6675010323524475 0.525434672832489,0.12305515259504318 l0.33592239022254944,0.3931606113910675 -0.13749325275421143,0.014527208171784878 l0.5562546849250793,0.16197215020656586 0.4867044985294342,0.4422055780887604 l0.3720194101333618,0.23473088443279266 0.373717337846756,0.20987381041049957 l0.353725403547287,0.4724683165550232 0.5377530455589294,0.5147655010223389 l0.5429046154022217,0.5387576222419739 0.5412415862083435,0.5649443864822388 l0.28637373447418213,0.054725516587495804 m0.5134197473526001,0.615745484828949 l0.490276575088501,0.6421715021133423 m0.45820459723472595,0.3465243875980377 l0.43989869952201843,0.358670711517334 m0.3879612982273102,0.6887694597244263 l-0.1775587499141693,0.37800613045692444 0.5386710166931152,0.08932056277990341 l-0.10962942987680435,0.3957310616970062 m0.5939742922782898,0.012481541372835636 l0.5137939453125,0.06931563466787338 0.526060938835144,0.07174904644489288 m0.5375211238861084,0.07284670323133469 l0.11807356029748917,0.6381211280822754 0.20517182350158691,0.6710045337677002 m0.16836130619049072,0.6830109357833862 l0.20363101363182068,0.09676041454076767 m-0.4652535617351532,0.2219036966562271 l0.03306493163108826,0.7029494047164917 m0.29005393385887146,0.04010084643959999 l0.07589150965213776,0.1326284408569336 0.172835111618042,0.49104127287864685 l-0.10787761956453323,0.6557836532592773 0.22414784133434296,0.4570944607257843 l0.2463153898715973,0.43152904510498047 0.26400846242904663,0.40522700548171997 l0.1427418291568756,0.4222089648246765 -0.06348048150539398,0.4987071752548218 l-0.16333742439746857,0.5435027480125427 -0.5656200051307678,0.37339991331100464 l0.314963161945343,0.28447774052619934 0.33139580488204956,0.2672286331653595 l0.3487304747104645,0.25644558668136597 0.3652123510837555,0.24866017699241638 l0.3801434338092804,0.24285027384757996 0.3183601498603821,-0.6780734062194824 l0.40360233187675476,0.22167570888996124 0.042683497071266174,0.2830241024494171 l0.4057656228542328,0.22717897593975067 0.4046855568885803,0.2235453575849533 m0.3987933397293091,0.2286776304244995 m0.3878387212753296,0.22853587567806244 m0.07167783379554749,0.35567760467529297 l-0.05317377299070358,0.46880412101745605 0.3674769997596741,0.20645342767238617 l0.07644561678171158,0.02293352223932743 0.3670356571674347,0.1876848340034485 l-0.018566250801086426,0.009508243761956692 m0.1737084984779358,0.3838404417037964 l0.22194966673851013,-0.14819936454296112 0.36415040493011475,0.18294309079647064 l0.36512601375579834,0.1862485110759735 m0.2357674390077591,0.20218545198440552 l0.3540727496147156,0.19975732266902924 -0.0247145127505064,-0.10626395046710968 m0.338998943567276,0.21288098394870758 l0.3265019953250885,0.21676787734031677 0.2687581777572632,0.07726386934518814 l0.30671632289886475,0.23515498638153076 0.29493579268455505,0.25457248091697693 m0.27444660663604736,0.29044029116630554 l0.35443389415740967,0.5238264799118042 0.24884101748466492,0.3428049683570862 l0.23883160948753357,0.3709683120250702 0.23053787648677826,0.4027617573738098 l0.2241889387369156,0.4355330169200897 0.22014404833316803,0.46814846992492676 l0.2186325639486313,0.49857768416404724 0.21940161287784576,0.5267123579978943 l0.22208212316036224,0.5510737299919128 0.2263185977935791,0.5714157223701477 l0.23155507445335388,0.5881623029708862 -0.09557028859853745,0.01673183962702751 l0.2420167773962021,0.5982333421707153 0.2503300905227661,0.6079385876655579 l0.16034778952598572,-0.1829538643360138 0.213102787733078,-0.11668885499238968 l0.27112406492233276,0.5888845920562744 m0.28071171045303345,0.5957542061805725 l0.28146129846572876,0.5984793901443481 m0.20441626012325287,0.32419902086257935 l0.29370447993278503,0.5921396017074585 0.5293012857437134,0.5589605569839478 m0.4132198095321655,0.03330710157752037 l0.387627512216568,0.21377243101596832 -0.27418479323387146,0.14205120503902435 l0.465680867433548,0.8815091848373413 0.220970019698143,0.0028713291976600885 l0.47847509384155273,0.9108679890632629 0.486023485660553,0.9283310770988464 m0.330613911151886,0.19201187789440155 l-0.08729514479637146,0.24571320414543152 0.23303963243961334,0.3789983093738556 m-0.33227628469467163,0.1741541028022766 m0.48508018255233765,0.9279131889343262 l0.18200372159481049,-0.039071302860975266 0.035032935440540314,-0.2712678611278534 m-0.14067596197128296,0.2690759301185608 m0.4287496507167816,0.7698233127593994 m0.1427285522222519,-0.03826899826526642 m0.407654732465744,0.8124454617500305 l0.4311494827270508,0.8122851252555847 0.40625494718551636,0.20222225785255432 l0.3449777066707611,0.7266009449958801 0.4276113510131836,0.8364676833152771 l0.38936924934387207,0.22381310164928436 0.2924330234527588,0.6436945199966431 l0.23324304819107056,-0.1404722034931183 m0.26376691460609436,0.5888516306877136 l0.38641542196273804,0.8805599808692932 0.1439274549484253,-0.3412018418312073 m0.3354332447052002,0.3840545415878296 m0.21622756123542786,0.5214976668357849 m0.33863335847854614,0.922710120677948 l0.3102736175060272,0.44755202531814575 0.18298038840293884,-0.14190639555454254 l0.3143012225627899,0.9261899590492249 0.3422742486000061,-0.19157972931861877 m0.16326121985912323,0.4475538730621338 l0.31484729051589966,0.05720677226781845 m0.06575962156057358,-0.09390316158533096 m0.3599359095096588,-0.18565139174461365 l0.2423485815525055,0.5138022303581238 0.24751202762126923,0.9095825552940369 m0.20380286872386932,0.28129199147224426 m0.22040028870105743,0.895404577255249 l0.3219330906867981,0.193239226937294 0.20569609105587006,0.8666135668754578 l0.195987731218338,0.8605893850326538 -0.20040954649448395,-0.10456722229719162 l0.17761437594890594,0.8101378679275513 0.17988744378089905,0.46247294545173645 m0.20713920891284943,-0.11969348043203354 m0.10381752252578735,0.314778596162796 l0.051308270543813705,-0.02149568498134613 0.08218340575695038,0.29979097843170166 l0.14162693917751312,0.40963491797447205 m0.06011032685637474,0.009695981629192829 l0.07096866518259048,0.2622215747833252 0.06505171954631805,0.2530955672264099 l0.11567733436822891,0.27810201048851013 0.002855866216123104,0.11958128958940506 l0.12044829875230789,0.253190279006958 m0.07687435299158096,0.5658440589904785 m0.06079300493001938,0.5585013628005981 l0.05336736887693405,0.542933464050293 0.1957579106092453,0.22904008626937866 l0.1468181014060974,-0.09912732243537903 0.11475291103124619,0.136941060423851 l0.08958129584789276,0.26442834734916687 m0.018187755718827248,0.4564855396747589 m0.050427310168743134,0.15056180953979492 l0.003137103049084544,0.14599187672138214 m-0.17041045427322388,-0.12725889682769775 m-0.02348393201828003,0.4170922338962555 l0.1649523675441742,-0.0184877198189497 m-0.0036400810349732637,0.12264954298734665 l0.12948554754257202,-0.11245141923427582 0.18018707633018494,0.15285907685756683 l0.031645748764276505,0.1425163894891739 0.034348368644714355,-0.2330869734287262 l-0.1723548024892807,-0.10735268145799637 m0.014395075850188732,0.03720743581652641 l-0.17301738262176514,-0.11207366734743118 m0.06470011919736862,-0.04599360004067421 m0.03377560153603554,0.10748006403446198 l0.09451805055141449,-0.10999082773923874 0.030273817479610443,0.02044428139925003 m0.091997891664505,-0.11897093057632446 m-0.11828726530075073,0.1893073320388794 l0.0857786238193512,-0.10970354080200195 0.1706218421459198,0.16120104491710663 l0.16864654421806335,0.15845802426338196 -0.12271931767463684,0.18117345869541168 l-0.04221729561686516,0.25213873386383057 0.16487067937850952,0.13182026147842407 l0.05469194054603577,-0.004260394722223282 m0.09321573376655579,-0.11311845481395721 m-0.14015112817287445,-0.1455548256635666 l0.030532019212841988,0.08839160203933716 m-0.05987931415438652,0.23365986347198486 l-0.059070561081171036,0.23185819387435913 0.08941930532455444,-0.09783705323934555 m0.05789465084671974,-0.037619415670633316 l0.02999786287546158,0.08894380927085876 0.02215074561536312,-0.1516682207584381 l0.057086650282144547,-0.027148732915520668 -0.04372179135680199,0.07545015960931778 l0.09429243206977844,0.15650753676891327 m0.03501015529036522,0.0793175995349884 m-0.059789400547742844,0.23413696885108948 l0.030692778527736664,0.09053787589073181 m-0.08440768718719482,-0.02640972100198269 l0.0592610239982605,-0.03212074562907219 -0.053712453693151474,0.2185419499874115 l0.028880074620246887,0.09358053654432297 0.06186589598655701,-0.061742354184389114 l-0.04526872932910919,0.21798114478588104 0.11710815876722336,0.10446767508983612 l0.031788554042577744,0.09244968742132187 0.1189194843173027,0.10279741138219833 l-0.042943138629198074,0.22344070672988892 0.03251919150352478,0.09363041818141937 m0.03642711415886879,0.08063861727714539 m0.07692177593708038,-0.0632089301943779 l0.04266393557190895,-0.005117272958159447 0.06637170165777206,-0.06583809107542038 m-0.0568598210811615,0.2244381457567215 l-0.05702129751443863,0.22628562152385712 m-0.060794513672590256,0.2346327304840088 l0.11515971273183823,0.10793112963438034 m0.022999530658125877,-0.1647661030292511 m0.04205379635095596,-0.0021840918343514204 l-0.06166570261120796,0.22181853652000427 m0.044742051512002945,0.09025512635707855 l0.16742713749408722,0.11837830394506454 0.13148202002048492,0.06412166357040405 m0.03341170400381088,0.08198930323123932 m-0.1388682872056961,-0.148771733045578 m0.01696452684700489,-0.17626093327999115 m-0.07031139731407166,0.22540324926376343 l0.060035645961761475,-0.037275101989507675 -0.04504186660051346,0.08177105337381363 l0.04265652596950531,-0.007411740720272064 0.09198015928268433,0.15905269980430603 m0.04309443011879921,0.085736483335495 l0.17028279602527618,0.1183459609746933 0.06048586219549179,-0.024389812722802162 m-0.1374056339263916,-0.14664223790168762 m-0.062128424644470215,0.22764946520328522 m-0.0501239076256752,0.08781728893518448 l0.0844024047255516,0.1579965054988861 0.11708636581897736,0.10567916184663773 l-0.11469618231058121,0.18664106726646423 -0.049603987485170364,0.22408363223075867 m-0.0789494514465332,-0.019960446283221245 l0.09040317684412003,0.15738484263420105 m0.05935134366154671,-0.03793327510356903 l-0.07078167796134949,-0.024571580812335014 m-0.14049069583415985,-0.14687217772006989 m-0.10751848667860031,0.19742019474506378 m0.047439586371183395,0.09103037416934967 l0.06009328365325928,-0.035894136875867844 m0.18744458258152008,0.15929728746414185 m-0.06773120164871216,0.2320113629102707 l-0.06480072438716888,0.22918260097503662 m0.17509767413139343,0.1177532970905304 l0.130994975566864,0.06136355921626091 0.028464164584875107,0.09551242738962173 l0.06099862977862358,-0.021992074325680733 m0.023203352466225624,-0.16230936348438263 l0.058794762939214706,-0.03435124456882477 m0.17898651957511902,0.11058498919010162 l0.021829573437571526,-0.15698985755443573 -0.14425028860569,-0.1442980319261551 l-0.04946152865886688,0.21220366656780243 0.09131069481372833,0.15850414335727692 l0.030446773394942284,0.09217066317796707 0.03122803382575512,0.0920405387878418 l0.12073840200901031,0.009663733653724194 0.16848476231098175,0.14527593553066254 m0.03634616732597351,0.08021138608455658 m0.0366012305021286,0.07738028466701508 m0.18817903101444244,0.15824314951896667 l-0.12065289914608002,0.011208970099687576 -0.057121772319078445,0.22312751412391663 m0.05955132842063904,-0.03617755323648453 l0.08959320187568665,0.15711048245429993 m0.032842542976140976,0.08143780380487442 m0.04112982377409935,-0.0021236371248960495 l0.029446206986904144,0.08970901370048523 0.06045553460717201,-0.02767086587846279 m-0.08237160742282867,-0.026770247146487236 l0.08938183635473251,-0.10741281509399414 0.028857462108135223,0.08938460797071457 l0.11599212139844894,0.09933261573314667 0.023724915459752083,-0.1461055874824524 l0.16945113241672516,0.1452285796403885 0.10207108408212662,-0.09453994780778885 l0.11829689890146255,0.09561929851770401 0.032299306243658066,0.09106557071208954 m0.023363081738352776,-0.16213709115982056 l-0.11248734593391418,0.18468952178955078 -0.1150040403008461,0.18510958552360535 l0.03909730166196823,0.08716076612472534 m0.034336239099502563,0.07996603846549988 l0.16988521814346313,0.11762577295303345 -0.050163812935352325,0.22410382330417633 l-0.11602246761322021,0.18661923706531525 0.11766134202480316,0.10814818739891052 l0.024554425850510597,-0.1436782330274582 m0.17839860916137695,0.1501384675502777 l0.06015267223119736,-0.02925756946206093 m0.059169817715883255,-0.041921019554138184 m0.18143291771411896,0.10810725390911102 m0.040412019938230515,-0.0021350218448787928 m0.10976555943489075,0.08983215689659119 m-0.07235704362392426,0.23344121873378754 l0.08000248670578003,-0.11192640662193298 m0.1287170648574829,0.050848159939050674 l0.1683860719203949,0.11753817647695541 m0.08455175906419754,-0.12090148031711578 l-0.04682207107543945,0.08065972477197647 -0.14792542159557343,-0.14044246077537537 l0.056715622544288635,-0.027781100943684578 0.029423808678984642,0.08964506536722183 l0.04113708436489105,-0.008622055873274803 -0.04437602311372757,0.2170037180185318 m0.04264374449849129,0.08453668653964996 l0.11484865844249725,0.10093910247087479 0.059502605348825455,-0.02391478605568409 l0.04100698605179787,-0.008361163549125195 m0.09338243305683136,-0.11630821228027344 l0.019026149064302444,-0.15650762617588043 -0.04963972046971321,0.2139001190662384 m0.11022044718265533,0.09368880838155746 l0.09109732508659363,0.15541207790374756 0.09124381095170975,0.1585683822631836 l0.12061303853988647,0.10473091900348663 0.06252645701169968,-0.05829585716128349 l-0.10736793279647827,0.014402855187654495 m0.09740187227725983,0.1483449935913086 m-0.08712957799434662,-0.028481371700763702 l0.08959658443927765,0.15461818873882294 m0.1778845638036728,0.11301737278699875 l0.17061905562877655,0.11743827909231186 0.02487180009484291,-0.15030917525291443 m-0.10914910584688187,0.19081056118011475 m-0.04910648614168167,0.08706445246934891 l0.11317397654056549,0.1017666682600975 -0.04353081062436104,0.08379509299993515 m0.08712293952703476,-0.11687777191400528 l-0.05578278377652168,0.21988245844841003 0.059320271015167236,-0.02442586049437523 m0.09745938330888748,0.05343605950474739 l0.09175920486450195,0.1556275188922882 -0.11219903826713562,0.012010029517114162 l-0.11651068180799484,0.1839725822210312 -0.047908440232276917,0.22331419587135315 l0.04181776940822601,-0.006840746849775314 -0.04455108568072319,0.22160948812961578 m0.05768955126404762,-0.031949594616889954 l0.05859529599547386,-0.02872208133339882 m0.0583784244954586,-0.04200541600584984 l0.06925874203443527,-0.06681224703788757 m-0.08540648967027664,-0.030353371053934097 m0.05762872099876404,-0.050598952919244766 l0.08888527750968933,0.1538112461566925 m0.05943761020898819,-0.04423491656780243 m-0.11993805319070816,0.015639226883649826 l-0.0637580156326294,0.22215408086776733 m0.18609504401683807,0.15972037613391876 m-0.10557524114847183,0.20292320847511292 l-0.06456596404314041,0.2298194020986557 m0.031012795865535736,0.0838409960269928 l0.11514794081449509,0.1060565933585167 0.08875606209039688,0.16176335513591766 m0.061242323368787766,-0.03567825257778168 l0.0913342535495758,0.15680092573165894 m0.06071876734495163,-0.03933904320001602 l0.04216664656996727,-0.00655734445899725 -0.06545106321573257,-0.022543206810951233 m0.05778421089053154,-0.041027721017599106 l-0.0461270734667778,0.0790180116891861 m0.05778034031391144,-0.042447205632925034 l-0.11358653008937836,0.011749989353120327 0.028718668967485428,0.09028126299381256 m-0.05741916224360466,0.22682814300060272 l0.05872077867388725,-0.027790462598204613 0.02924169972538948,0.09147121757268906 m0.03361354395747185,0.07988185435533524 m0.1087513342499733,0.093526691198349 l-0.04582514241337776,0.08442819863557816 -0.1489507406949997,-0.13949841260910034 l-0.051533881574869156,0.21626660227775574 0.11482859402894974,0.1047886461019516 l0.030340757220983505,0.09235673397779465 m0.1309281289577484,0.007374211680144072 l-0.052008528262376785,0.22407352924346924 -0.04255856201052666,0.08376911282539368 l0.09176062792539597,0.159420445561409 -0.11669540405273438,0.18475686013698578 l0.09889732301235199,-0.09147068113088608 0.10151761770248413,-0.0936674252152443 m-0.13483288884162903,-0.14676229655742645 m0.015938447788357735,-0.1731986403465271 m0.047143638134002686,0.08635146170854568 m0.09645040333271027,0.05501947179436684 m-0.07218403369188309,0.23084881901741028 l0.07054730504751205,-0.066922128200531 0.020567838102579117,-0.15325437486171722 l0.11484683305025101,0.09726977348327637 m-0.11044492572546005,0.1909032166004181 m0.09007773548364639,0.14976565539836884 l0.11540453881025314,0.10286618769168854 0.04147683456540108,-0.006933016236871481 m-0.10979718714952469,0.19363711774349213 m0.04168122261762619,-0.0017865588888525963 m-0.10547595471143723,0.20240998268127441 m0.10675351321697235,0.09761904180049896 l-0.1090727373957634,0.196797713637352 m0.1874096840620041,0.16193787753582 m0.031872108578681946,0.08098232001066208 l-0.04609963670372963,0.08805866539478302 0.06551153212785721,-0.06466100364923477 m-0.058984074741601944,0.22510580718517303 l0.022540299221873283,-0.1535962074995041 -0.147186741232872,-0.13957424461841583 l-0.04958086088299751,0.21294043958187103 m0.044737327843904495,0.0858137309551239 m0.07681474834680557,-0.06628047674894333 l0.030183836817741394,0.08716607838869095 m0.09656163305044174,0.05456060916185379 l-0.059052009135484695,0.22312192618846893 m0.17648114264011383,0.11553187668323517 l-0.04479051008820534,0.08588448166847229 0.04196511209011078,-0.00725990254431963 m0.03310065716505051,0.08038206398487091 l0.0902741327881813,0.15681661665439606 0.11885686963796616,0.10380098968744278 l0.0603824146091938,-0.021712077781558037 0.11902957409620285,0.10041569918394089 m0.17972919344902039,0.15078313648700714 l0.09518615901470184,-0.10295870155096054 0.022497601807117462,-0.15109580755233765 " fill="none" stroke="black" stroke-width="1" /></svg>