<?xml version="1.0" encoding="utf-8" ?>
<svg baseProfile="full" height="112.3287359016831" version="1.1" width="110.62794622940419" xmlns="http://www.w3.org/2000/svg" xmlns:ev="http://www.w3.org/2001/xml-events" xmlns:xlink="http://www.w3.org/1999/xlink"><defs /><rect fill="white" height="112.3287359016831" width="110.62794622940419" x="0" y="0" /><path d="M25.161516785621643,25.103494353592396 m0.0,0.0 m-0.16151678562164307,-0.10349435359239578 l0.09710681438446045,0.06286273896694183 0.019308200106024742,0.19711747765541077 l0.0017223451286554337,0.4097476899623871 m0.2734117805957794,0.3282305896282196 m0.21991878747940063,-0.039274562150239944 l0.12377475947141647,0.10626804083585739 0.2719029486179352,-0.018363945186138153 m0.19125832617282867,0.03458736091852188 l0.22512134909629822,-0.004673341289162636 0.3146013617515564,0.025905052199959755 l0.3126169741153717,0.045967668294906616 0.3063921630382538,-0.10626401007175446 l0.3252847194671631,-0.1415480375289917 0.27358588576316833,0.10997305065393448 l0.34228289127349854,-0.20376241207122803 0.2385808527469635,0.16445907950401306 l0.3361722528934479,-0.25056159496307373 0.20904389023780823,0.2235480099916458 l0.3410041332244873,0.13396793603897095 0.37268877029418945,0.1660790741443634 m0.30341750383377075,0.49221479892730713 l-0.15871822834014893,0.387860506772995 0.3854306638240814,0.5421396493911743 l0.18716205656528473,0.37988221645355225 0.2450333684682846,-0.1541571468114853 l0.41194647550582886,0.2556304335594177 m0.24116697907447815,-0.13043391704559326 l0.28995153307914734,0.7634782195091248 0.2113122195005417,0.4434102475643158 l-0.08407063037157059,0.41410088539123535 -0.08965148031711578,0.4002194404602051 l-0.09289940446615219,0.3825596570968628 0.4168809950351715,0.16122274100780487 l0.37867626547813416,-0.18219919502735138 0.418960839509964,-0.1997111290693283 m0.3755287230014801,0.25213000178337097 l-0.05917784571647644,0.25808480381965637 m0.5250592827796936,-0.19982127845287323 l0.563704788684845,-0.21011264622211456 0.5926234126091003,-0.20472615957260132 l0.37880080938339233,0.2392309457063675 m0.6175370812416077,-0.1338978260755539 l0.6254016757011414,-0.10245203971862793 m0.4874941110610962,0.6723695397377014 l-0.35516732931137085,0.17862048745155334 0.5790327787399292,0.07107910513877869 l0.556997537612915,0.13297992944717407 0.5259941816329956,0.1983841210603714 m0.03144129738211632,0.06700506061315536 l0.46086063981056213,0.33143624663352966 0.3911481499671936,0.2768835723400116 l0.4091443717479706,0.44197872281074524 0.3870681822299957,0.4897798001766205 m0.3667094111442566,0.5454543232917786 l0.35151568055152893,0.5691269040107727 0.3393196761608124,0.587517499923706 l0.3276239037513733,0.5985023379325867 0.31630486249923706,0.6003497838973999 l0.30549079179763794,0.5934433937072754 0.29490968585014343,0.5778173208236694 l0.2851560115814209,0.5552055835723877 0.2761983573436737,0.5263917446136475 l0.26922711730003357,0.49303773045539856 0.26407817006111145,0.45575836300849915 m0.2586773633956909,0.42737314105033875 l0.26071563363075256,0.38101625442504883 0.2647568881511688,0.3329639434814453 l0.27150774002075195,0.2870810031890869 0.7602601051330566,0.7712489366531372 l0.2913162410259247,0.2027602344751358 0.3025623559951782,0.15996527671813965 l0.31718510389328003,0.12303929775953293 0.3318098187446594,0.09085796028375626 l0.34651538729667664,0.06397763639688492 0.36040979623794556,0.041990604251623154 l0.3733169734477997,0.024957453832030296 0.3847215175628662,0.011945534497499466 l0.3943098783493042,0.002620520768687129 0.4019894599914551,-0.004352909978479147 l0.40799781680107117,-0.008963591419160366 0.41203856468200684,-0.011321723461151123 l0.41454270482063293,-0.01274083461612463 m0.4144749045372009,-0.0065197148360311985 l0.4133865535259247,-0.005170837976038456 m0.41100406646728516,-0.0005298802279867232 l0.4075496196746826,0.0027547446079552174 0.4035297632217407,0.004998348653316498 l0.3976423442363739,0.011646334081888199 0.3902096748352051,0.021393325179815292 l0.3812582194805145,0.03358172997832298 0.3711027503013611,0.048174504190683365 l0.3594188392162323,0.06512528657913208 0.34704920649528503,0.08419398218393326 l0.3334166705608368,0.1048538088798523 0.31940025091171265,0.12684935331344604 l0.3052430748939514,0.15017551183700562 0.8467716574668884,0.9684094190597534 l0.2803734242916107,0.2067432403564453 0.26565805077552795,0.22436709702014923 l0.2545568645000458,0.2450576275587082 0.24519017338752747,0.26568472385406494 l0.23774056136608124,0.2849676012992859 0.23160666227340698,0.30328169465065 l0.22724193334579468,0.32003456354141235 0.22408021986484528,0.33521348237991333 l0.22218285501003265,0.3492872416973114 0.22138866782188416,0.36162856221199036 l0.22133252024650574,0.37178659439086914 0.2221619188785553,0.38043177127838135 l0.22313173115253448,0.3862578570842743 0.22423401474952698,0.3894791007041931 m0.22568219900131226,0.3949938714504242 l0.22631433606147766,0.3903560936450958 0.22714723646640778,0.3833423852920532 l0.22801683843135834,0.37533238530158997 0.6964600086212158,0.7289130687713623 l0.23268620669841766,0.36127373576164246 0.23156361281871796,0.3453476130962372 l0.2325076162815094,0.3316954970359802 0.23363396525382996,0.3182417154312134 m0.2388632446527481,0.3143423795700073 l0.23556068539619446,0.29903972148895264 -0.10747772455215454,0.4011249244213104 l0.5814900994300842,0.6442079544067383 0.022591840475797653,-0.03836366906762123 l0.206706240773201,0.25467342138290405 0.22017841041088104,0.2557179033756256 l-0.13209696114063263,0.2679300606250763 0.39008432626724243,0.11430137604475021 l0.2055506557226181,0.2473720759153366 m0.20914064347743988,0.25699561834335327 l0.44176313281059265,0.5774465203285217 0.20320333540439606,0.25171685218811035 l-0.11791979521512985,0.16323909163475037 -0.11057847738265991,0.15055935084819794 l0.21392297744750977,0.2227347046136856 m-0.029484009370207787,-0.1864597499370575 l0.2340736836194992,0.20803405344486237 0.40822693705558777,0.4575631022453308 m0.2552700340747833,0.20956675708293915 l-0.02538139931857586,0.08130987733602524 -0.012856733985245228,0.06659518927335739 m-0.03824109211564064,0.33009180426597595 m-0.04264482483267784,0.32356953620910645 m0.010423262603580952,0.17340338230133057 m0.264061838388443,0.17522355914115906 l0.25146573781967163,0.14280888438224792 0.13538837432861328,-0.00925519410520792 m0.01657356508076191,-0.058115892112255096 l-0.006452697329223156,-0.08770402520895004 m0.3606942892074585,0.2775253355503082 l0.24354799091815948,0.19555732607841492 0.24895437061786652,0.20712703466415405 l0.07439737021923065,0.3155558705329895 m0.3282581567764282,0.3133995532989502 l0.31496259570121765,0.3215254545211792 0.30671778321266174,0.33275240659713745 m0.31098687648773193,0.3491506278514862 l0.2669500410556793,0.05805346369743347 0.3147454857826233,0.3051891326904297 l0.27706989645957947,0.37197741866111755 0.0747576430439949,-0.10349151492118835 l0.10574144870042801,0.327426016330719 -0.06716854870319366,0.12372564524412155 l0.10868878662586212,0.3090980648994446 m0.2658677101135254,0.29808515310287476 l0.3680371940135956,0.2660400867462158 0.03688923642039299,-0.08403678983449936 l0.04882846400141716,0.35053032636642456 -0.0479658804833889,0.07041168957948685 l0.35397669672966003,0.22483359277248383 m0.05974612385034561,0.20640994608402252 m0.1514018476009369,0.016812866553664207 l0.051160454750061035,0.17303407192230225 0.18480950593948364,0.07471074908971786 l0.3100244998931885,0.13755163550376892 0.21322667598724365,0.1749773919582367 l0.1643109917640686,0.08318620920181274 0.20731575787067413,0.17161527276039124 m-0.007359667215496302,0.11509373039007187 l0.2596724331378937,0.05124984309077263 m0.20148612558841705,0.1650218367576599 m0.00022610182350035757,0.10765395313501358 m0.002082277089357376,0.10559669882059097 l0.09774027019739151,0.26842281222343445 m-0.01611374318599701,0.07191963493824005 l0.08755707740783691,0.2587282359600067 -0.11199726164340973,0.07999780029058456 l-0.07577386498451233,0.08849114179611206 0.10939972847700119,0.09624629467725754 l0.017593787983059883,-0.061146337538957596 -0.021203912794589996,0.10767635703086853 m0.10094283521175385,0.22863300144672394 m-0.13070029020309448,0.06572418659925461 l0.09067359566688538,0.22840024530887604 m0.0032958865631371737,0.09834256023168564 m0.08364519476890564,0.2416733354330063 l0.07437969744205475,0.23762179911136627 0.10508505254983902,0.10555306822061539 m-0.02010989561676979,0.059528984129428864 l-0.08325684815645218,0.09626198559999466 0.03115430288016796,0.05053984746336937 l0.06612972915172577,0.23750968277454376 m0.20145291090011597,-0.03613603115081787 m0.08551567047834396,0.2429310381412506 m0.10428044199943542,0.12355025857686996 m0.15978936851024628,0.17114479839801788 l0.0585215799510479,-0.06429298967123032 m0.003860404249280691,0.09290298074483871 m0.10381077229976654,0.22236567735671997 l0.015705859288573265,0.08592507243156433 -0.0821521207690239,0.09377080947160721 m0.06128791719675064,-0.0646233931183815 l0.19934113323688507,-0.03423398360610008 0.019553842023015022,-0.061456888914108276 m0.0136643061414361,0.08067367225885391 m0.19806329905986786,-0.04560196027159691 l0.07684970647096634,0.2332947999238968 0.08401867747306824,-0.03659696504473686 m0.10003268718719482,0.2229950875043869 l0.056552011519670486,-0.06301447004079819 m0.10095825791358948,0.22311444580554962 l-0.12215450406074524,0.06277916580438614 0.0668744370341301,0.23582933843135834 m0.06070084869861603,-0.04844016581773758 m0.031045012176036835,-0.04696076735854149 l0.015995848923921585,0.08377402275800705 0.16491198539733887,0.15276169776916504 l0.05882707238197327,-0.046150438487529755 0.06856682151556015,0.23770715296268463 l0.06689310073852539,0.24201074242591858 m0.10041308403015137,0.22576452791690826 m0.08261892944574356,0.24812956154346466 l0.0919979065656662,0.22764231264591217 0.10426287353038788,0.10711758583784103 l0.05308383330702782,-0.06004505977034569 0.083796426653862,0.22517657279968262 m-0.01746613159775734,0.058465488255023956 m0.10352916270494461,0.11790300160646439 l0.09121762216091156,0.22552037239074707 0.07009240984916687,0.2389230877161026 l-0.011148122139275074,0.11477271467447281 m0.09941394627094269,0.22564302384853363 l0.08974756300449371,0.22689132392406464 0.09155524522066116,0.12623335421085358 m0.001739045954309404,0.09816061705350876 m0.10702088475227356,0.13082370162010193 l0.16457174718379974,0.16073434054851532 0.0718362033367157,0.23845931887626648 m0.0619758665561676,-0.06396961212158203 m-0.02556062676012516,0.061967551708221436 l0.02553192712366581,-0.05395792797207832 m0.10027148574590683,0.22224314510822296 m0.03332596272230148,-0.043734293431043625 m0.028343139216303825,0.09463392198085785 l0.027986910194158554,-0.051522064954042435 m0.08170431107282639,0.23409469425678253 l0.07260119915008545,0.2339744120836258 0.06883825361728668,0.23741503059864044 l0.0671604797244072,0.24091997742652893 m0.014064113609492779,0.08768636733293533 m0.08159852772951126,-0.01601828821003437 l-0.013750554993748665,0.05676132068037987 0.1649838089942932,0.15354762971401215 m0.10034113377332687,0.22394834458827972 l0.07277107983827591,0.23980964720249176 0.031196434050798416,0.05236971378326416 m0.07903696596622467,0.2439737319946289 m-0.13121619820594788,0.06157398596405983 m0.024631427600979805,0.09836705774068832 l0.08975193649530411,0.22529107332229614 m0.13655418157577515,0.18198508024215698 l0.09768392890691757,0.13044466078281403 0.01964159868657589,0.08998014032840729 m0.07922935485839844,0.2419935017824173 l-0.12164191156625748,0.06213052570819855 m0.15830934047698975,0.16464540362358093 l-0.034155022352933884,-0.02312573418021202 0.1055663675069809,0.09679859131574631 l0.020476389676332474,0.09006652235984802 -0.08291610330343246,0.09508077800273895 l0.0526944063603878,-0.05955633893609047 m0.0619683600962162,-0.044311974197626114 l0.08888091146945953,0.223813995718956 -0.006019584834575653,0.052540503442287445 l0.02012527920305729,0.09043978154659271 0.08389680087566376,0.22541232407093048 m0.07735241949558258,0.2475581020116806 l0.09448757022619247,0.12580764293670654 0.08650386333465576,0.2271430641412735 l0.08544863015413284,0.2272198349237442 -0.016358310356736183,0.11621776968240738 m0.09980831295251846,0.22612535953521729 l0.07136888056993484,0.243626207113266 m0.083522729575634,-0.016394242644309998 l0.023915324360132217,-0.05670389533042908 0.0702972337603569,0.23534344136714935 l0.08448483794927597,0.22545017302036285 m0.16172511875629425,0.1639779657125473 l0.09048992395401001,0.2265532910823822 m0.002291921991854906,0.09807833284139633 l0.07223398238420486,0.23933424055576324 0.019413698464632034,0.09137459099292755 l0.16644670069217682,0.15444637835025787 m0.10057023912668228,0.22553957998752594 l0.09055382013320923,0.2270158976316452 m0.06111256405711174,-0.048778701573610306 m0.002588930306956172,0.09279491007328033 m0.15853746235370636,0.16817277669906616 l0.00955249834805727,0.10698210448026657 0.02261788584291935,-0.05660213530063629 l0.08294503390789032,0.22402101755142212 m0.10355819761753082,0.11266478896141052 l0.017534775659441948,0.08778753876686096 -0.08283790946006775,0.09488798677921295 l-0.003221293678507209,0.05391513183712959 m0.06223471090197563,-0.06385218352079391 l0.20009037852287292,-0.03290332853794098 0.20173734426498413,-0.028854504227638245 m-0.08541461080312729,0.09874983876943588 m0.08250758796930313,0.2401830106973648 l0.09785068035125732,0.1284511685371399 0.1052461713552475,0.10209803283214569 m0.20068645477294922,-0.038124486804008484 m0.10527820140123367,0.1159454807639122 m0.003621339565142989,0.09142594039440155 m0.05963311344385147,-0.06773391366004944 l0.083170086145401,-0.0368536114692688 0.1074494868516922,0.09361646324396133 l0.0696127861738205,0.23432417213916779 0.06708823889493942,0.24002674221992493 l-0.030503476038575172,-0.023254331201314926 0.2035236954689026,-0.023870456963777542 l0.20442774891853333,-0.023787979036569595 m0.10471060872077942,0.10765864700078964 l-0.08224374055862427,0.09492869675159454 -0.032013196498155594,-0.02318178489804268 l0.20220179855823517,-0.02754637598991394 0.06918277591466904,0.23925644159317017 l0.06721305847167969,0.2431415319442749 m-0.016345569863915443,0.058001503348350525 l0.1365719437599182,0.15955078601837158 0.05484224483370781,-0.0607670396566391 l0.054960910230875015,-0.061010200530290604 0.06854759156703949,0.23825334012508392 l0.10446122288703918,0.09780318289995193 m0.06325889378786087,-0.0640803650021553 l0.2012181133031845,-0.03129059076309204 0.08690784126520157,0.22417354583740234 l0.08556558936834335,-0.03481830283999443 m0.004601000342518091,0.10085848718881607 m0.0023890361189842224,0.09266316890716553 l0.024414176121354103,-0.054539456963539124 m0.10075186938047409,0.22283656895160675 m0.10542827844619751,0.2234174609184265 l0.0047341217286884785,0.09909269958734512 0.08524066209793091,0.22575879096984863 m0.06007404625415802,-0.05177520960569382 l0.003790350165218115,0.09712051600217819 0.019053544849157333,-0.05945279821753502 l0.06724709272384644,0.23569940030574799 0.003295122878625989,0.10111849755048752 l-0.019099073484539986,0.1120895966887474 m0.061798304319381714,-0.041850123554468155 m0.08247146010398865,0.24235498905181885 l0.09146369993686676,0.22576113045215607 -0.008129913359880447,0.05394865199923515 l0.10505348443984985,0.09894857555627823 0.08947313576936722,0.12256529927253723 l0.03463783860206604,0.047483179718256 0.002681705169379711,0.09984906017780304 m0.09981977194547653,0.22461014986038208 m0.06650429964065552,-0.06565475463867188 l0.1991613209247589,-0.035039566457271576 m0.08498477190732956,0.2394035905599594 l0.11671102046966553,0.20242191851139069 m0.08204983919858932,0.24292150139808655 l-0.08218759298324585,0.09467364102602005 0.16494834423065186,0.1568772792816162 l0.017917586490511894,-0.06049274280667305 m0.0018866501050069928,0.0947723463177681 l0.05708124861121178,-0.06263190507888794 0.08501403778791428,0.223979651927948 l0.020357081666588783,0.09087343513965607 m0.07770295441150665,0.2446596473455429 l0.10385508835315704,0.10735481977462769 0.018950793892145157,-0.05992075800895691 m0.07968860864639282,0.24231386184692383 m0.10387139767408371,0.12065137177705765 l0.09139040857553482,0.22566691040992737 0.05891759693622589,-0.04776540771126747 l0.20213180780410767,-0.027197010815143585 0.20348890125751495,-0.025553783401846886 m0.015193585306406021,0.08104424923658371 l0.2015489637851715,-0.03185615316033363 0.07249678671360016,0.23797529935836792 m0.07978936284780502,0.24547991156578064 l0.08372551947832108,-0.029876669868826866 m0.10414537787437439,0.12856949865818024 " fill="none" stroke="black" stroke-width="1" /></svg>