<?xml version="1.0" encoding="utf-8" ?>
<svg baseProfile="full" height="97.33670534859993" version="1.1" width="84.95411819574656" xmlns="http://www.w3.org/2000/svg" xmlns:ev="http://www.w3.org/2001/xml-events" xmlns:xlink="http://www.w3.org/1999/xlink"><defs /><rect fill="white" height="97.33670534859993" width="84.95411819574656" x="0" y="0" /><path d="M26.44325767981354,25 m0.0,0.0 m-0.000931622285861522,0.0729222521185875 m-0.011528966017067432,0.18445926904678345 m-0.039599671959877014,0.2836764454841614 l-0.00023976556258276105,-0.30929693579673767 m-0.3404660224914551,0.14625313878059387 m-0.2861449122428894,-0.022092407569289207 l-0.31473004817962646,0.00375757017172873 0.007622553966939449,0.11166887730360031 l0.05301129072904587,-0.18799902498722076 m0.006188311148434877,0.43287375569343567 l-0.19395248591899872,-0.18864840269088745 -0.32248634099960327,0.3408764898777008 l0.28580328822135925,0.516859769821167 m0.33234360814094543,0.13491563498973846 m0.26651856303215027,0.5165243148803711 l-0.18062426149845123,0.16067372262477875 0.10937274992465973,-0.1065654531121254 l0.26860520243644714,0.46433061361312866 0.47374582290649414,0.2761206030845642 l-0.17656224966049194,0.30122697353363037 -0.14762480556964874,0.3086182177066803 l-0.11605453491210938,0.31153178215026855 0.19632074236869812,0.6794042587280273 l-0.04358046129345894,0.30327919125556946 -0.004504262935370207,0.29082873463630676 m0.03525807708501816,0.279990553855896 l-0.1431940793991089,0.2872326374053955 0.3061625063419342,0.40195488929748535 l0.0007464408990927041,0.36885228753089905 0.16232258081436157,0.16972404718399048 l0.1868876963853836,0.13630825281143188 0.20815995335578918,0.10291442275047302 l0.3776036202907562,-0.5000727772712708 0.36730843782424927,-0.4878603518009186 m0.46906161308288574,-0.13277550041675568 l0.25434911251068115,-0.046450626105070114 m0.4095904529094696,0.5774331092834473 l0.25141218304634094,-0.09283886849880219 m0.23380456864833832,-0.12030694633722305 l0.2343449741601944,-0.29290661215782166 0.2132495641708374,-0.14246729016304016 m0.19145016372203827,-0.2050626575946808 l0.1771468073129654,-0.14283353090286255 m0.16030292212963104,-0.11706703901290894 m0.13652966916561127,-0.1351860612630844 l0.4706340730190277,0.1171327456831932 m-0.022153550758957863,0.06471054255962372 l-0.22556255757808685,0.4236806631088257 0.40266934037208557,0.03440805897116661 l0.31182628870010376,0.38431069254875183 0.13345544040203094,-0.10256995260715485 l0.13462206721305847,0.09768074005842209 m0.31542521715164185,0.4124164581298828 m0.31486162543296814,0.42985209822654724 l0.5483607649803162,0.3886656165122986 0.29773691296577454,-0.16771449148654938 l0.14699815213680267,-0.3763701319694519 0.2953561842441559,-0.11769594997167587 l0.5220250487327576,-0.01287121046334505 -0.3095560371875763,0.6317631006240845 l0.213975727558136,0.5063501596450806 0.08221153169870377,-0.06702195852994919 l0.5365113615989685,0.0030644258949905634 m0.18394000828266144,0.557725727558136 m-0.3583930432796478,0.6829080581665039 m0.20807191729545593,-0.1515686959028244 m-0.30419260263442993,-0.20184196531772614 l-0.3427976965904236,0.7024353742599487 -0.3369075059890747,0.7135373950004578 l0.12557008862495422,0.6430599093437195 m0.12996600568294525,0.646568238735199 l0.11149708181619644,-0.285571426153183 0.26131609082221985,-0.27406084537506104 l0.20559927821159363,-0.17238028347492218 0.5474663376808167,0.09661109000444412 l0.11987883597612381,0.5854863524436951 -0.29535210132598877,-0.18937602639198303 l0.5166373252868652,0.13750776648521423 0.10233080387115479,0.5392674803733826 l0.09278324246406555,0.5255831480026245 -0.22638759016990662,0.7601206302642822 l0.3368327021598816,0.4535338580608368 0.3363606929779053,0.4368011951446533 l0.06914072483778,0.45854654908180237 0.2135269194841385,0.3495689034461975 m0.06435946375131607,0.42953622341156006 l-0.12649443745613098,0.7677381634712219 m-0.2193065881729126,-0.11410608887672424 l0.03730684146285057,0.38476958870887756 0.027845211327075958,0.36971354484558105 m0.3231011927127838,0.22617752850055695 l0.377848356962204,0.025287751108407974 m0.04530675336718559,0.3264435827732086 m0.14681285619735718,0.015730561688542366 l0.05372925102710724,0.3055097162723541 0.13566578924655914,0.02671840600669384 l0.1537390649318695,0.08033062517642975 -0.06593306362628937,0.19614526629447937 l0.6202690005302429,0.01170091051608324 0.011502210050821304,0.6529330611228943 l0.003798484103754163,0.645974338054657 m0.019935013726353645,0.04070236533880234 l-0.005098540801554918,0.6160427927970886 0.16652773320674896,0.21899476647377014 m0.1895507425069809,0.20497266948223114 l0.21475927531719208,0.24156217277050018 0.08694317191839218,0.052270736545324326 l-0.01770101860165596,0.16259033977985382 0.21414247155189514,-0.23175857961177826 l0.20229114592075348,0.17365287244319916 m0.3804624080657959,0.425652414560318 m0.017512556165456772,0.13814841210842133 l0.00017146416939795017,0.14190000295639038 0.01577894575893879,0.4199937880039215 l0.15308427810668945,0.23088239133358002 m-0.0021615070290863514,0.4155195653438568 l-0.031702566891908646,0.14319270849227905 -0.04551088809967041,0.142149418592453 l-0.10757400840520859,0.24160169064998627 -0.07036831974983215,0.13861589133739471 l-0.07992611080408096,0.13414445519447327 m0.10512660443782806,-0.06259743124246597 l0.376380056142807,0.32754194736480713 m0.302063524723053,0.6751675009727478 m-0.06891734153032303,0.09735170006752014 m-0.13996942341327667,0.3312530815601349 l-0.07803143560886383,0.08011408895254135 -0.07852865010499954,0.0688728541135788 m0.5511412024497986,0.02229788526892662 l-0.08778567612171173,0.3732350170612335 -0.04636648669838905,0.03455269709229469 m-0.009263243526220322,0.012968787923455238 m-0.07378178834915161,0.38560372591018677 l-0.10718639194965363,0.20655693113803864 m0.4807722568511963,-0.042389027774333954 l0.06282772868871689,-0.014093578793108463 0.07749684154987335,-0.018033428117632866 l0.303164005279541,0.23907797038555145 -0.265372097492218,0.4928620159626007 l0.2741321325302124,0.2223571389913559 m-0.28580164909362793,0.49870479106903076 l-0.03366208076477051,0.3128487765789032 -0.17677630484104156,0.4400264322757721 l0.20692428946495056,-0.007306362967938185 0.4043405055999756,-0.04237483814358711 l0.007170957047492266,0.3140842020511627 -0.13497339189052582,0.37073248624801636 m0.22918203473091125,0.15367001295089722 m0.04067661240696907,0.364175021648407 l0.09131297469139099,-0.09670209884643555 0.2748994529247284,0.02655021660029888 l0.06819397956132889,0.39337196946144104 0.2640827000141144,-0.19096149504184723 l0.27744609117507935,-0.19553634524345398 m-0.4224824011325836,0.4647509753704071 l0.12511706352233887,0.11045099794864655 0.2967429757118225,-0.18639157712459564 l0.09154062718153,0.4665467143058777 0.09123697876930237,0.48271113634109497 l0.09417034685611725,0.49609139561653137 m0.09935255348682404,0.5092564821243286 l0.10499930381774902,0.5219766497612 m0.17199130356311798,0.1433338224887848 l0.11900442093610764,0.5362169146537781 0.12053221464157104,0.5419257283210754 l0.12381593137979507,0.5430958271026611 m0.12804178893566132,0.5410482883453369 m0.13251562416553497,0.5364065766334534 l0.40823009610176086,-0.14976464211940765 0.09010829776525497,0.05415908619761467 l0.08290057629346848,0.05647750198841095 0.04328329861164093,-0.36300623416900635 l0.06989815086126328,0.059873826801776886 m0.22257712483406067,-0.06616844236850739 l0.11157418042421341,0.36351847648620605 0.09900062531232834,0.3345937728881836 m0.2533014714717865,-0.10440526157617569 l0.08723292499780655,0.11203280091285706 0.20121793448925018,-0.02224859595298767 m-0.12001056224107742,0.14139576256275177 m0.054594796150922775,0.2186925858259201 l0.08212918043136597,-0.07134386152029037 0.08782575279474258,-0.18405169248580933 m0.08142105489969254,0.09144067019224167 l0.07551555335521698,0.0934392586350441 0.047457464039325714,0.08585448563098907 m0.0300732608884573,0.15660744905471802 l0.01361138466745615,0.08187156915664673 0.04693746939301491,0.08424855768680573 l0.04798835888504982,0.08171716332435608 0.12189580500125885,-0.15069261193275452 m-0.1825382113456726,0.06618845462799072 m0.2837514281272888,0.009299974888563156 l-0.08827947080135345,0.13763363659381866 m0.07155103236436844,0.08402015268802643 m0.13834169507026672,-0.12556463479995728 m0.14992117881774902,-0.05631957948207855 l0.27299022674560547,-0.004583311732858419 -0.16946396231651306,0.0885506346821785 l0.06164603680372238,0.08889900147914886 m0.06625489145517349,0.08166669309139252 m0.02289973944425583,0.03091578371822834 l-0.06231403350830078,0.11918537318706512 m0.13925214111804962,-0.04500340297818184 m0.13958440721035004,-0.047732967883348465 l0.14013315737247467,-0.04667196050286293 0.10872531682252884,0.02402815967798233 l-0.0664677619934082,0.058853261172771454 -0.02771623618900776,0.11696486175060272 m0.26315346360206604,-0.0025328246410936117 l0.1428266018629074,-0.04295160993933678 -0.16839557886123657,0.09527665376663208 l0.04472475126385689,0.0674617812037468 -0.044220972806215286,0.11964759975671768 l0.04524678364396095,0.06597674638032913 m0.14210505783557892,-0.041917696595191956 m-0.008467833511531353,0.05114338546991348 m-0.009057780727744102,0.0544775053858757 m-0.15928801894187927,0.07813119143247604 l0.15439485013484955,-0.042448777705430984 m-0.11266736686229706,0.2254030555486679 l0.06496068090200424,0.08155761659145355 -0.025586755946278572,0.12540094554424286 m0.2612372040748596,-0.0016810972010716796 l-0.16412703692913055,0.09515024721622467 -0.04909950867295265,0.11782751977443695 l0.04473857954144478,0.06836460530757904 0.16632947325706482,0.04634004458785057 m0.14206193387508392,-0.04329570382833481 m-0.0790349468588829,0.052015017718076706 m-0.009322326630353928,0.05459342524409294 m0.028441043570637703,0.08594018965959549 m0.07456368952989578,0.06973505020141602 l-0.009931285865604877,0.05151988938450813 m-0.1602010577917099,0.08601614087820053 l0.10419334471225739,0.03272049129009247 0.13963544368743896,-0.08882374316453934 m0.06567499041557312,0.0020110257901251316 l0.10469400137662888,0.02850869856774807 0.17351503670215607,0.04098684340715408 m0.06751738488674164,-0.000474900210974738 l0.2672482430934906,-0.009379570372402668 0.04629404842853546,0.06900233775377274 m0.15089227259159088,-0.09303542971611023 l0.12215877324342728,0.1632615476846695 0.045165497809648514,0.06031820923089981 m0.15536242723464966,-0.04824059084057808 l-0.008932320401072502,0.04493434354662895 0.04317697510123253,0.059949517250061035 l-0.169380322098732,0.09793931990861893 -0.17111438512802124,0.09937222301959991 l0.1401732861995697,-0.037504032254219055 m0.06603264808654785,0.08387310802936554 l0.06392446160316467,0.08577388525009155 0.09675384312868118,-0.014054001308977604 l0.10026633739471436,-0.014423532411456108 0.2758091390132904,-0.016256771981716156 m0.2642066776752472,-0.002401401987299323 l0.1464359015226364,-0.09387531131505966 0.17248094081878662,0.04052684083580971 m-0.07284273952245712,0.05429443344473839 m0.117940753698349,0.16513891518115997 m-0.11328457295894623,0.2308182269334793 m0.07142370939254761,0.0717996284365654 l0.18963298201560974,0.03846973553299904 0.13902872800827026,-0.09045390039682388 m-0.007445713970810175,0.04861532151699066 l-0.10588807612657547,0.21693602204322815 m0.06705014407634735,0.07862810045480728 m0.06888531148433685,0.0029729229863733053 m0.02590072900056839,0.02896207384765148 l0.14095962047576904,-0.08943973481655121 m0.032453980296850204,0.03292765095829964 l-0.029987411573529243,0.08108707517385483 m0.1382538229227066,-0.04595441743731499 l-0.16394294798374176,0.09257866442203522 0.26930496096611023,-0.014325948432087898 l-0.010250392369925976,0.041859813034534454 0.12494437396526337,0.16197602450847626 l-0.16969549655914307,0.10002575069665909 m0.037006527185440063,0.053408753126859665 m0.09437194466590881,0.036986202001571655 m-0.06217991188168526,0.10720623284578323 l0.18697470426559448,0.03908645734190941 m0.13857288658618927,-0.04604925960302353 m-0.1127677783370018,0.22842641174793243 m0.2503179907798767,0.007961257360875607 l0.14049918949604034,-0.09099273383617401 -0.008516686968505383,0.04474302753806114 m0.13950376212596893,-0.04659416154026985 l0.06217857822775841,0.0011420560767874122 0.06410377472639084,0.0860438197851181 l-0.06470824778079987,0.05921506881713867 m0.09673269093036652,0.03530178219079971 m0.03167612478137016,0.08078420907258987 m-0.00882673729211092,0.05479426681995392 m-0.0397191047668457,0.0891757383942604 m0.14900362491607666,-0.08952751010656357 l0.1922202706336975,0.03397919610142708 -0.026654405519366264,0.0780649334192276 l0.1724332720041275,0.04119419679045677 0.14156733453273773,-0.09185493737459183 l-0.1005169078707695,0.2127905935049057 0.05824935436248779,0.09186484664678574 l0.0458662249147892,0.06559551507234573 m0.06506967544555664,0.08430702239274979 m-0.031065911054611206,0.13280139863491058 m-0.009646047838032246,0.055914733558893204 l0.10334178060293198,0.0319148488342762 m0.14875546097755432,-0.09023047983646393 m0.2107752561569214,0.02580420672893524 l0.13991890847682953,-0.046939361840486526 m0.20390482246875763,0.02711428888142109 l-0.10466193407773972,0.2170865833759308 m0.14847616851329803,-0.0914590060710907 l0.14012841880321503,-0.044588200747966766 0.12261305749416351,0.16333001852035522 m0.03594989702105522,0.07813455909490585 l0.12186206132173538,0.16528722643852234 0.10615597665309906,0.031396035104990005 l0.046217672526836395,0.06487327814102173 -0.011081796139478683,0.04192381724715233 l-0.012190242297947407,0.041804201900959015 0.059018805623054504,0.0929129496216774 m-0.16736502945423126,0.08664321899414062 l0.06152942404150963,0.08708661049604416 m0.11935295909643173,0.16445580124855042 l0.0643540769815445,0.084095299243927 0.1401856690645218,-0.04027947783470154 l0.04659382998943329,0.06738265603780746 m0.03963485360145569,0.048146314918994904 l-0.16647320985794067,0.09335223585367203 m0.06685813516378403,0.08043485134840012 l0.18042078614234924,0.04115530475974083 0.06341011077165604,0.08697914332151413 m0.1947169154882431,0.034045685082674026 m0.15995503962039948,-0.042255084961652756 l-0.16324593126773834,0.09041587263345718 m0.032883599400520325,0.08059526234865189 l0.08939266204833984,-0.018910007551312447 m0.03444943577051163,0.0802030861377716 l0.04101993516087532,0.0748162493109703 0.04434826970100403,0.07114341109991074 m-0.16427575051784515,0.08736523240804672 l0.06296186149120331,0.0846930518746376 0.2718490958213806,-0.014444616623222828 l0.04750952497124672,0.06282392144203186 0.05650675669312477,0.0021589824464172125 l0.16563209891319275,0.04504424333572388 0.2776024639606476,-0.01595146395266056 l-0.008505632169544697,0.03859098628163338 0.14543578028678894,-0.04130307585000992 m0.03725242242217064,0.07283780723810196 l0.17603623867034912,0.041435085237026215 m0.09827018529176712,0.032573338598012924 m0.03141682595014572,0.0819539949297905 m0.16317015886306763,-0.036620933562517166 m0.06488145887851715,-0.032695747911930084 l0.25951969623565674,-0.005549921654164791 0.11020202189683914,0.024579523131251335 m-0.03226891905069351,0.08300235122442245 l0.10544820129871368,0.030601996928453445 -0.0104824835434556,0.04385228455066681 l0.04418755695223808,0.0633515864610672 m0.03840244933962822,0.0481947585940361 l0.039565782994031906,0.05620672181248665 0.04445749521255493,0.06892518699169159 l-0.011919411830604076,0.04332729056477547 -0.012571965344250202,0.04278266429901123 l0.04616844654083252,0.06885092705488205 -0.17131929099559784,0.09877880662679672 m-0.013046089559793472,0.04951995238661766 m0.06874172389507294,0.07824406027793884 m0.09553876519203186,0.03597298264503479 m-0.11512680351734161,0.22998078167438507 m0.027156468480825424,0.08855635672807693 m0.13480883836746216,-0.045894525945186615 l-0.03165528550744057,0.08210812509059906 m0.2050274908542633,0.02891061268746853 l0.14031365513801575,-0.09119449555873871 -0.165088951587677,0.09658677130937576 l-0.012916862964630127,0.04407953843474388 -0.16951796412467957,0.09954315423965454 l0.10017404705286026,0.033946871757507324 m-0.03307048976421356,0.12448113411664963 m0.11765065044164658,0.16477574408054352 m0.13935784995555878,-0.044184789061546326 m-0.03966062515974045,0.08698154240846634 l0.13746580481529236,-0.0443425327539444 m-0.16078053414821625,0.08398934453725815 l0.2632697820663452,-0.009158950299024582 m-0.033944230526685715,0.08485081791877747 m0.1611802875995636,-0.036031778901815414 l0.04073143005371094,0.07649518549442291 0.05872272327542305,0.0025536553002893925 l0.06282231956720352,0.08775223046541214 m0.19332857429981232,0.03287586569786072 m-0.16102802753448486,0.08106480538845062 m0.20959289371967316,0.027518553659319878 l0.06854541599750519,0.07879386097192764 -0.05227009579539299,0.11680508404970169 l-0.025940991938114166,0.08202219754457474 m-0.07673707604408264,0.053974706679582596 l0.04097165912389755,0.07251818478107452 m-0.010835343971848488,0.05136803910136223 m-0.1143149584531784,0.2287893444299698 m0.13645587861537933,-0.04312654957175255 l-0.10901779681444168,0.21855923533439636 m0.25618478655815125,0.0015385387232527137 l0.06765218824148178,0.08097518235445023 m0.1225862056016922,-0.02103409729897976 l0.1421450823545456,-0.09111019223928452 0.17598609626293182,0.03911326825618744 l0.12981419265270233,-0.01715528778731823 0.13152620196342468,-0.016492193564772606 m0.08025853335857391,-0.024442123249173164 m-0.07995995134115219,0.05191301181912422 l0.183448925614357,0.03761891648173332 m0.14092573523521423,-0.04692794755101204 l0.10590329766273499,0.026743875816464424 -0.16673581302165985,0.09570395201444626 m-0.03401269391179085,0.08833902329206467 l-0.07254274934530258,0.057671766728162766 0.09524113684892654,-0.013163325376808643 m-0.010657552629709244,0.04928716644644737 m0.15205441415309906,-0.09031803905963898 l0.06893488764762878,0.08025476336479187 0.06473465263843536,0.08506212383508682 m0.06851205974817276,0.07959642261266708 l0.2675364315509796,-0.009113389998674393 m-0.16239877045154572,0.08425089716911316 l0.10344986617565155,0.03199295699596405 m0.14970378577709198,-0.09113741666078568 m-0.16063010692596436,0.07890449464321136 m-0.11570223420858383,0.22914892435073853 l0.18762588500976562,0.03850938379764557 m-0.03508727625012398,0.08758553862571716 m-0.11511791497468948,0.2291443645954132 l-0.0789836198091507,0.05652916803956032 0.10435751080513,0.032960303127765656 l-0.012147976085543633,0.044751983135938644 m0.2619246244430542,-0.003371213097125292 l-0.008812956511974335,0.04435845464468002 0.04519689083099365,0.06910380721092224 m0.14123299717903137,-0.044402193278074265 l0.06592369824647903,0.0839223861694336 -0.027678420767188072,0.12048135697841644 l0.2748659551143646,-0.014526347629725933 0.1435665637254715,-0.09182008355855942 m0.08055343478918076,-0.024815693497657776 " fill="none" stroke="black" stroke-width="1" /></svg>