<?xml version="1.0" encoding="utf-8" ?>
<svg baseProfile="full" height="123.99860192803862" version="1.1" width="105.27508398133796" xmlns="http://www.w3.org/2000/svg" xmlns:ev="http://www.w3.org/2001/xml-events" xmlns:xlink="http://www.w3.org/1999/xlink"><defs /><rect fill="white" height="123.99860192803862" width="105.27508398133796" x="0" y="0" /><path d="M25,25.519600983709097 m0.0,0.0 m0.23042815923690796,-0.05551811680197716 m0.13852347433567047,-0.30123743414878845 l0.30325397849082947,-0.1628454327583313 m-0.32573214173316956,0.05846169963479042 l0.20498579740524292,0.9579898118972778 0.4216243624687195,-0.38524580001831055 m0.23048493266105652,0.9853556752204895 l0.16627079248428345,-0.08828732371330261 0.20797084271907806,-0.28770604729652405 l0.152759850025177,-0.06858143210411072 0.25331029295921326,0.9297307729721069 m-0.053421445190906525,0.26156938076019287 l-0.0752958208322525,0.26797860860824585 0.2955978810787201,0.8245757818222046 l0.3166206479072571,0.7774068713188171 m-0.08792924135923386,0.36924511194229126 l0.37500298023223877,0.66158127784729 -0.04379294440150261,0.4109416902065277 l-0.014879205264151096,0.42708924412727356 0.018016187474131584,0.44484925270080566 l0.4133819341659546,-0.24405038356781006 0.09632965177297592,0.4590446650981903 l0.37570837140083313,-0.2727605104446411 m0.18076083064079285,0.4620204269886017 l0.045613162219524384,-0.3263615369796753 0.2789671719074249,0.43964827060699463 l0.3123212158679962,0.4360363781452179 0.2528849244117737,0.303539901971817 l0.9391754269599915,-0.06490645557641983 0.2216559201478958,0.32036635279655457 m0.3038075566291809,0.381651371717453 l0.4163213074207306,-0.151066392660141 m0.23749478161334991,0.35954388976097107 l0.2234981656074524,0.21331723034381866 0.26798415184020996,0.2928765118122101 l0.18924279510974884,0.37490609288215637 m0.08830723911523819,0.3601015508174896 m0.1323557198047638,0.2774095833301544 l0.02674628607928753,0.3718794584274292 0.2209624946117401,0.3519078195095062 l-0.2541203498840332,0.27366504073143005 0.2571539580821991,0.49375152587890625 l0.156666561961174,0.26490655541419983 -0.19399034976959229,0.31556883454322815 m-0.22761434316635132,0.32929375767707825 l0.06983522325754166,0.4169035851955414 0.06267198175191879,0.4070057272911072 m0.2813732624053955,0.17672361433506012 l-0.16711407899856567,0.23136214911937714 0.06524601578712463,0.51633620262146 l0.059146832674741745,0.5210797786712646 m0.05683685466647148,0.5431675910949707 l0.045669905841350555,0.5348010063171387 0.1610870659351349,0.29197147488594055 m0.2040540874004364,0.2801840603351593 l0.2209213227033615,0.254338800907135 0.3224395513534546,0.2964581251144409 l0.272341251373291,0.2167593538761139 m0.31725600361824036,0.20704121887683868 m0.3512953519821167,0.19374504685401917 m0.0012128271628171206,-0.36388298869132996 l0.6050775647163391,0.30733609199523926 0.402937114238739,0.14119590818881989 l0.4205591678619385,0.1278792917728424 m-0.018032481893897057,-0.16038314998149872 l-0.10086126625537872,0.5768212080001831 -0.10498643666505814,0.5808885097503662 m0.49985915422439575,0.09161391854286194 m0.5198633670806885,0.08233524113893509 l0.44443008303642273,0.3374309837818146 0.4272419810295105,0.33849242329597473 l0.47085490822792053,0.17775212228298187 0.39497068524360657,0.33819371461868286 l-0.10566283762454987,0.6327635645866394 0.47844430804252625,0.19192412495613098 l-0.05182623118162155,-0.2497497946023941 -0.10280472040176392,0.6367301344871521 l0.32175856828689575,0.3569469749927521 m0.36197489500045776,0.5062050819396973 l0.2901811897754669,0.3674461245536804 0.28341883420944214,0.3742923140525818 l0.27535125613212585,0.3817213773727417 -0.12248676270246506,0.618854820728302 l0.6287969946861267,0.1459902971982956 0.644942045211792,0.15958936512470245 l0.6638442873954773,0.17570599913597107 0.21608702838420868,0.5706644058227539 l0.2079261988401413,0.5863400101661682 0.7267670631408691,0.23403050005435944 l0.23675687611103058,0.40390336513519287 0.23604409396648407,0.40732476115226746 m0.16755713522434235,0.6674779653549194 l-0.13187408447265625,0.5434138774871826 0.22366833686828613,0.4139123558998108 l-0.3437824845314026,-0.011723445728421211 0.22193893790245056,0.41550055146217346 m0.08651653677225113,0.7194900512695312 m0.06561487913131714,0.7385165691375732 l0.05072958394885063,0.7287576198577881 0.9053139686584473,0.3033105731010437 l0.9135333299636841,0.29631033539772034 0.1703367978334427,0.41770774126052856 m0.9365924000740051,0.2915341556072235 l0.9329630732536316,0.29012516140937805 -0.06596460193395615,0.7078735828399658 l0.13644470274448395,0.458820641040802 -0.12590700387954712,-0.024450009688735008 m0.9436014890670776,0.28334173560142517 m0.1138935387134552,0.48149675130844116 m0.3693699836730957,0.5156224966049194 l0.12598250806331635,0.5081551671028137 0.13726407289505005,0.5183860063552856 l0.9198181629180908,0.2765929698944092 m0.16459660232067108,0.520764172077179 l0.9188209176063538,0.2650887668132782 0.911819338798523,0.25401321053504944 l0.22681748867034912,0.5134782195091248 0.24570511281490326,0.5158913731575012 l0.2657131850719452,0.5101526379585266 0.876029372215271,0.2321326583623886 l0.3052791655063629,0.4814746081829071 0.8599421977996826,0.2183198630809784 l0.8526298999786377,0.2074984610080719 0.34952273964881897,0.4426283836364746 l0.35706037282943726,0.4384413957595825 0.36407965421676636,0.43045544624328613 l-0.013913141563534737,0.6596895456314087 0.3685917258262634,0.4231312870979309 l0.3705156445503235,0.4149501323699951 -0.0017270107055082917,0.6408401727676392 l0.3594386875629425,0.4150332808494568 0.3528418242931366,0.4118013083934784 l0.34224459528923035,0.4121626615524292 0.32902467250823975,0.41413214802742004 m0.31520912051200867,0.4179575741291046 l0.2971205711364746,0.421692818403244 0.2795443832874298,0.42552450299263 m0.2629614472389221,0.4303607642650604 l0.244552880525589,0.43546345829963684 0.22898134589195251,0.4396776854991913 l0.21515527367591858,0.44399774074554443 0.2035990059375763,0.4478468894958496 l0.06601618975400925,0.49065446853637695 0.18707546591758728,0.45459750294685364 m0.07750539481639862,0.4824637770652771 l0.07280027121305466,0.4667319357395172 0.18175944685935974,0.4525526463985443 l0.07495435327291489,0.4503172039985657 0.07726949453353882,0.4441867470741272 m0.08761245012283325,0.4511219263076782 l0.08773364871740341,0.44480401277542114 0.0919370949268341,0.4418569803237915 m0.10242875665426254,0.4498072862625122 l0.10496136546134949,0.4457024931907654 0.39178958535194397,0.05057443678379059 l0.11682247370481491,0.43871092796325684 0.12069018185138702,0.43938732147216797 l0.12437344342470169,0.44005534052848816 0.22882692515850067,0.26124057173728943 l0.1292308270931244,0.44020313024520874 -0.1373780220746994,0.03449203446507454 l0.1253795325756073,0.43613702058792114 0.12145167589187622,0.44270890951156616 l0.22618399560451508,0.5597591996192932 0.10766654461622238,0.4553346335887909 l0.283937931060791,0.11030950397253036 0.09036489576101303,0.45916107296943665 m0.08248421549797058,0.4735186994075775 m0.21908912062644958,-0.1367795616388321 l-0.10368189215660095,-0.07620541006326675 0.0638323426246643,0.4788244366645813 l0.06050786003470421,0.4896133542060852 0.3756944239139557,0.015880124643445015 l0.06330125778913498,0.5022307634353638 m0.06915593147277832,0.5224901437759399 l0.07548227906227112,0.5303441286087036 0.016979170963168144,-0.08142983168363571 m0.3172495663166046,-0.11287871748209 l0.10513168573379517,0.5435911417007446 m0.09742690622806549,-0.11909982562065125 l-0.269452303647995,0.06846899539232254 0.12852691113948822,0.5510758757591248 l0.13405147194862366,0.5598509907722473 0.23918870091438293,-0.13627921044826508 m0.2927872836589813,-0.08175525069236755 l0.29616594314575195,-0.08431552350521088 0.2983187139034271,-0.0895412340760231 l0.13788364827632904,0.5288865566253662 -0.11051163077354431,-0.06568004190921783 l0.12126985192298889,0.504763662815094 m-0.09503623098134995,-0.04248444363474846 l-0.24209794402122498,-0.24371246993541718 0.3682718575000763,-0.05746025964617729 l0.3628860116004944,-0.06357232481241226 0.07486496865749359,0.43178990483283997 l-0.21981605887413025,-0.16861018538475037 m-0.22705931961536407,-0.1473245471715927 l0.04133215174078941,-0.03273676335811615 0.3041734993457794,-0.09630937874317169 m0.19615347683429718,-0.04447396844625473 m-0.08422516286373138,0.01719735376536846 l0.17039716243743896,0.12858523428440094 0.14186842739582062,-0.016697440296411514 l0.09416904300451279,-0.01925901137292385 m0.05994221940636635,0.07612048089504242 m0.07441084086894989,0.00584685942158103 l-0.029459787532687187,0.16796326637268066 m0.20826780796051025,-0.09880834817886353 l0.18476185202598572,-0.1090143471956253 0.1555374562740326,0.18318000435829163 m0.1861082911491394,-0.09775947779417038 m-0.05306690186262131,0.1391170471906662 m0.11292313784360886,0.10918700695037842 l0.1462412327528,0.19142284989356995 m0.010874525643885136,0.027870088815689087 l-0.031198667362332344,0.10136925429105759 0.11278242617845535,-0.029866157099604607 m0.009112522006034851,0.026930974796414375 l0.11602002382278442,-0.029421992599964142 m-0.005139304790645838,0.12787368893623352 m0.03955359011888504,0.2217085212469101 m0.13585232198238373,0.20027099549770355 m0.11773921549320221,-0.029536191374063492 m0.04254206269979477,0.23357850313186646 l0.15938179194927216,-0.0899522453546524 0.03177321329712868,0.20864959061145782 l0.14115023612976074,0.1322508007287979 m-0.08420506119728088,0.013814855366945267 m0.012951672077178955,0.03712644428014755 l0.14334413409233093,0.13896262645721436 0.0299953855574131,0.20505160093307495 m-0.14817912876605988,-0.06699534505605698 m0.17269174754619598,-0.08808965981006622 l-0.011686199344694614,-0.09855794161558151 m0.07068993151187897,0.00203443830832839 m-0.09791543334722519,-0.061621781438589096 m0.07076837867498398,0.005041093099862337 l0.04666769132018089,0.12686499953269958 0.047752849757671356,0.12096621841192245 l0.015371295623481274,0.028187071904540062 0.15023095905780792,0.02169892005622387 l-0.05975911021232605,0.11062068492174149 m-0.14842943847179413,-0.07058434188365936 l0.09617690742015839,0.089185431599617 0.06407725065946579,0.0029575687367469072 l0.08296740055084229,-0.020298168063163757 0.08344191312789917,-0.021399786695837975 l0.08853936940431595,0.08235592395067215 m-0.08585041761398315,0.012334747239947319 l0.14560891687870026,-0.10216177254915237 0.030196767300367355,0.1937423199415207 m-0.053817689418792725,0.13120679557323456 m-0.00488158967345953,0.13179193437099457 m-0.1522037535905838,-0.061232343316078186 l0.0342777781188488,0.20843593776226044 m0.14041352272033691,0.19634345173835754 l0.03249580040574074,0.21437911689281464 m0.14583925902843475,0.14890748262405396 m0.0016069193370640278,0.131964311003685 l-0.008000790141522884,-0.09420522302389145 0.11339724063873291,-0.02947324514389038 l-0.058807145804166794,0.11340881139039993 0.15740638971328735,0.18007543683052063 m0.1608007252216339,-0.09041258692741394 l0.1400323510169983,0.1334696114063263 0.154715895652771,0.18179476261138916 l-0.08476953953504562,0.008085617795586586 0.1493704617023468,0.020423609763383865 l-0.032253481447696686,0.09631148725748062 0.1327565759420395,-0.10454138368368149 m-0.09936287999153137,-0.06265836209058762 l0.01978873275220394,0.034648824483156204 0.029584283009171486,0.19312965869903564 l0.014542419463396072,0.02670220099389553 0.14850692451000214,0.020411482080817223 m-0.03223080560564995,0.08951417356729507 l0.1530449241399765,0.01982102543115616 -0.0586201511323452,0.11418753117322922 m0.09464263916015625,-0.001370465848594904 l0.14831934869289398,-0.10046475380659103 0.09973990172147751,-0.006165864411741495 m0.00836961343884468,0.025846458971500397 m0.03945837914943695,0.21627043187618256 m-0.03284788876771927,0.08876146376132965 m0.04496442526578903,0.15040066838264465 l0.15724237263202667,-0.09223199635744095 m0.11726360768079758,-0.030600272119045258 m0.04108536243438721,0.22455693781375885 l-0.03183290734887123,0.09481363743543625 m0.16450096666812897,0.02065396122634411 l0.11453431099653244,-0.028618331998586655 -0.14093127846717834,-0.07400846481323242 m0.16230040788650513,-0.09429193288087845 m0.0057998294942080975,0.02772422879934311 m0.1805604249238968,-0.08853013813495636 l0.036525774747133255,0.20975835621356964 m-0.007220527622848749,-0.09686338156461716 l0.06234678626060486,0.008764898404479027 m-0.008865208365023136,-0.0983777567744255 l0.11494327336549759,-0.02968215011060238 m0.09749217331409454,-0.00822063535451889 l0.001848727697506547,0.11825015395879745 m0.006596645340323448,0.029562534764409065 m0.11867616325616837,-0.030387409031391144 m-0.03110516630113125,0.08413700014352798 m-0.15138521790504456,-0.06014927104115486 m0.042407575994729996,0.22544002532958984 m0.04199371859431267,0.2324964553117752 m0.0028106204699724913,0.03607692942023277 l0.01299221534281969,0.03302948176860809 m-0.14807753264904022,-0.0634227767586708 m0.11530009657144547,-0.031140901148319244 l0.0971929281949997,-0.01113347988575697 -0.010503183118999004,-0.09722086042165756 m0.10504903644323349,0.09302325546741486 m0.004291982855647802,0.029811514541506767 l0.03439924120903015,0.20846064388751984 0.15318748354911804,0.023590750992298126 l0.08833931386470795,0.0888359323143959 0.13600511848926544,-0.10138507187366486 l0.027909867465496063,0.1924256682395935 0.02684912085533142,0.193630650639534 m0.10222015529870987,0.09249770641326904 m0.0025640542153269053,0.029609477147459984 l0.011921094730496407,0.02902934141457081 0.08146573603153229,-0.01759309135377407 l-0.08956848084926605,-0.04929604008793831 m0.03452906757593155,0.2049376368522644 m-0.009339059703052044,-0.09747982770204544 l0.033929869532585144,0.204934760928154 -0.14209012687206268,-0.07322800904512405 m0.034972596913576126,0.20818963646888733 l0.031150074675679207,0.20556825399398804 m-0.032639700919389725,0.09217992424964905 l0.14861494302749634,0.1878875344991684 m0.03560306504368782,0.22068935632705688 l0.011425307020545006,0.03104647807776928 0.09019128233194351,0.09162485599517822 l0.06357721239328384,0.007872805930674076 0.1351221650838852,-0.10302341729402542 m0.05488095059990883,0.1312510371208191 l-0.014656009152531624,-0.09877817332744598 0.09139107167720795,0.08580530434846878 m0.12091393023729324,-0.030244745314121246 m0.17590473592281342,-0.09089024364948273 m0.12202253192663193,-0.0302761048078537 l0.014737031422555447,0.02670609951019287 0.11424922198057175,-0.02925865724682808 l0.06261583417654037,0.004421590361744165 m0.09790761023759842,-0.004397941287606955 l0.03237772732973099,0.20170250535011292 m0.16685475409030914,-0.08954720199108124 l0.033101532608270645,0.20515486598014832 m-0.08429417014122009,0.016178714111447334 l0.04757818579673767,0.12660518288612366 0.018692363053560257,0.037018097937107086 l0.027907108888030052,0.1969825178384781 0.0644313171505928,0.006572409998625517 l0.11744730919599533,-0.02887008897960186 -0.03173761069774628,0.09502008557319641 m0.12161462754011154,-0.030171599239110947 m0.1739385426044464,-0.09130433201789856 l-0.055225592106580734,0.12215867638587952 0.015419062227010727,0.02725355513393879 l0.11581962555646896,-0.02928208000957966 -0.016182271763682365,-0.09947717934846878 l0.08962254971265793,0.08250850439071655 0.1339510977268219,-0.10604725033044815 l-0.002482705283910036,0.11528865993022919 0.08369895070791245,-0.021986551582813263 l0.027625443413853645,0.1886720061302185 m0.1593838632106781,-0.09366102516651154 m-0.013532915152609348,-0.10154412686824799 l-0.09525515884160995,-0.05565672367811203 m0.03775505721569061,0.20936919748783112 m0.1371222883462906,0.19768741726875305 m0.18218593299388885,-0.08250990509986877 m0.18631355464458466,-0.08466406911611557 l0.16229189932346344,-0.09677682816982269 0.1494799703359604,-0.10239459574222565 m-0.14610303938388824,-0.06913454830646515 l0.03302544355392456,0.19950440526008606 -0.0869298130273819,0.0074479663744568825 m-0.08747997879981995,0.012702284380793571 m-0.0511813685297966,0.14013546705245972 m0.06798490136861801,-0.019695663824677467 l-0.03135903179645538,0.09112706035375595 0.03050336055457592,0.20353226363658905 m0.034784946590662,0.21654605865478516 l0.030902612954378128,0.21045330166816711 m0.07123316079378128,0.011111697182059288 l0.012593906372785568,0.029482901096343994 m-0.14889836311340332,-0.06606806814670563 l0.047785185277462006,0.12585020065307617 m-0.008732777088880539,-0.09662432223558426 m0.0950532928109169,-0.008414790034294128 l0.013673193752765656,0.02848830446600914 -0.1413552463054657,-0.0738418698310852 l0.028822315856814384,0.19224874675273895 0.027244698256254196,0.19454453885555267 l-0.013688135892152786,-0.09543315321207047 m-0.08775047957897186,0.012234467081725597 l-0.09405744075775146,-0.05444809049367905 0.015248903073370457,0.026962390169501305 l0.02135457657277584,0.03509505093097687 0.015499438159167767,0.02549024485051632 m-0.032115694135427475,0.08753159642219543 l0.1523609161376953,0.02026040107011795 m0.0061672101728618145,0.02755495347082615 l0.03267538920044899,0.203461155295372 0.04833132028579712,0.12239806354045868 l0.15137255191802979,0.02250802516937256 0.01567893661558628,0.025216130539774895 l0.06570977717638016,0.0010537009220570326 0.11881044507026672,-0.028917862102389336 l0.05475028604269028,0.11274787038564682 0.09790056198835373,-1.0346377166570164e-05 m0.10250327736139297,0.08807899802923203 l0.019570613279938698,0.035199519246816635 m0.16678375005722046,-0.09313873946666718 l0.11902125179767609,-0.029215915128588676 m0.0378132089972496,0.21253828704357147 m-0.03266148641705513,0.08887418359518051 l-0.03251471742987633,0.09422310441732407 0.14228039979934692,-0.09907855093479156 m-0.0108660738915205,-0.09942282736301422 l0.03263445943593979,0.20073819160461426 m0.03612202778458595,0.2148074358701706 l0.06372112035751343,0.011326282285153866 0.06279343366622925,0.00841518398374319 l-0.14105083048343658,-0.07629912346601486 0.11586623638868332,-0.029723262414336205 m-0.00828923936933279,0.12650536000728607 m-0.010606530122458935,-0.09861402958631516 m0.040865253657102585,0.21799986064434052 l0.15547700226306915,-0.09509196132421494 0.1455419510602951,-0.1014648824930191 l0.14942984282970428,0.01913619413971901 0.029227707535028458,0.1945837438106537 m0.034125830978155136,0.2099396139383316 l0.14708788692951202,-0.09591536968946457 m0.16796588897705078,-0.0918867364525795 l0.033659927546978,0.20401017367839813 m0.11948741227388382,-0.029616497457027435 l0.0031505210790783167,0.11947566270828247 m0.03641769662499428,0.21628133952617645 m0.002860005246475339,0.0323781818151474 l0.15458950400352478,-0.0949210599064827 0.09964638948440552,-0.00719413859769702 l0.13969503343105316,-0.1036457046866417 " fill="none" stroke="black" stroke-width="1" /></svg>