<?xml version="1.0" encoding="utf-8" ?>
<svg baseProfile="full" height="122.25264973199228" version="1.1" width="107.53438925556839" xmlns="http://www.w3.org/2000/svg" xmlns:ev="http://www.w3.org/2001/xml-events" xmlns:xlink="http://www.w3.org/1999/xlink"><defs /><rect fill="white" height="122.25264973199228" width="107.53438925556839" x="0" y="0" /><path d="M25,26.474409833550453 m0.0,0.0 m0.1253839135169983,-0.10766869783401489 m0.26316842436790466,-0.10489252209663391 m0.26751142740249634,-0.5286411643028259 m0.163939967751503,0.06647934019565582 l0.35015997290611267,-0.3952174484729767 0.4316679835319519,-0.4044693410396576 m0.2362089902162552,0.9786325693130493 l0.23512187600135803,0.9887459874153137 0.6793035864830017,-0.38886362314224243 m0.012528495863080025,0.21466845273971558 l0.2517273426055908,0.9375426173210144 0.25588712096214294,0.913497269153595 l-0.07394954562187195,0.2793939709663391 -0.08712509274482727,0.2927095592021942 l-0.08936023712158203,0.315177321434021 m-0.0891030803322792,0.3537174165248871 l-0.06813213974237442,0.3733116090297699 -0.04428578540682793,0.39807623624801636 l-0.015563104301691055,0.4221603572368622 0.0175038930028677,0.44248664379119873 l0.05479644984006882,0.45726412534713745 -0.0774008110165596,-0.2513648271560669 m0.13196468353271484,0.4619484543800354 l0.2147543728351593,0.12962907552719116 m0.22932052612304688,0.46203356981277466 l0.2788962423801422,0.4555707573890686 0.15555603802204132,-0.20234078168869019 l0.38742905855178833,-0.06399598717689514 0.336286723613739,0.4004684090614319 m0.32633867859840393,0.39548560976982117 l0.3049711585044861,0.38240599632263184 0.06666433811187744,0.44475990533828735 l0.2945571541786194,0.192634716629982 0.2159041166305542,0.20473523437976837 m-0.18024404346942902,0.06986997276544571 m-0.05777319148182869,0.44895949959754944 l-0.09712836891412735,0.44308891892433167 m0.12989848852157593,0.27677106857299805 l0.02694227546453476,0.3702355623245239 0.3591291904449463,0.11280932277441025 l-0.02127811126410961,0.37875640392303467 m0.1614968329668045,0.4122808873653412 l0.255248099565506,0.48672735691070557 m0.06312312930822372,0.44684696197509766 m0.10770487785339355,0.44445908069610596 l0.08198422193527222,0.42593109607696533 0.06900093704462051,0.41266077756881714 m-0.19634689390659332,0.3622029423713684 l0.07864529639482498,0.3855922222137451 m0.3592228293418884,0.47276923060417175 l0.1100747361779213,0.35254544019699097 0.13286489248275757,0.3437613844871521 l0.13841484487056732,0.30833443999290466 m0.20016783475875854,0.3455726206302643 l-0.15206575393676758,-0.09520255774259567 m0.09884748607873917,0.027657324448227882 l-0.06569129228591919,-0.04823406785726547 m-0.005613451823592186,0.5539304614067078 l-0.01697872392833233,0.5455891489982605 0.3366023898124695,0.33703920245170593 l0.49539119005203247,0.3157432973384857 0.6034088730812073,0.3068886399269104 l-0.07329189777374268,0.5578739643096924 m0.5637022852897644,0.3182515799999237 m-0.09247676283121109,0.5936070084571838 l0.46406733989715576,0.11370549350976944 m0.49054092168807983,0.10149627178907394 l0.48620110750198364,0.33372536301612854 0.5049466490745544,0.08294463902711868 l0.44920527935028076,0.3352731466293335 0.5268656611442566,0.07011215388774872 l0.4134869873523712,0.33610567450523376 0.3956742584705353,0.3382973372936249 m-0.11120400577783585,0.6475221514701843 m0.5819411873817444,0.06482498347759247 l-0.07455217093229294,-0.19210892915725708 -0.10170136392116547,0.6396074891090393 l-0.09890232980251312,0.6400835514068604 m0.5998995304107666,0.0793418437242508 m0.6157248020172119,0.087968610227108 m0.6278966069221497,0.09990440309047699 l0.26625579595565796,0.37688350677490234 0.6242167353630066,0.1272495687007904 l0.5282227993011475,0.24879465997219086 m0.22549135982990265,0.5657541751861572 l0.23808349668979645,0.4069519340991974 0.6856591701507568,0.20058859884738922 l0.7067978382110596,0.21473364531993866 m0.5321800112724304,0.3111843466758728 l0.19653694331645966,0.626655638217926 0.18429043889045715,0.6400689482688904 l0.17198096215724945,0.6556748151779175 0.8187993168830872,0.28939205408096313 m0.14273449778556824,0.7048507928848267 m-0.24915064871311188,0.48073652386665344 l0.4498840868473053,0.3236998915672302 0.09476488083600998,0.7147306203842163 l0.8906772136688232,0.3041481375694275 0.9013788104057312,0.29896003007888794 m0.9259558320045471,0.29954615235328674 m0.9396637678146362,0.3001653850078583 l0.9320372939109802,0.29465600848197937 m-0.10775630921125412,0.4020043611526489 l0.9335952997207642,0.28894734382629395 m0.9484200477600098,0.2935674488544464 l0.9406511783599854,0.2908782660961151 0.327086865901947,0.2824234664440155 l0.12956005334854126,0.47118252515792847 0.33473023772239685,0.29691553115844727 m0.5923897624015808,-0.005834516137838364 l0.13300706446170807,0.5007597804069519 -0.149203822016716,0.6743382215499878 l0.15063703060150146,0.527446448802948 0.9119201302528381,0.2673889994621277 l0.9108026623725891,0.258025199174881 0.20567093789577484,0.5164013504981995 l-0.11709993332624435,0.6692604422569275 -0.10807201266288757,0.6668984889984131 l0.26189711689949036,0.5173671245574951 -0.0816863402724266,0.6671825051307678 m0.29947787523269653,0.4993351697921753 l0.3158843517303467,0.4831068813800812 0.3309398293495178,0.4694116711616516 l0.4142897427082062,0.4295418858528137 0.3538554310798645,0.44405490159988403 l0.36163073778152466,0.43432947993278503 0.3673571050167084,0.4256540834903717 l0.3703920245170593,0.4189913868904114 m0.3732481300830841,0.41532495617866516 l0.7749073505401611,0.129216268658638 0.3682812750339508,0.4039768874645233 l0.35733988881111145,0.40715259313583374 0.44145286083221436,0.1674244999885559 l0.3178079426288605,0.06486668437719345 0.3202695846557617,0.4121226966381073 l0.3005184829235077,0.4173922836780548 0.6966760754585266,0.004937882535159588 l0.2694648802280426,0.4209308922290802 0.24876733124256134,0.4297608435153961 l0.058452874422073364,0.5261024236679077 0.42684635519981384,0.022235730662941933 l0.210035040974617,0.44137856364250183 m0.07683238387107849,0.5022729635238647 m0.18522734940052032,0.4535589814186096 m0.6925666332244873,-0.09033381938934326 l0.1880255490541458,0.4456233084201813 0.18627633154392242,0.44682520627975464 l0.07833181321620941,0.4519292414188385 m0.08700148016214371,0.4569435715675354 l0.08507417887449265,0.4482112526893616 0.2007831335067749,0.4181864857673645 l0.24581769108772278,-0.023152407258749008 0.22041183710098267,0.3826841115951538 l0.10390723496675491,0.43581995368003845 0.10922762751579285,0.4366709887981415 l0.11449485272169113,0.4376179873943329 0.3845575749874115,0.04658912494778633 l-0.10788537561893463,-0.19479775428771973 0.12778887152671814,0.4260857105255127 l0.23478882014751434,0.23575910925865173 -0.1385338306427002,0.03325776010751724 l0.2551652193069458,0.5431951284408569 0.35989251732826233,-0.1248130351305008 l0.11814116686582565,0.4400761127471924 0.108824223279953,0.4474585950374603 l0.09934795647859573,0.4536961317062378 0.08955017477273941,0.45954716205596924 m0.3049957752227783,0.0734194666147232 l0.33043742179870605,0.05888034775853157 0.06870923191308975,0.4762474000453949 m-0.1730174422264099,-0.11295226216316223 m-0.1787574142217636,-0.1059831753373146 l-0.16206082701683044,0.03207578510046005 0.11386357992887497,0.3878687620162964 l-0.018585138022899628,0.19162094593048096 -0.011107179336249828,0.18717892467975616 l0.0811798945069313,0.5192844867706299 0.36199697852134705,-0.027656322345137596 l0.0047939373180270195,0.17099528014659882 m0.11315896362066269,0.5521377921104431 m0.38386625051498413,-0.11905801296234131 l0.13275155425071716,0.5643063187599182 0.32974523305892944,0.09539749473333359 m0.2966139316558838,-0.07712164521217346 l0.35140112042427063,-0.07161862403154373 0.24567651748657227,-0.1342693567276001 l-0.017436761409044266,0.3725818991661072 0.1358477771282196,0.5312068462371826 m0.06829550862312317,0.5356667637825012 l0.28472158312797546,-0.08310043811798096 0.29418909549713135,-0.09133540838956833 l0.13186214864253998,0.16146579384803772 m0.3953484296798706,-0.042063795030117035 m0.27690616250038147,-0.0878998190164566 m0.01435108296573162,0.4502132833003998 l0.2665612995624542,-0.0698869451880455 0.3445585072040558,-0.0764022022485733 l0.05140620470046997,0.3897481858730316 -0.19601036608219147,-0.12378225475549698 l0.20558689534664154,-0.043271418660879135 0.16282913088798523,0.15818950533866882 m0.16324014961719513,0.16664135456085205 l0.031847432255744934,0.3031529486179352 0.15359985828399658,0.15439872443675995 l0.20982952415943146,-0.11034014821052551 0.08855122327804565,-0.0013073760783299804 m-0.1257314383983612,-0.040188003331422806 l0.10623683035373688,-0.0423765629529953 0.02884565107524395,0.22219915688037872 l0.11023933440446854,-0.03621582314372063 0.035872507840394974,0.016375187784433365 m0.1754280924797058,-0.1005929708480835 l0.03237932547926903,0.20850436389446259 -0.13957320153713226,-0.07486343383789062 l0.020984934642910957,0.023247944191098213 -0.09431589394807816,-0.05093229189515114 l0.15927518904209137,0.17718000710010529 m0.05597555637359619,0.13466334342956543 m-0.1503044217824936,-0.06473442167043686 l0.0945143923163414,-0.006350690498948097 m0.094938263297081,-0.005880515556782484 m0.12016677111387253,-0.030397605150938034 m0.04257415235042572,0.22494779527187347 l0.14611399173736572,0.14196130633354187 0.015399676747620106,0.028857195749878883 l0.14047513902187347,0.13142696022987366 -0.14051537215709686,-0.07601236552000046 m0.09629248827695847,-0.002014964120462537 l0.13974830508232117,0.13361114263534546 m-0.14866961538791656,-0.06762359291315079 m0.17454180121421814,-0.09016971290111542 l0.0351627878844738,0.20632968842983246 0.15232868492603302,0.022036442533135414 l0.029065996408462524,0.19972410798072815 0.08353706449270248,-0.017167864367365837 m0.01813637465238571,0.03386605530977249 l0.03131234645843506,0.20143699645996094 0.013835540972650051,0.027847202494740486 l0.02747666835784912,0.1955512911081314 m0.14128823578357697,0.1425786167383194 l0.06585220992565155,0.00711916945874691 0.14063218235969543,-0.1013849601149559 m0.07340390980243683,-0.0018994867568835616 l0.09873463213443756,-0.006669533904641867 0.06412674486637115,0.0017953632632270455 l0.13791523873806,-0.1057288870215416 0.028780050575733185,0.19055476784706116 m-0.1481819450855255,-0.07109303772449493 l0.013126282952725887,0.027426086366176605 0.029308967292308807,0.1941412091255188 m0.1613350659608841,-0.0917486622929573 m0.10809330642223358,0.09457109123468399 l0.01610240712761879,0.037536267191171646 m0.037411369383335114,0.21692229807376862 l0.1148722916841507,-0.02849479578435421 0.030121566727757454,0.20268842577934265 l0.027587981894612312,0.20054715871810913 m0.16067413985729218,-0.08855316787958145 m0.014595869928598404,0.03578680008649826 l0.016337476670742035,0.03719327226281166 0.015829522162675858,0.027712224051356316 m-0.010755711235105991,-0.0984177440404892 l0.14138007164001465,0.13452236354351044 m0.09590888768434525,-0.004423676989972591 l0.049262333661317825,0.12396708875894547 0.029694752767682076,0.20159360766410828 m-0.14815817773342133,-0.0678199753165245 l0.14598414301872253,-0.09960906952619553 0.029979834333062172,0.1959933638572693 m-0.011032202281057835,-0.09787176549434662 l-0.144117534160614,-0.07304613292217255 -0.014414220117032528,-0.0971999242901802 m-0.009349297732114792,0.12619997560977936 l0.012571054510772228,0.028131678700447083 0.029494203627109528,0.19621379673480988 m0.034512799233198166,0.2116270810365677 l-0.05632590502500534,0.12221953272819519 0.13821542263031006,0.13290441036224365 m0.03407857567071915,0.2147933840751648 m-0.0842825174331665,0.020660249516367912 l-0.14532510936260223,-0.0683123841881752 m-0.08798191696405411,0.01591557450592518 l0.03231753036379814,0.20315596461296082 m0.035794712603092194,0.21692442893981934 l0.011526400223374367,0.03136872127652168 m0.03591851145029068,0.21738557517528534 l-0.05529284104704857,0.12434344738721848 0.13912518322467804,-0.097301185131073 l0.01668425276875496,0.026063526049256325 0.13451141119003296,-0.10416725277900696 l-0.14049214124679565,-0.07932868599891663 0.13574303686618805,0.1250171959400177 l-0.03223618492484093,0.0948663130402565 m0.005624218378216028,0.027443446218967438 l0.14541414380073547,-0.10143360495567322 0.09883949905633926,-0.005289276596158743 m-0.0985182523727417,-0.06198611855506897 l0.11769554764032364,-0.029728101566433907 0.0164223350584507,0.024676669389009476 l0.09797344356775284,-0.004289965610951185 m0.07335306704044342,-0.02488800324499607 m0.07443244010210037,-0.0017587445909157395 l0.06444460153579712,0.0038723351899534464 m0.1053440272808075,0.09445396810770035 m0.040402330458164215,0.22300457954406738 m-0.049176860600709915,0.14671804010868073 l0.1588340401649475,0.023469390347599983 m0.09604090452194214,-0.005933720618486404 l0.14459273219108582,0.13829337060451508 0.01567947119474411,0.027626393362879753 l0.016283264383673668,0.02695353515446186 0.08260296285152435,-0.018731294199824333 l0.027447834610939026,0.191655233502388 0.15965406596660614,0.17881998419761658 m0.16053204238414764,-0.09066244214773178 l0.020525198429822922,0.034035488963127136 -0.14222344756126404,-0.0757644847035408 m0.11995742470026016,-0.03116249106824398 l0.14827454090118408,-0.1034344956278801 m0.053686704486608505,0.13308265805244446 l0.15129134058952332,-0.09988380968570709 0.14045006036758423,0.1303224414587021 m-0.14729006588459015,-0.0689941942691803 l0.03192628175020218,0.19979843497276306 m-0.009929396212100983,-0.09665099531412125 l0.03263396397233009,0.20260277390480042 0.140163853764534,-0.09981503337621689 m-0.01178052555769682,-0.10008454322814941 m-0.010502488352358341,-0.10024361312389374 l0.034918513149023056,0.20283176004886627 m-0.0030554374679923058,0.1284395158290863 m0.1373896449804306,0.19842661917209625 m0.1820365935564041,-0.0812009796500206 m0.18606801331043243,-0.08384772390127182 l0.006521334871649742,0.11945397406816483 -0.030933184549212456,0.09411156922578812 l0.02873498760163784,0.20072419941425323 0.13823121786117554,0.13001351058483124 l-0.08638933300971985,0.006949445232748985 0.13190287351608276,-0.10288343578577042 l0.016150614246726036,0.023779749870300293 0.027186967432498932,0.18848977982997894 l-0.09129955619573593,-0.049981214106082916 m-0.014575819484889507,-0.09956753253936768 l-0.0319894477725029,0.08999857306480408 m0.09360373020172119,-0.003959404304623604 l0.0004006209783256054,0.12001827359199524 0.015025321394205093,0.02744038589298725 m-0.053663551807403564,0.13150689005851746 l0.06441930681467056,0.006455711089074612 0.09063788503408432,0.08878856152296066 l0.13726754486560822,0.12956970930099487 0.02728743851184845,0.1968865990638733 m0.033044375479221344,0.21120798587799072 m-0.009422103874385357,-0.09670254588127136 m0.04748435318470001,0.14751097559928894 m0.00890863686800003,0.040766458958387375 l-0.0541466660797596,0.12872734665870667 0.015452248975634575,0.03058115392923355 l-0.03145352378487587,0.09466247260570526 m0.006728524807840586,0.030054857954382896 m0.1721719354391098,-0.08797964453697205 m-0.0978117510676384,-0.0627276599407196 l0.1546269953250885,0.019545739516615868 0.09855519980192184,-0.008216156624257565 m0.036594752222299576,0.212232306599617 m-0.03242177516222,0.08868829905986786 l-0.14477434754371643,-0.06851012259721756 m0.09429161250591278,-0.006342558190226555 l0.09561751037836075,0.09285704046487808 0.09042295068502426,0.09055717289447784 m0.03516796603798866,0.21316148340702057 l0.011547597125172615,0.029558077454566956 m0.1663423329591751,-0.08916214108467102 l0.07981754839420319,-0.01822442002594471 m0.037172358483076096,0.2136644721031189 l0.15082596242427826,-0.09638603031635284 0.14336977899074554,-0.10244130343198776 m-0.14728444814682007,-0.06971075385808945 m-0.0861339271068573,0.014455423690378666 l0.015620231628417969,0.03751922398805618 m0.03754614293575287,0.2134719043970108 l0.03245632350444794,0.20912759006023407 m0.1670450121164322,-0.08579904586076736 l0.0630335584282875,0.009141633287072182 0.030243651941418648,0.20107536017894745 m0.006089134607464075,0.029677875339984894 l0.07965631783008575,-0.017475659027695656 -0.14174818992614746,-0.07496916502714157 m0.03484712168574333,0.20513945817947388 l-0.14419791102409363,-0.07205630093812943 -0.05894706770777702,0.11475218087434769 l0.1362781971693039,0.12933467328548431 0.01456264778971672,0.026364874094724655 l0.14907845854759216,0.02088390849530697 m0.07436832040548325,-0.024507131427526474 l-0.14380957186222076,-0.0736459270119667 m-0.012580054812133312,-0.09946773201227188 m-0.10215757042169571,-0.06601672619581223 l0.06259656697511673,0.002711609471589327 0.03134101629257202,0.19773952662944794 m-0.053162429481744766,0.13268925249576569 l-0.05665921792387962,0.12205898761749268 0.028421591967344284,0.20032542943954468 l-0.14164121448993683,-0.07503413408994675 m-0.010883819311857224,-0.09692415595054626 l0.03146332502365112,0.19695870578289032 0.13770823180675507,-0.1014353558421135 l0.01667477935552597,0.024751359596848488 0.11799413710832596,-0.02907460927963257 m0.16100722551345825,-0.09635640680789948 m-0.08403436839580536,0.01496864203363657 m0.1796267032623291,-0.09051524102687836 m0.005554393865168095,0.028836779296398163 l0.03632152080535889,0.211048886179924 m0.037875160574913025,0.22214238345623016 l0.14398466050624847,0.14008687436580658 -0.010185593739151955,-0.09487923979759216 l-0.08705845475196838,0.006355857476592064 m0.05224524438381195,0.13444848358631134 m0.03811496123671532,0.21784116327762604 m-0.15202301740646362,-0.06106747314333916 l-0.1455729603767395,-0.06790651381015778 0.1404062956571579,-0.10251528024673462 m0.07017617672681808,0.0008544561569578946 m0.040045611560344696,0.21689575910568237 l-0.14395223557949066,-0.06893810629844666 m0.16713565587997437,-0.09107100963592529 l0.09855010360479355,-0.009748495183885098 m0.03804204612970352,0.21401338279247284 l0.03260665759444237,0.20901618897914886 0.01383680198341608,0.02943047322332859 m0.14372147619724274,0.14387299120426178 m-0.03220798447728157,0.0904129147529602 m-0.08417700231075287,0.020892128348350525 l0.15454749763011932,-0.0952705591917038 0.1499830037355423,0.1844254434108734 l-0.05864758789539337,0.11465185880661011 0.026911351829767227,0.19735382497310638 l-0.1414036601781845,-0.07672002166509628 0.05197568237781525,0.11638946086168289 l0.022648461163043976,0.03461935743689537 -0.06038197502493858,0.109281525015831 l0.014052322134375572,0.0265182014554739 m-0.014130057767033577,-0.09903442114591599 m-0.08699601888656616,0.0164907518774271 l0.15073448419570923,-0.10137184709310532 m0.07074657082557678,-0.0013805782655254006 l0.09479206055402756,0.09012247622013092 -0.03181086853146553,0.09354273229837418 " fill="none" stroke="black" stroke-width="1" /></svg>