<?xml version="1.0" encoding="utf-8" ?>
<svg baseProfile="full" height="126.53019647639303" version="1.1" width="104.59631490823813" xmlns="http://www.w3.org/2000/svg" xmlns:ev="http://www.w3.org/2001/xml-events" xmlns:xlink="http://www.w3.org/1999/xlink"><defs /><rect fill="white" height="126.53019647639303" width="104.59631490823813" x="0" y="0" /><path d="M25.376064270734787,25.879558488260955 m0.0,0.0 m-0.376064270734787,0.02874596044421196 l0.07300442457199097,0.003462169785052538 0.2577205300331116,-0.1509702205657959 m0.37117424607276917,-0.15654954314231873 m0.45010071992874146,-0.6042468547821045 l0.17276383936405182,0.2288847416639328 m0.22990475594997406,0.9860259890556335 m0.22733570635318756,0.9984686970710754 l0.05162247642874718,0.19302840530872345 0.2415791004896164,0.9685983657836914 l0.1524292230606079,-0.03417260944843292 0.8657187819480896,-0.42871400713920593 m-0.07990498840808868,0.2788006067276001 l0.968662440776825,-0.44733119010925293 1.0142871141433716,-0.46281686425209045 l-0.08117122948169708,0.3418595790863037 -0.0632823184132576,0.3663579523563385 l-0.04196478798985481,0.39361241459846497 m-0.023198328912258148,0.42907974123954773 l0.01735435426235199,0.44422757625579834 m0.04693125933408737,0.46583712100982666 l0.0960250124335289,0.4695630967617035 0.14120502769947052,0.470206618309021 l0.18803094327449799,0.46823811531066895 0.23522336781024933,0.4629339873790741 m0.10771322250366211,-0.04730893298983574 l0.3118836581707001,0.4377332925796509 m0.33006131649017334,0.43204256892204285 l0.33790189027786255,0.4156801104545593 0.40416815876960754,0.24918361008167267 l0.8184263110160828,0.013513111509382725 m0.3247852027416229,0.12687644362449646 l0.16601619124412537,0.4008220434188843 0.5930097699165344,0.1309499740600586 l-0.16222093999385834,0.07106517255306244 -0.19869083166122437,0.11300516873598099 l-0.22707976400852203,0.15284110605716705 0.3044683635234833,0.2749641537666321 l0.258937805891037,0.45115143060684204 m-0.27216506004333496,0.24629759788513184 m-0.22030223906040192,0.39068102836608887 l0.15045066177845,0.4005875289440155 0.1171569675207138,0.4107823669910431 l-0.0528295524418354,0.38807129859924316 -0.1676022857427597,0.3252737820148468 m0.07144074887037277,0.4858981668949127 l0.36012163758277893,0.14837044477462769 0.06811931729316711,0.49597564339637756 m0.046114515513181686,0.3740985095500946 m0.6738670468330383,0.009259591810405254 l0.06108666583895683,0.5277047753334045 0.1255476176738739,0.3299121558666229 m-0.011642358265817165,0.32514455914497375 m-0.005471617914736271,0.3242047429084778 l0.02735236845910549,0.5417337417602539 0.3025261461734772,0.29581815004348755 l0.47397205233573914,0.23164315521717072 -0.007659862283617258,0.5371445417404175 m0.31559619307518005,0.20945003628730774 l0.3317459225654602,0.18727929890155792 0.35385262966156006,0.1697787046432495 l0.6052350997924805,0.3053891956806183 -0.073661670088768,0.5584630966186523 l-0.08387044072151184,0.5632201433181763 -0.09319043904542923,0.5689660906791687 l-0.10033552348613739,0.5750032663345337 0.510138213634491,0.33697405457496643 l-0.1097002848982811,0.590964138507843 0.4701174199581146,0.3414079248905182 l0.4080415666103363,0.47518572211265564 0.5271062254905701,0.07157520949840546 l0.41492941975593567,0.33804357051849365 0.5468270778656006,0.06184018775820732 l-0.10650462657213211,0.6336588859558105 0.3644541800022125,0.34669727087020874 m0.338165819644928,0.340943306684494 l0.5813536047935486,0.06704492121934891 m0.28597474098205566,0.5285630226135254 m0.28794431686401367,0.3550783395767212 m0.6210682392120361,0.09234391897916794 l-0.004279225133359432,-0.2744361460208893 m0.26112234592437744,0.37528517842292786 l0.2598884105682373,0.3884471356868744 0.6342617273330688,0.14266562461853027 l0.5306494235992432,0.2593291103839874 -0.14357931911945343,0.595805823802948 l0.6809697151184082,0.1974557638168335 -0.2569403052330017,0.45420411229133606 l0.19815322756767273,0.5936394929885864 0.1913907676935196,0.6155705451965332 l0.18189455568790436,0.6344730854034424 0.7947290539741516,0.27731040120124817 l-0.2519474923610687,0.4767047166824341 0.8361622095108032,0.28773000836372375 l0.8558682203292847,0.29236945509910583 0.11497971415519714,0.7038775086402893 l0.880703330039978,0.2985066771507263 m0.9104151725769043,0.3022860288619995 l0.9111126661300659,0.2979748249053955 -0.17923998832702637,0.47426772117614746 m0.0038813503924757242,0.7319112420082092 m0.15048930048942566,0.428197979927063 m0.9445867538452148,0.29985564947128296 l0.1438041776418686,0.4317655563354492 -0.07209040224552155,0.7030458450317383 l0.13417629897594452,0.46326038241386414 0.9262828826904297,0.29008281230926514 l0.9292281270027161,0.2882690131664276 -0.12628458440303802,0.6899929046630859 m-0.14410829544067383,0.7020590305328369 l0.9280105233192444,0.2893522083759308 0.9257002472877502,0.2805582880973816 l-0.14503151178359985,0.6832060217857361 -0.16723303496837616,0.349276065826416 l0.9071350693702698,0.2587973177433014 0.9047960638999939,0.25059181451797485 l0.22691699862480164,0.513131320476532 0.2456514537334442,0.5153993964195251 l-0.09191734343767166,0.6677074432373047 0.2825014591217041,0.5061221718788147 l0.3012470602989197,0.4918283522129059 m0.319111168384552,0.4816729426383972 l0.3322719633579254,0.468942791223526 0.3446514308452606,0.45637956261634827 l0.8288477659225464,0.19632552564144135 0.36574432253837585,0.42734259366989136 l-0.013803643174469471,0.6603677868843079 0.3684760332107544,0.4234136939048767 l-0.21457180380821228,0.5286673307418823 0.3651743531227112,0.41868317127227783 l0.0017750533297657967,0.6303867697715759 m-0.1331787109375,-0.08787792176008224 m0.3470686376094818,0.41705429553985596 l0.0249472726136446,0.6072584390640259 0.3113776445388794,0.42188650369644165 l0.2960280478000641,0.4225013852119446 0.2791166305541992,0.4258957803249359 l0.261791855096817,0.4300028681755066 0.05213960260152817,0.540351390838623 l0.05623748153448105,0.5269127488136292 m0.21317556500434875,0.446367084980011 l0.20164445042610168,0.4493170976638794 0.19341512024402618,0.45127537846565247 l0.6560952663421631,-0.09104432910680771 -0.0698712021112442,-0.18773464858531952 l0.195473313331604,0.4464208781719208 0.0735551044344902,0.44700878858566284 l0.15505340695381165,0.4956074655056 0.07767684757709503,0.44127774238586426 l0.08066202700138092,0.43830594420433044 0.08483274281024933,0.43670567870140076 l0.08967328816652298,0.43606552481651306 0.212160125374794,0.388180673122406 l0.217301607131958,0.36906367540359497 0.10785891860723495,0.43695443868637085 l0.1133260726928711,0.4375168979167938 0.11840106546878815,0.438569575548172 m-0.12335477024316788,0.08932071179151535 l0.12853847444057465,0.4392963647842407 m0.2207900732755661,0.23441684246063232 m0.13679257035255432,0.4565686583518982 l0.1319122016429901,0.4564930498600006 0.3728393316268921,-0.11693033576011658 l0.12096315622329712,0.4492572546005249 0.2731379568576813,0.12638723850250244 l0.10232178121805191,0.4541515111923218 0.11642913520336151,0.42112237215042114 l0.08164533972740173,0.46588507294654846 0.3315992057323456,0.061856575310230255 l0.0670275017619133,0.4743133783340454 m0.06290651857852936,0.4912929832935333 l-0.10105965286493301,-0.09296222031116486 m0.3685581088066101,0.012734814547002316 m0.38468945026397705,-0.0246115755289793 l0.11144277453422546,0.3736521005630493 0.3791532814502716,-0.014116598293185234 l-0.17496514320373535,-0.16114334762096405 0.2907196879386902,-0.12795287370681763 l0.015458695590496063,-0.09240932762622833 0.011117501184344292,0.1599746197462082 l0.11947869509458542,0.5392903089523315 0.020311465486884117,0.15595196187496185 l0.2729145288467407,0.07359147071838379 0.28279364109039307,0.004503693897277117 l-0.21105742454528809,-0.3167414665222168 0.08557909727096558,-0.15251889824867249 l0.013026648201048374,-0.11387258023023605 0.13498114049434662,0.5151159167289734 m0.13286010921001434,0.5304861068725586 l0.2857855558395386,-0.08511711657047272 m0.11937391012907028,0.515519380569458 l0.10598026216030121,0.4998144507408142 0.09314556419849396,0.4842942953109741 m0.23239940404891968,0.1559615135192871 m0.24203717708587646,0.14714977145195007 m0.07303940504789352,0.45653700828552246 m0.17645473778247833,0.1948809027671814 l0.338466614484787,-0.12521514296531677 0.046698473393917084,0.382363885641098 l-0.01590874418616295,0.34674936532974243 0.1138472929596901,0.1236797347664833 l0.07154815644025803,-0.06544644385576248 -0.16375811398029327,-0.09331372380256653 l0.02660214714705944,0.2692183256149292 m0.22962191700935364,-0.10209488123655319 l0.08474615961313248,0.0007318751304410398 -0.14457301795482635,-0.07933063060045242 l0.08218870311975479,-0.011586274951696396 0.08489919453859329,0.0033916563261300325 l0.13781727850437164,0.13194598257541656 m-0.031278543174266815,0.11879609525203705 m0.01650804653763771,0.02377631515264511 l-0.1430439054965973,-0.06929155439138412 0.0796561986207962,-0.019324539229273796 l0.11521372944116592,-0.0313151553273201 0.020263567566871643,0.021686961874365807 m0.14139120280742645,0.14086580276489258 m0.17687341570854187,-0.08967480063438416 l-0.09256438165903091,-0.05315152183175087 0.08062374591827393,-0.019492367282509804 l0.021686648949980736,0.03412015736103058 m0.09608588367700577,-0.0034148211125284433 l0.1403661072254181,0.13380730152130127 0.05126076564192772,0.11837203055620193 l0.0030460820998996496,0.11690742522478104 m-0.032512884587049484,0.09150885045528412 m0.1453685611486435,0.14872080087661743 l-0.1448144167661667,-0.06860465556383133 0.1410781592130661,-0.10202101618051529 m-0.030948180705308914,0.08548250794410706 l0.14780296385288239,-0.1003820076584816 m0.03740529716014862,0.2114427089691162 l-0.03234734758734703,0.09472028911113739 0.139802023768425,0.1325729936361313 l0.01482856273651123,0.02692168392241001 m-0.011672068387269974,-0.09874970465898514 l0.031656067818403244,0.19919772446155548 0.09037402272224426,0.08944902569055557 l0.06425757706165314,0.004784587770700455 0.11777912080287933,-0.028800908476114273 m-0.03185306116938591,0.08841270208358765 l0.031168939545750618,0.20030704140663147 0.028421755880117416,0.19958460330963135 m-0.033100027590990067,0.09380900859832764 l0.04694722592830658,0.12860094010829926 0.15264447033405304,0.02268003486096859 l-0.08635124564170837,0.008090849034488201 m0.12031423300504684,-0.030700238421559334 m0.038734424859285355,0.21536760032176971 l0.09518694877624512,-0.004955077078193426 0.14068984985351562,0.13309849798679352 m-0.05295578017830849,0.13327275216579437 l0.031216992065310478,0.2066473811864853 m-0.08523723483085632,0.01753171533346176 l0.04642986133694649,0.12822161614894867 0.13978074491024017,-0.09901480376720428 l0.1379176825284958,0.12881751358509064 0.02253449521958828,0.03392370417714119 m-0.03201302886009216,0.08974259346723557 l0.03064851649105549,0.20130905508995056 -0.059162840247154236,0.11583725363016129 l0.11575410515069962,-0.02882734127342701 m-0.08633660525083542,0.013815831393003464 l0.01286122016608715,0.02805580385029316 0.015135815367102623,0.026867570355534554 m0.07277115434408188,-0.023643240332603455 m-0.08530373126268387,0.017140766605734825 m0.14814409613609314,0.1516096144914627 l0.03493282571434975,0.2135901153087616 -0.05731723830103874,0.12004916369915009 m0.006349122617393732,0.031669434159994125 m0.07221737504005432,0.007762994151562452 m0.06874196231365204,-0.019525974988937378 m-0.0020537027157843113,0.13156962394714355 l0.03517727553844452,0.21531669795513153 0.030270295217633247,0.20966826379299164 l0.014469292014837265,0.03017258085310459 m0.16080130636692047,-0.08928147703409195 l0.14877675473690033,-0.09952323138713837 m0.1688617765903473,-0.09398633241653442 m0.006410949397832155,0.026822654530405998 l-0.011936661787331104,-0.09875068068504333 -0.14173726737499237,-0.07484883069992065 l-0.03105369210243225,0.0887102335691452 0.1327463537454605,-0.10512281954288483 l0.13400046527385712,-0.10733489692211151 m-0.08608154952526093,0.009627153165638447 m0.038961052894592285,0.21041055023670197 l0.15225867927074432,-0.09734971076250076 0.09891540557146072,-0.006695580668747425 m0.00826568715274334,0.026866545900702477 l0.14945568144321442,0.1852617859840393 m-0.14833411574363708,-0.06678137928247452 m0.03924978896975517,0.2176574319601059 l0.14509738981723785,0.19073478877544403 m0.04672498255968094,0.14308056235313416 m0.16821275651454926,0.020661301910877228 l0.06231836602091789,0.013746153563261032 m0.09708847850561142,-0.005934431217610836 l-0.055547233670949936,0.12363337725400925 0.06226958706974983,0.010262216441333294 l-0.03143710643053055,0.09451472759246826 0.02707071416079998,0.1942680925130844 l0.02606147527694702,0.19534504413604736 0.15993665158748627,0.1794835329055786 m0.03272527456283569,0.21213464438915253 l0.010358430445194244,0.029196331277489662 0.0963900089263916,-0.00016650596808176488 m0.07372351735830307,-0.022614870220422745 m0.17534513771533966,-0.09037090092897415 m-0.004400684032589197,0.1310301274061203 l0.156366765499115,0.02062724158167839 -0.08475396037101746,0.009477132931351662 l0.08151327818632126,-0.018146486952900887 m0.03508952632546425,0.20813676714897156 l0.11626534909009933,-0.02854526787996292 m0.16729028522968292,-0.09127239882946014 l0.14846327900886536,0.18508321046829224 0.015206345357000828,0.02620212733745575 l0.13880875706672668,0.1292063295841217 m-0.08463814109563828,0.013451880775392056 m0.0039039449766278267,0.03039160557091236 m0.011113584041595459,0.03870106488466263 l0.11481775343418121,-0.02938229963183403 -0.057445600628852844,0.11779851466417313 m-0.0944899246096611,-0.057255618274211884 l-0.0316341258585453,0.09045381844043732 0.029154056683182716,0.19766879081726074 m0.14238467812538147,0.1439327448606491 m-0.15039102733135223,-0.0633012130856514 l-0.010375346057116985,-0.09553898870944977 m-0.0870477557182312,0.014884288422763348 m0.11127333343029022,0.0989910364151001 l0.154511958360672,-0.09652625024318695 0.14501525461673737,-0.10216789692640305 m0.1668590009212494,-0.09498768299818039 m-0.030636290088295937,0.08214231580495834 l0.09765159338712692,-0.009337063878774643 0.1420145332813263,0.1320413500070572 m0.16612987220287323,-0.09073883295059204 l0.051070962101221085,0.1204424574971199 m0.16886283457279205,-0.09034503996372223 m-0.08295312523841858,0.016305312514305115 l0.034510303288698196,0.20754703879356384 -0.08706407248973846,-0.046178948134183884 m-0.031228814274072647,0.08695481717586517 l0.012644430622458458,0.029417885467410088 -0.08775095641613007,0.008329754695296288 m0.11830294132232666,-0.03108244016766548 l-0.05617736652493477,0.11966165155172348 0.08169544488191605,-0.018484586849808693 l0.09762714058160782,-0.0033684675581753254 0.016159866005182266,0.024607757106423378 m0.07351306080818176,-0.024804499000310898 l0.11882874369621277,-0.02924596145749092 -0.08625329285860062,0.006733835209161043 l0.1354673206806183,-0.10641136765480042 m0.16211429238319397,-0.09791260957717896 l-0.14318260550498962,-0.07464326173067093 -0.05966096743941307,0.11242945492267609 m-0.03223993629217148,0.08628682047128677 l0.017297567799687386,0.03729509934782982 m0.11945164948701859,-0.030606143176555634 l0.15028804540634155,-0.100174181163311 0.06289912760257721,0.0018342012772336602 m-0.012364737689495087,-0.10076970607042313 m0.03993264213204384,0.21343553066253662 l0.09561113268136978,0.09459322690963745 0.030551208183169365,0.20424088835716248 l0.04864402115345001,0.12053316831588745 0.09665057063102722,0.0009023952297866344 m0.03398104012012482,0.20934201776981354 l0.09284938871860504,0.09186169505119324 m0.04922487586736679,0.14013011753559113 m-0.08382592350244522,0.02025076001882553 l0.03338383138179779,0.2096722573041916 0.029066210612654686,0.20601163804531097 m0.16291610896587372,-0.08701746165752411 l0.1498805284500122,-0.09825742989778519 m0.16147710382938385,0.016627006232738495 l0.11760266870260239,-0.02872789278626442 m0.17079053819179535,-0.09296620637178421 l-0.05610242113471031,0.12070703506469727 0.09073508530855179,0.08903671056032181 l0.11585702747106552,-0.028592312708497047 0.028217216953635216,0.19380991160869598 m-0.03267209231853485,0.09157450497150421 l0.030558519065380096,0.20257680118083954 m0.10466554015874863,0.09678732603788376 l0.08035926520824432,-0.016392087563872337 0.15327367186546326,0.18265296518802643 l0.15178237855434418,0.02213212475180626 0.027672171592712402,0.1971660852432251 l0.06607341021299362,0.004724093712866306 m-0.1484694629907608,-0.0705641508102417 l-0.09512318670749664,-0.05465705692768097 -0.002674801042303443,0.11696665734052658 m-0.14893396198749542,-0.07003473490476608 m0.038437142968177795,0.21133936941623688 m0.17757226526737213,-0.08568862080574036 l0.035619232803583145,0.21116721630096436 m0.012003767304122448,0.03916790708899498 m0.004647270776331425,0.03196760267019272 l0.013497097417712212,0.03039352037012577 0.01597452349960804,0.028837714344263077 l0.016294308006763458,0.02742309495806694 m0.1037667989730835,0.09301410615444183 m-0.09685318171977997,-0.060552358627319336 l-0.14494609832763672,-0.07010137289762497 0.11384681612253189,-0.03034104034304619 m0.008306246250867844,0.027568010613322258 m0.14650407433509827,0.1484147012233734 l0.012085591442883015,0.028835538774728775 0.0183794517070055,0.036908749490976334 m-0.009903933852910995,-0.09796477109193802 l-0.09197372943162918,-0.052756864577531815 0.051045842468738556,0.11738240718841553 l-0.014145282097160816,-0.09668784588575363 -0.08922954648733139,0.0043224613182246685 l-0.03192391246557236,0.09162691980600357 m0.00584007753059268,0.028127336874604225 l-0.05683421716094017,0.11849847435951233 m0.07212167233228683,-0.022718440741300583 l0.03241589292883873,0.20292919874191284 m0.16648827493190765,-0.08910822123289108 l-0.05544320121407509,0.12161970883607864 m0.11849159002304077,-0.030396994203329086 l0.04883797466754913,0.1245378851890564 m0.09526319056749344,-0.0040204753167927265 m0.039939433336257935,0.22196321189403534 m0.181688129901886,-0.08253531157970428 m0.005116217769682407,0.030772635713219643 l0.014235567301511765,0.03006884828209877 m-0.030931318178772926,0.08649025857448578 m0.10976365953683853,0.10193818062543869 l-0.054323382675647736,0.12761661410331726 m-0.09210202097892761,-0.054888766258955 l0.0961134061217308,-0.007627000566571951 m-0.14825159311294556,-0.06633360683917999 m-0.05030996724963188,0.14147619903087616 l0.002999505028128624,0.12004811316728592 0.08059718459844589,-0.01547821145504713 l0.028696173802018166,0.19788916409015656 0.13678964972496033,0.1294821798801422 l0.026785826310515404,0.19728758931159973 m-0.0033183330669999123,0.1283729076385498 l0.15529558062553406,0.02213328145444393 m0.14343808591365814,0.1448083072900772 m-0.03236261382699013,0.0910390168428421 l0.15465474128723145,-0.09507711976766586 " fill="none" stroke="black" stroke-width="1" /></svg>