<?xml version="1.0" encoding="utf-8" ?>
<svg baseProfile="full" height="114.56176610199327" version="1.1" width="109.24317143970984" xmlns="http://www.w3.org/2000/svg" xmlns:ev="http://www.w3.org/2001/xml-events" xmlns:xlink="http://www.w3.org/1999/xlink"><defs /><rect fill="white" height="114.56176610199327" width="109.24317143970984" x="0" y="0" /><path d="M25,25 m0.0,0.0 m0.034002188593149185,0.24505354464054108 l0.04780833423137665,-0.12641316652297974 0.17163324356079102,0.28647008538246155 m0.0341523140668869,0.20139533281326294 l-0.15581664443016052,0.30106857419013977 0.09522279351949692,-0.32669711112976074 l0.010775089263916016,0.42556706070899963 m0.023790184408426285,0.41927194595336914 m-0.19028374552726746,0.288306325674057 l0.2165876179933548,0.1735968291759491 m-0.02018629014492035,0.37457868456840515 l-0.2353440225124359,0.2304684817790985 m0.4842558801174164,0.22183623909950256 l0.46611663699150085,0.22277122735977173 0.28479695320129395,0.11674900352954865 l0.3426203429698944,-0.19784608483314514 0.24333061277866364,0.16570061445236206 l0.2273271530866623,0.19895069301128387 0.3260860741138458,-0.2598092257976532 l-0.21522951126098633,0.3418633043766022 0.36694565415382385,0.35842445492744446 m0.21799318492412567,0.3053509294986725 l0.2024976909160614,0.33558449149131775 0.15469396114349365,0.42434927821159363 l0.16936591267585754,0.44301241636276245 0.502525269985199,0.2569563686847687 l0.5139063000679016,0.2587689459323883 0.24671286344528198,-0.13986799120903015 l-0.08097747713327408,0.4228299856185913 -0.08237916231155396,0.4194977879524231 l0.21096743643283844,0.44373372197151184 0.4751283824443817,0.20683465898036957 l0.44724535942077637,0.1879759579896927 0.41500124335289,0.16372935473918915 l0.37960323691368103,-0.18367606401443481 0.41977617144584656,-0.20072630047798157 l0.4611360430717468,-0.21468819677829742 -0.058993641287088394,0.25161048769950867 l0.2250220775604248,0.32745933532714844 0.44516682624816895,0.42368873953819275 l-0.012811924330890179,0.20493891835212708 0.0036497535184025764,0.19373054802417755 m0.6112143993377686,-0.12975361943244934 l0.6221341490745544,-0.09951269626617432 0.06597442924976349,-0.2278333604335785 l0.0935586616396904,-0.20741146802902222 0.5842418074607849,0.05959765985608101 l0.558344841003418,0.12798325717449188 0.5262529253959656,0.19653771817684174 l0.4932258427143097,0.2638547718524933 m0.4604766368865967,0.34227219223976135 l0.4321841299533844,0.3951440155506134 0.4071356952190399,0.446260541677475 l0.3853430151939392,0.4921633303165436 0.3671889305114746,0.5315108895301819 l0.3720824420452118,0.6064829230308533 0.3390769362449646,0.5849916338920593 l0.3272494971752167,0.5970583558082581 m0.31308043003082275,0.6154587268829346 l0.302804172039032,0.6011952757835388 0.2932773530483246,0.5819414258003235 m0.2807360589504242,0.5716069936752319 l0.2734782099723816,0.5359162092208862 0.2672300338745117,0.4977743625640869 l0.262923926115036,0.4584137797355652 0.26077941060066223,0.417223185300827 l0.26147836446762085,0.3742343783378601 0.26513543725013733,0.32995444536209106 l0.27162283658981323,0.2849922776222229 m0.27887794375419617,0.2503121793270111 l0.29089778661727905,0.2053004950284958 m0.30306276679039,0.1702723354101181 l0.3176354169845581,0.1309695541858673 0.3327101767063141,0.09412478655576706 l0.34749937057495117,0.06544043123722076 m0.3604433536529541,0.05064499005675316 l0.3730553388595581,0.0325869619846344 0.384805291891098,0.015187066979706287 l0.39446187019348145,0.0040018693543970585 m0.4013173282146454,0.003657229710370302 l0.40675294399261475,-0.00129784201271832 0.4114244878292084,-0.008075965568423271 l0.4141494035720825,-0.010621846653521061 0.9793788194656372,0.9450240135192871 m0.41329774260520935,0.0023811538703739643 l0.4093259274959564,0.000434452056651935 0.40738043189048767,0.00021731287415605038 l0.973774254322052,0.9710056781768799 0.39807918667793274,0.01954118348658085 l0.3889998197555542,0.024457288905978203 0.3806763291358948,0.03536441549658775 l0.3705015182495117,0.04924240708351135 0.359116792678833,0.06571570038795471 m0.3453597128391266,0.08826471865177155 l0.8995595574378967,0.9855251312255859 0.3205280601978302,0.13716411590576172 l0.3040919899940491,0.15425659716129303 m0.2896307110786438,0.17970158159732819 l0.27651146054267883,0.200917586684227 0.2646990120410919,0.2222113460302353 l0.2539249658584595,0.2440483570098877 0.24468031525611877,0.26537957787513733 l-0.03466316685080528,0.8696454763412476 0.22893330454826355,0.31024256348609924 m0.2255856990814209,0.3271922469139099 l0.22264736890792847,0.3383229076862335 0.22141192853450775,0.3502974510192871 m0.2213386446237564,0.3654957115650177 l0.22095626592636108,0.3737354874610901 0.22178272902965546,0.38011008501052856 m0.22317050397396088,0.3903544545173645 l0.22393831610679626,0.3909509479999542 0.2253219187259674,0.3898639976978302 l0.22626075148582458,0.386812686920166 -0.04526133090257645,0.652700662612915 l0.226606547832489,0.3767504096031189 0.22851818799972534,0.36651167273521423 l0.2296903133392334,0.35470205545425415 0.2312290221452713,0.342435747385025 l0.5474429130554199,-0.0984298512339592 m0.23917263746261597,0.32072877883911133 l0.5156269669532776,-0.07679339498281479 0.23755577206611633,0.2896331250667572 l0.23575393855571747,0.2807347774505615 0.2335982471704483,0.2726772427558899 l0.23018379509449005,0.26554611325263977 -0.12376169115304947,0.3168587386608124 l0.518822193145752,0.6224982738494873 0.34984681010246277,-0.043056704103946686 m-0.13790518045425415,0.25184276700019836 m0.47474929690361023,0.6014795899391174 m-0.13400053977966309,0.2206335812807083 l0.07854648679494858,-0.07061952352523804 0.20345845818519592,0.24223880469799042 m0.21354679763317108,0.24831554293632507 l-0.05503108724951744,0.27392643690109253 m-0.10085423290729523,0.14759904146194458 l-0.08514893800020218,0.1272919476032257 -0.07176977396011353,0.11641880869865417 m0.2471097707748413,0.20947186648845673 l-0.029305074363946915,0.33192139863967896 0.40171656012535095,0.41520628333091736 l0.14776138961315155,0.2661105990409851 -0.0004208844911772758,0.05613633617758751 l0.14886704087257385,-0.09694076329469681 0.27969321608543396,0.21838419139385223 l0.38443809747695923,0.319568395614624 m-0.07555101066827774,-0.17299972474575043 l0.24535778164863586,0.1890571117401123 0.018040554597973824,-0.06054726243019104 m0.12283643335103989,0.12652575969696045 l0.13910335302352905,0.03549183905124664 0.33989205956459045,0.2817322015762329 l0.33252859115600586,0.291864275932312 0.2105356752872467,0.07870709151029587 m0.332479864358902,0.31286850571632385 l0.31667235493659973,0.32086512446403503 0.30731233954429626,0.3323313891887665 l0.30067190527915955,0.2534579932689667 0.05200030282139778,-0.11425604671239853 l-0.1664203554391861,-0.00333631644025445 -0.07651596516370773,-0.08072276413440704 m-0.08650457859039307,0.11266178637742996 l0.07296275347471237,-0.098261758685112 0.24772880971431732,0.3785703182220459 l0.36115285754203796,0.27826178073883057 0.3643360137939453,0.27796825766563416 l0.36599183082580566,0.2743242681026459 m-0.03512677177786827,0.22603732347488403 l0.22822098433971405,0.2862823009490967 m-0.0188300684094429,0.2048082798719406 l0.20552413165569305,0.06622058898210526 0.072820283472538,0.34795942902565 l0.17301219701766968,0.37646785378456116 0.08388868719339371,0.33951541781425476 l0.05644896626472473,-0.07482998818159103 m0.15927954018115997,0.3567923903465271 m0.16578122973442078,0.21994279325008392 l0.14070886373519897,0.33347105979919434 0.061953507363796234,-0.0760335698723793 m0.1319674849510193,0.31662312150001526 l0.11716388165950775,0.3057650625705719 -0.036404434591531754,0.06031607836484909 m0.11026865988969803,0.29315850138664246 m0.11513932049274445,0.26396676898002625 l0.12278977781534195,0.11142823100090027 m-0.016404831781983376,0.07196269929409027 l0.08812423050403595,0.25987377762794495 0.11371292918920517,0.10318216681480408 l0.11189422011375427,0.09944872558116913 m0.06441283226013184,-0.06872037053108215 l0.20670080184936523,-0.025581905618309975 0.17347462475299835,0.15091878175735474 m0.20527341961860657,-0.033943843096494675 m0.09057704359292984,0.24646058678627014 l0.005375192034989595,0.10786888003349304 m0.10278869420289993,0.22616156935691833 m0.0854250118136406,0.24420234560966492 m0.06641442328691483,-0.06822365522384644 m0.13928452134132385,0.19368602335453033 l0.16515742242336273,0.16370370984077454 m0.08454056829214096,0.23973330855369568 l0.16589173674583435,0.16395802795886993 -0.0031866300851106644,0.11330803483724594 l-0.08265526592731476,0.09378841519355774 0.05145272985100746,-0.05977707728743553 l-0.03203640133142471,-0.024196147918701172 m0.0760493278503418,0.24192839860916138 m0.08183586597442627,-0.015870798379182816 m0.15855440497398376,0.16559460759162903 l-0.03405606001615524,-0.022615091875195503 0.07032394409179688,0.2327965945005417 l-0.010155603289604187,0.11158167570829391 0.06575654447078705,0.2393491268157959 l0.08289428800344467,-0.03143440932035446 0.06732117384672165,0.24170829355716705 l-0.02960255928337574,-0.02359595336019993 0.16637524962425232,0.1485142707824707 l0.08516385406255722,0.22608089447021484 m0.07816828042268753,0.2498220056295395 l0.07150032371282578,0.24494022130966187 0.06889089941978455,0.24440212547779083 l0.06742101907730103,0.24525539577007294 0.06689168512821198,0.24631518125534058 m0.07768697291612625,0.25098875164985657 l0.022272910922765732,-0.05647164583206177 0.06960460543632507,0.23979519307613373 l0.01698967255651951,-0.061292532831430435 0.06711111962795258,0.2397642731666565 l0.08432694524526596,-0.03143308684229851 m0.16212253272533417,0.15796831250190735 l0.09078460931777954,0.22583645582199097 m0.02817843109369278,-0.04952790588140488 m-0.08719412982463837,0.10217314958572388 m0.10539353638887405,0.22325676679611206 l-0.08226902037858963,0.0955083891749382 m-0.03972049057483673,-0.02294307015836239 m0.08015909045934677,-0.019716929644346237 l0.08886749297380447,0.22338040173053741 m0.15952375531196594,0.16600295901298523 l0.08965511620044708,0.22500452399253845 0.10468529164791107,0.10360383242368698 l0.08443696051836014,0.2258186638355255 0.06758232414722443,0.2429513931274414 m0.08260452747344971,-0.018264321610331535 l0.09474402666091919,0.12558309733867645 0.06978235393762589,0.24007463455200195 l0.06752613931894302,0.24275575578212738 0.20424914360046387,-0.022628048434853554 l0.06994128972291946,0.24351643025875092 m0.20337744057178497,-0.03355592489242554 l0.09102366864681244,0.22552621364593506 0.08744758367538452,0.22618825733661652 l0.05344584211707115,-0.059881020337343216 0.08474660664796829,0.22555813193321228 l0.002962874947115779,0.10140657424926758 0.06573505699634552,0.2435663342475891 l0.0852791965007782,0.22711962461471558 m0.07738959789276123,0.25088369846343994 l-0.005756629165261984,0.11356838792562485 m0.20050153136253357,-0.03772159665822983 m0.10625751316547394,0.2245040237903595 l0.1055683046579361,0.10893643647432327 m0.0033870311453938484,0.09537171572446823 l0.004653727635741234,0.09815584123134613 m0.10426656156778336,0.1311255693435669 l0.004179800394922495,0.09851645678281784 m0.19894295930862427,-0.04106569290161133 m0.08655419200658798,0.2390413135290146 l0.08382295817136765,-0.033358488231897354 m0.10535295307636261,0.11241551488637924 l0.1653720736503601,0.1583964228630066 0.03163706511259079,0.04956899583339691 m0.10391169786453247,0.11155670136213303 m0.1040133535861969,0.1180974543094635 m-0.03820299357175827,-0.021814992651343346 l0.0746525377035141,0.23144151270389557 0.05397625267505646,-0.0619477815926075 m0.10475824028253555,0.10910612344741821 m0.06617090106010437,-0.06714972853660583 l0.025734657421708107,-0.05483153089880943 0.020555254071950912,-0.05952414125204086 l0.20110520720481873,-0.03013806790113449 0.020568538457155228,0.08691198378801346 l0.12065209448337555,0.1972442865371704 m0.06249907612800598,-0.06428202986717224 l0.10535179823637009,0.1001003161072731 m0.0024111308157444,0.09353464096784592 l0.08962135016918182,0.2248947024345398 0.019312860444188118,0.09011846780776978 m0.10011342167854309,0.22483868896961212 l0.08363870531320572,-0.029428305104374886 m-0.08657017350196838,0.10096143186092377 l-0.08369124680757523,0.09663444012403488 0.08395679295063019,0.22502462565898895 m-0.08716931939125061,0.10201030224561691 m0.1033836081624031,0.2244027554988861 m0.0030568765942007303,0.09580393135547638 m0.11092045158147812,0.1349903792142868 m0.10550153255462646,0.12308187782764435 l0.10625416040420532,0.10791441053152084 0.019005632027983665,0.08811657130718231 l-0.033290520310401917,-0.023971617221832275 0.01596888154745102,-0.06210046634078026 l0.06612075865268707,0.23605775833129883 0.08378881961107254,0.2248162478208542 m0.023222666233778,-0.052568573504686356 m0.19911211729049683,-0.04248577356338501 l0.09173306822776794,0.2241727113723755 0.021299751475453377,-0.05858976021409035 l0.06909118592739105,0.23647825419902802 0.16752275824546814,0.15255114436149597 m0.07958100736141205,0.24758464097976685 m0.011273594573140144,0.08255930244922638 l0.16450431942939758,0.1606152504682541 m-0.035756539553403854,-0.02231677807867527 l0.08329840004444122,-0.03305843099951744 m0.06463373452425003,-0.06642266362905502 m0.06792712211608887,-0.06830951571464539 l0.07570461928844452,0.22981663048267365 0.06992420554161072,0.23428715765476227 m0.0785982608795166,0.24281156063079834 m0.10794995725154877,0.13291983306407928 l0.10461874306201935,0.1092042475938797 0.10518847405910492,0.10209411382675171 l-0.0819755271077156,0.0935308188199997 m-0.016864817589521408,0.05961126461625099 l-0.03481240198016167,-0.023379739373922348 m0.09971805661916733,0.22320356965065002 m0.1078992486000061,0.1307816356420517 l0.09107226133346558,0.2253204733133316 0.10503900051116943,0.10406961292028427 l0.0039265952073037624,0.10112553834915161 0.10440786927938461,0.09763283282518387 l0.08917438983917236,0.12211237102746964 0.08450473845005035,-0.03331966698169708 l0.05454477295279503,-0.060350626707077026 m0.10438147187232971,0.1063607856631279 l0.07253029197454453,0.2398536205291748 m0.10251616686582565,0.22468407452106476 l0.07304615527391434,0.24148514866828918 m0.10334131121635437,0.12057046592235565 m0.08502431213855743,0.2438279092311859 m-0.08645601570606232,0.10183228552341461 l0.0573173388838768,-0.06368275731801987 0.05495338886976242,-0.06215694174170494 l0.058530744165182114,-0.04921465367078781 0.059298206120729446,-0.04591217264533043 l0.003432388184592128,0.0961204543709755 -0.030897611752152443,-0.02424917183816433 l0.05416041985154152,-0.06026117131114006 m0.06189744174480438,-0.04511599987745285 l0.059258271008729935,-0.06330013275146484 m0.026270201429724693,-0.05259910970926285 m0.10632970929145813,0.1117950975894928 l-0.12445156276226044,0.0637025386095047 0.05876687169075012,-0.05050239339470863 l0.08282452821731567,-0.03772439435124397 m-0.035005614161491394,-0.02330815978348255 l0.016583507880568504,0.08504525572061539 m0.10035913437604904,0.2226494550704956 l0.16419953107833862,0.15848466753959656 0.019527042284607887,0.08935855329036713 m0.06080799549818039,-0.049970246851444244 l0.1652359813451767,0.15428973734378815 m0.2004319429397583,-0.03970720246434212 l-0.03168046474456787,-0.022876301780343056 0.05915600061416626,-0.050029247999191284 m0.09940174221992493,0.22199030220508575 l0.20082303881645203,-0.03227059543132782 0.01964975707232952,-0.06133123114705086 l0.2025485783815384,-0.027633141726255417 m-0.13102973997592926,0.06344021111726761 m0.10398891568183899,0.22198635339736938 l0.09118351340293884,0.2251156121492386 0.05416854843497276,-0.06157418340444565 l0.05408994480967522,-0.06124301999807358 0.06852951645851135,0.23694096505641937 l-0.030302297323942184,-0.023603834211826324 0.0654318556189537,0.24020721018314362 l0.0026927071157842875,0.10163905471563339 m0.0013069813139736652,0.10371610522270203 l0.0893688052892685,0.22616328299045563 0.06827159225940704,0.24198579788208008 m0.10114020109176636,0.22654137015342712 l0.0721278190612793,0.24322481453418732 -0.0823713168501854,0.09562074393033981 l-0.015518805012106895,0.11356998980045319 0.08269163221120834,-0.030569735914468765 m0.10410281270742416,0.10926497727632523 l0.20121227204799652,-0.03094283491373062 0.12145072966814041,0.1992073655128479 l0.20368526875972748,-0.02485392987728119 0.08725641667842865,-0.03734982758760452 m0.0812615156173706,0.24428892135620117 m0.10626263916492462,0.22394335269927979 m0.08563560992479324,0.2442271113395691 m0.1038050577044487,0.12745389342308044 l0.05822306126356125,-0.058989156037569046 0.10647015273571014,0.0976642593741417 " fill="none" stroke="black" stroke-width="1" /></svg>