<?xml version="1.0" encoding="utf-8" ?>
<svg baseProfile="full" height="83.76151383054093" version="1.1" width="110.52915488788858" xmlns="http://www.w3.org/2000/svg" xmlns:ev="http://www.w3.org/2001/xml-events" xmlns:xlink="http://www.w3.org/1999/xlink"><defs /><rect fill="white" height="83.76151383054093" width="110.52915488788858" x="0" y="0" /><path d="M25,25 m0.0,0.0 m0.03490180894732475,0.3122427463531494 m0.31850701570510864,0.25936177372932434 l0.1353876292705536,0.3789745569229126 0.029440300539135933,-0.06030992045998573 m-0.0023919525556266308,0.4879620373249054 m-0.0021747169084846973,-0.22204279899597168 m0.17574834823608398,0.49589985609054565 m0.022407248616218567,0.46383601427078247 l0.1361970454454422,0.42770880460739136 0.18672484159469604,-0.29441037774086 l0.03353472799062729,0.41027796268463135 0.3324715495109558,0.2605704963207245 l0.10617373883724213,-0.26793843507766724 m0.17248307168483734,0.00962610263377428 l0.04531973600387573,0.09268563985824585 0.43402376770973206,0.0719674676656723 m0.16633673012256622,-0.052511658519506454 l0.011690412648022175,0.09774230420589447 0.04594624042510986,-0.07894386351108551 l0.371870756149292,0.09152186661958694 m-0.01909635215997696,-0.07653845846652985 l0.34551119804382324,0.27996695041656494 -0.03953569754958153,-0.09038427472114563 l-0.06779784709215164,-0.09990555047988892 -0.04076168313622475,-0.755497395992279 l0.3350203335285187,0.09521801769733429 -0.16464711725711823,0.8504209518432617 m0.33043980598449707,0.1319669783115387 l0.32288798689842224,0.13949333131313324 m-0.07953289151191711,-0.09684484452009201 m-0.06634391844272614,-0.07977711409330368 l-0.03014075942337513,-0.03176365792751312 m0.31119245290756226,0.21423792839050293 l-0.1708085536956787,0.5764052271842957 -0.1586514264345169,0.5242176055908203 l0.2918029725551605,0.2553851306438446 0.2846530079841614,0.2654794156551361 l0.06474683433771133,-0.07261711359024048 m0.2729729115962982,0.2802993953227997 l0.1107422411441803,0.13201338052749634 0.09963534772396088,-0.02127842605113983 l-0.08102154731750488,0.2396053820848465 m0.10208689421415329,0.03678900748491287 l0.11288601905107498,0.052888691425323486 0.11390036344528198,0.07908812910318375 l0.11273886263370514,0.1067265048623085 0.12950849533081055,-0.11797952651977539 l0.10767392069101334,0.15973715484142303 0.21156388521194458,0.4097350835800171 m0.09121391177177429,0.21759457886219025 l0.15551429986953735,-0.035036083310842514 m0.08488118648529053,0.25074654817581177 l0.09544292837381363,0.25967133045196533 0.2284688949584961,0.001389085897244513 l0.11471674591302872,0.28094202280044556 0.12958019971847534,0.28836268186569214 m0.2234201282262802,0.5643482208251953 l0.4666230380535126,-0.05570812523365021 m0.3802624046802521,0.059629254043102264 l0.05911637842655182,-0.283809095621109 0.36581555008888245,0.4942197799682617 m0.22170698642730713,0.5141520500183105 l0.3902704417705536,0.5138682126998901 0.3999171555042267,0.5176268815994263 l0.8924557566642761,-0.4973999857902527 0.0895567536354065,-0.22157496213912964 l0.2215806543827057,0.49112388491630554 0.3970268964767456,0.484274297952652 l0.3856043517589569,0.468535840511322 0.3699667751789093,0.44807666540145874 m0.8610783815383911,-0.5781091451644897 m0.4595923125743866,-0.11126381158828735 l0.09479807317256927,-0.18176205456256866 0.2600705325603485,0.5439915060997009 l-0.10623891651630402,0.6865592002868652 0.08987968415021896,-0.11978963762521744 l0.25037291646003723,0.25575029850006104 0.2460048794746399,0.25286900997161865 m0.3027004301548004,0.5696706175804138 l0.2513270378112793,0.05754275992512703 0.20100003480911255,0.10359720885753632 m0.20863239467144012,0.08464792370796204 l0.008279328234493732,-0.05708961561322212 0.06675512343645096,0.5737815499305725 l0.18684302270412445,-0.2322300225496292 0.46491432189941406,0.07750456780195236 l0.353031724691391,0.0838937982916832 0.41020020842552185,-0.00879215169698 l0.22149845957756042,-0.26414355635643005 0.49918410181999207,-0.011787383817136288 l0.5440883636474609,0.0007298976415768266 0.2761596739292145,-0.2926362156867981 l0.10228416323661804,-0.14268508553504944 m0.08442817628383636,0.19466997683048248 l0.25951051712036133,-0.1000395119190216 0.08654516190290451,-0.007363191805779934 l0.24447229504585266,-0.02130848541855812 0.036603718996047974,0.07342040538787842 m0.20626689493656158,-0.08520344644784927 l-0.006833822000771761,0.147857204079628 0.26378771662712097,-0.06407974660396576 l0.2899240255355835,-0.05448642745614052 m0.2850954830646515,0.31271862983703613 m0.33023595809936523,-0.040292732417583466 l0.3582332730293274,-0.03384197875857353 0.6193509697914124,0.30522727966308594 l-0.05373706296086311,0.2917885184288025 0.38381630182266235,0.05746415629982948 m0.38988828659057617,0.001212701085023582 l0.3932337462902069,-0.006121362093836069 0.38614434003829956,-0.007807082496583462 l0.36982831358909607,0.06409691274166107 0.2131618708372116,0.15613067150115967 l-0.008828644640743732,0.2302752584218979 0.31520316004753113,-0.047862134873867035 m0.22772149741649628,0.058394111692905426 m0.27512967586517334,-0.09877093136310577 l0.33180996775627136,0.2218727320432663 0.20605580508708954,0.06548824161291122 m0.2446768432855606,0.7828685641288757 m0.2488589733839035,0.7968404293060303 l0.20103421807289124,0.26808685064315796 m0.013969349674880505,-0.2066364735364914 m0.23910404741764069,-0.06694590300321579 l0.1283080279827118,0.197553351521492 0.2199612706899643,0.781644344329834 l0.22494277358055115,0.7856225967407227 0.4721789062023163,-0.13692615926265717 m0.179843008518219,0.240545853972435 l0.18788856267929077,0.26739856600761414 0.11738573759794235,0.03210693597793579 l0.12418205291032791,-0.0007578074000775814 0.23891468346118927,-0.2760787904262543 l0.25082314014434814,-0.2895874083042145 m0.22996848821640015,0.7215523719787598 l0.25147780776023865,0.3501902222633362 0.1106499657034874,0.2346922755241394 l0.20835943520069122,-0.1383090764284134 -0.146347776055336,0.6505241394042969 l0.23835991322994232,-0.16178074479103088 0.0967041403055191,0.23208355903625488 l0.0988730639219284,0.22975216805934906 0.3177688717842102,0.6756514310836792 l0.2752590477466583,-0.19983260333538055 0.3641572594642639,0.6580568552017212 l0.11626575142145157,0.22489921748638153 0.12233810126781464,0.22689686715602875 m0.4464857876300812,0.6298999786376953 l0.1863870620727539,0.07393718510866165 0.07939087599515915,0.23708321154117584 l0.32663485407829285,0.0353214368224144 m0.17398861050605774,0.028425898402929306 m0.18072108924388885,0.21526387333869934 l0.2685489356517792,0.04998604208230972 0.159255713224411,0.017524337396025658 l0.15653914213180542,0.013621465303003788 m0.3286682665348053,-0.21078912913799286 l0.22239287197589874,0.18088030815124512 0.2257940024137497,0.17315839231014252 m0.08689983934164047,0.040096137672662735 l0.21900790929794312,0.13823352754116058 0.15998338162899017,-0.007121735718101263 l0.16225850582122803,-0.012303927913308144 0.1510964035987854,-0.06837478280067444 l0.243621364235878,-0.07915712893009186 0.18499888479709625,0.05888199433684349 l0.12807916104793549,0.17399409413337708 0.16598019003868103,0.03343157842755318 l0.23124706745147705,0.3576124310493469 0.2572200298309326,-0.051817748695611954 l0.4173263907432556,0.09493590146303177 0.17356906831264496,0.008830461651086807 m0.13209179043769836,0.07393531501293182 l0.23782125115394592,-0.02541520446538925 0.00712371151894331,0.026966549456119537 m0.10863814502954483,-0.04703797772526741 m0.10289967805147171,-0.06252921372652054 l0.18363600969314575,-0.07678402215242386 m0.09261760115623474,-0.009525876492261887 l0.12221422791481018,0.018069373443722725 0.09894903004169464,-0.052626803517341614 l0.08974204957485199,-0.000382389611331746 0.09367769211530685,-0.04809669032692909 l0.1853257268667221,0.11150682717561722 0.08784101903438568,-0.048004407435655594 m-0.07573625445365906,0.23319083452224731 l0.17600712180137634,-0.07997415214776993 m0.20119944214820862,0.03512486442923546 l0.1804381161928177,0.04545742645859718 m0.07081479579210281,-0.08516448736190796 l0.07390262186527252,-0.07638542354106903 m0.12288395315408707,0.012907962314784527 l0.0813731774687767,0.03837638720870018 0.12420579046010971,0.015331397764384747 m0.19882775843143463,0.09327686578035355 l0.17987622320652008,-0.0853213220834732 0.18268971145153046,-0.02172311209142208 m0.16962195932865143,0.022716280072927475 m0.0631759986281395,-0.09395002573728561 l0.0681341364979744,-0.08171959966421127 0.0728229209780693,0.0234206710010767 l0.1914028823375702,0.09905102103948593 m0.2632313072681427,0.12322888523340225 m0.19673149287700653,0.05104902386665344 l0.17855782806873322,0.05433296039700508 0.1250445395708084,0.014915911480784416 l-0.023251933977007866,0.26711586117744446 m-0.010760177858173847,0.2809963524341583 l0.03704254329204559,0.04404762014746666 m-0.009043344296514988,0.2821337580680847 l0.19048769772052765,-0.015896419063210487 0.16719365119934082,0.05889464542269707 m0.18573060631752014,-0.0891542062163353 l0.06731848418712616,-0.07405973970890045 0.07224155217409134,0.02421557903289795 m0.19901907444000244,0.09021531790494919 m0.06167782470583916,-0.09242977201938629 l0.1945408135652542,0.09793936461210251 0.12419962882995605,0.014738893136382103 l0.07370420545339584,-0.0393618680536747 m-0.03414714336395264,0.25064581632614136 l0.0658440887928009,-0.06899659335613251 0.13643406331539154,0.0006635658210143447 l0.08560924977064133,0.005714068189263344 -0.025982288643717766,0.26363813877105713 m-0.07048439979553223,0.22262442111968994 m0.06704892218112946,0.028763476759195328 m0.06742783635854721,0.02798319049179554 l-0.014254198409616947,0.275545209646225 m0.06065833941102028,-0.08778457343578339 l0.023293565958738327,-0.08060360699892044 m0.06282609701156616,-0.0892704501748085 m0.1932612955570221,-0.09647548198699951 m0.2004554271697998,0.08691485971212387 l0.09039562940597534,-0.047794390469789505 m0.12198513746261597,0.010249297134578228 l0.09020782262086868,0.004069134593009949 0.169813334941864,0.03720661252737045 m0.07045728713274002,0.022881748154759407 l-0.039641477167606354,0.01575615257024765 0.01950361579656601,-0.08708260208368301 m0.1972842812538147,0.08879470825195312 l-0.018782058730721474,0.2712557017803192 0.020312245935201645,-0.08146832883358002 l0.0757894515991211,0.042109716683626175 m0.18590468168258667,0.054024599492549896 l0.16691821813583374,0.03442216292023659 m0.2662006616592407,0.12446289509534836 l0.19622990489006042,0.10251670330762863 0.041072722524404526,0.0427391417324543 l0.0599462166428566,0.07480960339307785 m0.03586394712328911,0.040250614285469055 l-0.03992677107453346,0.015549518167972565 m0.16622762382030487,0.018413066864013672 l0.06625751405954361,-0.07459759712219238 0.16930001974105835,0.05525992065668106 l0.1924494057893753,0.09952859580516815 m0.18450945615768433,-0.08950410038232803 m0.20536495745182037,-0.015464216470718384 l0.03780461475253105,0.039479054510593414 0.039388835430145264,0.04162576049566269 l-0.023458557203412056,0.26572665572166443 0.06766458600759506,-0.056617751717567444 m-0.013607424683868885,0.27684444189071655 l-0.038209423422813416,0.2457524687051773 0.06522153317928314,-0.05908194184303284 l0.17171837389469147,-0.07967860251665115 -0.026530886068940163,0.2629857063293457 m0.1213342621922493,0.020955393090844154 m0.05917932093143463,-0.08788128942251205 l0.1911104917526245,-0.019779054448008537 m0.2700308561325073,0.12337622791528702 m0.06201887130737305,-0.09731274098157883 l-0.0163247250020504,0.2736305594444275 m0.0380476638674736,-0.0739821270108223 m-0.004957361612468958,0.2854918837547302 m0.06002936139702797,-0.09958738833665848 l0.07153193652629852,0.0270606130361557 m0.06346315890550613,-0.09306798875331879 l0.03541211783885956,0.039429403841495514 0.03801907226443291,0.04201019927859306 l-0.07876840233802795,0.21820376813411713 m0.06824691593647003,0.02618165872991085 l0.06558934599161148,-0.06960025429725647 m0.19851544499397278,0.08997874706983566 m0.06081048399209976,-0.09419326484203339 l0.16761188209056854,0.02641323208808899 0.07833148539066315,0.04122549667954445 l-0.07790814340114594,0.2197265923023224 0.06806546449661255,-0.05736754834651947 m0.06863716244697571,0.024511080235242844 l0.14257480204105377,0.0024956772103905678 m-0.011238551698625088,0.27932775020599365 l0.06515052914619446,-0.07130534946918488 m-0.07025272399187088,0.21862292289733887 m0.08767978847026825,0.00723206577822566 m0.06943076103925705,0.04838939011096954 m0.06022666394710541,-0.10347478091716766 m0.12081892788410187,0.008443860337138176 m-0.0012954962439835072,0.2885468900203705 l-0.009922879748046398,0.27930748462677 0.18992646038532257,0.1106443852186203 m0.1240583211183548,0.016569795086979866 l0.07257699966430664,0.026481550186872482 0.07712289690971375,-0.039044562727212906 m-0.012527501210570335,0.2779015600681305 l0.14441579580307007,0.006207843776792288 -0.044506218284368515,0.2432544231414795 m0.16515126824378967,0.023127935826778412 l0.1782347857952118,-0.08335916697978973 m0.06276433169841766,-0.08591265231370926 m0.1688762903213501,0.010567441582679749 m0.20150116086006165,0.09018806368112564 l0.19510382413864136,0.10165882110595703 -0.018569407984614372,0.2711910009384155 l0.19169743359088898,0.10830054432153702 0.07358518242835999,0.026431702077388763 m0.06302689760923386,-0.07714443653821945 m-0.02702178806066513,0.256649374961853 l0.06477270275354385,-0.07579748332500458 m0.26778799295425415,0.1287349909543991 l0.19476500153541565,0.10228785127401352 m0.166042298078537,0.018471609801054 l0.03822239115834236,0.040298085659742355 m0.033388007432222366,0.03714863955974579 m0.06868091225624084,0.025121377781033516 l0.18286122381687164,-0.08749481290578842 m0.03256390243768692,0.03609346225857735 m0.030029693618416786,0.035262349992990494 l-0.03614048659801483,0.2506902813911438 m-0.068086177110672,0.21626102924346924 m0.08745839446783066,0.008659996092319489 m0.040458329021930695,-0.06967625021934509 m0.197240948677063,-0.09617625921964645 l-0.03554573282599449,0.01626340113580227 m0.09957177937030792,-0.051285337656736374 m0.04089895263314247,-0.07790285348892212 l0.025703083723783493,-0.0839972123503685 m0.19682587683200836,0.08832679688930511 l0.1882120668888092,-0.024157369509339333 m0.19901801645755768,0.09112080931663513 m0.09925578534603119,-0.05370929837226868 m0.19631697237491608,-0.09723426401615143 l0.1829630732536316,0.05290263891220093 0.18397414684295654,-0.025172879919409752 l0.1771954596042633,-0.08449523895978928 0.08005385845899582,0.03891908377408981 m0.19959178566932678,0.09052403271198273 l0.08896474540233612,0.005711730103939772 0.1687612384557724,0.0539206825196743 m0.03771210089325905,-0.08245422691106796 l0.08858711272478104,0.0034872402902692556 0.021733509376645088,-0.08941693603992462 l-0.04888787120580673,0.2370406687259674 m0.12064472585916519,0.018882261589169502 l0.18763986229896545,-0.017047345638275146 0.1828635185956955,-0.018244173377752304 m0.0634012296795845,-0.08146382123231888 l0.0671432688832283,-0.07327548414468765 0.1923210769891739,0.09665732830762863 m-0.012601573951542377,0.27790021896362305 l0.02559337578713894,-0.07961992919445038 0.03909141942858696,0.04373963177204132 l0.040193088352680206,0.04510249197483063 m0.06215158477425575,-0.0772264376282692 m0.20030510425567627,0.08820223808288574 l0.1780620664358139,0.055990543216466904 -0.04341050609946251,0.24453406035900116 l0.05803757160902023,0.0772809311747551 m0.08656396716833115,0.006853728089481592 m0.060105741024017334,-0.0900561586022377 m0.1934860646724701,-0.09632788598537445 m0.0719865933060646,0.044190432876348495 l0.1924261450767517,-0.025011062622070312 m0.1949092000722885,0.05200675502419472 l0.12440642714500427,0.011321401223540306 0.16950203478336334,0.038092970848083496 l0.0706951692700386,-0.06455665081739426 -0.039908841252326965,0.018807731568813324 l0.1693873554468155,0.04487514868378639 -0.026302265003323555,0.2638375461101532 m0.0856718197464943,0.007546245586127043 l0.06007543206214905,0.08075373619794846 m0.06078279763460159,-0.08171850442886353 l0.07466079294681549,0.04171787574887276 m0.061861030757427216,-0.08596312999725342 m-0.040365226566791534,0.005692829843610525 m0.059630103409290314,0.09419107437133789 m0.175184965133667,0.015784334391355515 m0.16600126028060913,0.001648886944167316 l0.18693283200263977,-0.08948831260204315 0.18372875452041626,-0.027145054191350937 l-0.03811207786202431,0.019399920478463173 m0.19779258966445923,0.09071849286556244 m0.06232277303934097,-0.09262406080961227 m0.20112094283103943,0.051678236573934555 l0.09069972485303879,0.005031409207731485 -0.02002760022878647,0.2691221833229065 l0.039507098495960236,0.04424707964062691 m0.1665617972612381,0.022975066676735878 m0.06091588735580444,-0.09142346680164337 m0.28023073077201843,0.12667270004749298 l0.06732317805290222,-0.08421089500188828 m0.0639680027961731,-0.09358511120080948 m0.19977013766765594,0.08909180015325546 l0.262460321187973,0.12398269027471542 m-0.06843918561935425,0.22013063728809357 l0.14922606945037842,0.0069595566019415855 0.16803628206253052,0.03927012160420418 l0.17514373362064362,-0.08139581978321075 0.19296227395534515,0.09844600409269333 m-0.043160147964954376,0.008041467517614365 l-0.0753742977976799,0.21966102719306946 m0.06081240624189377,-0.0809856727719307 l0.0655188113451004,-0.07378112524747849 0.07714498043060303,-0.04034283012151718 l0.23819896578788757,0.12103141844272614 m-0.03279007598757744,0.25086772441864014 m0.19493775069713593,0.05643412843346596 l-0.03626793250441551,0.2505364418029785 0.16885212063789368,0.06169773265719414 l0.07294435054063797,0.02727283164858818 m0.06262242794036865,-0.07836899161338806 m0.1952090561389923,0.05269119516015053 l-0.037512511014938354,0.24960541725158691 m-0.025978881865739822,0.25727027654647827 l0.07122597098350525,0.029651248827576637 0.07207103073596954,0.028167158365249634 l0.1737474948167801,-0.08051809668540955 -0.0791936069726944,0.2213442176580429 m0.033234283328056335,-0.07927600294351578 l0.07032186537981033,0.026287473738193512 m0.19996190071105957,-0.01509664673358202 l0.0665513277053833,-0.07497192919254303 0.19242353737354279,0.09742014110088348 m0.1884179264307022,0.0515516996383667 m0.04419644922018051,-0.07863153517246246 l0.06694834679365158,-0.08051571995019913 0.19174204766750336,0.09786147624254227 l0.16765561699867249,0.05444435030221939 m0.06418834626674652,-0.08014176785945892 l0.06199748441576958,0.07735777646303177 m-0.010776840150356293,0.2798108756542206 l0.06546664983034134,-0.07164836674928665 0.12310080230236053,0.017110269516706467 m-0.012037020176649094,0.2781612277030945 l-0.07188853621482849,0.21901457011699677 0.1733715981245041,-0.07809523493051529 m0.19861866533756256,0.09254738688468933 m0.06038471683859825,-0.09126652777194977 " fill="none" stroke="black" stroke-width="1" /></svg>