<?xml version="1.0" encoding="utf-8" ?>
<svg baseProfile="full" height="86.22690996671736" version="1.1" width="116.6979624403175" xmlns="http://www.w3.org/2000/svg" xmlns:ev="http://www.w3.org/2001/xml-events" xmlns:xlink="http://www.w3.org/1999/xlink"><defs /><rect fill="white" height="86.22690996671736" width="116.6979624403175" x="0" y="0" /><path d="M25.094590410590172,25.063243061304092 m0.0,0.0 m-0.09459041059017181,-0.06324306130409241 m0.06340011954307556,0.31805863976478577 m0.021175550296902657,0.47405415773391724 m0.13259758055210114,0.40376439690589905 l0.1402422934770584,0.43751060962677 -0.0012373363133519888,-0.11971430480480194 m0.04031999036669731,-0.1494200974702835 l-0.0007839929312467575,0.43600714206695557 0.047119032591581345,-0.16707687079906464 l0.07262016087770462,-0.1476912498474121 0.0964898020029068,-0.23616927862167358 l0.06743203103542328,0.06941979378461838 0.13517612218856812,-0.08927910029888153 l0.05981622636318207,0.4454430937767029 m0.33929070830345154,0.25710228085517883 l0.3397741913795471,0.25574401021003723 0.16324114799499512,0.1169680580496788 l0.6146450638771057,0.12887370586395264 m0.2895570993423462,-0.11055365204811096 l0.34899017214775085,0.25991111993789673 0.1247183308005333,-0.13151124119758606 m-0.07393033057451248,-0.6414523720741272 m0.36341342329978943,0.0865710973739624 l0.43912771344184875,0.1716786026954651 m-0.09701503068208694,0.9071404933929443 l0.26316195726394653,-0.12905243039131165 m-0.10224667936563492,-0.11795889586210251 l0.013513159938156605,-0.012054618448019028 m0.014051234349608421,-0.02452591247856617 l0.07023996114730835,-0.06875394284725189 0.015551391988992691,-0.06443337351083755 m0.31426939368247986,0.19472046196460724 m0.3107800781726837,0.21549969911575317 l0.02465078793466091,-0.08863811939954758 m-0.15143397450447083,0.5413556694984436 l-0.14304250478744507,0.47921451926231384 0.05590563639998436,0.05877760425209999 l0.07957763224840164,0.08061287552118301 0.07562455534934998,-0.05774782970547676 m0.07939903438091278,-0.03290170058608055 l0.09754713624715805,-0.02089579962193966 m0.16806648671627045,-0.23670662939548492 l0.10950399935245514,0.02456708624958992 0.11307115107774734,0.05090167373418808 l0.11390726268291473,0.07867548614740372 0.18152865767478943,0.33020877838134766 l0.4169309735298157,0.15391093492507935 m0.09895575046539307,0.17003695666790009 l0.4287498891353607,-0.6071220636367798 m0.6806091666221619,-0.376362144947052 l0.2378268986940384,0.4306931495666504 0.24571122229099274,0.4519466161727905 l0.25404298305511475,0.46495211124420166 0.2635883390903473,0.47387823462486267 m0.27809786796569824,0.4826968312263489 l0.2878287732601166,0.4829952120780945 0.14924655854701996,0.292277991771698 l0.3166997730731964,0.4915790855884552 0.33285170793533325,0.4987754821777344 m0.4938393235206604,0.16241835057735443 l0.3657500147819519,0.5041733384132385 0.21623553335666656,0.5087487101554871 l0.2677323818206787,0.289547860622406 0.4755677580833435,0.1840784251689911 l0.40500861406326294,0.5133790969848633 0.40624716877937317,0.5119715929031372 m-0.13464997708797455,0.7081393003463745 l0.0819643959403038,-0.21175462007522583 m0.3918658494949341,-0.04094618186354637 l0.42402225732803345,-0.09711548686027527 m0.36534541845321655,0.07468004524707794 m0.3342953324317932,0.38226956129074097 m0.3136498034000397,0.3557097017765045 l0.29666265845298767,0.3215045928955078 0.22024808824062347,-0.3836371898651123 l0.2659856677055359,0.2626000642776489 0.4678592383861542,-0.03535328060388565 l0.468124121427536,-0.021798577159643173 m0.2464754432439804,0.042754802852869034 l0.4734758138656616,-0.1155276969075203 m-0.15548884868621826,0.7278434038162231 m0.29450470209121704,0.5505838990211487 l0.28960293531417847,0.5382937788963318 0.18391095101833344,-0.22385358810424805 m0.28111395239830017,0.027562299743294716 l0.47515031695365906,0.077938973903656 0.3566332757472992,0.08166541904211044 m0.08613505959510803,0.43235886096954346 l0.09689997136592865,-0.22666801512241364 0.08266494423151016,0.3281700611114502 m0.09484517574310303,0.3035244345664978 l0.44455260038375854,0.09321608394384384 0.1971348524093628,0.5656266808509827 l0.1891528069972992,0.5882917642593384 m0.09172415733337402,0.18260975182056427 l0.1713741570711136,0.6304599642753601 0.34403347969055176,-0.05561800301074982 l0.06648296862840652,0.14321814477443695 0.15168090164661407,0.6775760650634766 l0.33640414476394653,-0.03058975376188755 0.30718228220939636,0.29575562477111816 l0.2905418574810028,-0.04678291454911232 0.3152744770050049,-0.03928251191973686 l0.33906444907188416,-0.029798220843076706 -0.051643915474414825,0.2685665488243103 l0.3761523365974426,-0.0051222615875303745 0.388992577791214,-0.0016872830456122756 l0.5648525357246399,0.30035680532455444 0.3994314670562744,0.005431420169770718 m0.3869988024234772,-0.0009773200144991279 l0.4803929626941681,0.2859852612018585 0.3740655183792114,-0.015210100449621677 l0.18898573517799377,0.11695542186498642 0.2072366625070572,0.14732645452022552 l0.31676173210144043,-0.05147508904337883 0.3529682755470276,0.23850098252296448 l0.25781571865081787,0.7588791847229004 0.26609358191490173,-0.09457544982433319 l0.10399646311998367,0.09027349948883057 0.23221059143543243,0.7757657766342163 l0.41539615392684937,-0.07837245613336563 0.4075460731983185,-0.0725913718342781 m0.21780401468276978,-0.004014409147202969 l0.25147369503974915,-0.01104837004095316 m0.11686473339796066,-0.3020418882369995 m0.2231454700231552,0.7871890068054199 m0.258674681186676,0.0669471025466919 l0.22862574458122253,0.7830377221107483 0.3367607891559601,-0.03895113989710808 l0.21535712480545044,0.10313308984041214 0.5012241005897522,-0.12481982260942459 l0.3303883969783783,0.29423388838768005 0.40858420729637146,0.07400010526180267 l0.13728177547454834,0.20727577805519104 0.5130388736724854,-0.039845868945121765 l0.11979448795318604,0.23221184313297272 m0.2875334620475769,-0.2718918025493622 l0.5085816383361816,0.03644287958741188 0.24976181983947754,0.6954171657562256 l0.09940003603696823,0.23188045620918274 0.27978387475013733,0.6915276646614075 m0.3120809495449066,0.7011886835098267 l0.09610266238451004,0.21983329951763153 0.34813374280929565,0.6786832213401794 m0.10267521440982819,0.2164171040058136 l0.28333523869514465,-0.2165212482213974 0.12141153216362,0.21609902381896973 m0.44548147916793823,0.6294928789138794 l0.24115054309368134,0.3470208942890167 m0.22691312432289124,0.09272536635398865 m0.15713971853256226,0.21125464141368866 l0.3181624710559845,-0.2315540909767151 0.18420490622520447,0.21575172245502472 l0.262436181306839,0.34641891717910767 m0.20495247840881348,0.21308423578739166 l0.21198312938213348,0.20416392385959625 0.15457502007484436,0.012612663209438324 l0.22247596085071564,0.19134095311164856 0.3174547553062439,-0.19161224365234375 m0.30293890833854675,0.09419921040534973 l0.08266884833574295,0.04998267814517021 0.21518374979496002,0.12590886652469635 l0.26038482785224915,-0.07762693613767624 0.35971418023109436,0.2941367030143738 l0.25649043917655945,-0.010027855634689331 m0.22974006831645966,0.1553753763437271 l-0.044485244899988174,0.5443286895751953 0.17524299025535583,-0.03458959236741066 l0.17715570330619812,-0.042520780116319656 m0.22780144214630127,-0.06735461205244064 l0.1387205570936203,-0.015650853514671326 0.1760668158531189,0.07717299461364746 l0.26782941818237305,0.15196242928504944 0.16774047911167145,0.1421390175819397 l-0.04919792711734772,0.36986473202705383 0.10180134326219559,-0.01671724207699299 l0.17345012724399567,-0.06530928611755371 m0.20537926256656647,-0.03389887139201164 l0.06416032463312149,0.2916353642940521 -0.0119242575019598,0.02318679168820381 l0.08730705082416534,0.07219702750444412 0.03407617658376694,-0.04885396361351013 m0.18312674760818481,-0.0843360647559166 l0.08723801374435425,-0.06053174287080765 0.13342684507369995,0.024474620819091797 l0.17337459325790405,-0.08025291562080383 m0.011442680843174458,0.28132370114326477 l0.029665833339095116,-0.0688205361366272 m0.18181033432483673,-0.0015910363290458918 l-0.004729665815830231,0.27541661262512207 m0.07382816821336746,0.020235760137438774 m0.20784030854701996,-0.018223710358142853 l0.17253951728343964,0.032432351261377335 0.08242493867874146,0.040255192667245865 m0.06647086888551712,-0.0848696306347847 m0.2044851928949356,-0.019789759069681168 m0.04490610584616661,-0.07745565474033356 l-0.03719291090965271,0.015724951401352882 0.06993342936038971,-0.07361657172441483 l0.17115534842014313,0.03990570083260536 0.19178637862205505,0.09895604848861694 m0.2623330056667328,0.12293071299791336 l0.17857319116592407,-0.08427068591117859 -0.03919529914855957,0.01826496049761772 m0.06193908303976059,0.0866565927863121 l0.12222888320684433,0.016188185662031174 m0.1902032047510147,0.052892062813043594 l0.06040395051240921,0.07848284393548965 m0.18776336312294006,-0.091090627014637 m0.04351445287466049,-0.07944564521312714 l0.18299545347690582,-0.09014397859573364 0.07018749415874481,-0.07367929071187973 m0.12117049098014832,0.012008769437670708 m0.06235123425722122,0.08891268819570541 m0.044368255883455276,-0.07570817321538925 m0.20863951742649078,-0.021102340891957283 l0.06838538497686386,-0.08838377147912979 0.12375956773757935,0.0110147250816226 m0.19773879647254944,0.0904628187417984 l-0.07452110946178436,0.21925924718379974 0.191560298204422,0.10573364794254303 l-0.021976647898554802,0.26811298727989197 m0.05803627893328667,0.09028136730194092 l0.12299247086048126,0.01931139826774597 0.06721135973930359,-0.06355596333742142 l0.0856604278087616,0.005415149498730898 m0.19656284153461456,-0.014815516769886017 l0.18779915571212769,-0.018233511596918106 m0.06992514431476593,0.02332754246890545 l0.06729604303836823,-0.07510964572429657 m-0.011589684523642063,0.27851417660713196 l0.06599626690149307,-0.07323606312274933 0.17564764618873596,-0.08332229405641556 m0.19871245324611664,0.08917835354804993 m0.0692918598651886,0.024050485342741013 m0.1658540964126587,0.006505767814815044 m-0.002389818662777543,0.28883621096611023 m0.21134263277053833,-0.018439149484038353 l0.0782749280333519,0.045042604207992554 m0.20209254324436188,-0.021607641130685806 m0.06344269216060638,-0.10148211568593979 m0.2002161592245102,0.09018704295158386 m-0.0007938550552353263,0.28989389538764954 l0.1931789517402649,0.10823912173509598 0.12633584439754486,0.014616631902754307 m0.06480599194765091,-0.086224764585495 m0.069247305393219,0.023794688284397125 m-0.0037931562401354313,0.2872731685638428 l0.06613948196172714,-0.08232560008764267 0.06866778433322906,-0.07271767407655716 l0.17918018996715546,-0.02373943291604519 0.17823712527751923,-0.021580778062343597 l0.1729302704334259,-0.08294954150915146 m0.187041237950325,0.04765282943844795 m0.03364558145403862,0.03744180500507355 m0.03012646734714508,0.03574448078870773 l0.02811717428267002,-0.08130022883415222 0.1776972860097885,-0.08592412620782852 m0.07349739968776703,0.04226284101605415 l0.0886712297797203,0.0041258931159973145 m0.06345584988594055,-0.08716104924678802 m0.06201139837503433,-0.09679709374904633 l0.06719481199979782,-0.0835154727101326 -0.04501117765903473,0.24195052683353424 m0.0686870664358139,0.02557723969221115 m-0.04182444140315056,0.005092109087854624 l0.19004769623279572,-0.021978043019771576 m0.07233768701553345,0.044775545597076416 l-0.016946716234087944,0.272273451089859 -0.018865609541535378,0.2705369293689728 l0.06692629307508469,-0.05844423174858093 0.19110189378261566,0.10191997140645981 l0.06801244616508484,-0.056105971336364746 0.07179253548383713,0.02514960803091526 l0.17014959454536438,-0.08108113706111908 0.1702759861946106,-0.08246952295303345 m0.12005989998579025,0.016298003494739532 m0.188350647687912,-0.09501767158508301 l0.06684810668230057,-0.07954450696706772 0.1928478330373764,0.0967448353767395 l0.18088611960411072,-0.019251791760325432 m0.18776676058769226,0.04939794912934303 m0.1211569607257843,0.013305975124239922 l-0.01674524135887623,0.27425840497016907 -0.018530815839767456,0.27137333154678345 l0.19111770391464233,0.10965514183044434 0.05827689915895462,0.07677518576383591 l0.07236772030591965,0.02674262598156929 m0.03402208536863327,-0.08117369562387466 m0.19421948492527008,0.05263185128569603 l0.08821628242731094,0.006185729522258043 0.06824437528848648,-0.06902489066123962 m-0.013169506564736366,0.2766771912574768 m0.20015129446983337,0.09560603648424149 l0.1510305553674698,0.006523679010570049 m0.06287134438753128,-0.08971446752548218 l0.18861238658428192,-0.023120300844311714 m0.03361496701836586,0.036624886095523834 l0.025886397808790207,-0.08446669578552246 0.071988046169281,0.024626607075333595 l0.06963304430246353,-0.06317327916622162 m0.19521094858646393,-0.017346220090985298 m0.06177826598286629,-0.09229647368192673 l-0.018282001838088036,0.27126938104629517 m0.2014063149690628,-0.0161068607121706 m0.03060387261211872,0.03601263090968132 l0.034798428416252136,0.03958571329712868 m0.20099060237407684,-0.019395455718040466 m-0.00477699376642704,0.28584063053131104 l0.18306659162044525,-0.08441508561372757 0.0692533403635025,-0.07239291071891785 l0.17946471273899078,-0.023348715156316757 0.04211302101612091,0.04379560425877571 m0.036163147538900375,0.04015394300222397 l-0.07541657239198685,0.21957460045814514 0.08371111005544662,0.009756249375641346 l-0.03963175788521767,0.01857612282037735 0.12973546981811523,-1.7801023204810917e-05 m0.06842394173145294,0.02458030916750431 m0.032029151916503906,0.038703761994838715 m0.059408776462078094,-0.09662747383117676 l0.17999985814094543,0.05673821642994881 0.060074612498283386,0.07531416416168213 l0.12397629022598267,0.016664618626236916 0.17923705279827118,-0.01960812881588936 l0.1315067857503891,-0.0036198452580720186 m0.06960834562778473,0.02285793051123619 m0.18893906474113464,-0.0939091220498085 m0.11981543153524399,0.010694867931306362 m0.1757490187883377,0.012254024855792522 m0.06938836723566055,0.024621251970529556 m-0.0012957275612279773,0.2892429828643799 m0.20381474494934082,0.05885288864374161 l0.12562085688114166,0.010709520429372787 m-0.027220088988542557,0.26076069474220276 l0.05541803315281868,0.08194425702095032 0.07302635908126831,0.027347808703780174 l0.17980846762657166,-0.021419517695903778 0.19234193861484528,0.09998221695423126 m0.07201883941888809,0.04566425457596779 l-0.041378721594810486,0.2458980530500412 m0.06097940355539322,-0.08096469938755035 m0.030598323792219162,0.036739543080329895 m0.20033511519432068,0.09235187619924545 m0.20100745558738708,0.09411770105361938 l0.18161006271839142,0.0574546679854393 m0.20324289798736572,-0.02026144042611122 l0.1834421455860138,-0.08777453750371933 0.07399708032608032,0.023283373564481735 m0.0369732640683651,-0.08346594870090485 l0.06144779175519943,0.07660563290119171 0.06892995536327362,-0.06657417118549347 l0.1225125789642334,0.01635114848613739 0.06929140537977219,-0.05924639850854874 m0.06387129426002502,0.08494652807712555 l-0.041012585163116455,0.24351699650287628 0.17279230058193207,-0.0797288566827774 l0.07210482656955719,0.02552700787782669 m0.03497272729873657,-0.08310606330633163 m0.11902114748954773,0.014116683974862099 l0.0885641798377037,0.004749484825879335 m0.032484449446201324,0.037663139402866364 m0.198429673910141,0.054274678230285645 l0.06711012125015259,-0.08262890577316284 0.06043983995914459,0.07503677904605865 l0.17473015189170837,-0.08272144943475723 m0.2640310525894165,0.12117014080286026 m0.033230774104595184,0.03729420527815819 l0.18165786564350128,-0.08735375106334686 m0.18998824059963226,-0.09421082586050034 m0.03151051327586174,0.034391872584819794 l-0.015778614208102226,0.27394601702690125 m0.08885093778371811,0.007072863634675741 l0.12339494377374649,0.01407571416348219 m0.1224023625254631,0.013547565788030624 m0.07172843813896179,0.04632766917347908 l0.19386371970176697,0.10112311691045761 -0.03813282027840614,0.01845194585621357 m0.1978052854537964,0.09336736798286438 l0.037747591733932495,0.04148578643798828 m0.09233148396015167,-0.048458512872457504 l0.19362114369869232,0.09886781871318817 -0.07605071365833282,0.2203667163848877 l0.07462658733129501,-0.03668423369526863 0.0173092782497406,-0.087839774787426 m0.032916054129600525,-0.08489812910556793 l0.07010208815336227,0.024619849398732185 m0.06189101189374924,-0.08410854637622833 m0.1189863309264183,0.01221380103379488 l0.06069166213274002,0.07976600527763367 -0.038104038685560226,0.018317127600312233 l0.12279767543077469,0.01718919537961483 -0.03935723751783371,0.018870916217565536 l0.1220163106918335,0.019689979031682014 m0.06868080049753189,0.023790428414940834 l0.06578680872917175,-0.06900718063116074 0.19223879277706146,0.09736001491546631 l0.0210842527449131,-0.08956442773342133 m0.1988707035779953,0.08852511644363403 m0.06098988279700279,-0.09006866812705994 m0.04472099617123604,-0.07919782400131226 m0.19514930248260498,-0.09863835573196411 m0.20429901778697968,0.0507042221724987 l0.0347282811999321,0.037178535014390945 0.08345043659210205,-0.042652834206819534 l0.07073257863521576,-0.06749747693538666 m0.1889835149049759,0.05110591650009155 l0.1795487403869629,-0.08626586943864822 0.1380770355463028,-0.003205480519682169 m0.18620358407497406,-0.0921323373913765 m0.09542296826839447,-0.05323591083288193 l0.06197843328118324,0.07777398824691772 m0.06340498477220535,-0.09012502431869507 m0.06854341924190521,0.023701326921582222 l0.259613573551178,0.1248999536037445 m0.1228896826505661,0.012256882153451443 l0.07757987082004547,0.043067652732133865 0.06959372013807297,-0.06941047310829163 m0.06431630998849869,-0.08397378027439117 l-0.020213039591908455,0.26932936906814575 -0.04013301059603691,0.017942091450095177 m0.19720487296581268,0.09331808239221573 m0.12101612240076065,0.01496333722025156 l0.18189465999603271,-0.08672019839286804 m0.09337107837200165,-0.050809115171432495 l0.19378642737865448,0.0974058210849762 m0.06105957552790642,0.08656973391771317 m0.16614463925361633,0.009750564582645893 m-0.002956381533294916,0.2884630262851715 l0.06624972075223923,-0.08275420218706131 m0.12247247248888016,0.012077182531356812 l0.036140237003564835,0.03964853659272194 0.24609538912773132,0.12622494995594025 m-0.009831968694925308,0.280708372592926 l-0.040502700954675674,0.015507505275309086 m0.19818539917469025,0.09552345424890518 m0.03071952983736992,0.036889903247356415 l0.1938025951385498,0.10220509022474289 0.06848165392875671,-0.07018040865659714 m0.06384270638227463,-0.08473768085241318 l-0.038347430527210236,0.01624210551381111 0.1911737620830536,0.09858471155166626 l0.16876159608364105,0.0429154708981514 0.0859561562538147,0.006486640311777592 l0.1641039401292801,0.05380791425704956 m0.06960137188434601,0.023422328755259514 m-0.008558997884392738,0.2834589183330536 l0.19253765046596527,-0.016306882724165916 m0.19077274203300476,0.05447949841618538 l0.19498537480831146,0.10212033987045288 " fill="none" stroke="black" stroke-width="1" /></svg>