<?xml version="1.0" encoding="utf-8" ?>
<svg baseProfile="full" height="133.49164754119556" version="1.1" width="93.97398291388527" xmlns="http://www.w3.org/2000/svg" xmlns:ev="http://www.w3.org/2001/xml-events" xmlns:xlink="http://www.w3.org/1999/xlink"><defs /><rect fill="white" height="133.49164754119556" width="93.97398291388527" x="0" y="0" /><path d="M25.52877403795719,25 m0.0,0.0 m-0.20998135209083557,0.145768404006958 l-0.20281074941158295,0.13141247630119324 0.2994781732559204,0.7151681184768677 l-0.3270225524902344,-0.005327016580849886 m-0.08843755722045898,0.24409152567386627 m0.4047863483428955,0.7750548124313354 l0.0339176170527935,-0.005605810321867466 0.07333200424909592,0.6006501913070679 m0.1309632509946823,0.33714327216148376 l-0.23918472230434418,0.35581400990486145 0.19782143831253052,0.009870403446257114 l-0.0024422756396234035,0.31022024154663086 0.18036441504955292,-0.011371501721441746 m0.17204299569129944,-0.03688393905758858 l0.07679493725299835,0.2995927333831787 0.4259214401245117,0.4129652976989746 l0.3478062152862549,0.3487696349620819 0.46704140305519104,0.43524497747421265 l0.31223875284194946,0.4292167127132416 0.5006605982780457,0.4633359909057617 l0.338340699672699,0.04241149127483368 0.23874205350875854,-0.0032706225756555796 l0.537891685962677,0.5077539682388306 0.5554156303405762,0.42470601201057434 m0.35869476199150085,-0.42143505811691284 l0.07053592056035995,0.048683106899261475 m-0.15519054234027863,0.0005352336447685957 l0.4729383885860443,0.34647059440612793 m0.45783862471580505,0.6545822620391846 l0.42577093839645386,0.6750792264938354 0.39330923557281494,0.688075840473175 l0.35706597566604614,0.6966969966888428 0.3183054029941559,0.7018689513206482 m0.27278926968574524,0.7054511904716492 l0.232225701212883,0.7066760659217834 m0.19389955699443817,0.7004351019859314 l0.04025248810648918,0.19962631165981293 m0.38525551557540894,0.2219158262014389 m-0.13938578963279724,0.26694345474243164 l0.09579639881849289,0.630332887172699 0.09486304968595505,0.612895131111145 l0.09877122938632965,0.5941841006278992 0.10732226818799973,0.5755331516265869 l0.6766363978385925,-0.26536133885383606 0.14030492305755615,0.5241416692733765 l-0.04577837884426117,0.6887747645378113 0.1831628382205963,0.5002874135971069 l0.20721092820167542,0.4794488549232483 -0.12607979774475098,0.6409506797790527 l-0.43716269731521606,-0.1290382593870163 0.26323917508125305,0.3989843428134918 l0.276085764169693,0.3728834092617035 0.2869860827922821,0.3475387394428253 m0.2920358180999756,0.32906457781791687 l0.29703038930892944,0.306018590927124 0.10786700248718262,0.10568186640739441 l0.32912179827690125,0.2667591869831085 -0.5018824338912964,0.3027087152004242 l0.3594309389591217,0.24917317926883698 0.37589964270591736,0.2420303374528885 l0.39010998606681824,0.2384384125471115 0.4001030921936035,0.2357638031244278 m0.4021495282649994,0.24219010770320892 l0.4004812240600586,0.2345483899116516 0.40184298157691956,0.22822804749011993 l0.3996744453907013,0.2221498191356659 0.3955492675304413,0.2155761569738388 l0.3905171751976013,0.20895396173000336 m0.3826236128807068,0.2123856395483017 m0.37214598059654236,0.2118459939956665 l0.36667585372924805,0.1991054117679596 0.3667898178100586,0.19170613586902618 l0.3674408495426178,0.18699882924556732 m0.36733388900756836,0.1956709921360016 l0.19958868622779846,0.41810134053230286 0.36426180601119995,0.19277554750442505 l0.36541178822517395,0.19005432724952698 m0.3637694716453552,0.2030797302722931 l0.35546204447746277,0.20034390687942505 0.35085347294807434,0.20092616975307465 m0.34174129366874695,0.21807797253131866 l0.32855793833732605,0.21961121261119843 0.31912723183631897,0.22646178305149078 m0.31807124614715576,0.5347276329994202 l-0.03537926450371742,-0.13533402979373932 0.2350042760372162,0.4164942800998688 l0.262890100479126,0.3075164258480072 m-0.005670092534273863,-0.07754545658826828 m0.2197573333978653,0.37793391942977905 m0.20460189878940582,0.41868048906326294 l0.20122084021568298,0.4454590678215027 m0.19793935120105743,0.48184072971343994 l0.1990281641483307,0.5085083842277527 0.2064964324235916,0.5318996906280518 m0.2099682241678238,0.5610026717185974 l0.3575345277786255,0.4816409647464752 0.22372575104236603,0.5906697511672974 m0.42939940094947815,0.5440824031829834 l0.23494906723499298,0.6156055927276611 0.24511265754699707,0.6178194880485535 l0.25441187620162964,0.6180291175842285 0.07839536666870117,0.3126790523529053 l0.270763635635376,0.6066517233848572 m0.28053367137908936,0.6061546206474304 l0.24652041494846344,0.3424109220504761 m0.2924364507198334,0.595385730266571 m0.2961098849773407,0.5976912975311279 l0.1948452591896057,0.06777778267860413 0.4038879871368408,0.023045802488923073 l0.07602144777774811,0.2597406506538391 0.39771947264671326,-0.15148356556892395 l0.22830326855182648,0.004796797875314951 0.34629344940185547,0.604267418384552 l0.3549632728099823,0.6247791051864624 0.4841465651988983,0.924075186252594 m0.22688674926757812,-0.02564482018351555 l0.3770964443683624,0.6743150949478149 0.5723252892494202,0.41673576831817627 l0.4909203052520752,0.9356836080551147 m0.20250533521175385,-0.044603776186704636 l0.4125235080718994,0.7363699674606323 0.1744641363620758,-0.04663155972957611 l0.4584675133228302,0.8807475566864014 0.41484493017196655,0.1645784229040146 l0.1421857476234436,-0.04584376513957977 0.4405038058757782,0.7819565534591675 l0.4313149154186249,0.1638648957014084 m0.37069907784461975,0.7487531304359436 l0.03748035803437233,-0.2049362063407898 0.4436477720737457,0.2333950251340866 l-0.13013365864753723,0.35478904843330383 0.33233004808425903,0.3223220109939575 l-0.02523329108953476,0.15883804857730865 -0.12816394865512848,0.3860131502151489 l0.38718608021736145,0.8718682527542114 0.23505865037441254,0.5611394643783569 m0.22674794495105743,0.5387693643569946 l0.213306725025177,0.5290051102638245 0.23909340798854828,0.01412841584533453 l0.03879109025001526,-0.0927131175994873 0.19134901463985443,0.02033054083585739 l0.16865862905979156,0.46721121668815613 0.16196437180042267,0.46027901768684387 l0.15549595654010773,0.4527682065963745 0.22105419635772705,-0.11609829217195511 l0.14400118589401245,0.4326208233833313 0.14036591351032257,0.4289916157722473 l0.07581184804439545,0.13727964460849762 -0.008039659820497036,0.28498849272727966 l0.24202029407024384,0.896904468536377 m0.13433684408664703,0.40188974142074585 l0.3163139522075653,0.18780018389225006 0.20969827473163605,0.4952841103076935 m0.12319360673427582,0.376554399728775 m0.19879238307476044,0.48242485523223877 l0.2160722315311432,-0.12019579857587814 0.038793012499809265,0.16251540184020996 l0.15629121661186218,0.7656074166297913 0.16317686438560486,0.44227278232574463 l0.15237456560134888,0.2664909064769745 m0.14879894256591797,0.4194575846195221 l0.24755066633224487,0.2616746425628662 0.0755639299750328,0.2789515554904938 m0.24311797320842743,0.2516557276248932 l-0.2035301923751831,-0.10376463830471039 0.12093697488307953,0.3620651066303253 m0.062283895909786224,0.034762054681777954 l0.08201465755701065,0.5801682472229004 0.07633481174707413,0.5701000690460205 m0.06422220170497894,0.5590327978134155 l0.05653824657201767,0.5428904891014099 m0.10416198521852493,0.2957584261894226 l0.021534087136387825,0.17302995920181274 0.03302423283457756,-0.2583804428577423 m0.09780371189117432,0.2638860046863556 l0.04372451454401016,0.06221076101064682 0.14735540747642517,-0.1120925098657608 l0.03819499909877777,0.06277826428413391 0.03424660116434097,0.06559886783361435 m0.19913773238658905,0.16648070514202118 m0.02899581380188465,0.047930002212524414 m0.2001892626285553,0.17234139144420624 l-0.0017974483780562878,0.11638261377811432 0.03198618069291115,0.1466209441423416 m0.036955807358026505,0.1342283934354782 l-0.03662356734275818,0.3720341622829437 0.05155450478196144,0.21346858143806458 m0.053492821753025055,0.20431245863437653 l-0.04077877849340439,0.35115721821784973 m-0.008128376677632332,0.1016823798418045 l0.05805257335305214,-0.03770196810364723 m0.1780569702386856,0.17095766961574554 l-0.06318798661231995,0.04540058225393295 0.0834566131234169,0.14255638420581818 m0.037476930767297745,0.005871294066309929 l-0.047710467129945755,0.2795082628726959 m0.03215634077787399,0.09904100745916367 l0.08367154747247696,0.15181799232959747 m-0.05480712652206421,0.26681941747665405 l0.13100801408290863,0.07073865085840225 -0.034575074911117554,0.08731302618980408 l0.10647639632225037,0.043372999876737595 m0.09377182275056839,0.14980871975421906 l0.03081737831234932,0.09511616826057434 0.090068019926548,0.15860317647457123 l-0.04639367014169693,0.23096056282520294 0.16777057945728302,0.1262895166873932 l-0.04360784962773323,0.2290283739566803 -0.11845861375331879,0.1860813945531845 l0.031837400048971176,0.09494543075561523 m0.042458828538656235,0.08507007360458374 l0.041820283979177475,-0.005801956634968519 0.031050270423293114,0.09170228987932205 m-0.13909634947776794,-0.14460153877735138 l-0.11080735921859741,0.013593582436442375 0.02939586713910103,0.08909521996974945 m-0.056532301008701324,0.22703881561756134 l0.09504922479391098,0.05038810521364212 m-0.05924379825592041,0.23067346215248108 l-0.04400936886668205,0.08731631189584732 0.029029294848442078,0.09339800477027893 l0.029355350881814957,0.0934564545750618 -0.047367073595523834,0.22213518619537354 l0.05869484692811966,-0.017169298604130745 0.16978314518928528,0.12148801237344742 m0.09539677202701569,-0.11245658248662949 m0.03640527278184891,0.07484927773475647 m0.0192649494856596,-0.1758018434047699 l0.0722220242023468,-0.07062108814716339 -0.0558677613735199,0.21504877507686615 l-0.05258483812212944,0.22024111449718475 -0.049813978374004364,0.2235674262046814 l0.029776182025671005,0.0946616604924202 m-0.053036924451589584,0.23196688294410706 m-0.14117470383644104,-0.14307080209255219 m0.04367554932832718,4.817070293938741e-05 l0.029010333120822906,0.08777736127376556 m0.0899200513958931,0.15105345845222473 m-0.10572399944067001,0.20181746780872345 m-0.07205469906330109,0.23730285465717316 l0.04434508457779884,-0.002626706613227725 -0.05898609384894371,0.22217993438243866 l0.13148531317710876,0.06704199314117432 0.09172509610652924,0.16112767159938812 l0.17104583978652954,0.14870497584342957 m0.0604950375854969,-0.033299341797828674 l0.060453929007053375,-0.029393302276730537 0.031079689040780067,0.09128016978502274 l-0.11597175896167755,0.18267220258712769 0.1295524686574936,0.06945080310106277 l0.05870753899216652,-0.019867366179823875 0.03186875209212303,0.09095199406147003 l-0.1168590560555458,0.18148525059223175 m-0.05214192718267441,0.2325608879327774 l-0.053584352135658264,0.2313414216041565 0.030629059299826622,0.09409891813993454 l0.03809428960084915,0.0863494798541069 m0.04254359006881714,0.08470628410577774 m0.09695001691579819,0.056046225130558014 l0.08926708996295929,-0.10797156393527985 -0.05360138416290283,0.21868248283863068 m0.05912070348858833,-0.03789360448718071 l0.09096547216176987,0.1558532565832138 m-0.10865237563848495,0.19559307396411896 m0.04148326814174652,-0.0013613386545330286 m-0.06899310648441315,0.2340961992740631 m-0.05009894818067551,0.09236745536327362 l-0.15267008543014526,-0.1421164870262146 m0.17216451466083527,0.11242153495550156 l0.0960378497838974,0.05096543952822685 0.0893406942486763,0.15985172986984253 l-0.11556112766265869,0.18499501049518585 -0.11777086555957794,0.18547485768795013 l0.09010468423366547,0.16205081343650818 0.05914997309446335,-0.016596902161836624 l0.03191706910729408,0.09165139496326447 0.03216898441314697,0.09161471575498581 l0.09598103910684586,0.15743055939674377 m0.09674865752458572,0.05264277756214142 l0.03287322446703911,0.08942863345146179 m0.095229372382164,0.14918339252471924 l-0.056168463081121445,0.2284533977508545 0.08861576020717621,0.16098500788211823 l0.0626470148563385,-0.058827392756938934 m0.09681142121553421,0.14983341097831726 l0.03861800208687782,0.08760425448417664 m0.11283090710639954,0.09545618295669556 l-0.05632370337843895,0.22681261599063873 0.09286874532699585,-0.09757141768932343 m0.12904717028141022,0.05754706263542175 m-0.06191025301814079,0.23172952234745026 l0.11557146906852722,0.1031109169125557 0.041544582694768906,-0.006872050929814577 l0.095215804874897,-0.09755189716815948 0.041126709431409836,-0.009612617082893848 l-0.04494139179587364,0.21628983318805695 0.04076063632965088,-0.008437542244791985 l0.1172107681632042,0.10037313401699066 -0.14314740896224976,-0.1376773715019226 m0.035572513937950134,0.07632443308830261 m-0.0594172477722168,0.23133425414562225 m0.05889120325446129,-0.0461401604115963 l-0.04618154466152191,0.08339188247919083 -0.11314944922924042,0.18871255218982697 m-0.060925502330064774,0.23095643520355225 m0.08091384172439575,-0.12282181531190872 m0.03293962404131889,0.07590567320585251 l0.18308481574058533,0.15792639553546906 0.16748325526714325,0.12057214230298996 l-0.11417662352323532,0.185644268989563 m-0.14190292358398438,-0.14115439355373383 l-0.1474957913160324,-0.13848598301410675 0.04280787333846092,0.0865635946393013 l0.09212655574083328,0.15783235430717468 m0.03407205268740654,0.07923177629709244 m0.03501021862030029,0.07626823335886002 l0.09590315818786621,0.05007888749241829 m0.03302969038486481,0.08005066215991974 m0.04127422720193863,-0.0019221382681280375 l0.18198223412036896,0.1561877280473709 -0.11509770154953003,0.009345260448753834 m-0.059614814817905426,0.22776563465595245 m-0.04829183965921402,0.08978056907653809 l0.02888789027929306,0.09070582687854767 m0.09602433443069458,0.057256270200014114 m0.03285769000649452,0.07822748273611069 m0.09640171378850937,0.05904111638665199 m-0.07171609997749329,0.23316770792007446 l-0.12115422636270523,0.008583787828683853 -0.11409365385770798,0.19042763113975525 l0.13068664073944092,0.06575248390436172 m0.09665178507566452,0.05579100176692009 l0.060389444231987,-0.029426665976643562 m0.08798227459192276,-0.11992806941270828 m0.01842493563890457,-0.17381706833839417 l-0.06047143042087555,0.21662400662899017 -0.05642620846629143,0.22040465474128723 l0.03926995024085045,0.0895487517118454 0.03900749608874321,0.08751524984836578 l0.09310982376337051,0.15935572981834412 0.024864254519343376,-0.14374449849128723 m-0.10932155698537827,0.020451528951525688 l0.031983740627765656,0.08664187788963318 m0.04098260775208473,-0.0036300038918852806 m0.17965905368328094,0.10884761065244675 l0.030054418370127678,0.08973440527915955 0.16760270297527313,0.11907739192247391 m-0.05807359889149666,0.22988806664943695 m0.023349497467279434,-0.1696336567401886 l0.09754129499197006,0.049335844814777374 -0.11308058351278305,0.18636418879032135 m-0.059515710920095444,0.23003974556922913 l0.042963430285453796,-0.004589873366057873 0.0901523232460022,0.15985354781150818 m-0.05659722164273262,0.2306310385465622 l-0.04351184517145157,0.0875793993473053 m0.03346884995698929,0.08093318343162537 m-0.10698100924491882,0.2016637772321701 m-0.04947030171751976,0.09120092540979385 l0.11261319369077682,0.10462404042482376 0.08674626797437668,0.16180852055549622 l0.08932213485240936,0.16232779622077942 m0.09007728099822998,-0.11322472244501114 l0.09330745786428452,0.15533533692359924 0.09195053577423096,0.15866483747959137 m0.06041422858834267,-0.0362689383327961 l0.06034689024090767,-0.031032465398311615 0.0934159979224205,0.1565103977918625 m-0.05551910027861595,0.22957736253738403 l0.17632941901683807,0.15303689241409302 m0.024378471076488495,-0.1649724692106247 l0.06000366434454918,-0.03370518237352371 m-0.05968412011861801,0.22576862573623657 m-0.10671711713075638,0.2005883902311325 m-0.12221141904592514,0.01663033850491047 l0.027582112699747086,0.09040810167789459 -0.11356569826602936,0.19067221879959106 m0.05880865827202797,-0.036520056426525116 m0.08177455514669418,-0.12512333691120148 m-0.10525494813919067,0.2000296711921692 l-0.06534668803215027,0.22551536560058594 -0.11436060070991516,0.19165454804897308 l-0.15253454446792603,-0.13264203071594238 0.04195534437894821,0.08682176470756531 l0.021242549642920494,-0.14489077031612396 0.09642917662858963,0.15569685399532318 l0.0313684344291687,0.09037280827760696 -0.04372193664312363,0.22096943855285645 l0.09554540365934372,0.046281684190034866 m0.17829860746860504,0.1505805253982544 l0.03288908302783966,0.09025280922651291 m-0.08025755733251572,-0.025137482210993767 l0.09089592099189758,0.15527981519699097 m0.08723556995391846,-0.11931316554546356 m0.03419913724064827,0.0760686919093132 m-0.1041034683585167,0.201014444231987 l0.028011374175548553,0.09131257236003876 m-0.14423997700214386,-0.1473011076450348 m-0.11784043163061142,0.01506432332098484 m0.19099971652030945,0.1623891294002533 m0.031169254332780838,0.07774777710437775 m0.030856791883707047,0.07833205163478851 l0.026404837146401405,0.09170185774564743 m-0.08610496670007706,-0.028384387493133545 l0.1125631108880043,0.10101815313100815 0.0960894227027893,0.04932453855872154 l0.11832058429718018,0.1023893877863884 -0.10872123390436172,0.012114573270082474 m-0.0463666208088398,0.08221486955881119 l-0.14645463228225708,-0.1389988660812378 0.05636324733495712,-0.02859305404126644 m0.03364746272563934,0.07652648538351059 m-0.06229462847113609,0.2297316938638687 m0.03358984738588333,0.07687150686979294 m-0.10436639934778214,0.2049565464258194 m-0.07437039166688919,0.2376926690340042 l-0.10981453210115433,0.2001274824142456 -0.11440376937389374,0.19463585317134857 m0.03081202134490013,0.08373960107564926 m-0.10859262943267822,0.20350958406925201 m0.0606340616941452,-0.044308628886938095 m-0.05120721086859703,0.08830061554908752 l-0.06709263473749161,0.22506599128246307 0.17823046445846558,0.15746493637561798 m-0.06034368649125099,0.2308264672756195 l0.08781854808330536,-0.10206317156553268 m-0.14061348140239716,-0.14569824934005737 m0.09890096634626389,0.05455506220459938 m0.032692186534404755,0.07543623447418213 m0.17717330157756805,0.10892043262720108 m0.031452350318431854,0.07858967781066895 l0.07224322110414505,-0.06704427301883698 m0.04134759679436684,-0.004240481648594141 l-0.061488911509513855,0.21944625675678253 0.027253206819295883,0.09463714063167572 l-0.05153736099600792,0.22077493369579315 m-0.11246082186698914,0.1954583376646042 l-0.05608731880784035,0.229643315076828 m-0.1445387452840805,-0.13955582678318024 m0.09774363040924072,0.05690842866897583 l-0.14831532537937164,-0.14367879927158356 m0.03167141228914261,0.07657688856124878 l-0.1118898019194603,0.19055689871311188 m-0.10992121696472168,0.19798628985881805 l0.05879353731870651,-0.028526874259114265 -0.14904576539993286,-0.13841773569583893 m0.12751570343971252,0.054318588227033615 l0.11240021884441376,0.0973842665553093 0.02204895205795765,-0.14975807070732117 m0.10938869416713715,0.08930934965610504 " fill="none" stroke="black" stroke-width="1" /></svg>