<?xml version="1.0" encoding="utf-8" ?>
<svg baseProfile="full" height="129.17377139409655" version="1.1" width="93.12047002161853" xmlns="http://www.w3.org/2000/svg" xmlns:ev="http://www.w3.org/2001/xml-events" xmlns:xlink="http://www.w3.org/1999/xlink"><defs /><rect fill="white" height="129.17377139409655" width="93.12047002161853" x="0" y="0" /><path d="M25.665751911699772,25.264323657378554 m0.0,0.0 m-0.10545210540294647,0.1668640524148941 m-0.2518332600593567,-0.027661949396133423 m-0.0412844680249691,0.019296642392873764 l-0.041621629148721695,0.018971754238009453 -0.09321004897356033,-0.44179415702819824 l-0.04472707211971283,0.5378935933113098 m-0.08762332797050476,0.3334970474243164 l0.3580581545829773,-0.034390613436698914 0.5372648239135742,0.1940573900938034 l0.23943638801574707,0.05453388765454292 m0.05154753103852272,-0.10534939169883728 l0.4579341411590576,0.048804525285959244 m0.4821459650993347,0.06587996333837509 l0.48180216550827026,0.6609254479408264 0.3232314884662628,0.4447416365146637 l0.2264844924211502,-0.059613943099975586 0.4491947591304779,0.4194411039352417 l0.22881430387496948,-0.03710378333926201 0.4856172204017639,0.441486120223999 l0.17247189581394196,0.5771992206573486 m0.2337450385093689,-0.011872044764459133 l-0.11615270376205444,-0.3320176303386688 m0.5335610508918762,0.5130059719085693 m0.5369164347648621,0.5464701056480408 l0.30128583312034607,0.4986112415790558 m0.5240041613578796,0.5992950201034546 l-0.25264519453048706,0.3250705599784851 m0.25052061676979065,0.49469855427742004 l-0.2497556358575821,0.3451769948005676 0.43370985984802246,0.3554766774177551 l0.3937956988811493,0.6816518306732178 0.16141164302825928,0.09470400959253311 l0.3167515993118286,0.6892648935317993 m-0.12197232246398926,0.3987923562526703 m0.3408973515033722,0.4559885561466217 m0.32084497809410095,0.4992544949054718 l0.21727359294891357,0.36131030321121216 m0.2683192789554596,0.588187038898468 l0.237370103597641,-0.010967195965349674 0.10347723960876465,0.624202311038971 m0.09754235297441483,0.610702633857727 l0.12212458997964859,0.31000038981437683 0.10382745414972305,0.5712611675262451 m0.027832699939608574,0.3285404145717621 l0.1275811642408371,0.5374535322189331 0.15147072076797485,0.5189720392227173 m0.17369215190410614,0.5020571947097778 l0.2705698013305664,0.30571961402893066 0.2214089334011078,0.4569557309150696 l0.24398663640022278,0.4329652786254883 -0.5735321640968323,0.3812078535556793 l0.2728036046028137,0.37873575091362 -0.1636887937784195,0.5667195916175842 m-0.15929292142391205,0.5265277624130249 l-0.15864849090576172,0.5120242834091187 m-0.14687828719615936,0.4724080562591553 m-0.1325652301311493,0.44327980279922485 l0.33132797479629517,-0.07794658094644547 m0.3462695777416229,0.25988852977752686 l0.36179521679878235,0.2502395808696747 0.0685570240020752,0.5423538088798523 m-0.026211706921458244,0.3621974587440491 m0.08940090239048004,0.5227572917938232 l-0.05139211192727089,-0.06397947669029236 0.3919116258621216,0.22957028448581696 l0.3937472105026245,0.2231992483139038 m0.38906577229499817,0.22634214162826538 l0.3822356164455414,0.2145373821258545 0.3796856999397278,0.20576508343219757 l0.37641096115112305,0.19851422309875488 0.37346357107162476,0.19240593910217285 l0.37112823128700256,0.18811564147472382 m0.3688649535179138,0.19568493962287903 l0.36448806524276733,0.18943578004837036 0.366201788187027,0.18679186701774597 l0.222740039229393,0.2681303024291992 0.23146533966064453,0.23763063549995422 l0.36371734738349915,0.19124944508075714 0.36046481132507324,0.1927875131368637 l0.33476027846336365,0.4143463373184204 0.3465542197227478,0.20656946301460266 l0.3371797204017639,0.2119637429714203 0.3260863423347473,0.22198300063610077 m0.30824196338653564,0.24984081089496613 l0.2912919819355011,0.2629373073577881 0.2789422571659088,0.28175315260887146 l0.2664858102798462,0.30639153718948364 0.26601001620292664,0.44639667868614197 m0.2344762235879898,0.38051173090934753 l0.22267334163188934,0.4091121554374695 m0.2109595686197281,0.4482778012752533 l0.20628893375396729,0.47666773200035095 0.3396429121494293,0.482094407081604 l0.028887173160910606,0.1476203203201294 0.21676892042160034,0.5442492365837097 l0.22316716611385345,0.5681583881378174 0.41582366824150085,0.5335299372673035 l0.2375590056180954,0.597676694393158 m0.24299392104148865,0.6127191781997681 m0.24365907907485962,0.6242274641990662 l0.24703481793403625,0.625304102897644 0.2581304907798767,0.6195486187934875 m0.2686915099620819,0.6170673966407776 l0.18375326693058014,0.10126101225614548 m0.28241628408432007,0.5987743735313416 l0.11640296131372452,0.3562681972980499 0.2952507734298706,0.5911266803741455 l0.30502399802207947,0.5911206603050232 0.3142240047454834,0.5931378602981567 l0.32310789823532104,0.5975631475448608 0.047219473868608475,0.2635137736797333 l0.21960750222206116,0.014060063287615776 0.3475531339645386,0.6120789051055908 l0.35606345534324646,0.6293895840644836 0.2249705046415329,-0.017991233617067337 l0.41117075085639954,0.06364762037992477 0.4198632836341858,0.15257889032363892 l0.1285950094461441,-0.16531462967395782 0.39925631880760193,0.6893320679664612 l-0.11667191237211227,0.25395867228507996 0.4150388538837433,0.729254424571991 m-0.13042284548282623,0.2737220227718353 l0.4812912940979004,0.20485027134418488 0.43192070722579956,0.7680381536483765 m0.2818489670753479,-0.4241923987865448 l0.45082053542137146,0.17404033243656158 m-0.24556030333042145,0.3275541663169861 m0.4329665005207062,0.8122240304946899 l0.39400118589401245,0.09148597717285156 0.38409945368766785,0.3070809245109558 l0.41948094964027405,0.8349666595458984 0.5142298936843872,0.24692954123020172 l0.33276474475860596,0.32926544547080994 -0.026854204013943672,0.16659726202487946 l0.2467186003923416,0.5745646357536316 0.23534883558750153,0.5596142411231995 l0.13057070970535278,-0.33318519592285156 0.20939435064792633,0.5191329121589661 l-0.04458124190568924,0.20179535448551178 0.17182418704032898,-0.14937779307365417 l-0.09282628446817398,0.35707753896713257 -0.05368434265255928,0.20000973343849182 m0.3028627634048462,0.9250839352607727 l0.2937474250793457,0.9429981112480164 0.11455339938402176,0.10483334958553314 l0.14480505883693695,0.44023168087005615 0.362492173910141,-0.19024433195590973 l0.1360427737236023,0.4206514358520508 m0.14972296357154846,0.2943759560585022 l0.34650617837905884,-0.17535224556922913 0.23582394421100616,-0.11852574348449707 l0.22255246341228485,0.8583406805992126 0.22948971390724182,-0.11542757600545883 l0.20188291370868683,0.4827825427055359 0.19052933156490326,0.8255402445793152 l0.04208537936210632,0.18714359402656555 0.10164389759302139,0.3481547236442566 m-0.1927289515733719,-0.11589955538511276 l0.14460782706737518,0.7465159296989441 0.13768981397151947,0.7411991357803345 l0.13132871687412262,0.7299721240997314 0.05413803830742836,0.2069321870803833 m0.08226723968982697,0.2710709571838379 l0.10890722274780273,0.6671519875526428 0.11671307682991028,0.09722542017698288 m0.07055247575044632,0.23511436581611633 l0.08887574821710587,0.6070183515548706 0.05760647729039192,0.22675907611846924 l0.07984394580125809,0.5692305564880371 0.13278672099113464,0.17785313725471497 l-0.1416294276714325,0.034075602889060974 0.048855721950531006,0.18406365811824799 m0.14767198264598846,-0.12048281729221344 l0.06774883717298508,0.039997637271881104 m-0.005535643082112074,0.04989180713891983 l0.04348665103316307,0.15846100449562073 m0.17688748240470886,-0.03155794367194176 l-0.0017170282080769539,0.42605844140052795 m0.044045016169548035,0.14599911868572235 l0.038231998682022095,0.15206852555274963 0.0036592271644622087,0.12635932862758636 l-0.017497019842267036,0.398349791765213 m0.06575053185224533,0.2349042296409607 l0.035504624247550964,0.14483782649040222 0.033038247376680374,0.14345598220825195 m-0.03547313064336777,0.3769751787185669 l-0.03816993534564972,0.3714798092842102 0.09058722108602524,0.004103606101125479 l0.004249678924679756,-0.00020387370022945106 m0.08857022225856781,0.11517111212015152 l0.034108471125364304,-0.22813564538955688 m-0.045345909893512726,0.314001202583313 m0.03364327922463417,0.106770820915699 l0.044561292976140976,0.15512602031230927 m0.11202801018953323,0.12733998894691467 l0.08811371773481369,-0.10459848493337631 m0.17497307062149048,0.12409211695194244 l0.048855509608983994,-0.005349122453480959 -0.04770941287279129,0.25318440794944763 l-0.1223645955324173,0.18437586724758148 m0.11310120671987534,0.11197788268327713 l0.17302508652210236,0.1574183702468872 0.12199437618255615,0.11221419274806976 m-0.05240815877914429,0.24331450462341309 m-0.0451163612306118,0.09158661216497421 m0.11029787361621857,0.1003098264336586 l0.06961887329816818,-0.0634598657488823 0.06036601960659027,-0.02701423317193985 l0.11796166747808456,0.10091682523488998 0.11958716064691544,0.10207267850637436 l0.030513787642121315,0.09383852034807205 0.13120998442173004,0.06925270706415176 m-0.04601047560572624,0.08217046409845352 l0.12447106838226318,0.006592816207557917 m0.09581708163022995,0.1481970101594925 l0.06054413318634033,-0.030263569205999374 m-0.05920017883181572,0.2291322648525238 m0.04111481457948685,-0.001742724678479135 m-0.06877462565898895,0.2341543287038803 l0.08192894607782364,-0.1099882423877716 -0.1493920087814331,-0.14190618693828583 l0.02786100283265114,0.09030577540397644 -0.049273837357759476,0.2161218672990799 m-0.054867956787347794,0.2295697182416916 l0.11388766020536423,0.10610385984182358 m0.08798394352197647,-0.11650426685810089 l0.09767221659421921,0.04768722504377365 0.09686535596847534,0.04621121659874916 l0.03009127639234066,0.09243468940258026 0.09663615375757217,0.045239176601171494 l-0.1438080072402954,-0.13846692442893982 -0.06429366767406464,-0.020387306809425354 l-0.04415969178080559,0.21629609167575836 -0.04460163414478302,0.22230100631713867 m-0.04443112388253212,0.08503304421901703 l0.05801303684711456,-0.026561366394162178 m0.04376367852091789,0.0851544439792633 l0.031002962961792946,0.08882145583629608 0.11670299619436264,0.10196304321289062 l0.04096110165119171,-0.008041447959840298 0.04098901525139809,-0.00890501867979765 m-0.13663814961910248,-0.14575603604316711 l0.03127479925751686,0.0853339433670044 m0.09717650711536407,0.05227277800440788 m0.08420000970363617,-0.12741783261299133 m-0.06734912097454071,0.22832995653152466 l0.04107500985264778,0.09258701652288437 m0.07614975422620773,-0.06643389165401459 m0.17815819382667542,0.10954904556274414 m0.0620233453810215,-0.05083924159407616 l-0.06474269181489944,0.22183434665203094 0.17787423729896545,0.15548759698867798 l0.06368768960237503,-0.060490526258945465 0.02922215312719345,0.09342561662197113 l0.030441945418715477,0.093019999563694 m-0.11202804744243622,0.1915055811405182 l-0.11248286813497543,0.015073182061314583 0.04007866606116295,0.08719608187675476 m0.11004883050918579,0.09630217403173447 m0.10934944450855255,0.09367231279611588 m0.034448157995939255,0.0773208811879158 l0.02945190854370594,0.09070512652397156 0.022453302517533302,-0.1522522270679474 l0.040546342730522156,0.08758722990751266 -0.04832950234413147,0.21752315759658813 l-0.11769629269838333,0.18388408422470093 -0.1482226699590683,-0.13169878721237183 m0.17729820311069489,0.15105730295181274 l0.0392267070710659,0.08593182265758514 m-0.057279545813798904,0.23117882013320923 l-0.1148553416132927,0.013578827492892742 m0.03322799876332283,0.07956109195947647 l0.043559614568948746,-0.004484525881707668 -0.11415724456310272,0.18671265244483948 l0.11572040617465973,0.1055336520075798 0.16864824295043945,0.1224326640367508 m-0.045767899602651596,0.08367300033569336 l0.17533856630325317,0.1515318602323532 0.030808981508016586,0.09381812810897827 l0.031090054661035538,0.09385813027620316 0.17039784789085388,0.1218247190117836 l0.10163982957601547,-0.09291193634271622 0.023018820211291313,-0.1464844048023224 l-0.14106519520282745,-0.1400093287229538 0.16702550649642944,0.14351613819599152 l0.03981151431798935,-0.008997221477329731 0.03218308463692665,0.0894993245601654 l-0.04326460510492325,0.2207166999578476 0.057401854544878006,-0.018152648583054543 l0.02224777638912201,-0.14559409022331238 m0.03607267886400223,0.0762052983045578 m0.09617243707180023,0.14491181075572968 l-0.05820157378911972,0.22749102115631104 m0.05975472927093506,-0.03897922858595848 l0.11499251425266266,0.09980792552232742 -0.04373321682214737,0.08247178792953491 m0.03305469825863838,0.0810588151216507 l0.030448561534285545,0.09015471488237381 -0.0432436540722847,0.08249272406101227 m0.03341088071465492,0.08033273369073868 m0.059266917407512665,-0.04446716606616974 m0.059983883053064346,-0.05060334503650665 m0.09017214179039001,0.1463768482208252 m-0.12473826110363007,0.01403782982379198 l-0.10916312783956528,0.19478797912597656 0.02177545428276062,-0.15167361497879028 m0.18423166871070862,0.15625706315040588 l-0.11452210694551468,0.010532782413065434 0.0894610658288002,0.15941515564918518 l-0.10921759903430939,0.01187299657613039 m0.1799105852842331,0.15297476947307587 l-0.053692519664764404,0.22583740949630737 -0.06271220743656158,-0.017812687903642654 m-0.11147342622280121,0.19422152638435364 l0.03049820475280285,0.08997441083192825 0.11594081670045853,0.10485494136810303 m0.042818594723939896,0.08613322675228119 m0.09282035380601883,0.14876997470855713 l0.03024253621697426,0.09133060276508331 m-0.06240393593907356,0.23240704834461212 l0.03985055536031723,0.09145206212997437 m0.03242182731628418,0.08219914883375168 m-0.04920562356710434,0.08849737048149109 m-0.1215352714061737,0.01581510901451111 l-0.0785663053393364,-0.02832724340260029 0.01882302016019821,-0.15292620658874512 l-0.052572838962078094,0.21183738112449646 m0.05737471953034401,-0.03757534176111221 l0.09100667387247086,0.15559352934360504 m-0.04761884734034538,0.08425532281398773 l0.04041558876633644,0.08952098339796066 m0.12863501906394958,0.05648374557495117 m0.07940022647380829,-0.06551387906074524 m0.1911592334508896,0.16004416346549988 l-0.10808253288269043,0.1935795098543167 0.02738184668123722,0.09582189470529556 l0.12501631677150726,0.00486354436725378 -0.04815661907196045,0.2191980630159378 l0.059179168194532394,-0.01843661069869995 0.09739980101585388,0.045144401490688324 l-0.10648509860038757,0.014841511845588684 -0.0438569039106369,0.21990345418453217 l-0.11823483556509018,0.183740496635437 -0.04051373898983002,0.08277085423469543 l-0.040945619344711304,0.08115974813699722 m-0.13922245800495148,-0.14050805568695068 m0.13503830134868622,0.00685054762288928 m-0.09423701465129852,-0.03421851247549057 l-0.047570280730724335,0.08116085827350616 0.11292698234319687,0.10082890838384628 m0.043721411377191544,0.087431900203228 m0.04122462123632431,-0.0019142499659210443 l0.029046230018138885,0.08905308693647385 -0.055729400366544724,0.22110624611377716 l0.13080620765686035,0.06732437014579773 m0.09449818730354309,0.15194551646709442 m0.03486425429582596,0.07878699898719788 m0.12742355465888977,0.05210927128791809 l0.029574120417237282,0.09115506708621979 m0.09605177491903305,0.05679534748196602 l-0.06010241061449051,0.22420115768909454 m0.12951868772506714,0.05735691264271736 l0.029285477474331856,0.09219957888126373 0.0416703075170517,-0.007510648109018803 m0.09413906931877136,0.15090620517730713 l-0.11242397129535675,0.18987153470516205 0.02930249460041523,0.09412175416946411 m0.0928565263748169,0.15239565074443817 l0.09149360656738281,-0.1026984229683876 0.030094511806964874,0.09154978394508362 m-0.0806613340973854,-0.025232139974832535 l0.030607692897319794,0.08799564838409424 0.09096463769674301,0.1580202579498291 m0.03371231257915497,0.08090180903673172 m0.059592436999082565,-0.04427037388086319 m-0.05086571350693703,0.0846485123038292 l0.07070818543434143,-0.06792771816253662 -0.11258456110954285,0.18666312098503113 l0.027786023914813995,0.0937398374080658 m0.11099223047494888,0.09767718613147736 m0.03423619642853737,0.07764855772256851 m0.03388148546218872,0.0772666484117508 m0.12681899964809418,0.04916948452591896 l0.02059744857251644,-0.16126608848571777 m-0.10717479884624481,0.1949377954006195 m-0.09308688342571259,-0.03202291950583458 l0.09632306545972824,0.05140494555234909 m0.020166214555501938,-0.1685509830713272 m-0.0672914981842041,0.22443898022174835 m0.059852056205272675,-0.04980527609586716 l-0.04711953178048134,0.0841226652264595 0.02630574442446232,0.09289572387933731 m-0.04721924290060997,0.08537499606609344 m-0.06543627381324768,0.23155443370342255 l-0.04482772946357727,0.08885558694601059 0.05979623273015022,-0.02499115839600563 m-0.05864771082997322,0.22655004262924194 l0.1141011044383049,0.10491728782653809 0.09005200117826462,0.16048115491867065 l-0.11574577540159225,0.18618342280387878 0.11820142716169357,0.1077980026602745 m-0.05265156552195549,0.23211713135242462 l0.04213681444525719,-0.005312529392540455 0.06421744078397751,-0.06236942112445831 m0.043535079807043076,0.08477513492107391 l-0.05452461913228035,0.2240997552871704 0.0949036180973053,0.048698727041482925 l0.17152367532253265,0.14929185807704926 -0.04587189108133316,0.2234763205051422 m0.09288224577903748,-0.11197911947965622 m0.03588923066854477,0.0761684849858284 m0.09203390032052994,0.14679394662380219 l-0.06266062706708908,0.22822906076908112 m0.09470704197883606,0.05884038656949997 l0.028934534639120102,0.0923980250954628 m-0.06227440387010574,0.2310192584991455 l0.061084914952516556,-0.027955923229455948 0.039782579988241196,0.08940428495407104 l0.06291531771421432,-0.06266986578702927 -0.046685148030519485,0.21702438592910767 m0.043024275451898575,0.08551079779863358 m-0.06067467853426933,0.2340688407421112 m0.12675292789936066,0.05411568656563759 m0.10964042693376541,0.09484845399856567 m-0.10296839475631714,0.20524713397026062 l0.044007040560245514,-0.0035787997767329216 m0.08033598214387894,-0.12254209071397781 m0.07915619760751724,-0.12993288040161133 l-0.0630212351679802,0.21684850752353668 0.06524314731359482,-0.06645426154136658 m0.04069770872592926,-0.004973862320184708 l0.041111595928668976,0.08897767961025238 -0.05270883068442345,0.21915212273597717 l0.16696371138095856,0.1230459064245224 m-0.05400228500366211,0.23068977892398834 m0.11074016988277435,0.09865784645080566 l0.088129922747612,-0.10659558326005936 0.11739309132099152,0.09962574392557144 l0.0928913876414299,0.15853430330753326 0.039910171180963516,-0.009265831671655178 m0.023442290723323822,-0.16223540902137756 l0.09893033653497696,0.04489239677786827 0.03042389638721943,0.09044637531042099 m0.17958199977874756,0.11342260986566544 l0.060351673513650894,-0.03039695881307125 0.04076829180121422,-0.008351156488060951 l-0.10892872512340546,0.012758330442011356 0.02133292704820633,-0.14716678857803345 m-0.1363198608160019,-0.1466163843870163 l0.030883917585015297,0.08368819206953049 " fill="none" stroke="black" stroke-width="1" /></svg>