<?xml version="1.0" encoding="utf-8" ?>
<svg baseProfile="full" height="116.08769359602593" version="1.1" width="100.66846557433018" xmlns="http://www.w3.org/2000/svg" xmlns:ev="http://www.w3.org/2001/xml-events" xmlns:xlink="http://www.w3.org/1999/xlink"><defs /><rect fill="white" height="116.08769359602593" width="100.66846557433018" x="0" y="0" /><path d="M25,25 m0.0,0.0 m0.13109497725963593,0.3809109926223755 m0.39068010449409485,0.308011919260025 m-0.18937179446220398,0.18222850561141968 m0.13689765334129333,0.291280597448349 l0.5836195349693298,0.20742252469062805 -0.2849465608596802,0.26317155361175537 l-0.31487977504730225,0.024471256881952286 0.06796126067638397,0.6034947633743286 m0.4228162467479706,0.02619878202676773 l0.05581104755401611,-0.1115298867225647 m0.4416370093822479,0.07247384637594223 l0.24869096279144287,0.5612356066703796 -0.059490516781806946,0.2285136580467224 m0.21443484723567963,-0.09007062017917633 l0.13898596167564392,-0.05891817435622215 -0.16684506833553314,0.057774584740400314 l0.016267430037260056,0.12067978084087372 0.5554341673851013,0.1608927696943283 l0.3107571005821228,0.42298224568367004 0.5797178149223328,0.5462954044342041 l0.510012686252594,0.15342922508716583 m0.37315699458122253,0.1907159984111786 l0.5726807117462158,0.45073509216308594 0.5411937236785889,0.5391311645507812 l0.5398373007774353,0.5651870965957642 0.5321774482727051,0.5922639966011047 l-0.16255035996437073,0.007433322723954916 0.49101290106773376,0.6340405344963074 l0.4549299478530884,0.3557845652103424 -0.22263377904891968,0.3594261407852173 l0.3945409953594208,0.6827130317687988 -0.17227907478809357,0.3807748258113861 m0.1744011789560318,0.12457852810621262 l0.26848655939102173,0.6932276487350464 m-0.08950493484735489,0.40553683042526245 l0.5123134255409241,0.07578204572200775 m0.29411908984184265,0.5415269136428833 l0.533191442489624,0.07863672822713852 0.39508509635925293,0.23633000254631042 m0.283537894487381,0.10197547823190689 m0.09352614730596542,0.6034475564956665 l0.12815211713314056,0.7092775106430054 0.10192053020000458,0.5756208300590515 l0.11682387441396713,0.5565212965011597 -0.503566324710846,0.2962278425693512 l0.1559896171092987,0.5161813497543335 0.18026594817638397,0.49721720814704895 l0.20557770133018494,0.47802141308784485 0.22899103164672852,0.45631906390190125 l0.24925146996974945,0.4322149157524109 0.26563671231269836,0.4058391749858856 l0.2782723009586334,0.37806984782218933 0.2883962094783783,0.35024499893188477 m0.2931217551231384,0.330430805683136 l0.29786399006843567,0.3067440688610077 m0.3088412582874298,0.29296085238456726 l0.32021865248680115,0.2749253511428833 0.34042203426361084,0.26071223616600037 l0.3599182665348053,0.25083306431770325 0.37666380405426025,0.24390555918216705 l0.39029642939567566,0.23934690654277802 0.40017327666282654,0.23601537942886353 l0.40565216541290283,0.2329239547252655 m0.404004842042923,0.23893575370311737 l0.39958465099334717,0.23031862080097198 m0.39502280950546265,0.23271876573562622 l0.3886217474937439,0.22077903151512146 m0.3831396996974945,0.2215888351202011 l0.3765519857406616,0.20861132442951202 0.3744153082370758,0.1998172253370285 l0.37237247824668884,0.19312340021133423 m-0.016337139531970024,0.030359352007508278 l0.3625306487083435,0.18850739300251007 m0.04531903937458992,-0.18657472729682922 l0.3611086905002594,0.1845420002937317 m0.3633750379085541,0.19741831719875336 l0.3600868582725525,0.19391056895256042 0.29627278447151184,0.44992080330848694 l0.35704270005226135,0.19968266785144806 0.3524525463581085,0.19975416362285614 m0.3432190716266632,0.2171635627746582 l0.32961735129356384,0.21902675926685333 m0.3825811743736267,0.37618640065193176 m0.2955225706100464,0.2634265124797821 l-0.03407862037420273,-0.13325990736484528 0.26942697167396545,0.2784402370452881 l-0.020129088312387466,-0.10544146597385406 0.24710167944431305,0.3265443742275238 l0.17292626202106476,-0.12643270194530487 0.22903090715408325,0.3873363733291626 l0.011344535276293755,0.026213956996798515 m0.21063844859600067,0.4644109606742859 m0.20187965035438538,0.5076102018356323 l0.20285989344120026,0.5332103371620178 0.03620221093297005,0.18161162734031677 l0.2172829508781433,0.5659546256065369 0.22622980177402496,0.5852450728416443 l0.23446080088615417,0.5986203551292419 m0.24130888283252716,0.6128044128417969 l0.21522167325019836,-0.08095385134220123 m0.1954328566789627,0.09923870861530304 l0.25459349155426025,0.6061903834342957 0.09175461530685425,0.32352903485298157 m0.27555155754089355,0.6007470488548279 l0.2468138188123703,0.338325560092926 0.2883826196193695,0.5916350483894348 m0.2996710240840912,0.5918468832969666 l0.3020035922527313,0.5951160192489624 0.40204811096191406,0.03336971625685692 l0.3212272524833679,0.5898231863975525 m0.33144479990005493,0.6005328297615051 l0.21863505244255066,0.01475292257964611 0.32948148250579834,0.23209306597709656 l0.22888588905334473,-0.012896922416985035 0.36257609724998474,0.6349382996559143 l0.3714248538017273,0.6561867594718933 0.5748336911201477,0.4377520680427551 l0.38995373249053955,0.6896865367889404 0.41434749960899353,0.11216431111097336 l0.2025662213563919,-0.051113106310367584 0.4170377850532532,0.7249693274497986 l0.2804025411605835,0.19292162358760834 m0.17433291673660278,-0.052957721054553986 l0.4323635399341583,0.764657735824585 0.429355263710022,0.8404375314712524 l0.12229329347610474,-0.034417565912008286 m0.12306363135576248,-0.03812922164797783 l0.3146214783191681,0.31190571188926697 0.4008941948413849,0.1889030486345291 l0.42684879899024963,0.8192363381385803 0.06790335476398468,-0.028645867481827736 l0.3815109431743622,0.20822371542453766 m0.27745726704597473,0.6107702255249023 l0.26291078329086304,0.597544252872467 0.0338013581931591,-0.06195239722728729 l0.3764367699623108,0.8802799582481384 0.4709778130054474,0.21033814549446106 m0.35594791173934937,0.9063685536384583 l0.20442423224449158,0.5188910961151123 0.1910264641046524,0.5047780275344849 l0.19654257595539093,0.03866778686642647 0.17098045349121094,0.4736708104610443 m0.0520726814866066,-0.08933573216199875 l0.28143295645713806,0.20107120275497437 m0.06290122121572495,-0.09267140924930573 m-0.04833494499325752,0.3071455955505371 l0.1411445438861847,0.4309849441051483 0.2417752593755722,0.18798406422138214 m-0.18681448698043823,-0.14278438687324524 l0.060060642659664154,-0.09869745373725891 0.22763432562351227,0.8733964562416077 m0.3214239180088043,-0.15293656289577484 l0.20608611404895782,0.8511322736740112 0.225515216588974,-0.11569344252347946 l0.22405430674552917,-0.1190095767378807 0.10440199822187424,0.35484665632247925 m0.1638055294752121,0.7842409014701843 l-0.06261031329631805,0.108418770134449 0.14496684074401855,0.13162297010421753 l0.14107011258602142,0.7308650612831116 0.08284727483987808,0.3048883080482483 l0.14772309362888336,0.2542867362499237 m0.1767459213733673,-0.10847779363393784 m-0.19605925679206848,-0.1166338101029396 l0.12321849912405014,0.07614194601774216 m0.06819531321525574,0.2299286425113678 l0.0592021718621254,0.2298516035079956 0.0542745403945446,0.22209906578063965 m0.012655472382903099,0.08776438236236572 m0.05876326933503151,0.54669588804245 m0.023699596524238586,0.17768479883670807 l0.04109456017613411,0.515075147151947 0.037596676498651505,0.5023853182792664 l0.1439548283815384,-0.09994176775217056 m0.030736044049263,-0.26181864738464355 l0.016735786572098732,0.44262537360191345 m0.06946123391389847,0.045389484614133835 l-0.0013022191124036908,0.430697500705719 0.03747658431529999,0.07158022373914719 m0.14097462594509125,-0.1248573288321495 m-0.023166708648204803,0.4075104594230652 m-0.005859313998371363,0.12835831940174103 m0.07111547887325287,-0.007527833338826895 l-0.1416371613740921,0.18259857594966888 m-0.005236908793449402,0.11326746642589569 l0.1153266653418541,0.15509319305419922 0.021774886175990105,0.057885799556970596 m0.0005934608052484691,0.004810298793017864 l0.10782638937234879,-0.10579294711351395 0.03205158933997154,-0.2300419807434082 l0.00918018352240324,-0.006868861615657806 m0.1741921752691269,0.16410797834396362 l0.09840746223926544,-0.10495041310787201 m0.03244984522461891,0.003094725776463747 l-0.04764801263809204,0.2849584221839905 m0.1739950180053711,0.1276378631591797 l0.06234727427363396,-0.052338872104883194 0.11916940659284592,0.1195576936006546 l0.1676810383796692,0.15672044456005096 m-0.048758622258901596,0.25862428545951843 l0.02991407923400402,-0.17358115315437317 0.029289426282048225,0.09798219054937363 l0.11893385648727417,0.10833119601011276 0.16764310002326965,0.15067709982395172 m0.11662186682224274,0.09992880374193192 l-0.0505640022456646,0.23424021899700165 0.09826214611530304,0.04825284704566002 l0.05916759744286537,-0.01819654554128647 0.06193297356367111,-0.061133090406656265 l0.02248648926615715,-0.14934994280338287 0.05640080198645592,-0.025387752801179886 m0.1778564155101776,0.14876458048820496 l0.03215062618255615,0.08846224844455719 -0.04941655322909355,0.22338418662548065 m0.039278559386730194,-0.0042329225689172745 l-0.0695396140217781,-0.023213084787130356 0.020274117588996887,-0.15088088810443878 l0.05676370486617088,-0.02775701880455017 0.09794595837593079,0.04222434386610985 l-0.14253175258636475,-0.1407780945301056 0.041711729019880295,-0.008628222160041332 l0.04114292934536934,-0.008508717641234398 0.03154875338077545,0.08835060894489288 l0.10188215225934982,-0.09494609385728836 m0.0562346912920475,-0.03989633545279503 l0.11352182924747467,0.09287992119789124 0.1174493357539177,0.09754383563995361 m0.11388850212097168,0.09279334545135498 m-0.048763662576675415,0.0847284123301506 l0.06021052226424217,-0.03343942016363144 -0.11270911246538162,0.01072689238935709 l0.05781644955277443,-0.025478124618530273 -0.04317446053028107,0.07749182730913162 l0.09859755635261536,-0.09538406878709793 0.04096406325697899,-0.008921959437429905 l0.0314687117934227,0.08904177695512772 m0.12877292931079865,0.06043221428990364 l0.12397541850805283,0.005023111589252949 m-0.11497223377227783,0.01904991641640663 m0.08397985249757767,-0.12808725237846375 l0.08784222602844238,-0.11301962286233902 m0.032174743711948395,0.07711955904960632 l0.08828797191381454,-0.10998115688562393 0.16756349802017212,0.11642110347747803 l0.17325545847415924,0.14870116114616394 m0.033810824155807495,0.08162945508956909 l-0.04433651268482208,0.0831327885389328 0.029972633346915245,0.0928572341799736 l0.03009292669594288,0.09320570528507233 m0.09529325366020203,0.1507713794708252 l0.09335904568433762,-0.1027231439948082 0.09439431130886078,0.15605399012565613 l0.037536632269620895,0.08629388362169266 0.031117033213377,0.09305297583341599 l-0.044810302555561066,0.2224317342042923 m-0.05247470736503601,0.23390761017799377 l0.09286767244338989,-0.10065693408250809 m0.059160225093364716,-0.04058375954627991 l0.04004957154393196,0.08719640225172043 m-0.08402258902788162,-0.027840984985232353 m-0.13990099728107452,-0.15013287961483002 l-0.11084096878767014,0.19020898640155792 m0.12701448798179626,0.05336913838982582 l0.028322098776698112,0.08957536518573761 0.11604323983192444,0.1028689295053482 m0.07373571395874023,-0.06348318606615067 l0.03024340607225895,0.08882364630699158 m0.17839515209197998,0.11334704607725143 l-0.056883979588747025,0.22505031526088715 0.041405629366636276,-0.007000695448368788 l0.09624822437763214,-0.0964532196521759 0.17002184689044952,0.11924348771572113 l0.10115516930818558,-0.09463731199502945 0.031896963715553284,0.09029314666986465 l0.05799490213394165,-0.022172776982188225 -0.04271700233221054,0.2187226265668869 l0.17028634250164032,0.12147697061300278 m0.12856483459472656,0.006934633944183588 m0.1121128723025322,0.09064574539661407 l0.03178873658180237,0.08984246850013733 -0.05361904576420784,0.22439303994178772 l0.09505826234817505,-0.09549573808908463 -0.04694683104753494,0.21916818618774414 m-0.05390444025397301,0.23163990676403046 l0.17497235536575317,0.1526668518781662 0.12014003843069077,0.10593529045581818 l-0.042056579142808914,0.08268524706363678 m-0.04580770805478096,0.08470068871974945 m-0.061464112251996994,0.23535001277923584 l0.03994668275117874,0.09060782939195633 m0.13425837457180023,0.003979255445301533 m-0.10541100800037384,0.20106780529022217 l0.06126147881150246,-0.031930841505527496 m0.04194559529423714,-0.0031194507610052824 l-0.1151692345738411,0.009862258099019527 m0.05840805545449257,-0.043315351009368896 m-0.06594082713127136,0.227569580078125 l0.06916260719299316,-0.06697295606136322 0.1770959049463272,0.15357765555381775 m0.07438644021749496,-0.06354381889104843 m0.03378990665078163,0.07669901847839355 l0.060806047171354294,-0.03521227836608887 m0.032204773277044296,0.07937825471162796 l-0.1471361368894577,-0.1444067507982254 m0.17491674423217773,0.11110828816890717 m0.17877566814422607,0.1101328581571579 l-0.04653288424015045,0.08432146906852722 -0.044002287089824677,0.08389820903539658 l0.08905380219221115,0.16073590517044067 m0.17862965166568756,0.11714356392621994 l0.17201410233974457,0.1193157359957695 0.04001973196864128,-0.008415566757321358 m0.03437585383653641,0.08085652440786362 m0.09339867532253265,0.14802558720111847 m-0.06659005582332611,0.23624248802661896 m-0.0715925395488739,0.23984219133853912 l0.04363897815346718,-0.002770151011645794 m0.06128356605768204,-0.04158787429332733 m0.07907494157552719,-0.12843036651611328 l-0.06301286816596985,0.2187107652425766 m0.04176578298211098,-0.003285783575847745 l0.041633497923612595,0.09134245663881302 0.08852818608283997,0.16025252640247345 l-0.14757533371448517,-0.13775832951068878 0.09677519649267197,-0.09726753830909729 l-0.11719438433647156,0.1794481724500656 0.030920881778001785,0.09053223580121994 m0.05672738701105118,-0.03568129613995552 l0.05790188908576965,-0.03090864047408104 0.04186009615659714,-0.007531929295510054 m-0.11179444193840027,0.01897372119128704 m-0.10785013437271118,0.19699689745903015 l0.058299388736486435,-0.03244418650865555 m0.17598865926265717,0.11187402158975601 l-0.11023958772420883,0.1912563294172287 0.11696475744247437,0.10598776489496231 l0.12368649244308472,0.005876515991985798 0.11940377950668335,0.10176915675401688 l0.05969873443245888,-0.02082751877605915 m0.09476932883262634,-0.11530187726020813 m0.1266864687204361,0.05205291137099266 l0.06024489924311638,-0.036347560584545135 m0.12757182121276855,0.052556443959474564 l0.029938500374555588,0.08966729044914246 0.059994760900735855,-0.027693385258316994 m-0.05699257180094719,0.22603757679462433 l0.02998003363609314,0.09128798544406891 -0.0427098348736763,0.08345310389995575 m0.08889033645391464,-0.11580949276685715 l0.04247879981994629,-0.006064375396817923 0.09296352416276932,0.1564413607120514 l0.03005281835794449,0.09261520951986313 0.058680638670921326,-0.021316926926374435 l0.031186698004603386,0.09123373031616211 m0.05769093707203865,-0.036353833973407745 l-0.04512288421392441,0.07917628437280655 m0.020527392625808716,-0.166391521692276 l-0.07391119003295898,-0.027935640886425972 m-0.0886860266327858,-0.03086835891008377 l-0.04631530120968819,0.07963022589683533 -0.054393116384744644,0.21858978271484375 m-0.08338787406682968,-0.024437768384814262 m0.1266184002161026,0.05251968652009964 m-0.14002496004104614,-0.15223193168640137 l-0.1100296676158905,0.1920398771762848 0.01980750821530819,-0.15199989080429077 m0.1067880168557167,0.09162414819002151 l-0.11318185180425644,0.011022288352251053 m0.09702112525701523,0.05424250289797783 l0.059279914945364,-0.03309613838791847 0.028762241825461388,0.09076697379350662 l0.17241647839546204,0.14932818710803986 0.09377022087574005,0.15868771076202393 l0.17134404182434082,0.12269221991300583 0.09633392840623856,0.045880984514951706 m0.036324188113212585,0.08074601739645004 l0.12853218615055084,0.06385068595409393 m0.022878801450133324,-0.16633813083171844 m0.09544254839420319,0.14443492889404297 m0.019796989858150482,-0.17667512595653534 m0.1071377545595169,0.0860128328204155 l0.07213672995567322,-0.06853539496660233 m0.12836231291294098,0.049723271280527115 m0.11026161164045334,0.09007488191127777 l-0.10894114524126053,0.19182756543159485 m0.03071221522986889,0.08265942335128784 m0.08759859204292297,0.15143798291683197 m-0.07061159610748291,0.23549823462963104 l0.02247820794582367,-0.15833976864814758 m0.13832268118858337,-0.0004212958738207817 l0.08847130835056305,0.1572926938533783 0.027818555012345314,0.0942201316356659 l0.12459500133991241,0.004763490986078978 m0.03379611670970917,0.08048328012228012 l0.06736726313829422,-0.06361479312181473 m0.03404197469353676,0.07858817279338837 l0.05974818393588066,-0.03265246003866196 0.02939009480178356,0.09116505086421967 m0.03349422663450241,0.07988957315683365 l0.09127545356750488,-0.10560297966003418 0.02054646424949169,-0.1514410674571991 l0.12865926325321198,0.06162161007523537 0.030396554619073868,0.09046506136655807 m0.03491987660527229,0.07875917851924896 l-0.14405976235866547,-0.1426258087158203 0.018388772383332253,-0.15149810910224915 m0.09737110882997513,0.1461411416530609 m0.08536145091056824,-0.12651847302913666 m0.10647005587816238,0.08568989485502243 m0.1920688897371292,0.16045738756656647 l-0.10705099254846573,0.19392669200897217 0.17785772681236267,0.1559179127216339 l0.08888310939073563,0.16227388381958008 0.1723097413778305,0.15022745728492737 l-0.14538903534412384,-0.136173278093338 m0.11080996692180634,0.093108631670475 l-0.11239482462406158,0.014240225777029991 m0.09375568479299545,0.14933842420578003 l-0.0702316090464592,-0.023930557072162628 m-0.04810960590839386,0.08351634442806244 l0.02962850034236908,0.08909941464662552 m0.10973814129829407,0.0957292690873146 l0.029667090624570847,0.09045078605413437 m-0.14083267748355865,-0.14706408977508545 l-0.058986350893974304,0.21994547545909882 m0.02098613977432251,-0.16597969830036163 l0.05828091874718666,-0.03539353236556053 0.05807403475046158,-0.030521871522068977 m-0.10997665673494339,0.19069328904151917 l-0.11334028840065002,0.1896521896123886 0.09489358961582184,0.04959490895271301 l0.091629758477211,0.1597003936767578 0.1693374067544937,0.12269561737775803 m0.03865446895360947,-0.005430795252323151 m0.13435803353786469,0.0037379784043878317 l-0.1166071817278862,0.01241860631853342 m0.05883677676320076,-0.04386897757649422 m0.10751467198133469,0.08943768590688705 m0.0815233662724495,-0.0683371052145958 l0.060990769416093826,-0.039549995213747025 0.06016549468040466,-0.03267453983426094 l0.04014973342418671,0.08840516954660416 0.11762616783380508,0.10034091025590897 m-0.13749901950359344,-0.1464150846004486 l0.12707538902759552,0.004618570674210787 m-0.13753892481327057,-0.14988167583942413 l-0.046595290303230286,0.07730425894260406 0.08991685509681702,0.15722967684268951 m-0.1396748572587967,-0.14690035581588745 l0.029781077057123184,0.08614635467529297 " fill="none" stroke="black" stroke-width="1" /></svg>