<?xml version="1.0" encoding="utf-8" ?>
<svg baseProfile="full" height="124.70948043387034" version="1.1" width="108.4771827334771" xmlns="http://www.w3.org/2000/svg" xmlns:ev="http://www.w3.org/2001/xml-events" xmlns:xlink="http://www.w3.org/1999/xlink"><defs /><rect fill="white" height="124.70948043387034" width="108.4771827334771" x="0" y="0" /><path d="M25,25.500569839030504 m0.0,0.0 m0.05708440765738487,-0.10837573558092117 l0.16829173266887665,0.06978115439414978 m-0.09643259644508362,0.06094569340348244 m0.27908140420913696,-0.3806391656398773 l0.0013909542467445135,-0.14228178560733795 0.2240189164876938,0.9721813201904297 l0.1705741137266159,-0.09120641648769379 0.24001573026180267,0.9814661145210266 l0.23780708014965057,0.9830976724624634 0.742185115814209,-0.3970663249492645 l0.14900727570056915,-0.04319128394126892 -0.055355627089738846,0.2400207668542862 l0.14600880444049835,0.012538201175630093 -0.08829647302627563,0.28407490253448486 m-0.09438973665237427,0.3231416344642639 l-0.0829891785979271,0.3427157998085022 0.704660952091217,-0.31396421790122986 l-0.04455335810780525,0.39555415511131287 -0.014715835452079773,0.41981086134910583 l0.01801218092441559,0.4405701160430908 0.055104710161685944,0.4557241201400757 l0.09578990936279297,0.4646933376789093 0.14001478254795074,0.467868834733963 l0.18713103234767914,0.4664750397205353 0.23448503017425537,0.461706280708313 m0.27257049083709717,0.4593360126018524 l0.3117866516113281,0.4457437992095947 0.3869550824165344,-0.05679197236895561 l0.3359076678752899,0.4059189260005951 0.3764031231403351,-0.16566115617752075 l0.3038443624973297,0.06765222549438477 0.6495093107223511,-0.03866356983780861 m0.6871799826622009,0.10047229379415512 m0.024369530379772186,0.45435062050819397 l0.15820550918579102,0.3543644845485687 0.5574337244033813,-0.1486189067363739 l0.17170298099517822,0.36118581891059875 -0.24228204786777496,0.18889030814170837 l-0.2569863498210907,0.22188740968704224 m0.581710934638977,-0.2683326005935669 l-0.2573370635509491,0.27056020498275757 0.6177408695220947,-0.28416016697883606 m0.05501524731516838,0.41072964668273926 m0.06581591069698334,0.44886720180511475 l-0.04319842532277107,0.3902793228626251 0.21969354152679443,0.4111308455467224 m0.07525863498449326,0.5041940808296204 m0.020624948665499687,0.3889141380786896 m0.07915814220905304,0.5372133255004883 l0.06797844916582108,0.5290061831474304 0.06012668088078499,0.5289497971534729 l0.11682593822479248,0.3304698169231415 0.13569121062755585,0.3087139427661896 l0.15860086679458618,0.2881612181663513 0.024964872747659683,0.5301595330238342 l0.2109205424785614,0.2518223822116852 m0.005200882907956839,0.5507573485374451 l0.654308021068573,0.2755073606967926 -0.020185913890600204,0.5425507426261902 m0.3439742922782898,0.19426420331001282 m0.3757351040840149,0.17931689321994781 l0.38511404395103455,0.15814296901226044 -0.07289167493581772,0.5607953071594238 m0.435439795255661,0.13600198924541473 l0.016630511730909348,-0.21950069069862366 m0.5264282822608948,0.3241485059261322 l-0.017072100192308426,-0.176069974899292 0.48978179693222046,0.33393651247024536 l0.46743717789649963,0.3348742425441742 -0.11212650686502457,0.6041504144668579 l0.4296199679374695,0.3434533476829529 0.41209572553634644,0.3404726982116699 l-0.1081073209643364,0.6272099614143372 0.3793497681617737,0.34646448493003845 l0.560672402381897,0.06069907173514366 0.3504478633403778,0.34208521246910095 l-0.1007806807756424,0.6420796513557434 m0.30790185928344727,0.3526833653450012 l-0.10119671374559402,0.6470046639442444 0.5943706631660461,0.09051035344600677 l0.2866273820400238,0.3709869682788849 0.2770662307739258,0.3806828260421753 l-0.12254679948091507,0.6189864873886108 0.6291261315345764,0.14541685581207275 m0.6638749241828918,0.1634182333946228 l0.24169842898845673,0.4009183943271637 0.24045856297016144,0.4068089425563812 m0.220454141497612,0.4085775315761566 l0.7364364862442017,0.2369934469461441 0.23191767930984497,0.40442052483558655 l0.7777978181838989,0.26110073924064636 m0.21403621137142181,0.40099263191223145 l0.16100144386291504,0.6725151538848877 0.14526602625846863,0.6850472688674927 m-0.34142932295799255,0.007372203283011913 l0.11055094748735428,0.6971386671066284 0.8810997009277344,0.3020763397216797 m-0.10475873202085495,0.47091254591941833 l-0.2054743468761444,0.4799966812133789 0.9055412411689758,0.2935337424278259 l0.012544726952910423,0.719014585018158 0.9133036732673645,0.29097431898117065 l0.9209380745887756,0.28823041915893555 0.9257423877716064,0.28586646914482117 l0.14694467186927795,0.43601810932159424 -0.08676064759492874,0.6925896406173706 l-0.10649135708808899,0.6873620748519897 0.9222816824913025,0.29037779569625854 l0.12640425562858582,0.4819062352180481 0.9240400791168213,0.28447437286376953 l0.1341179609298706,0.4983239471912384 0.9201676249504089,0.2769211530685425 l0.9197806715965271,0.2695702910423279 m0.9346510171890259,0.26751869916915894 l0.18725234270095825,0.5156915783882141 0.9098069667816162,0.2535078823566437 l0.22843369841575623,0.5137124061584473 -0.10301005840301514,0.6705895066261292 l-0.09331868588924408,0.6685928106307983 0.2831839919090271,0.5079073905944824 l0.8651926517486572,0.22818322479724884 m0.3229300379753113,0.4736678898334503 l0.33402419090270996,0.466426283121109 0.8429795503616333,0.2052949070930481 m0.3611454963684082,0.4381532669067383 l0.3653055727481842,0.43285903334617615 0.8099390268325806,0.1718057096004486 l0.37589773535728455,0.41187646985054016 m0.37596309185028076,0.4128687083721161 l0.4469124674797058,0.25700080394744873 0.7600119113922119,0.10664546489715576 l0.3606836497783661,0.4028124213218689 0.3461712896823883,0.40819647908210754 m0.4434988796710968,0.1405944973230362 l0.3186277151107788,0.4138476848602295 0.29943087697029114,0.4191325008869171 l0.2807300388813019,0.42422375082969666 m-0.06976401805877686,0.4772462546825409 m0.24399691820144653,0.4384247660636902 l0.061793457716703415,0.5369338989257812 0.2126152366399765,0.4463511109352112 l0.06443431228399277,0.5058225989341736 0.19291061162948608,0.453045129776001 l0.18734702467918396,0.4542834758758545 0.64579838514328,-0.10434284061193466 l0.0720505565404892,0.4574943780899048 m0.08158638328313828,0.46291249990463257 l0.6348009705543518,-0.3168520927429199 m0.08919890969991684,0.4509737193584442 l0.08686265349388123,0.44401752948760986 0.08938919752836227,0.4406771957874298 l0.09300203621387482,0.4386383593082428 0.21242539584636688,0.38695672154426575 l0.10341808199882507,0.4379290044307709 0.10873346775770187,0.4382126033306122 l0.2229650765657425,0.3289872407913208 0.1198490709066391,0.43868356943130493 l0.12375427782535553,0.4396679699420929 m0.22065338492393494,0.2579628825187683 l0.13180889189243317,0.4466327428817749 -0.19221483170986176,0.21960514783859253 l0.1263376772403717,0.4419551193714142 0.24898794293403625,0.16974999010562897 l0.11737383902072906,0.4471568763256073 -0.15458044409751892,-0.19858625531196594 l0.0990530401468277,0.44390785694122314 0.30252715945243835,0.09067276120185852 m0.24126428365707397,-0.1494796872138977 m0.07869695872068405,0.47434937953948975 l0.07054528594017029,0.4836616516113281 m0.34615787863731384,0.034012097865343094 l0.06472016125917435,0.49877506494522095 -0.1659790277481079,-0.11204394698143005 l0.3848359286785126,0.004900472704321146 0.06899403780698776,0.5058808326721191 l-0.04620945081114769,0.4551292061805725 0.08105319738388062,0.5264260172843933 l0.08957376331090927,0.5370664596557617 0.005607275292277336,0.1768742799758911 l0.10810665041208267,0.5465945601463318 0.2996421158313751,-0.09533321112394333 l0.1262071281671524,0.5522438287734985 0.31518200039863586,-0.08273922652006149 m0.14174635708332062,0.5662935972213745 l0.2924294173717499,-0.07370706647634506 -0.2179720103740692,-0.315092533826828 m0.14402829110622406,0.5443748831748962 l0.07881955802440643,0.1575944572687149 0.3653932511806488,-0.047813065350055695 l0.1235927939414978,0.5117860436439514 0.36677229404449463,-0.193800151348114 l-0.2966688573360443,0.021226070821285248 -0.12659209966659546,0.09902598708868027 l0.08074789494276047,0.44337183237075806 m0.2368829846382141,0.14267350733280182 l0.06518320739269257,0.4289592504501343 0.252702921628952,-0.0636913850903511 l-0.0819399356842041,-0.007590900175273418 m-0.20880764722824097,-0.11771125346422195 l0.20278812944889069,-0.04018417373299599 0.27351778745651245,-0.10754254460334778 l0.032755739986896515,0.30634820461273193 -0.09236038476228714,0.014548558741807938 l0.026648718863725662,0.27263858914375305 -0.07099774479866028,0.11030716449022293 l0.08431510627269745,0.0033972752280533314 -0.05470141023397446,-0.0965268686413765 l0.1393427550792694,0.13561436533927917 -0.10864035785198212,-0.03960409015417099 l0.03169606626033783,0.04593171179294586 -0.10288287699222565,-0.04658007249236107 m-0.031372908502817154,0.10794652998447418 l0.07945103943347931,-0.021166585385799408 m0.1736128330230713,-0.09765895456075668 m0.1839393973350525,-0.09481976926326752 m-0.08516977727413177,0.021229803562164307 l-0.03125389292836189,0.0937596783041954 m0.11658195406198502,-0.031146185472607613 l0.03411722928285599,0.20874489843845367 m0.006458371877670288,0.030076390132308006 l0.1510692536830902,-0.0969051718711853 0.09929327666759491,-0.006566987372934818 l0.017037006095051765,0.02451518177986145 m0.16197118163108826,-0.09438639134168625 m0.16281908750534058,0.014801627956330776 l-0.013326368294656277,-0.1000412330031395 0.09950433671474457,-0.008390041999518871 l0.02207833155989647,0.03338811546564102 m0.00751850102096796,0.026954330503940582 m0.1738157421350479,-0.09039335697889328 l0.09570108354091644,0.0902148187160492 0.03088548220694065,0.2019633799791336 m0.03509264811873436,0.2151547074317932 m0.03800802677869797,0.22445960342884064 m0.0696997120976448,-0.0164390467107296 m0.041428953409194946,0.23048798739910126 l0.07851877808570862,-0.01140572503209114 m-0.1482166051864624,-0.06353192031383514 m-0.15086564421653748,-0.06225573271512985 l-0.0879407525062561,0.011676251888275146 0.1411917805671692,0.1337028294801712 m0.006942027248442173,0.029666274785995483 l0.14747925102710724,-0.09779472649097443 m0.1609586924314499,0.017202727496623993 l-0.01245154533535242,-0.0992165207862854 0.09955279529094696,-0.007450134959071875 m0.16459262371063232,-0.0949922651052475 m0.17742860317230225,-0.09222728759050369 l0.10090537369251251,-0.01166695635765791 m0.01586584933102131,0.034443408250808716 l0.033940646797418594,0.205719992518425 m0.03645871952176094,0.21809928119182587 m-0.15086466073989868,-0.06172763928771019 m0.17904691398143768,-0.08501142263412476 m0.18440499901771545,-0.08658517152070999 l0.047278642654418945,0.1252342164516449 -0.010149888694286346,-0.09651658684015274 m-0.030688773840665817,0.08479021489620209 l0.032231882214546204,0.20375749468803406 -0.14175088703632355,-0.07386281341314316 m0.11767686903476715,-0.031095098704099655 l0.06439225375652313,0.004294007085263729 m0.07191088050603867,0.0011962977005168796 m-0.03148072585463524,0.08478179574012756 m0.04130982235074043,0.22389569878578186 m-0.09476800262928009,-0.057923417538404465 l0.1561390459537506,-0.09516725689172745 m0.0972953513264656,-0.009519556537270546 m-0.006876346655189991,-0.09898949414491653 m-0.004114953335374594,0.12964577972888947 l0.035477444529533386,0.21318277716636658 0.1426689177751541,0.13573448359966278 l0.015020497143268585,0.02818824164569378 0.08829206228256226,0.08863355964422226 l0.027041368186473846,0.19591529667377472 0.08793804049491882,0.08749382942914963 m0.00542263500392437,0.027995605021715164 l0.15149566531181335,0.18396605551242828 0.09660544991493225,-0.00023919279919937253 l0.02799808233976364,0.1966763138771057 0.026652507483959198,0.19655385613441467 l0.06603541970252991,0.004817091394215822 m0.16008299589157104,0.017429985105991364 l0.0980166420340538,-0.003459115047007799 m-0.05297593027353287,0.1330784559249878 m0.0038757252041250467,0.031076382845640182 m0.09375397861003876,-0.007398180663585663 l0.04605134576559067,0.12871651351451874 m0.03784143552184105,0.22090156376361847 m0.13710132241249084,0.1996375024318695 m-0.032226238399744034,0.09138364344835281 l0.09526040405035019,-0.0065236520022153854 0.016325615346431732,0.02890242449939251 m0.16491664946079254,-0.09034106135368347 l-0.030583050101995468,0.09103570878505707 0.14068235456943512,-0.10146282613277435 l0.1385149508714676,0.127794548869133 0.13635191321372986,-0.10335958749055862 m0.07475611567497253,-0.00416355486959219 l0.09904812276363373,-0.006276601925492287 0.14922422170639038,0.01861494965851307 m0.14340190589427948,0.14110486209392548 m0.17705874145030975,-0.08816530555486679 l0.03504710644483566,0.208663672208786 m0.013954454101622105,0.037110280245542526 l0.147644504904747,0.18828123807907104 0.029591694474220276,0.20596179366111755 m0.11820589005947113,-0.029442351311445236 m0.038676198571920395,0.22184765338897705 l0.03290657326579094,0.21396341919898987 m0.16930410265922546,-0.08466014266014099 l0.15330855548381805,-0.09699209034442902 -0.014057773165404797,-0.10008376836776733 m0.009214880876243114,0.02696453034877777 l0.14172345399856567,0.13444370031356812 0.029864275828003883,0.20033831894397736 l0.027673784643411636,0.19902528822422028 -0.06024322658777237,0.1130475327372551 l0.08313606679439545,-0.01834735833108425 -0.14206993579864502,-0.07832273840904236 l-0.09016575664281845,0.005012234207242727 0.05330004170536995,0.11533496528863907 m0.03338562324643135,0.2034660130739212 m0.0745861753821373,0.0012146852677688003 m0.040407150983810425,0.22247374057769775 l0.011526341550052166,0.030968353152275085 0.09086047112941742,0.09255820512771606 m0.09540053457021713,-0.0025992237497121096 m0.1763971447944641,-0.0878036841750145 m0.04215480014681816,0.22441889345645905 l0.012548180297017097,0.030286651104688644 0.14493121206760406,-0.0986153781414032 l0.029665496200323105,0.19831658899784088 0.11550884693861008,-0.028254002332687378 m0.03454270586371422,0.20848877727985382 m0.037664465606212616,0.219859316945076 l0.14727497100830078,0.18989655375480652 m-0.09217458963394165,-0.05471210926771164 m0.004679640755057335,0.032210659235715866 l0.15425674617290497,-0.09640157967805862 0.1449223756790161,-0.10236530005931854 l0.030078375712037086,0.19590166211128235 0.09798362106084824,-0.0018347968580201268 l0.027510110288858414,0.1932951658964157 m0.15014396607875824,0.18888726830482483 l-0.05671709030866623,0.12080081552267075 0.13806243240833282,0.1319269835948944 l0.014523535035550594,0.026854930445551872 m-0.09641853719949722,-0.05912073701620102 l0.06611553579568863,0.001964953262358904 0.029635367915034294,0.19518312811851501 l0.1164390817284584,-0.028615031391382217 m0.07368947565555573,-0.0017041520914062858 m0.09595619887113571,-0.005524295382201672 m0.18142502009868622,-0.08866902440786362 l0.03629767894744873,0.21007299423217773 m0.0377548411488533,0.22096318006515503 l0.03260119631886482,0.2134636491537094 0.08191485702991486,-0.013493185862898827 l0.11503104865550995,-0.028758306056261063 m0.007871121168136597,0.02713123895227909 m-0.03177680820226669,0.08666546642780304 m0.040334075689315796,0.22259777784347534 l0.006465225480496883,0.12180569767951965 0.02987920120358467,0.20718826353549957 m0.00579384109005332,0.03164985030889511 l0.012704305350780487,0.029879512265324593 -0.012418408878147602,-0.09632371366024017 l0.13547195494174957,-0.10490351915359497 m0.019063234329223633,0.03233472630381584 l0.03212931752204895,0.19903700053691864 0.013956412672996521,0.02750079520046711 m0.034763045608997345,0.20945872366428375 m0.10786671936511993,0.09907498210668564 m-0.04897945374250412,0.14507074654102325 m0.15038183331489563,0.1557886153459549 l0.06076262891292572,0.01705949753522873 0.09771385788917542,-0.00555900763720274 l0.02905096299946308,0.20092909038066864 0.09715177118778229,-0.00017189225764013827 m-0.004629415459930897,0.12669290602207184 m0.03753964230418205,0.21867087483406067 m0.1192094162106514,-0.029448486864566803 l0.0347321443259716,0.21344223618507385 0.030032705515623093,0.20829559862613678 m-0.032352302223443985,0.09378985315561295 m-0.0504632405936718,0.14284782111644745 l0.09390926361083984,-0.004251004196703434 0.09707619994878769,-0.004596673417836428 m0.09686929732561111,-0.004104992374777794 l0.03225517272949219,0.2046840339899063 m-0.09405480325222015,-0.05673763155937195 l0.14849773049354553,-0.09916216880083084 m0.037322577089071274,0.21229514479637146 l-0.032171621918678284,0.09454524517059326 m0.16661231219768524,-0.08914545923471451 m0.09660155326128006,-0.008184145204722881 l0.15665100514888763,-0.09801410883665085 0.14653615653514862,-0.10351043194532394 m0.12012962251901627,-0.030337393283843994 l-0.031342826783657074,0.08983082324266434 m0.0068764337338507175,0.028635485097765923 m-0.031909894198179245,0.08523325622081757 l0.1537020355463028,-0.09642469882965088 -0.057811155915260315,0.11691713333129883 m-0.009499226696789265,-0.09726788848638535 m0.039398565888404846,0.21572324633598328 m0.1488616168498993,0.15320564806461334 l0.011725080199539661,0.030482694506645203 m0.14067234098911285,0.19601187109947205 m0.03974960744380951,0.22943809628486633 l0.009047625586390495,0.12154896557331085 0.02928352914750576,0.20908576250076294 m-0.1482144296169281,-0.06588124483823776 l-0.14466241002082825,-0.07108546793460846 -0.09058162569999695,-0.05045329034328461 l0.13240087032318115,-0.10605266690254211 0.05390346795320511,0.11248685419559479 m-0.007311717607080936,0.12653087079524994 m0.09309343993663788,-0.0037644319236278534 l0.1532217115163803,-0.09834189713001251 -0.1411120444536209,-0.07448548823595047 l0.13651269674301147,-0.1069267988204956 0.10005471110343933,-0.006396044045686722 l-0.060225918889045715,0.10824011266231537 m-0.032553959637880325,0.0879700779914856 m-0.03287029266357422,0.08689933270215988 m-0.08575588464736938,0.020769307389855385 l0.03423646092414856,0.20879508554935455 0.14227549731731415,-0.09753453731536865 l0.017144255340099335,0.02606077305972576 0.13525202870368958,-0.10371279716491699 l0.13684923946857452,0.12603427469730377 0.000763864372856915,0.11565826833248138 m0.07526523619890213,-0.0018431359203532338 m0.003645546268671751,0.028496336191892624 l0.0124270124360919,0.028270822018384933 m-0.14909328520298004,-0.066474050283432 m0.011328138411045074,0.03845247998833656 m0.004591781180351973,0.031917814165353775 m0.004628822673112154,0.03261909261345863 m0.11227934062480927,0.10389014333486557 l0.012425682507455349,0.040710996836423874 m0.1715231090784073,-0.0873403325676918 l0.11444497853517532,-0.029194971546530724 0.031249582767486572,0.2016099989414215 l-0.03193400427699089,0.09626029431819916 -0.03202877566218376,0.09635703265666962 l-0.08884251862764359,-0.04784002527594566 -0.0606968067586422,0.11001412570476532 " fill="none" stroke="black" stroke-width="1" /></svg>