<?xml version="1.0" encoding="utf-8" ?>
<svg baseProfile="full" height="115.76356688234955" version="1.1" width="110.92009376300848" xmlns="http://www.w3.org/2000/svg" xmlns:ev="http://www.w3.org/2001/xml-events" xmlns:xlink="http://www.w3.org/1999/xlink"><defs /><rect fill="white" height="115.76356688234955" width="110.92009376300848" x="0" y="0" /><path d="M25.084529833868146,25.031208600848913 m0.0,0.0 m0.06593240052461624,0.18207012116909027 l0.013780524954199791,0.1962563693523407 m-0.16424275934696198,-0.052693478763103485 m0.0728575587272644,-0.11264815181493759 l0.2333056926727295,-0.1644672006368637 0.20250366628170013,-0.04510509967803955 l0.23845121264457703,-0.034621160477399826 m-0.1834208369255066,0.3009119927883148 m0.18771807849407196,0.03610019385814667 l0.22468417882919312,-0.004235615022480488 0.14872562885284424,-0.03299619257450104 l0.3117466866970062,0.04326336830854416 0.47627174854278564,0.22271513938903809 l0.29355689883232117,0.09274949133396149 0.27608954906463623,0.11563963443040848 m0.2423994541168213,0.03405454754829407 l0.24858495593070984,0.16471126675605774 0.33489349484443665,-0.24460497498512268 m0.37030842900276184,0.329424649477005 l0.09966631978750229,0.285553902387619 m0.3904959261417389,0.15940804779529572 m0.3093368411064148,0.4900078773498535 l0.21441097557544708,0.3330139219760895 0.4640156030654907,0.23511488735675812 l0.25187748670578003,-0.17046402394771576 0.40815550088882446,0.27238553762435913 m0.43112459778785706,0.27196192741394043 l0.2827489674091339,0.7506385445594788 0.520508348941803,0.24358445405960083 l0.41772744059562683,0.22781012952327728 0.2130439132452011,0.44017791748046875 l0.31338921189308167,0.5142256617546082 0.4484357535839081,0.18832799792289734 l0.38485682010650635,0.23059730231761932 0.3746650815010071,0.23595978319644928 l0.4175279438495636,-0.19563288986682892 m0.45170265436172485,-0.19685165584087372 l0.3659467101097107,0.2464996576309204 -0.17408262193202972,0.36557531356811523 l-0.03160962834954262,0.21723449230194092 m-0.01158005278557539,0.21009187400341034 l0.6041836738586426,-0.1687501221895218 0.6211341619491577,-0.14559262990951538 l0.62630295753479,-0.10730133205652237 0.6214871406555176,-0.058261603116989136 l0.0937342569231987,-0.20205450057983398 0.4566410481929779,0.7084312438964844 m0.5519959926605225,0.1501089185476303 l0.5230148434638977,0.2067868858575821 m0.4913434684276581,0.2828497886657715 l0.46157994866371155,0.3374117910861969 0.4335419535636902,0.39259564876556396 m0.4069135785102844,0.45936235785484314 l0.38554105162620544,0.4982500374317169 0.3679349422454834,0.5341157913208008 l0.3529871106147766,0.5632123947143555 0.33983534574508667,0.5843888521194458 l0.32806652784347534,0.5962685346603394 0.31665048003196716,0.5985575318336487 l0.3058921694755554,0.5918652415275574 0.2953445613384247,0.5767056345939636 l0.2856282591819763,0.5538048148155212 0.27693867683410645,0.525454044342041 l0.26974809169769287,0.491839200258255 0.2646675407886505,0.45470187067985535 m0.259371280670166,0.4263519048690796 l0.2611589729785919,0.38015174865722656 0.2655719816684723,0.3323826789855957 l0.2720988988876343,0.28619328141212463 0.2812460958957672,0.241496279835701 l0.2924327850341797,0.19847355782985687 0.30507805943489075,0.15861299633979797 l0.31884855031967163,0.12246852368116379 0.33312758803367615,0.09078606218099594 l0.3473418951034546,0.0642663761973381 0.36095142364501953,0.042742207646369934 l0.373638778924942,0.02569734863936901 0.38478562235832214,0.012940728105604649 l0.3941086232662201,0.0032421830110251904 0.4015684425830841,-0.003482429776340723 m0.40656009316444397,-0.0010571129387244582 l0.4101063013076782,-0.003907684702426195 m0.4120355248451233,-0.0027592885307967663 m0.41178014874458313,0.0017808288102969527 l0.41139739751815796,-0.0011207623174414039 0.41049516201019287,-0.003382765455171466 l0.4074983596801758,-0.0013382727047428489 0.4028629660606384,0.004009566269814968 l0.9658491015434265,0.9742266535758972 0.3903498649597168,0.029561687260866165 l0.3797675669193268,0.03675317019224167 0.36989825963974,0.049706801772117615 l0.3586210310459137,0.06617561727762222 0.3461952209472656,0.08486650139093399 l0.3327852189540863,0.10543616116046906 0.3188129961490631,0.12739066779613495 l0.30481570959091187,0.15018483996391296 m0.29040244221687317,0.17769485712051392 l0.2772012948989868,0.19982858002185822 0.265249639749527,0.2213907092809677 m0.25459885597229004,0.24696016311645508 l0.7986197471618652,0.9357683062553406 0.2403232604265213,0.2926255166530609 m0.23186524212360382,0.3092714250087738 l0.226822167634964,0.32295846939086914 0.22376666963100433,0.335622638463974 m0.22257445752620697,0.35272952914237976 m0.221713125705719,0.36636054515838623 l0.2212684154510498,0.3733634948730469 0.2221250832080841,0.3793257474899292 l0.22326597571372986,0.3850487768650055 0.3763860762119293,0.3016509711742401 l0.22666247189044952,0.3881923258304596 0.2271392047405243,0.3861430883407593 l0.22802899777889252,0.38127952814102173 0.2287481427192688,0.3738974928855896 m0.23117034137248993,0.3711303174495697 l0.23078858852386475,0.35730817914009094 -0.07838413864374161,0.5397641062736511 l-0.08561597764492035,0.5147019624710083 -0.09232862293720245,0.4890134036540985 l-0.09836683422327042,0.4615826904773712 -0.10439205914735794,0.43416932225227356 l0.23129084706306458,0.2850821316242218 0.231622114777565,0.27574217319488525 l0.22913236916065216,0.2674647271633148 0.22553116083145142,0.2613750100135803 l-0.12864822149276733,0.2930629849433899 -0.13387635350227356,0.27010950446128845 l-0.13688434660434723,0.24822984635829926 0.4570046365261078,0.5947335362434387 m0.3225919306278229,0.3825233578681946 l-0.1303693801164627,0.19494830071926117 m0.2077033966779709,0.25711750984191895 l-0.10721304267644882,0.1388118416070938 0.3085595369338989,0.19697222113609314 l0.4117853045463562,0.5180707573890686 -0.08303099870681763,0.13134555518627167 l0.40637242794036865,0.4836708605289459 0.24091055989265442,0.20831793546676636 l-0.02640014886856079,0.3263905346393585 0.4008661210536957,0.42176011204719543 m0.289325088262558,0.20937106013298035 m0.0655222088098526,0.27035772800445557 l0.13992014527320862,0.27015939354896545 0.3919662535190582,0.3372279703617096 m-0.04748660326004028,0.2949405610561371 l0.3798699378967285,0.30954626202583313 0.24572233855724335,0.19712740182876587 l0.14249563217163086,0.029936350882053375 0.1345549076795578,0.033421590924263 l0.2236417531967163,0.09147533029317856 0.05015737563371658,0.10116381198167801 l0.3294207751750946,0.28945010900497437 0.32359713315963745,0.30070748925209045 l0.3181779980659485,0.31177303194999695 m0.20766735076904297,0.08308176696300507 l0.23490704596042633,0.3486344814300537 0.298467218875885,0.3412959575653076 l-0.0796375647187233,0.10630064457654953 0.209732323884964,0.05028749629855156 l0.27314668893814087,0.3661115765571594 m0.275558203458786,0.3833622932434082 l0.3529210388660431,0.2778237462043762 0.35752758383750916,0.283306360244751 m-0.07399660348892212,-0.007349779829382896 l0.027959713712334633,0.3457147777080536 m0.2336694896221161,0.4006805717945099 m-0.032879993319511414,0.22307446599006653 l0.0869331955909729,-0.06210437789559364 0.20282578468322754,0.3866884410381317 l0.1597910076379776,0.007751076947897673 -0.03773079067468643,0.08999620378017426 m0.21315234899520874,0.19195005297660828 m0.14222756028175354,0.012329199351370335 m0.20705223083496094,0.18645435571670532 m0.023325162008404732,0.09598078578710556 l0.2644248306751251,0.13620305061340332 0.09769653528928757,0.31011220812797546 l0.15684457123279572,0.09069601446390152 m0.13159793615341187,0.31955084204673767 l0.19646145403385162,0.17999859154224396 0.13780918717384338,0.0993930995464325 l0.10279475897550583,0.2911073565483093 -0.05245264992117882,0.07039955258369446 l-0.10612727701663971,0.09674002975225449 0.11835534870624542,0.09575243294239044 m0.09192033112049103,0.27037960290908813 l-0.1148693785071373,0.08098416775465012 0.004435258451849222,0.10606411844491959 l0.11008409410715103,0.09832270443439484 -0.02836398035287857,-0.022934282198548317 m0.20554883778095245,-0.03214269131422043 l0.09177746623754501,0.22902534902095795 0.07255027443170547,0.24435654282569885 m0.0025183451361954212,0.09904105216264725 l0.07263179868459702,0.24241359531879425 0.10489696264266968,0.10423075407743454 m0.06276924908161163,-0.06469175964593887 l0.11607878655195236,0.20058371126651764 -0.0816698670387268,0.09370393306016922 l-0.08322200179100037,0.09497009217739105 0.05276387929916382,-0.059961460530757904 l0.05401703342795372,-0.06022465601563454 m0.09924368560314178,0.2229871302843094 m0.10409055650234222,0.11854902654886246 l-0.08237708359956741,0.09584124386310577 m0.06425688415765762,-0.0655832588672638 l-0.00040185500984080136,0.10365374386310577 0.09199423342943192,0.12516358494758606 l0.05928570777177811,-0.04415445402264595 0.08939192444086075,0.12107830494642258 l0.0601489432156086,-0.039237674325704575 0.16776202619075775,0.14654308557510376 m0.003386514727026224,0.10261765122413635 m0.10556541383266449,0.22416497766971588 m0.15970346331596375,0.1698721945285797 l0.07687055319547653,0.2376948446035385 m0.13629184663295746,0.18205463886260986 l0.07495474070310593,0.23845966160297394 0.08613941818475723,0.22700245678424835 m0.0795677900314331,0.24615275859832764 l0.08977286517620087,0.22753486037254333 m-0.021174658089876175,0.060311004519462585 l0.09573205560445786,0.1292940229177475 m0.10390593111515045,0.11590233445167542 m0.08306775242090225,-0.018764007836580276 m0.1380269080400467,0.190546452999115 m0.10537978261709213,0.12244629114866257 l0.05810060724616051,-0.06483235210180283 0.1066294014453888,0.0957733541727066 l0.01932387426495552,-0.06022002547979355 m0.1020982563495636,0.12696631252765656 l0.13734813034534454,0.16097325086593628 0.06988497078418732,0.23932132124900818 l-0.013007419183850288,0.11432117223739624 m0.20167531073093414,-0.035466231405735016 m0.002258781809359789,0.09208132326602936 m0.10647769272327423,0.2232869267463684 l0.008276418782770634,0.10758650302886963 m0.10437703877687454,0.11633530259132385 m0.10491502285003662,0.22385470569133759 l0.10509814321994781,0.10929564386606216 0.07144642621278763,0.2360392063856125 l0.08338259905576706,-0.034759510308504105 0.06853225082159042,0.2391889989376068 l-0.11830054968595505,0.0625811219215393 m0.06145530194044113,-0.06378274410963058 l0.10516900569200516,0.09931133687496185 -0.08243607729673386,0.09491076320409775 l0.16514141857624054,0.1503249555826187 m0.06138250604271889,-0.04532350227236748 l0.08468012511730194,-0.032554563134908676 m-0.13186700642108917,0.0636620968580246 m0.13771149516105652,0.184688001871109 m-0.1332571655511856,0.06195935979485512 l0.1392168402671814,0.1702311784029007 -0.0818537026643753,0.09399260580539703 l0.05224399268627167,-0.06043777987360954 0.03377743437886238,0.04556182399392128 m0.06274622678756714,-0.06414800882339478 l0.08361299335956573,-0.03403283283114433 0.017696019262075424,-0.06245864927768707 m0.07916872948408127,0.2390325516462326 l0.13679541647434235,0.1613301783800125 -0.08181031048297882,0.09404259920120239 m0.20054973661899567,-0.037741098552942276 l0.16595834493637085,0.1540381759405136 0.004008106421679258,0.09860488772392273 m0.10383290797472,0.11255131661891937 l0.0036132733803242445,0.09787314385175705 0.1661675125360489,0.15391941368579865 l0.06914921849966049,0.24129490554332733 0.03385171666741371,0.049593668431043625 l0.08434727042913437,0.22626005113124847 -0.08279116451740265,0.09540360420942307 l0.06429507583379745,0.24338044226169586 -0.083489328622818,0.09673520177602768 m0.10221876204013824,0.11389011144638062 l0.16454310715198517,0.15664984285831451 m0.10429125279188156,0.11712147295475006 l-0.08205508440732956,0.09579376131296158 m-0.01981601119041443,0.061001893132925034 l0.088529072701931,0.22537043690681458 0.08550254255533218,0.22604531049728394 m0.16099844872951508,0.1657780110836029 m-0.03644458204507828,-0.02223232015967369 l0.10551240295171738,0.1045994833111763 0.08587013930082321,0.22489827871322632 l0.06815318763256073,0.2397037297487259 0.08458264172077179,0.2264757752418518 l-0.11747340112924576,0.06221849471330643 -0.0017088199965655804,0.05386054888367653 l-0.031603310257196426,-0.024119554087519646 0.0829680860042572,0.2251064032316208 m0.001343264477327466,0.0976228192448616 m0.014408760704100132,0.1000206246972084 l0.10548072308301926,0.10657310485839844 0.07038495689630508,0.23696862161159515 m0.10372289270162582,0.11668547987937927 l0.05668063834309578,-0.062226392328739166 0.13633909821510315,0.15439675748348236 l-0.08193927258253098,0.09344189614057541 -0.0028333452064543962,0.05304151773452759 m0.0024498056154698133,0.10180820524692535 l0.0032009046990424395,0.09806955605745316 0.06689666956663132,0.23851755261421204 l0.20297524333000183,-0.024829626083374023 0.01604040153324604,-0.06443388015031815 m0.001886530895717442,0.09310314804315567 l0.06033075228333473,-0.045681651681661606 0.056415166705846786,-0.06161326915025711 l0.08974196016788483,0.11976266652345657 -0.02988162636756897,-0.023898478597402573 l0.06599985063076019,0.23874934017658234 0.08377189189195633,-0.03163446485996246 l0.054689425975084305,-0.060055945068597794 m0.10455184429883957,0.10705024003982544 l0.1365608125925064,0.15897631645202637 0.10554996877908707,0.1005406305193901 m0.10419150441884995,0.11361850053071976 l-0.0034212227910757065,0.10851089656352997 0.2019052356481552,-0.02793295495212078 l0.07097355276346207,0.23943541944026947 m0.10083957016468048,0.22478510439395905 l0.10390514880418777,0.10819042474031448 m0.10368853062391281,0.11697802692651749 m0.011015056632459164,0.07992303371429443 m0.10424060374498367,0.20975756645202637 l0.02846997231245041,-0.051251452416181564 m0.10528922826051712,0.11241890490055084 l0.07420910149812698,0.23400349915027618 m0.023029400035738945,0.06337033957242966 m0.06590324640274048,-0.0670199915766716 l0.07519467920064926,0.23168417811393738 m0.02265247330069542,0.0632908046245575 m0.10429393500089645,0.22308014333248138 m0.1376633644104004,0.1918926239013672 l0.05724041163921356,-0.06429706513881683 0.08490549027919769,0.22448302805423737 l0.08328673243522644,-0.036798954010009766 m0.01412191055715084,0.08326223492622375 l0.0714121088385582,0.23708964884281158 0.10424468666315079,0.10161375999450684 m0.10057058185338974,0.22479908168315887 l0.09540057927370071,0.1273021697998047 m-0.12940724194049835,0.06199904903769493 m0.10364599525928497,0.1188632994890213 l0.16321900486946106,0.1604730635881424 m0.10500036925077438,0.1169733852148056 m0.13707111775875092,0.1880178600549698 m0.08326935768127441,-0.01952645555138588 l0.05843474715948105,-0.06487765908241272 -0.0341537743806839,-0.02360343746840954 l0.1059349849820137,0.09102886915206909 0.08291874080896378,0.22349956631660461 m0.026654183864593506,0.05935607850551605 m0.0658540278673172,-0.06659477204084396 l0.02472088299691677,-0.05591631680727005 0.10688779503107071,0.09374983608722687 l0.020015774294734,0.08856876194477081 0.08363432437181473,0.2242482304573059 l0.084326833486557,0.22560884058475494 0.06632565706968307,0.2452315241098404 l0.16772910952568054,0.15493759512901306 0.2053592950105667,-0.02072877064347267 m0.015313389711081982,0.0836060419678688 m-0.023822521790862083,0.060999639332294464 l0.16438975930213928,0.1569303572177887 m0.10548391193151474,0.12948548793792725 m-0.08616336435079575,0.1007312759757042 l0.09788624942302704,0.1307964324951172 m0.10468550026416779,0.11563204228878021 l0.1646990180015564,0.15982607007026672 0.13616280257701874,0.1569538414478302 l0.0850982666015625,0.2257651686668396 0.10358985513448715,0.10150565207004547 l0.0346214585006237,0.04754822328686714 -0.08308423310518265,0.09499094635248184 m0.16035835444927216,0.15938816964626312 l0.0716940313577652,0.2420194149017334 m0.10302804410457611,0.11892957985401154 m0.08466241508722305,0.24432289600372314 m0.08584409207105637,0.24289926886558533 l0.09191609174013138,0.22697314620018005 m0.10201968252658844,0.2259858101606369 m0.19787564873695374,-0.0441146120429039 m0.031008532270789146,0.0978836864233017 l0.10577890276908875,0.10550983995199203 0.08527158200740814,0.2246178835630417 l0.03213474527001381,0.049089450389146805 0.08316407352685928,-0.03599609434604645 m0.0016696928068995476,0.09426121413707733 l0.020923707634210587,-0.05804092437028885 0.10571592301130295,0.09388601034879684 l0.2026139795780182,-0.026660514995455742 0.08521898090839386,0.22407789528369904 l-0.11886293441057205,0.06319483369588852 -0.03139444813132286,-0.02399127185344696 l0.08314132690429688,0.22509726881980896 " fill="none" stroke="black" stroke-width="1" /></svg>