<?xml version="1.0" encoding="utf-8" ?>
<svg baseProfile="full" height="114.35702317632968" version="1.1" width="110.66000209978665" xmlns="http://www.w3.org/2000/svg" xmlns:ev="http://www.w3.org/2001/xml-events" xmlns:xlink="http://www.w3.org/1999/xlink"><defs /><rect fill="white" height="114.35702317632968" width="110.66000209978665" x="0" y="0" /><path d="M25,25.08861459372565 m0.0,0.0 m0.10278192162513733,-0.005599975120276213 l0.32481563091278076,-0.06808087974786758 -0.06297879666090012,-0.014933738857507706 m0.017635874450206757,0.4044225215911865 l0.23247335851192474,-0.16279377043247223 -0.18031108379364014,0.036116283386945724 m0.02525899186730385,0.4245012402534485 m0.15358027815818787,0.0774092748761177 m0.3139629364013672,-0.016334498301148415 l0.3167981803417206,0.005217741709202528 0.15022408962249756,-0.03246363624930382 l0.3138827085494995,0.043105386197566986 m0.32178568840026855,0.23142708837985992 m0.3217325806617737,-0.12036971002817154 l0.45689454674720764,0.22504709661006927 0.2688868045806885,0.13805736601352692 m0.26698532700538635,0.052777860313653946 l0.23819389939308167,0.19223450124263763 0.3258044719696045,-0.2559003233909607 l0.31621435284614563,-0.26480215787887573 0.3111077547073364,0.42849743366241455 l0.19751591980457306,0.311769038438797 m0.14092035591602325,0.3903641700744629 m0.3925577700138092,0.5218476057052612 m0.17459481954574585,0.42675551772117615 l0.1838235855102539,0.443717896938324 0.2702948749065399,0.7269118428230286 l0.41835418343544006,0.2505006194114685 0.0570838488638401,-0.01725246012210846 l0.2087005078792572,0.4441499710083008 m0.21507243812084198,0.43311452865600586 l-0.08883914351463318,0.4028964638710022 m0.4141651690006256,0.24546629190444946 l0.39522311091423035,0.23461425304412842 0.20941171050071716,0.40962693095207214 l0.36870697140693665,0.24514447152614594 0.21330980956554413,0.3782722055912018 m0.48934125900268555,-0.19796311855316162 l-0.046216338872909546,0.2365349382162094 m0.37868309020996094,0.26308557391166687 l0.3785094618797302,0.2513459324836731 0.46721145510673523,0.6092332601547241 m0.037214700132608414,0.1959974467754364 m0.6144534349441528,-0.07526840269565582 l0.4001922905445099,0.2601451575756073 m0.40333980321884155,0.23759521543979645 l0.581838846206665,0.07917409390211105 0.10878084599971771,-0.15808051824569702 l0.525046169757843,0.19747990369796753 0.4947021007537842,0.26497194170951843 l0.46263575553894043,0.32895007729530334 0.4331248700618744,0.3883794844150543 l0.4072656035423279,0.44216686487197876 0.3853243887424469,0.48952871561050415 l0.3673686981201172,0.5292516946792603 0.3525029718875885,0.5603302717208862 l0.3396737575531006,0.5822339653968811 0.32803118228912354,0.5946425795555115 l0.3169223964214325,0.5971670746803284 0.30621716380119324,0.5904543399810791 l0.2957279682159424,0.5751456618309021 0.28598693013191223,0.552513062953949 l0.27746695280075073,0.5238507390022278 m0.5509185194969177,0.6188800930976868 l0.26437893509864807,0.46209535002708435 0.2615686357021332,0.4174309968948364 l0.26255056262016296,0.37343692779541016 0.2664131224155426,0.3287211060523987 l0.2730730473995209,0.2839003801345825 m0.28025951981544495,0.24972222745418549 l0.2922358214855194,0.20475934445858002 0.3054773509502411,0.16098718345165253 l0.319440633058548,0.12352815270423889 0.33384907245635986,0.09187456965446472 l0.3480621576309204,0.0649680644273758 0.36142855882644653,0.04330834001302719 l0.37392163276672363,0.02654748037457466 m0.38393163681030273,0.02117075026035309 l0.3926091194152832,0.011323388665914536 0.40080922842025757,0.0007754286634735763 m0.40563198924064636,0.0018193688010796905 l0.4091462790966034,-0.0018063005991280079 0.9795315861701965,0.9409798979759216 l0.41292157769203186,-0.001931158360093832 0.410912424325943,-0.00580228678882122 l0.4098159968852997,-0.005061446223407984 0.4069020450115204,-0.0013952311128377914 l0.4021245837211609,0.004170934669673443 0.39620864391326904,0.011829456314444542 l0.3886910676956177,0.02187916450202465 0.37973666191101074,0.03420936316251755 l0.3696224093437195,0.04900409281253815 0.3579564690589905,0.06560119241476059 l0.3454117178916931,0.08491077274084091 0.3320164680480957,0.1055346354842186 l0.3180777430534363,0.1276129186153412 0.30380791425704956,0.150830939412117 l0.29020965099334717,0.17449109256267548 0.8304781317710876,0.9609293341636658 l0.26765257120132446,0.23023691773414612 0.2542873024940491,0.24716439843177795 l0.24487338960170746,0.26652559638023376 0.23740677535533905,0.2856021225452423 l0.2316133826971054,0.3033619523048401 m0.227809339761734,0.3235722780227661 l0.4103716015815735,0.32879167795181274 -0.019096972420811653,0.8149935007095337 l0.7498637437820435,0.843440592288971 0.22393910586833954,0.38119739294052124 l0.22250336408615112,0.38433837890625 0.22331316769123077,0.38811153173446655 l0.2245808243751526,0.3903234302997589 -0.02855294570326805,0.7046599984169006 l0.22570912539958954,0.3906219005584717 0.22749540209770203,0.3840998709201813 l0.7038841843605042,0.7412552833557129 0.23266588151454926,0.3723064363002777 m0.2331494688987732,0.3641399145126343 m0.2349323183298111,0.35523465275764465 l0.23373660445213318,0.33630603551864624 0.23467905819416046,0.32007691264152527 m0.24000060558319092,0.3149012625217438 l0.23656556010246277,0.29883599281311035 0.23539477586746216,0.28563693165779114 l-0.11221206933259964,0.3730648458003998 m0.23462969064712524,0.2770150601863861 l0.546858012676239,0.63340824842453 -0.12010002881288528,0.18908876180648804 l0.2142694741487503,0.2557227909564972 0.2096872627735138,0.25254982709884644 m0.2124173939228058,0.2602482736110687 l-0.1335347294807434,0.20753644406795502 m-0.1349707841873169,0.1999441385269165 l-0.12652438879013062,0.17636674642562866 0.10914716869592667,0.126238152384758 l-0.05274335667490959,0.2716926038265228 0.3009034991264343,0.2084200233221054 l0.4070393443107605,0.5013871788978577 0.2907578647136688,0.22328084707260132 m-0.04187852144241333,0.31695321202278137 l0.27113285660743713,0.3144772946834564 m-0.03647840395569801,0.33082836866378784 l0.037186142057180405,0.1634882539510727 0.14212240278720856,0.2694891691207886 l0.26363706588745117,0.20661787688732147 -0.03301245719194412,0.3100167512893677 l-0.03861922398209572,0.29423651099205017 0.24943608045578003,0.2008349895477295 l0.3674052953720093,0.29977741837501526 m0.3753887116909027,0.2970361113548279 m0.23124448955059052,0.12968838214874268 l0.005972576327621937,-0.09154105931520462 -0.14027410745620728,-0.12958839535713196 m0.1363694816827774,0.042221926152706146 l0.2557368278503418,0.2046445608139038 -0.08718103915452957,0.1322999894618988 l0.27530819177627563,0.22848060727119446 0.3015272319316864,0.3263095021247864 l0.2955778241157532,0.3408079445362091 m0.2107560932636261,0.07099369168281555 m0.11320359259843826,0.07314693927764893 l0.3121339976787567,0.307251513004303 m0.28051185607910156,0.3808559775352478 l0.2640435993671417,0.3860611021518707 -0.07162604480981827,-0.026241963729262352 l-0.07022252678871155,-0.011566968634724617 0.027802035212516785,-0.08919086307287216 l0.22225432097911835,0.3891529142856598 0.23156796395778656,0.28456878662109375 l0.27117982506752014,0.23792551457881927 0.35980501770973206,0.24285857379436493 l0.12055134028196335,-0.03668668121099472 m0.1962338089942932,0.3872332274913788 l0.17949658632278442,0.3785764276981354 m0.10143537074327469,0.3424972593784332 l-0.02273215726017952,0.11367413401603699 0.17143025994300842,0.1427178680896759 l0.04365909472107887,-0.024659913033246994 0.1394062638282776,0.20155511796474457 l0.02837137132883072,-0.018709681928157806 0.26935309171676636,0.07184430956840515 l-0.0026535363867878914,0.11352987587451935 m0.00363006629049778,0.1137983426451683 l0.05592711642384529,-0.024794958531856537 0.09604024142026901,0.26196154952049255 m0.0016811557579785585,0.10796556621789932 m-0.016843099147081375,0.07308799773454666 l-0.025723496451973915,-0.01970772072672844 m0.15726321935653687,0.17764775454998016 l0.09388957917690277,0.23862282931804657 0.0055543179623782635,0.10567419975996017 l0.0729641318321228,0.24875010550022125 m-0.08413903415203094,0.09845186769962311 l0.016926415264606476,0.09275511652231216 m0.08075010776519775,0.24653393030166626 l0.02902459353208542,0.058412689715623856 0.019490405917167664,0.09145873039960861 m0.07931958138942719,0.2442467361688614 m0.19927258789539337,-0.042429856956005096 l0.026934469118714333,-0.05528319627046585 0.07212293148040771,0.23378963768482208 m0.0113415801897645,0.10295785963535309 m0.08268782496452332,0.24156008660793304 l0.07340488582849503,0.23760397732257843 0.08321107923984528,-0.03307545185089111 l-0.011647263541817665,0.11053602397441864 m0.16066403687000275,0.16142244637012482 l0.16570442914962769,0.1580832302570343 m0.002454872475937009,0.096296526491642 l0.08979197591543198,0.22564104199409485 m-0.1291937232017517,0.06176159158349037 m0.08095916360616684,0.23981736600399017 m0.009627290070056915,0.08024203032255173 m0.003802363993600011,0.09409213066101074 l-0.08263737708330154,0.09589561820030212 0.05766294151544571,-0.05335108935832977 m-0.13077375292778015,0.06224915012717247 m0.1962142139673233,-0.04716778174042702 m0.034223515540361404,-0.04465211182832718 m0.08685159683227539,0.23238755762577057 l0.197210431098938,-0.03904164582490921 0.1999785155057907,-0.03224720060825348 l0.09288693964481354,0.1241762638092041 -0.11976221203804016,0.06239831820130348 l0.20308686792850494,-0.025816019624471664 m0.10423559695482254,0.10757529735565186 m0.06703852117061615,-0.06717795133590698 m-0.027476368471980095,0.06181468069553375 m0.1060907244682312,0.22196732461452484 l0.19762802124023438,-0.03819536045193672 m0.03251570463180542,-0.047400567680597305 l0.016654325649142265,0.08350976556539536 -0.08219926804304123,0.09318352490663528 m0.15906117856502533,0.16108684241771698 m0.06551647186279297,-0.06681577116250992 l0.0833938717842102,-0.03478441759943962 0.1067676991224289,0.09439656883478165 l0.06927024573087692,0.2360549420118332 0.05943034961819649,-0.04177752137184143 l0.20367348194122314,-0.024598589166998863 0.05479922890663147,-0.06094171479344368 l0.10554533451795578,0.0909879207611084 m0.08439484983682632,-0.022368717938661575 m-0.035189900547266006,-0.022143686190247536 l0.06005782634019852,-0.06469973176717758 m0.08310474455356598,-0.024746567010879517 l0.1381254345178604,0.16391441226005554 m-0.035440973937511444,-0.02245597541332245 l-0.00010516474139876664,0.10369762033224106 m-0.02012765221297741,0.060261502861976624 l0.1628604680299759,0.15663166344165802 -0.007755887694656849,0.05313600227236748 l0.10510342568159103,0.09643428027629852 m0.16141042113304138,0.1607036590576172 l0.0034830910153687,0.09829603135585785 0.08600770682096481,0.22550839185714722 m-0.018276620656251907,0.05892388895153999 l0.0033756711054593325,0.09887659549713135 0.2014208287000656,-0.028285911306738853 l0.05998828262090683,-0.04313817620277405 m0.20140866935253143,-0.037795890122652054 l0.05915427580475807,-0.06386495381593704 m-0.0345524363219738,-0.022610850632190704 l0.10629653930664062,0.09721993654966354 0.20113520324230194,-0.030298495665192604 l0.05524777993559837,-0.061953622847795486 m0.061440978199243546,-0.05153211951255798 m0.08310164511203766,-0.022516600787639618 m0.08670858293771744,0.2370169460773468 m0.019395694136619568,0.06892997026443481 l0.1061115637421608,0.10607096552848816 0.08327087759971619,-0.03805403411388397 m0.012454122304916382,0.09915308654308319 l0.1643594205379486,0.15638460218906403 m0.08169452100992203,0.24194489419460297 l0.20059722661972046,-0.031816888600587845 m0.16310198605060577,0.16312053799629211 m-0.03608225658535957,-0.021590985357761383 l-0.014524199068546295,0.05703792721033096 0.054617464542388916,-0.06260284781455994 l0.017397301271557808,-0.061636783182621 m0.09820538014173508,0.22173941135406494 l-0.12242673337459564,0.06313890218734741 0.05405868589878082,-0.06118111312389374 m0.0781354159116745,0.24013462662696838 m0.0661841407418251,-0.06628409773111343 l0.0746801495552063,0.23391447961330414 0.08613314479589462,0.2253853976726532 l0.10432136803865433,0.10202612727880478 0.08982886373996735,0.12344629317522049 l0.16802707314491272,0.15238364040851593 m0.1010730043053627,0.22527605295181274 l0.08516372740268707,-0.02882285788655281 m0.16256263852119446,0.16166675090789795 m0.16176991164684296,0.167362242937088 m0.003563353791832924,0.09344559162855148 m0.03751368448138237,-0.041291605681180954 l0.09014468640089035,0.22388046979904175 m0.021987702697515488,0.06394673883914948 l0.16388528048992157,0.15967848896980286 m0.06291019171476364,-0.06563901156187057 l0.05845427140593529,-0.05702230706810951 0.058497484773397446,-0.05278411880135536 l-0.12167730927467346,0.06368625164031982 0.20199935138225555,-0.027799319475889206 m-0.13108119368553162,0.06337516754865646 m0.06117754429578781,-0.054249342530965805 l0.059251461178064346,-0.05470579117536545 0.08498071879148483,0.22296439111232758 l-0.03133472800254822,-0.023594332858920097 0.10533330589532852,0.09362488985061646 m0.09947998821735382,0.22375865280628204 l0.16566437482833862,0.1575556993484497 0.10484558343887329,0.10299182683229446 l0.06964340060949326,0.24214106798171997 m0.08368624001741409,-0.018827170133590698 l0.089866042137146,0.22584952414035797 m0.20083202421665192,-0.038242630660533905 m0.16192500293254852,0.16506685316562653 l-0.12332408130168915,0.062833271920681 -0.08264251798391342,0.09411034733057022 m0.06040823087096214,-0.05144990235567093 m0.06671928614377975,-0.06729401648044586 l0.07459787279367447,0.23104381561279297 0.16528895497322083,0.15508010983467102 m0.08077050745487213,0.2431139349937439 l-0.12128353863954544,0.061937570571899414 m-0.037887152284383774,-0.022832658141851425 l0.07067746669054031,0.23414133489131927 0.06756890565156937,0.23763583600521088 m0.15997539460659027,0.165965735912323 m0.15992221236228943,0.16978506743907928 m0.1980762630701065,-0.04474005103111267 m-0.08537144958972931,0.09998966753482819 l-0.015721816569566727,0.057956136763095856 0.005094726569950581,0.09856641292572021 l-0.010335049591958523,0.10970094799995422 0.059218112379312515,-0.04225361347198486 m0.07763277739286423,0.2417910248041153 l0.07060358673334122,0.23994295299053192 m0.10355733335018158,0.1293218731880188 l0.08405234664678574,-0.030463766306638718 m0.16140663623809814,0.16212870180606842 m0.03362419828772545,-0.0454714260995388 l0.07583626359701157,0.23311224579811096 0.07042799890041351,0.23602692782878876 m0.0790439248085022,0.24390611052513123 l0.07160787284374237,0.24088309705257416 0.06878086179494858,0.24177615344524384 m-0.018435852602124214,0.05953482165932655 m0.10321911424398422,0.12060626596212387 l0.19910258054733276,-0.0347878634929657 -0.010449486784636974,0.053668342530727386 m0.07991071790456772,0.23994840681552887 l0.003995649516582489,0.09934882819652557 0.1046433374285698,0.10005070269107819 m-0.01884930394589901,0.058839350938797 l0.08858396112918854,0.22513681650161743 m0.0796043649315834,0.24352233111858368 m0.10337819904088974,0.12413427978754044 m0.10674560815095901,0.22485290467739105 l0.00510211568325758,0.09968913346529007 m0.197981059551239,-0.042245958000421524 l0.16588017344474792,0.15776896476745605 m0.08370281755924225,0.24028728902339935 m-0.027057895436882973,0.061592359095811844 m0.06655087321996689,-0.06797443330287933 l0.005349618848413229,0.09471037238836288 m0.1972719430923462,-0.044681333005428314 l0.1067095398902893,0.09923204034566879 0.0853000208735466,0.22371867299079895 l0.10452660173177719,0.09913329780101776 -0.08219721913337708,0.0936628133058548 l0.08295351266860962,0.22526220977306366 0.0652725100517273,0.24418707191944122 l0.204750657081604,-0.021335773169994354 m0.16360554099082947,0.1593284159898758 m0.10383428633213043,0.12061212211847305 m-0.02782052755355835,0.06185118108987808 m0.10495389997959137,0.12123067677021027 l0.07623642683029175,0.23320156335830688 m0.08193981647491455,0.23966820538043976 m0.10517521947622299,0.2249426245689392 l0.09102731198072433,0.226588636636734 -0.0814012959599495,0.09350204467773438 l0.05133538320660591,-0.06020684540271759 0.08229748904705048,0.22471396625041962 l-0.0830359011888504,0.0951552540063858 m0.061625998467206955,-0.04251881688833237 l0.10524657368659973,0.09989959001541138 0.09142418205738068,0.12252635508775711 l0.1051291823387146,0.0977267175912857 0.16792960464954376,0.1504313349723816 l0.0029891186859458685,0.1002875342965126 0.20452134311199188,-0.02298482321202755 l0.06984509527683258,0.24316777288913727 m0.20328745245933533,-0.03397195413708687 l-0.03012821450829506,-0.023004041984677315 m0.08122865855693817,0.24171076714992523 l-0.03289147466421127,-0.022713730111718178 " fill="none" stroke="black" stroke-width="1" /></svg>